# 3ds Max Wavefront OBJ Exporter v0.94b - (c)2007 guruware
# File Created: 01.03.2011 16:19:34

mtllib world03_road_09.mtl

#
# object world03_road_09
#

v  68.8807 0.0150 -10.4649
v  97.7430 0.0150 0.9573
v  88.6406 0.0150 4.3809
v  119.1922 0.0150 -41.6889
v  136.3418 0.0150 -20.6777
# 5 vertices

vn 0.0000 -1.0000 -0.0000
# 1 vertex normals

vt 0.6725 0.4607 0.0000
vt 0.7447 0.5036 0.0000
vt 0.7219 0.5165 0.0000
vt 0.7984 0.3434 0.0000
vt 0.8414 0.4223 0.0000
# 5 texture coords

g world03_road_09
usemtl world01_map03
s 1
f 1/1/1 2/2/1 3/3/1 
f 4/4/1 5/5/1 2/2/1 
f 2/2/1 1/1/1 4/4/1 
# 3 faces

