# 3ds Max Wavefront OBJ Exporter v0.94b - (c)2007 guruware
# File Created: 04.05.2011 13:13:15

mtllib world03_hiddenroad_336b.mtl

#
# object world03_hiddenroad_336b
#

v  29.0096 -0.1850 -100.5793
v  55.9266 -0.1850 -85.4929
v  42.9057 -0.1850 -67.5566
v  13.4220 -0.1850 -82.8529
# 4 vertices

vn 0.0000 -1.0000 -0.0000
# 1 vertex normals

vt 0.6475 0.8348 0.0000
vt 0.7149 0.8915 0.0000
vt 0.6823 0.9589 0.0000
vt 0.6085 0.9014 0.0000
# 4 texture coords

g world03_hiddenroad_336b
usemtl world01_map03
s 1
f 1/1/1 2/2/1 3/3/1 
f 3/3/1 4/4/1 1/1/1 
# 2 faces

