# 3ds Max Wavefront OBJ Exporter v0.94b - (c)2007 guruware
# File Created: 01.03.2011 10:19:07

mtllib world03_road_02.mtl

#
# object world03_road_02
#

v  -138.6927 0.0150 -42.0311
v  -138.9913 0.0150 -75.4664
v  -77.4192 0.0150 -40.4438
v  -94.4399 0.0150 -18.6132
# 4 vertices

vn 0.0000 -1.0000 -0.0000
# 1 vertex normals

vt 0.1527 0.3421 0.0000
vt 0.1520 0.2166 0.0000
vt 0.3062 0.3481 0.0000
vt 0.2635 0.4301 0.0000
# 4 texture coords

g world03_road_02
usemtl world01_map03
s 1
f 1/1/1 2/2/1 3/3/1 
f 3/3/1 4/4/1 1/1/1 
# 2 faces

