# 3ds Max Wavefront OBJ Exporter v0.94b - (c)2007 guruware
# File Created: 01.03.2011 09:48:28

mtllib world03_hiddenroad_335.mtl

#
# object world03_hiddenroad_335
#

v  -21.7023 -0.0210 3.4242
v  -47.8600 -0.0210 3.4675
v  -47.8600 -0.0210 -73.3836
v  -21.5530 -0.0210 -73.3831
# 4 vertices

vn 0.0000 -1.0000 -0.0000
# 1 vertex normals

vt 0.4457 0.3408 0.0000
vt 0.3802 0.3409 0.0000
vt 0.3802 0.0523 0.0000
vt 0.4460 0.0523 0.0000
# 4 texture coords

g world03_hiddenroad_335
usemtl world01_map03
s 1
f 1/1/1 2/2/1 3/3/1 
f 3/3/1 4/4/1 1/1/1 
# 2 faces

