# 3ds Max Wavefront OBJ Exporter v0.94b - (c)2007 guruware
# File Created: 01.03.2011 10:17:40

mtllib world03_road_10.mtl

#
# object world03_road_10
#

v  191.4814 0.0150 -51.5840
v  183.7197 0.0150 -81.7356
v  199.6913 0.0150 -81.7355
v  199.6913 0.0150 -51.1362
v  136.3418 0.0150 -20.6777
v  119.1922 0.0150 -41.6889
v  212.9849 0.0150 -81.7355
v  212.9849 0.0150 -51.1362
# 8 vertices

vn -0.0000 -1.0000 -0.0000
vn 0.0000 -1.0000 -0.0000
# 2 vertex normals

vt 0.2125 0.8599 0.0000
vt 0.1931 0.7467 0.0000
vt 0.2331 0.7467 0.0000
vt 0.2331 0.8616 0.0000
vt 0.0745 0.9760 0.0000
vt 0.0315 0.8971 0.0000
vt 0.2656 0.7471 0.0000
vt 0.2656 0.8620 0.0000
# 8 texture coords

g world03_road_10
usemtl world01_map03
s 1
f 1/1/1 2/2/2 3/3/2 
f 3/3/2 4/4/1 1/1/1 
f 1/1/1 5/5/2 6/6/2 
f 6/6/2 2/2/2 1/1/1 
s off
f 4/4/2 3/3/2 7/7/2 
f 7/7/2 8/8/2 4/4/2 
# 6 faces

