# 3ds Max Wavefront OBJ Exporter v0.94b - (c)2007 guruware
# File Created: 01.03.2011 10:20:06

mtllib world03_road_01_alpha.mtl

#
# object world03_road_01_alpha
#

v  -170.3369 0.0150 29.3176
v  -181.9796 0.0150 4.8381
v  -172.1281 0.0150 -2.0281
v  -128.8413 0.0150 1.2558
v  -164.0678 0.0150 -27.1046
v  -197.9672 0.0150 -21.2628
v  -198.7968 0.0150 -28.4964
v  -177.8002 0.0150 -54.2708
v  -153.6193 0.0150 -34.5678
v  -138.6927 0.0150 -42.0311
v  -138.9913 0.0150 -75.4664
# 11 vertices

vn 0.0000 -1.0000 -0.0000
# 1 vertex normals

vt 0.5002 1.0000 0.0000
vt 0.5002 0.0000 0.0000
vt 0.6252 0.0000 0.0000
vt 0.6252 1.0000 0.0000
vt 0.7502 1.0000 0.0000
vt 0.7265 0.0000 0.0000
vt 0.7695 0.0000 0.0000
vt 0.8752 0.0000 0.0000
vt 0.8752 1.0000 0.0000
vt 1.0002 1.0000 0.0000
vt 1.0002 0.0000 0.0000
# 11 texture coords

g world03_road_01_alpha
usemtl alpha_gradient
s 1
f 1/1/1 2/2/1 3/3/1 
f 3/3/1 4/4/1 1/1/1 
f 5/5/1 6/6/1 7/7/1 
f 5/5/1 7/7/1 8/8/1 
f 8/8/1 9/9/1 5/5/1 
f 10/10/1 9/9/1 8/8/1 
f 8/8/1 11/11/1 10/10/1 
f 5/5/1 4/4/1 3/3/1 
f 3/3/1 6/6/1 5/5/1 
# 9 faces

