# 3ds Max Wavefront OBJ Exporter v0.94b - (c)2007 guruware
# File Created: 01.03.2011 10:18:22

mtllib world03_road_07.mtl

#
# object world03_road_07
#

v  127.2975 0.0150 56.4838
v  156.5534 0.0150 83.9486
v  88.1798 0.0150 85.1617
v  88.4899 0.0150 56.2569
v  130.8798 0.0150 53.7971
v  183.4211 0.0150 53.2000
v  118.0430 0.0150 46.9309
v  136.8504 0.0150 24.8396
# 8 vertices

vn 0.0000 -1.0000 -0.0000
# 1 vertex normals

vt 0.8187 0.7121 0.0000
vt 0.8920 0.8153 0.0000
vt 0.7208 0.8198 0.0000
vt 0.7216 0.7113 0.0000
vt 0.8277 0.7021 0.0000
vt 0.9593 0.6998 0.0000
vt 0.7956 0.6763 0.0000
vt 0.8427 0.5933 0.0000
# 8 texture coords

g world03_road_07
usemtl world01_map03
s 1
f 1/1/1 2/2/1 3/3/1 
f 3/3/1 4/4/1 1/1/1 
f 5/5/1 6/6/1 2/2/1 
f 2/2/1 1/1/1 5/5/1 
f 5/5/1 7/7/1 8/8/1 
f 8/8/1 6/6/1 5/5/1 
# 6 faces

