# 3ds Max Wavefront OBJ Exporter v0.94b - (c)2007 guruware
# File Created: 10.08.2010 13:04:11

mtllib world03_building09_origin.mtl

#
# object world03_building09
#

v  -23.1678 0.0000 -12.6171
v  23.1678 0.0000 -12.6171
v  23.1678 -0.0000 12.6171
v  -23.1678 -0.0000 12.6171
# 4 vertices

vn 0.0000 -1.0000 -0.0000
# 1 vertex normals

vt 0.8661 0.7774 0.0000
vt 0.9748 0.7774 0.0000
vt 0.9748 0.8366 0.0000
vt 0.8661 0.8366 0.0000
# 4 texture coords

g world03_building09
usemtl world01_map02
s 1
f 1/1/1 2/2/1 3/3/1 
f 3/3/1 4/4/1 1/1/1 
# 2 faces

