# 3ds Max Wavefront OBJ Exporter v0.94b - (c)2007 guruware
# File Created: 01.03.2011 14:34:42

mtllib world03_grass08b.mtl

#
# object world03_grass08b
#

v  14.5538 -0.1000 -61.9224
v  58.2670 -0.1000 -26.7678
v  25.8801 -0.1000 -3.6587
v  -34.6779 -0.1000 -21.7152
# 4 vertices

vn 0.0000 -1.0000 -0.0000
# 1 vertex normals

vt 0.8741 0.5050 0.0000
vt 0.9767 0.5875 0.0000
vt 0.9007 0.6418 0.0000
vt 0.7585 0.5994 0.0000
# 4 texture coords

g world03_grass08b
usemtl world01_map02
s 1
f 1/1/1 2/2/1 3/3/1 
f 3/3/1 4/4/1 1/1/1 
# 2 faces

