# 3ds Max Wavefront OBJ Exporter v0.94b - (c)2007 guruware
# File Created: 09.03.2011 16:05:25

mtllib world03_grass08.mtl

#
# object world03_grass08
#

v  17.4073 0.0050 40.7375
v  55.5083 0.0050 11.3925
v  59.0755 0.0050 62.3694
v  70.4650 0.0050 11.8578
v  131.3979 0.0050 48.8201
v  78.5759 0.0050 62.8616
# 6 vertices

vn 0.0000 -1.0000 -0.0000
# 1 vertex normals

vt 0.5134 0.2927 0.0000
vt 0.6028 0.2244 0.0000
vt 0.6112 0.3441 0.0000
vt 0.6379 0.2255 0.0000
vt 0.7810 0.3123 0.0000
vt 0.6570 0.3453 0.0000
# 6 texture coords

g world03_grass08
usemtl world01_map02
s 1
f 1/1/1 2/2/1 3/3/1 
f 4/4/1 5/5/1 6/6/1 
f 4/4/1 6/6/1 3/3/1 
f 3/3/1 2/2/1 4/4/1 
# 4 faces

