# 3ds Max Wavefront OBJ Exporter v0.94b - (c)2007 guruware
# File Created: 01.03.2011 14:11:18

mtllib world03_grass06.mtl

#
# object world03_grass06
#

v  43.3460 0.0050 101.7867
v  73.1328 0.0050 74.2146
v  89.0910 0.0050 130.3659
v  102.6126 0.0050 76.0293
v  161.7823 0.0050 109.3969
# 5 vertices

vn 0.0000 -1.0000 -0.0000
# 1 vertex normals

vt 0.2202 0.2597 0.0000
vt 0.2901 0.1949 0.0000
vt 0.3276 0.3267 0.0000
vt 0.3593 0.1992 0.0000
vt 0.4982 0.2775 0.0000
# 5 texture coords

g world03_grass06
usemtl world01_map02
s 1
f 1/1/1 2/2/1 3/3/1 
f 4/4/1 5/5/1 3/3/1 
f 2/2/1 4/4/1 3/3/1 
# 3 faces

