# 3ds Max Wavefront OBJ Exporter v0.94b - (c)2007 guruware
# File Created: 04.05.2011 13:14:19

mtllib world03_hiddenroad_336_alpha.mtl

#
# object world03_hiddenroad_336_alpha
#

v  -26.1474 -0.1850 -83.9286
v  2.5986 -0.1850 -98.8421
v  15.6194 -0.1850 -80.9058
v  -11.8474 -0.1850 -65.5113
# 4 vertices

vn -0.0000 -1.0000 -0.0000
vn 0.0000 -1.0000 -0.0000
# 2 vertex normals

vt 0.5000 0.0000 0.0000
vt 1.0000 0.0000 0.0000
vt 1.0000 1.0000 0.0000
vt 0.5000 1.0000 0.0000
# 4 texture coords

g world03_hiddenroad_336_alpha
usemtl alpha_gradient
s 1
f 1/1/1 2/2/2 3/3/1 
f 3/3/1 4/4/1 1/1/1 
# 2 faces

