# 3ds Max Wavefront OBJ Exporter v0.94b - (c)2007 guruware
# File Created: 01.03.2011 11:31:18

mtllib world03_grass02.mtl

#
# object world03_grass02
#

v  -163.9181 0.0050 -18.5827
v  -104.1114 0.0050 -61.5822
v  -48.2152 0.0050 -8.9220
v  -110.6881 0.0050 22.1614
# 4 vertices

vn 0.0000 -1.0000 -0.0000
# 1 vertex normals

vt 0.2051 0.4330 0.0000
vt 0.3455 0.3321 0.0000
vt 0.4767 0.4557 0.0000
vt 0.3301 0.5286 0.0000
# 4 texture coords

g world03_grass02
usemtl world01_map02
s 1
f 1/1/1 2/2/1 3/3/1 
f 3/3/1 4/4/1 1/1/1 
# 2 faces

