# 3ds Max Wavefront OBJ Exporter v0.94b - (c)2007 guruware
# File Created: 28.02.2011 17:32:04

mtllib world03_grass07.mtl

#
# object world03_grass07
#

v  125.3559 0.0050 27.1406
v  181.7571 0.0050 -9.9052
v  158.2392 0.0050 54.4349
v  212.5939 0.0050 14.5200
v  212.5939 0.0050 43.3835
# 5 vertices

vn 0.0000 -1.0000 -0.0000
# 1 vertex normals

vt 0.7668 0.2774 0.0000
vt 0.8992 0.1905 0.0000
vt 0.8440 0.3415 0.0000
vt 0.9716 0.2478 0.0000
vt 0.9716 0.3156 0.0000
# 5 texture coords

g world03_grass07
usemtl world01_map02
s 1
f 1/1/1 2/2/1 3/3/1 
f 4/4/1 5/5/1 3/3/1 
f 3/3/1 2/2/1 4/4/1 
# 3 faces

