# 3ds Max Wavefront OBJ Exporter v0.94b - (c)2007 guruware
# File Created: 08.04.2011 13:44:04

mtllib world03_hiddenroad_01_alpha.mtl

#
# object world03_hiddenroad_01_alpha
#

v  -30.5790 0.0150 -83.0295
v  12.2003 0.0150 -105.2236
v  25.2212 0.0150 -87.2873
v  -16.5368 0.0150 -63.8829
# 4 vertices

vn 0.0000 -1.0000 -0.0000
# 1 vertex normals

vt 0.5000 0.0000 0.0000
vt 1.0000 0.0000 0.0000
vt 1.0000 1.0000 0.0000
vt 0.5000 1.0000 0.0000
# 4 texture coords

g world03_hiddenroad_01_alpha
usemtl alpha_gradient
s 1
f 1/1/1 2/2/1 3/3/1 
f 3/3/1 4/4/1 1/1/1 
# 2 faces

