# 3ds Max Wavefront OBJ Exporter v0.94b - (c)2007 guruware
# File Created: 01.03.2011 09:48:37

mtllib world03_hiddenroad_33.mtl

#
# object _world03_hiddenroad_33
#

v  50.1435 -0.0200 -3.3001
v  49.9942 -0.0200 -69.4209
v  75.6408 -0.0200 -69.4209
v  75.4916 -0.0200 -3.3001
# 4 vertices

vn 0.0000 -1.0000 -0.0000
# 1 vertex normals

vt 0.6256 0.3155 0.0000
vt 0.6252 0.0672 0.0000
vt 0.6894 0.0672 0.0000
vt 0.6890 0.3155 0.0000
# 4 texture coords

g _world03_hiddenroad_33
usemtl world01_map03
s 1
f 1/1/1 2/2/1 3/3/1 
f 3/3/1 4/4/1 1/1/1 
# 2 faces

