# 3ds Max Wavefront OBJ Exporter v0.94b - (c)2007 guruware
# File Created: 01.08.2011 15:17:18

mtllib world03_background_details.mtl

#
# object world03_background_details
#

v  -184.4099 -0.2692 71.8909
v  -141.6254 -0.2692 71.8909
v  -141.6254 -0.2692 119.9962
v  -184.4099 -0.2692 113.6893
v  -140.6359 -0.2692 -144.9984
v  -97.8514 -0.2692 -144.9984
v  -97.8514 -0.2692 -96.8930
v  -140.6359 -0.2692 -103.2000
v  78.8602 -0.2692 -113.7855
v  121.6447 -0.2692 -113.7855
v  121.6447 -0.2692 -65.6801
v  78.8602 -0.2692 -71.8624
v  104.8700 -0.2692 -22.2391
v  147.6545 -0.2692 -22.2391
v  147.6545 -0.2692 25.8662
v  104.8700 -0.2692 19.5592
v  132.4006 -0.2692 67.6831
v  175.1851 -0.2692 67.6831
v  175.1851 -0.2692 115.7885
v  132.4006 -0.2692 109.4815
# 20 vertices

vn 0.0000 -1.0000 -0.0000
vn -0.0000 -1.0000 -0.0000
# 2 vertex normals

vt 0.3270 0.5295 0.0000
vt 0.4275 0.5295 0.0000
vt 0.4275 0.6424 0.0000
vt 0.3270 0.6276 0.0000
vt 0.3270 0.6279 0.0000
# 5 texture coords

g world03_background_details
usemtl world01_map02
s 1
f 1/1/1 2/2/1 3/3/1 
f 3/3/1 4/4/1 1/1/1 
f 5/1/1 6/2/1 7/3/1 
f 7/3/1 8/4/1 5/1/1 
f 9/1/1 10/2/1 11/3/1 
f 11/3/1 12/5/1 9/1/1 
f 13/1/1 14/2/1 15/3/1 
f 15/3/1 16/4/1 13/1/1 
f 17/1/2 18/2/1 19/3/2 
f 19/3/2 20/4/2 17/1/2 
# 10 faces

