# 3ds Max Wavefront OBJ Exporter v0.94b - (c)2007 guruware
# File Created: 01.03.2011 09:48:18

mtllib world03_hiddenroad_32.mtl

#
# object world03_hiddenroad_32
#

v  -51.7655 -0.0200 11.5502
v  -51.7220 -0.0200 -7.8587
v  52.5496 -0.0200 -7.4226
v  52.7001 -0.0200 11.4012
# 4 vertices

vn 0.0000 -1.0000 -0.0000
# 1 vertex normals

vt 0.3704 0.3713 0.0000
vt 0.3705 0.2984 0.0000
vt 0.6316 0.3000 0.0000
vt 0.6320 0.3707 0.0000
# 4 texture coords

g world03_hiddenroad_32
usemtl world01_map03
s 1
f 1/1/1 2/2/1 3/3/1 
f 3/3/1 4/4/1 1/1/1 
# 2 faces

