# 3ds Max Wavefront OBJ Exporter v0.94b - (c)2007 guruware
# File Created: 02.03.2011 15:55:07

mtllib world03_building11.mtl

#
# object world03_building11
#

v  -28.6148 -0.2000 -51.4996
v  59.3947 -0.2000 -51.4996
v  59.3947 -0.2000 30.0338
v  -28.6148 -0.2000 30.0338
# 4 vertices

vn -0.0000 -1.0000 -0.0000
# 1 vertex normals

vt 0.2530 0.8077 0.0000
vt 0.4596 0.8077 0.0000
vt 0.4596 0.9991 0.0000
vt 0.2530 0.9991 0.0000
# 4 texture coords

g world03_building11
usemtl world01_map02
s 1
f 1/1/1 2/2/1 3/3/1 
f 3/3/1 4/4/1 1/1/1 
# 2 faces

