# 3ds Max Wavefront OBJ Exporter v0.94b - (c)2007 guruware
# File Created: 02.03.2011 16:00:02

mtllib world03_building12.mtl

#
# object world03_building12
#

v  -32.9800 -0.2000 -35.8292
v  42.1066 -0.2000 -35.8292
v  42.1066 -0.2000 33.2562
v  -32.9800 -0.2000 33.2562
# 4 vertices

vn 0.0000 -1.0000 -0.0000
# 1 vertex normals

vt 0.8232 0.8372 0.0000
vt 0.9995 0.8372 0.0000
vt 0.9995 0.9993 0.0000
vt 0.8232 0.9993 0.0000
# 4 texture coords

g world03_building12
usemtl world01_map02
s 1
f 1/1/1 2/2/1 3/3/1 
f 3/3/1 4/4/1 1/1/1 
# 2 faces

