# 3ds Max Wavefront OBJ Exporter v0.94b - (c)2007 guruware
# File Created: 01.03.2011 11:20:52

mtllib world03_grass05.mtl

#
# object world03_grass05
#

v  -92.2742 0.0050 96.4245
v  -43.5201 0.0050 71.5054
v  -25.2712 0.0050 124.9802
v  -5.3970 0.0050 71.7459
v  45.2276 0.0050 90.4602
# 5 vertices

vn 0.0000 -1.0000 -0.0000
# 1 vertex normals

vt 0.4568 0.4109 0.0000
vt 0.5713 0.3524 0.0000
vt 0.6141 0.4779 0.0000
vt 0.6608 0.3529 0.0000
vt 0.7796 0.3968 0.0000
# 5 texture coords

g world03_grass05
usemtl world01_map02
s 1
f 1/1/1 2/2/1 3/3/1 
f 2/2/1 4/4/1 3/3/1 
f 4/4/1 5/5/1 3/3/1 
# 3 faces

