# 3ds Max Wavefront OBJ Exporter v0.94b - (c)2007 guruware
# File Created: 01.03.2011 16:19:43

mtllib world03_road_08.mtl

#
# object world03_road_08
#

v  68.8807 0.0150 -10.4649
v  88.6406 0.0150 4.3809
v  47.5900 0.0150 2.7484
v  97.7430 0.0150 0.9573
v  136.8504 0.0150 24.8396
v  118.0430 0.0150 46.9309
v  70.8054 0.0150 17.3073
# 7 vertices

vn 0.0000 -1.0000 -0.0000
# 1 vertex normals

vt 0.6725 0.4607 0.0000
vt 0.7219 0.5165 0.0000
vt 0.6192 0.5103 0.0000
vt 0.7447 0.5036 0.0000
vt 0.8427 0.5933 0.0000
vt 0.7956 0.6763 0.0000
vt 0.6773 0.5650 0.0000
# 7 texture coords

g world03_road_08
usemtl world01_map03
s 1
f 1/1/1 2/2/1 3/3/1 
f 2/2/1 4/4/1 5/5/1 
f 5/5/1 6/6/1 7/7/1 
f 2/2/1 5/5/1 7/7/1 
f 2/2/1 7/7/1 3/3/1 
# 5 faces

