# 3ds Max Wavefront OBJ Exporter v0.94b - (c)2007 guruware
# File Created: 11.08.2011 11:16:59

mtllib world08_background_main.mtl

#
# object world08_background_main_IPAD
#

v  -213.0040 0.0250 159.7530
v  -213.0040 0.0250 -159.7530
v  213.0040 0.0250 159.7530
v  213.0040 0.0250 -159.7530
# 4 vertices

vn 0.0000 -1.0000 -0.0000
# 1 vertex normals

vt 0.0000 1.0000 0.0000
vt 0.0000 0.0000 0.0000
vt 1.0000 1.0000 0.0000
vt 1.0000 0.0000 0.0000
# 4 texture coords

g world08_background_main_IPAD
usemtl world06_map01
s 1
f 1/1/1 2/2/1 3/3/1 
f 4/4/1 3/3/1 2/2/1 
# 2 faces

