# 3ds Max Wavefront OBJ Exporter v0.94b - (c)2007 guruware
# File Created: 08.12.2010 16:03:19

mtllib world05_building01.mtl

#
# object world05_building01
#

v  -49.8745 0.0000 -52.6116
v  49.8745 0.0000 -52.6117
v  49.8745 -0.0000 52.6117
v  -49.8745 -0.0000 52.6116
# 4 vertices

vn -0.0000 -1.0000 -0.0000
# 1 vertex normals

vt 0.0011 0.7516 0.0000
vt 0.2353 0.7516 0.0000
vt 0.2353 0.9986 0.0000
vt 0.0011 0.9986 0.0000
# 4 texture coords

g world05_building01
usemtl world05_map02
s 1
f 1/1/1 2/2/1 3/3/1 
f 3/3/1 4/4/1 1/1/1 
# 2 faces

