# 3ds Max Wavefront OBJ Exporter v0.94b - (c)2007 guruware
# File Created: 27.04.2011 10:44:17

mtllib world05_hiddenroad_787.mtl

#
# object world05_hiddenroad_787
#

v  -102.6752 0.0000 -32.2542
v  -61.6399 0.0000 -39.7373
v  -61.6400 0.0000 -27.5130
v  -102.6752 0.0000 -20.1075
# 4 vertices

vn 0.0000 -1.0000 0.0000
# 1 vertex normals

vt 0.7998 0.8692 0.0000
vt 0.7811 0.7151 0.0000
vt 0.8117 0.7151 0.0000
vt 0.8302 0.8692 0.0000
# 4 texture coords

g world05_hiddenroad_787
usemtl world05_map03
s 1
f 1/1/1 2/2/1 3/3/1 
f 3/3/1 4/4/1 1/1/1 
# 2 faces

