# 3ds Max Wavefront OBJ Exporter v0.94b - (c)2007 guruware
# File Created: 29.06.2011 14:46:21

mtllib world05_building08.mtl

#
# object world05_building08
#

v  -44.2917 -0.2000 41.8222
v  44.2917 -0.2000 -5.1067
v  44.2917 -0.2000 41.8222
v  -44.2917 -0.2000 -41.8222
v  -5.4283 -0.2000 -41.8222
# 5 vertices

vn 0.0000 -1.0000 -0.0000
# 1 vertex normals

vt 0.3369 0.7515 0.0000
vt 0.5448 0.6413 0.0000
vt 0.5448 0.7515 0.0000
vt 0.3369 0.5551 0.0000
vt 0.4281 0.5551 0.0000
# 5 texture coords

g world05_building08
usemtl world05_map02
s 1
f 1/1/1 2/2/1 3/3/1 
f 1/1/1 4/4/1 5/5/1 
f 1/1/1 5/5/1 2/2/1 
# 3 faces

