# 3ds Max Wavefront OBJ Exporter v0.94b - (c)2007 guruware
# File Created: 29.06.2011 14:52:22

mtllib world05_grass12.mtl

#
# object world05_grass12
#

v  150.9460 -0.2000 -43.1754
v  180.8567 -0.2000 -70.7493
v  214.1674 -0.2000 -48.9832
v  214.1674 -0.2000 -20.9602
v  185.5538 -0.2000 -20.9602
# 5 vertices

vn 0.0000 -1.0000 -0.0000
vn -0.0000 -1.0000 -0.0000
# 2 vertex normals

vt 0.7477 0.0694 0.0000
vt 0.8179 0.0047 0.0000
vt 0.8961 0.0558 0.0000
vt 0.8961 0.1216 0.0000
vt 0.8290 0.1216 0.0000
# 5 texture coords

g world05_grass12
usemtl world05_map02
s 1
f 1/1/1 2/2/1 3/3/1 
f 1/1/1 3/3/1 4/4/1 
f 5/5/2 1/1/1 4/4/1 
# 3 faces

