# 3ds Max Wavefront OBJ Exporter v0.94b - (c)2007 guruware
# File Created: 15.03.2011 13:23:45

mtllib world05_grass06.mtl

#
# object world05_grass06
#

v  46.1755 0.0050 0.0625
v  71.5816 0.0050 -46.3166
v  134.8636 0.0050 -18.5318
v  103.8573 0.0050 -0.2007
v  28.7194 0.0050 -12.9120
# 5 vertices

vn 0.0000 -1.0000 -0.0000
# 1 vertex normals

vt 0.3226 0.2698 0.0000
vt 0.3822 0.1610 0.0000
vt 0.5307 0.2262 0.0000
vt 0.4580 0.2692 0.0000
vt 0.2816 0.2394 0.0000
# 5 texture coords

g world05_grass06
usemtl world05_map02
s 1
f 1/1/1 2/2/1 3/3/1 
f 3/3/1 4/4/1 1/1/1 
f 1/1/1 5/5/1 2/2/1 
# 3 faces

