# 3ds Max Wavefront OBJ Exporter v0.94b - (c)2007 guruware
# File Created: 07.12.2010 17:11:14

mtllib world05_road_10_alpha.mtl

#
# object world05_road_10_alpha
#

v  -86.1714 0.0150 -71.1002
v  -87.5178 0.0150 -96.5159
v  -47.5287 0.0150 -96.7360
v  -47.3994 0.0150 -66.7712
v  0.6632 0.0150 -97.0397
v  0.1332 0.0150 -66.2862
v  -123.2716 0.0150 -78.9108
v  -115.5994 0.0150 -96.3614
# 8 vertices

vn -0.0000 -1.0000 -0.0000
vn 0.0000 -1.0000 -0.0000
# 2 vertex normals

vt 0.6363 1.0000 0.0000
vt 0.6309 0.0000 0.0000
vt 0.8252 0.0000 0.0000
vt 0.8257 1.0000 0.0000
vt 1.0000 0.0000 0.0000
vt 1.0000 1.0000 0.0000
vt 0.5000 1.0000 0.0000
vt 0.5000 0.0000 0.0000
# 8 texture coords

g world05_road_10_alpha
usemtl alpha_gradient
s 1
f 1/1/1 2/2/1 3/3/1 
f 3/3/1 4/4/2 1/1/1 
f 4/4/2 3/3/1 5/5/2 
f 5/5/2 6/6/2 4/4/2 
f 1/1/1 7/7/2 8/8/2 
f 8/8/2 2/2/1 1/1/1 
# 6 faces

