# 3ds Max Wavefront OBJ Exporter v0.94b - (c)2007 guruware
# File Created: 07.12.2010 17:13:37

mtllib world05_hiddenroad_52_alpha.mtl

#
# object world05_hiddenroad_52_alpha
#

v  -57.5541 -0.0200 -21.3496
v  -37.8059 -0.0200 -36.7355
v  -63.1488 -0.0200 -56.6844
v  -107.2130 -0.0200 -21.5604
# 4 vertices

vn 0.0000 -1.0000 -0.0000
# 1 vertex normals

vt 1.0000 1.0000 0.0000
vt 1.0000 0.0000 0.0000
vt 0.5000 0.0000 0.0000
vt 0.5000 1.0000 0.0000
# 4 texture coords

g world05_hiddenroad_52_alpha
usemtl alpha_gradient
s 1
f 3/3/1 2/2/1 1/1/1 
f 1/1/1 4/4/1 3/3/1 
# 2 faces

