# 3ds Max Wavefront OBJ Exporter v0.94b - (c)2007 guruware
# File Created: 26.08.2010 17:29:13

mtllib world05_grass02.mtl

#
# object world05_grass02
#

v  -162.3300 0.0050 33.9328
v  -42.4698 0.0050 33.9328
v  -42.4698 0.0050 89.7442
v  -162.3300 0.0050 89.7442
# 4 vertices

vn 0.0000 -1.0000 -0.0000
# 1 vertex normals

vt 0.0009 0.1394 0.0000
vt 0.2823 0.1394 0.0000
vt 0.2823 0.2704 0.0000
vt 0.0009 0.2704 0.0000
# 4 texture coords

g world05_grass02
usemtl world01_map02
s 1
f 1/1/1 2/2/1 3/3/1 
f 3/3/1 4/4/1 1/1/1 
# 2 faces

