# 3ds Max Wavefront OBJ Exporter v0.94b - (c)2007 guruware
# File Created: 08.12.2010 16:04:10

mtllib world05_building04.mtl

#
# object world05_building04
#

v  -41.7080 0.0000 -38.3912
v  41.7080 0.0000 -38.3912
v  41.7080 -0.0000 38.3911
v  -41.7080 -0.0000 38.3911
# 4 vertices

vn -0.0000 -1.0000 -0.0000
# 1 vertex normals

vt 0.0017 0.3146 0.0000
vt 0.0017 0.0013 0.0000
vt 0.1940 0.0013 0.0000
vt 0.1940 0.3146 0.0000
# 4 texture coords

g world05_building04
usemtl world05_map03
s 1
f 1/1/1 2/2/1 3/3/1 
f 3/3/1 4/4/1 1/1/1 
# 2 faces

