# 3ds Max Wavefront OBJ Exporter v0.94b - (c)2007 guruware
# File Created: 01.03.2011 16:20:26

mtllib world05_node01.mtl

#
# object world05_node01
#

v  -154.1683 -0.0100 -3.4330
v  -111.0398 -0.0100 -3.4331
v  -111.0399 -0.0100 23.8489
v  -154.1683 -0.0100 23.8489
# 4 vertices

vn -0.0000 -1.0000 -0.0000
# 1 vertex normals

vt 0.5343 0.1498 0.0000
vt 0.6355 0.1498 0.0000
vt 0.6355 0.2139 0.0000
vt 0.5343 0.2139 0.0000
# 4 texture coords

g world05_node01
usemtl world05_map02
s 1
f 1/1/1 2/2/1 3/3/1 
f 3/3/1 4/4/1 1/1/1 
# 2 faces

