# 3ds Max Wavefront OBJ Exporter v0.94b - (c)2007 guruware
# File Created: 15.03.2011 13:33:19

mtllib world05_hiddenroad_50_alpha.mtl

#
# object world05_hiddenroad_50_alpha
#

v  -183.3804 -0.0200 -33.2252
v  -61.8627 -0.0200 -33.1044
v  -62.6677 -0.0200 -9.7934
v  -183.3801 -0.0200 -10.0616
v  141.6022 -0.0200 30.0392
v  147.3025 -0.0200 52.5267
v  140.5963 -0.0200 50.7830
v  135.1642 -0.0200 33.1457
v  107.4675 -0.0200 50.7830
v  108.6747 -0.0200 33.0786
v  152.9714 -0.0200 30.0392
v  152.7889 -0.0200 52.5265
v  -11.1640 -0.0200 -5.7696
v  45.4967 -0.0200 -6.0378
v  45.4967 -0.0200 18.9093
v  -20.0162 -0.0200 18.6410
# 16 vertices

vn 0.0000 -1.0000 -0.0000
# 1 vertex normals

vt 0.5002 0.0000 0.0000
vt 0.7670 0.0000 0.0000
vt 0.7653 1.0000 0.0000
vt 0.5002 1.0000 0.0000
vt 0.8726 0.0000 0.0000
vt 0.9356 1.0000 0.0000
vt 0.8615 1.0000 0.0000
vt 0.8015 0.0000 0.0000
vt 0.5000 1.0000 0.0000
vt 0.5000 0.0000 0.0000
vt 1.0000 0.0000 0.0000
vt 1.0000 1.0000 0.0000
vt 0.8763 0.0000 0.0000
vt 1.0002 0.0000 0.0000
vt 1.0002 1.0000 0.0000
vt 0.8572 1.0000 0.0000
# 16 texture coords

g world05_hiddenroad_50_alpha
usemtl alpha_gradient
s 1
f 1/1/1 2/2/1 3/3/1 
f 3/3/1 4/4/1 1/1/1 
f 5/5/1 6/6/1 7/7/1 
f 7/7/1 8/8/1 5/5/1 
f 9/9/1 10/10/1 8/8/1 
f 8/8/1 7/7/1 9/9/1 
f 11/11/1 12/12/1 6/6/1 
f 6/6/1 5/5/1 11/11/1 
f 13/13/1 14/14/1 15/15/1 
f 15/15/1 16/16/1 13/13/1 
f 13/13/1 16/16/1 3/3/1 
f 3/3/1 2/2/1 13/13/1 
# 12 faces

