# 3ds Max Wavefront OBJ Exporter v0.94b - (c)2007 guruware
# File Created: 29.06.2011 13:18:15

mtllib world05_road_13.mtl

#
# object world05_road_13
#

v  171.2202 0.0150 -2.1000
v  123.7172 0.0150 -30.2827
v  143.3950 0.0150 -55.9265
v  189.7938 0.0150 -28.2828
v  213.1350 0.0150 -14.4423
v  213.1350 0.0150 22.7350
# 6 vertices

vn 0.0000 -1.0000 -0.0000
# 1 vertex normals

vt 0.9287 0.4921 0.0000
vt 0.8098 0.3863 0.0000
vt 0.8590 0.2900 0.0000
vt 0.9752 0.3938 0.0000
vt 0.9046 0.5056 0.0000
vt 0.9046 0.6452 0.0000
vt 0.8021 0.5531 0.0000
vt 0.8469 0.4531 0.0000
# 8 texture coords

g world05_road_13
usemtl world05_map03
s 1
f 1/1/1 2/2/1 3/3/1 
f 3/3/1 4/4/1 1/1/1 
f 5/5/1 6/6/1 1/7/1 
f 1/7/1 4/8/1 5/5/1 
# 4 faces

