# 3ds Max Wavefront OBJ Exporter v0.94b - (c)2007 guruware
# File Created: 29.06.2011 14:48:48

mtllib world05_building06.mtl

#
# object world05_building06
#

v  -30.9872 -0.2000 -38.0110
v  30.9872 -0.2000 -38.0110
v  30.9873 -0.2000 38.0110
v  -30.9872 -0.2000 38.0110
# 4 vertices

vn 0.0000 -1.0000 -0.0000
# 1 vertex normals

vt 0.0009 0.5712 0.0000
vt 0.1464 0.5712 0.0000
vt 0.1464 0.7496 0.0000
vt 0.0009 0.7496 0.0000
# 4 texture coords

g world05_building06
usemtl world05_map02
s 1
f 1/1/1 2/2/1 3/3/1 
f 3/3/1 4/4/1 1/1/1 
# 2 faces

