# 3ds Max Wavefront OBJ Exporter v0.94b - (c)2007 guruware
# File Created: 22.12.2010 15:35:53

mtllib world05_grass09.mtl

#
# object world05_grass09
#

v  -199.8010 0.0050 -133.6424
v  -90.2254 0.0050 -133.6424
v  -90.2254 0.0050 -83.0053
v  -199.8010 0.0050 -83.0053
# 4 vertices

vn 0.0000 -1.0000 -0.0000
# 1 vertex normals

vt 0.2825 0.4154 0.0000
vt 0.5397 0.4154 0.0000
vt 0.5397 0.5343 0.0000
vt 0.2825 0.5343 0.0000
# 4 texture coords

g world05_grass09
usemtl world05_map02
s 1
f 1/1/1 2/2/1 3/3/1 
f 3/3/1 4/4/1 1/1/1 
# 2 faces

