# 3ds Max Wavefront OBJ Exporter v0.94b - (c)2007 guruware
# File Created: 15.03.2011 10:06:59

mtllib world05_road_12.mtl

#
# object world05_road_12
#

v  123.7172 0.0150 -30.2827
v  80.8230 0.0150 -55.7311
v  98.5975 0.0150 -82.6163
v  143.3950 0.0150 -55.9265
# 4 vertices

vn 0.0000 -1.0000 -0.0000
# 1 vertex normals

vt 0.8098 0.3863 0.0000
vt 0.7024 0.2907 0.0000
vt 0.7469 0.1897 0.0000
vt 0.8590 0.2900 0.0000
# 4 texture coords

g world05_road_12
usemtl world05_map03
s 1
f 1/1/1 2/2/1 3/3/1 
f 3/3/1 4/4/1 1/1/1 
# 2 faces

