# 3ds Max Wavefront OBJ Exporter v0.94b - (c)2007 guruware
# File Created: 01.03.2011 13:48:19

mtllib world05_grass03.mtl

#
# object world05_grass03
#

v  -61.1798 0.0050 46.3227
v  49.2313 0.0050 46.3227
v  49.2313 0.0050 107.5150
v  -61.1798 0.0050 90.1632
v  -30.4755 0.0050 107.5150
# 5 vertices

vn 0.0000 -1.0000 -0.0000
# 1 vertex normals

vt 0.1948 0.2710 0.0000
vt 0.4540 0.2710 0.0000
vt 0.4540 0.4146 0.0000
vt 0.1948 0.3739 0.0000
vt 0.2669 0.4146 0.0000
# 5 texture coords

g world05_grass03
usemtl world05_map02
s 1
f 1/1/1 2/2/1 3/3/1 
f 4/4/1 1/1/1 3/3/1 
f 4/4/1 3/3/1 5/5/1 
# 3 faces

