# 3ds Max Wavefront OBJ Exporter v0.94b - (c)2007 guruware
# File Created: 08.12.2010 16:03:40

mtllib world04_helico.mtl

#
# object world04_helico
#

v  -32.1713 0.0000 -23.3896
v  32.1713 0.0000 -23.3896
v  32.1713 -0.0000 23.3897
v  -32.1713 -0.0000 23.3897
# 4 vertices

vn 0.0000 -1.0000 -0.0000
# 1 vertex normals

vt 0.1317 0.4149 0.0000
vt 0.2821 0.4149 0.0000
vt 0.2821 0.5249 0.0000
vt 0.1317 0.5249 0.0000
# 4 texture coords

g world04_helico
usemtl world05_map02
s 1
f 1/1/1 2/2/1 3/3/1 
f 3/3/1 4/4/1 1/1/1 
# 2 faces

