# 3ds Max Wavefront OBJ Exporter v0.94b - (c)2007 guruware
# File Created: 22.12.2010 14:44:33

mtllib world05_grass05.mtl

#
# object world05_grass05
#

v  122.7706 0.0050 22.9560
v  200.4347 0.0050 22.9560
v  200.4347 0.0050 76.5822
v  122.7706 0.0050 76.5822
# 4 vertices

vn 0.0000 -1.0000 -0.0000
# 1 vertex normals

vt 0.4595 0.2820 0.0000
vt 0.6418 0.2820 0.0000
vt 0.6418 0.4078 0.0000
vt 0.4595 0.4079 0.0000
# 4 texture coords

g world05_grass05
usemtl world05_map02
s 1
f 1/1/1 2/2/1 3/3/1 
f 3/3/1 4/4/1 1/1/1 
# 2 faces

