# 3ds Max Wavefront OBJ Exporter v0.94b - (c)2007 guruware
# File Created: 29.06.2011 11:29:53

mtllib world05_road_13_alpha.mtl

#
# object world05_road_13_alpha
#

v  171.2202 0.0150 -2.1000
v  123.7172 0.0150 -30.2827
v  143.3950 0.0150 -55.9265
v  189.7938 0.0150 -28.2828
v  213.1350 0.0150 -14.4423
v  213.1349 0.0150 22.7350
# 6 vertices

vn 0.0000 -1.0000 0.0000
vn 0.0000 -1.0000 -0.0000
# 2 vertex normals

vt 0.7657 1.0000 0.0000
vt 0.5000 1.0000 0.0000
vt 0.5000 0.0000 0.0000
vt 0.8328 0.0000 0.0000
vt 1.0000 0.0000 0.0000
vt 1.0000 1.0000 0.0000
# 6 texture coords

g world05_road_13_alpha
usemtl alpha_gradient
s 1
f 1/1/1 2/2/2 3/3/2 
f 3/3/2 4/4/1 1/1/1 
f 5/5/1 6/6/2 1/1/1 
f 1/1/1 4/4/1 5/5/1 
# 4 faces

