# 3ds Max Wavefront OBJ Exporter v0.94b - (c)2007 guruware
# File Created: 22.12.2010 14:27:58

mtllib world05_building07.mtl

#
# object world05_building07
#

v  -40.4258 -0.2000 -43.7998
v  40.4258 -0.2000 -43.7998
v  40.4258 -0.2000 43.7998
v  -40.4258 -0.2000 43.7998
# 4 vertices

vn -0.0000 -1.0000 -0.0000
vn 0.0000 -1.0000 -0.0000
# 2 vertex normals

vt 0.1473 0.5458 0.0000
vt 0.3371 0.5458 0.0000
vt 0.3371 0.7514 0.0000
vt 0.1473 0.7514 0.0000
# 4 texture coords

g world05_building07
usemtl world05_map02
s 1
f 1/1/1 2/2/1 3/3/1 
f 3/3/1 4/4/2 1/1/1 
# 2 faces

