# 3ds Max Wavefront OBJ Exporter v0.94b - (c)2007 guruware
# File Created: 27.04.2011 10:44:58

mtllib world05_hiddenroad_787_alpha.mtl

#
# object world05_hiddenroad_787_alpha
#

v  -61.6400 0.0000 -27.5130
v  -102.6752 0.0000 -20.1075
v  -102.6752 0.0000 -32.2542
v  -61.6399 0.0000 -39.7373
# 4 vertices

vn 0.0000 -1.0000 0.0000
vn 0.0000 -1.0000 -0.0000
# 2 vertex normals

vt 0.5000 1.0000 0.0000
vt 1.0000 1.0000 0.0000
vt 1.0000 0.0000 0.0000
vt 0.5000 0.0000 0.0000
# 4 texture coords

g world05_hiddenroad_787_alpha
usemtl alpha_gradient
s 1
f 1/1/1 2/2/2 3/3/2 
f 3/3/2 4/4/1 1/1/1 
# 2 faces

