# 3ds Max Wavefront OBJ Exporter v0.94b - (c)2007 guruware
# File Created: 08.12.2010 16:03:12

mtllib world05_building03.mtl

#
# object world05_building03
#

v  -51.1128 0.0000 -46.2904
v  51.1128 0.0000 -46.2904
v  51.1128 -0.0000 46.2904
v  -51.1128 -0.0000 46.2904
# 4 vertices

vn 0.0000 -1.0000 -0.0000
# 1 vertex normals

vt 0.7574 0.7820 0.0000
vt 0.9974 0.7820 0.0000
vt 0.9974 0.9992 0.0000
vt 0.7575 0.9993 0.0000
# 4 texture coords

g world05_building03
usemtl world05_map02
s 1
f 1/1/1 2/2/1 3/3/1 
f 3/3/1 4/4/1 1/1/1 
# 2 faces

