# 3ds Max Wavefront OBJ Exporter v0.94b - (c)2007 guruware
# File Created: 15.03.2011 13:36:24

mtllib world05_road_03_alpha.mtl

#
# object world05_road_03_alpha
#

v  -9.4021 0.0150 53.3261
v  -83.4387 0.0150 53.0386
v  -77.7483 0.0150 26.9309
v  -9.1372 0.0150 27.1643
# 4 vertices

vn 0.0000 -1.0000 -0.0000
# 1 vertex normals

vt 1.0000 1.0000 0.0000
vt 0.5000 1.0000 0.0000
vt 0.5000 0.0000 0.0000
vt 1.0000 0.0000 0.0000
# 4 texture coords

g world05_road_03_alpha
usemtl alpha_gradient
s 1
f 1/1/1 2/2/1 3/3/1 
f 3/3/1 4/4/1 1/1/1 
# 2 faces

