# 3ds Max Wavefront OBJ Exporter v0.94b - (c)2007 guruware
# File Created: 15.03.2011 10:11:20

mtllib world05_road_10b.mtl

#
# object world05_road_10b
#

v  -6.1695 0.0150 -92.1992
v  21.8650 0.0150 -65.6180
v  -22.9906 0.0150 -31.9763
v  -52.6567 0.0150 -55.0871
# 4 vertices

vn -0.0000 -1.0000 -0.0000
vn 0.0000 -1.0000 -0.0000
# 2 vertex normals

vt 0.8967 0.0163 0.0000
vt 0.9669 0.1162 0.0000
vt 0.8546 0.2425 0.0000
vt 0.7803 0.1557 0.0000
# 4 texture coords

g world05_road_10b
usemtl world05_map03
s 1
f 1/1/1 2/2/1 3/3/1 
f 3/3/1 4/4/2 1/1/1 
# 2 faces

