# 3ds Max Wavefront OBJ Exporter v0.94b - (c)2007 guruware
# File Created: 26.08.2010 17:32:42

mtllib world04_node10.mtl

#
# object world04_node10
#

v  112.9684 -0.0100 -55.0177
v  155.5228 -0.0100 -55.0177
v  155.5228 -0.0100 -27.4716
v  112.9685 -0.0100 -27.4716
# 4 vertices

vn 0.0000 -1.0000 -0.0000
# 1 vertex normals

vt 0.6650 0.0657 0.0000
vt 0.7649 0.0657 0.0000
vt 0.7649 0.1300 0.0000
vt 0.6650 0.1299 0.0000
# 4 texture coords

g world04_node10
usemtl world01_map02
s 1
f 1/1/1 2/2/1 3/3/1 
f 3/3/1 4/4/1 1/1/1 
# 2 faces

