# 3ds Max Wavefront OBJ Exporter v0.94b - (c)2007 guruware
# File Created: 15.03.2011 13:27:13

mtllib world05_road_12_alpha.mtl

#
# object world05_road_12_alpha
#

v  123.7172 0.0150 -30.2827
v  80.8230 0.0150 -55.7311
v  98.5975 0.0150 -82.6163
v  143.3950 0.0150 -55.9265
# 4 vertices

vn 0.0000 -1.0000 -0.0000
# 1 vertex normals

vt 1.0000 1.0000 0.0000
vt 0.5000 1.0000 0.0000
vt 0.5000 0.0000 0.0000
vt 1.0000 0.0000 0.0000
# 4 texture coords

g world05_road_12_alpha
usemtl alpha_gradient
s 1
f 1/1/1 2/2/1 3/3/1 
f 3/3/1 4/4/1 1/1/1 
# 2 faces

