# 3ds Max Wavefront OBJ Exporter v0.94b - (c)2007 guruware
# File Created: 22.12.2010 14:56:54

mtllib world05_building11.mtl

#
# object world05_building11
#

v  -54.4250 -0.2000 -41.2656
v  54.4250 -0.2000 -41.2656
v  54.4250 -0.2000 41.2656
v  -54.4250 -0.2000 41.2656
# 4 vertices

vn 0.0000 -1.0000 -0.0000
# 1 vertex normals

vt 0.5474 0.5885 0.0000
vt 0.8029 0.5885 0.0000
vt 0.8029 0.7822 0.0000
vt 0.5474 0.7822 0.0000
# 4 texture coords

g world05_building11
usemtl world05_map02
s 1
f 1/1/1 2/2/1 3/3/1 
f 3/3/1 4/4/1 1/1/1 
# 2 faces

