# 3ds Max Wavefront OBJ Exporter v0.94b - (c)2007 guruware
# File Created: 04.07.2011 15:35:48

mtllib world05_road_09b.mtl

#
# object world05_road_09b
#

v  -120.3457 -0.1000 -75.5015
v  -135.7222 -0.1000 -84.7606
v  -121.0881 -0.1000 -102.8912
v  -102.8363 -0.1000 -91.6654
v  -151.0987 -0.1000 -94.2917
v  -139.3399 -0.1000 -114.1171
# 6 vertices

vn 0.0000 -1.0000 -0.0000
# 1 vertex normals

vt 0.7350 0.1583 0.0000
vt 0.6965 0.1236 0.0000
vt 0.7332 0.0555 0.0000
vt 0.7789 0.0976 0.0000
vt 0.6580 0.0878 0.0000
vt 0.6875 0.0133 0.0000
# 6 texture coords

g world05_road_09b
usemtl world05_map03
s 1
f 1/1/1 2/2/1 3/3/1 
f 3/3/1 4/4/1 1/1/1 
f 2/2/1 5/5/1 3/3/1 
f 5/5/1 6/6/1 3/3/1 
# 4 faces

