# 3ds Max Wavefront OBJ Exporter v0.94b - (c)2007 guruware
# File Created: 07.12.2010 17:13:53

mtllib world05_hiddenroad_56_alpha.mtl

#
# object world05_hiddenroad_56_alpha
#

v  142.0062 -0.0200 -4.9647
v  179.5610 -0.0200 -32.8646
v  178.7563 -0.0200 1.2050
v  107.3128 -0.0200 -4.8683
v  105.4162 -0.0200 -1.0698
v  149.2489 -0.0200 18.1046
v  45.4967 -0.0200 -4.6965
v  46.3310 -0.0200 -4.6988
v  59.9878 -0.0200 -1.0698
v  45.4967 -0.0200 18.1047
# 10 vertices

vn 0.0000 -1.0000 -0.0000
# 1 vertex normals

vt 0.8627 0.0000 0.0000
vt 1.0002 0.0000 0.0000
vt 1.0002 1.0000 0.0000
vt 0.7372 0.0000 0.0000
vt 0.7303 0.0000 0.0000
vt 0.8888 1.0000 0.0000
vt 0.5002 0.0000 0.0000
vt 0.5167 0.0000 0.0000
vt 0.5661 0.0000 0.0000
vt 0.5002 1.0000 0.0000
# 10 texture coords

g world05_hiddenroad_56_alpha
usemtl alpha_gradient
s 1
f 1/1/1 2/2/1 3/3/1 
f 4/4/1 1/1/1 3/3/1 
f 5/5/1 4/4/1 3/3/1 
f 5/5/1 3/3/1 6/6/1 
f 7/7/1 8/8/1 9/9/1 
f 10/10/1 7/7/1 9/9/1 
f 6/6/1 10/10/1 9/9/1 
f 5/5/1 6/6/1 9/9/1 
# 8 faces

