# 3ds Max Wavefront OBJ Exporter v0.94b - (c)2007 guruware
# File Created: 07.12.2010 17:11:20

mtllib world05_road_11_alpha.mtl

#
# object world05_road_11_alpha
#

v  64.1327 0.0150 -65.6332
v  0.1332 0.0150 -66.2862
v  0.6632 0.0150 -97.0397
v  73.6167 0.0150 -97.4995
v  98.5975 0.0150 -82.6163
v  80.8230 0.0150 -55.7311
# 6 vertices

vn 0.0000 -1.0000 -0.0000
# 1 vertex normals

vt 0.8483 1.0000 0.0000
vt 0.5000 1.0000 0.0000
vt 0.5000 0.0000 0.0000
vt 0.8472 0.0000 0.0000
vt 1.0000 0.0000 0.0000
vt 1.0000 1.0000 0.0000
# 6 texture coords

g world05_road_11_alpha
usemtl alpha_gradient
s 1
f 1/1/1 2/2/1 3/3/1 
f 3/3/1 4/4/1 1/1/1 
f 1/1/1 4/4/1 5/5/1 
f 5/5/1 6/6/1 1/1/1 
# 4 faces

