# 3ds Max Wavefront OBJ Exporter v0.94b - (c)2007 guruware
# File Created: 07.12.2010 17:10:11

mtllib world05_road_02_alpha.mtl

#
# object world05_road_02_alpha
#

v  -83.4387 0.0150 55.7623
v  -145.4029 0.0150 19.2853
v  -121.2694 0.0150 1.0034
v  -77.7483 0.0150 26.9309
# 4 vertices

vn 0.0000 -1.0000 -0.0000
# 1 vertex normals

vt 1.0000 1.0000 0.0000
vt 0.5000 1.0000 0.0000
vt 0.5000 0.0000 0.0000
vt 1.0000 0.0000 0.0000
# 4 texture coords

g world05_road_02_alpha
usemtl alpha_gradient
s 1
f 1/1/1 2/2/1 3/3/1 
f 3/3/1 4/4/1 1/1/1 
# 2 faces

