# 3ds Max Wavefront OBJ Exporter v0.94b - (c)2007 guruware
# File Created: 22.12.2010 14:28:27

mtllib world05_building09.mtl

#
# object world05_building09
#

v  -37.9543 -0.2000 -25.9292
v  37.9543 -0.2000 -25.9292
v  37.9542 -0.2000 25.9292
v  -37.9543 -0.2000 25.9292
# 4 vertices

vn 0.0000 -1.0000 -0.0000
# 1 vertex normals

vt 0.8033 0.6593 0.0000
vt 0.9814 0.6593 0.0000
vt 0.9814 0.7810 0.0000
vt 0.8033 0.7810 0.0000
# 4 texture coords

g world05_building09
usemtl world05_map02
s 1
f 1/1/1 2/2/1 3/3/1 
f 3/3/1 4/4/1 1/1/1 
# 2 faces

