# 3ds Max Wavefront OBJ Exporter v0.94b - (c)2007 guruware
# File Created: 22.12.2010 14:28:39

mtllib world05_building10.mtl

#
# object world05_building10
#

v  -45.8385 -0.2000 -44.5523
v  61.1697 -0.2000 -44.5523
v  61.1698 -0.2000 41.8250
v  -45.8385 -0.2000 41.8250
# 4 vertices

vn 0.0000 -1.0000 -0.0000
# 1 vertex normals

vt 0.5035 0.7961 0.0000
vt 0.7547 0.7961 0.0000
vt 0.7547 0.9989 0.0000
vt 0.5035 0.9989 0.0000
# 4 texture coords

g world05_building10
usemtl world05_map02
s 1
f 1/1/1 2/2/1 3/3/1 
f 3/3/1 4/4/1 1/1/1 
# 2 faces

