# 3ds Max Wavefront OBJ Exporter v0.94b - (c)2007 guruware
# File Created: 29.06.2011 17:21:22

mtllib world05_road_09b_alpha.mtl

#
# object world05_road_09b_alpha
#

v  -120.3457 -0.1000 -75.4497
v  -151.5580 -0.1000 -94.2169
v  -139.3400 -0.1000 -114.3144
v  -102.8363 -0.1000 -91.8626
# 4 vertices

vn -0.0000 -1.0000 -0.0000
# 1 vertex normals

vt 0.5000 0.0000 0.0000
vt 1.0000 0.0000 0.0000
vt 1.0000 1.0000 0.0000
vt 0.5000 1.0000 0.0000
# 4 texture coords

g world05_road_09b_alpha
usemtl alpha_gradient
s 1
f 1/1/1 2/2/1 3/3/1 
f 3/3/1 4/4/1 1/1/1 
# 2 faces

