# 3ds Max Wavefront OBJ Exporter v0.94b - (c)2007 guruware
# File Created: 22.12.2010 14:44:54

mtllib world05_grass07.mtl

#
# object world05_grass07
#

v  -25.5069 0.0050 -68.2064
v  79.9349 0.0050 -68.2064
v  79.9349 0.0050 -17.3391
v  -25.5069 0.0050 -17.3391
# 4 vertices

vn 0.0000 -1.0000 -0.0000
# 1 vertex normals

vt 0.0013 0.0189 0.0000
vt 0.2488 0.0189 0.0000
vt 0.2488 0.1384 0.0000
vt 0.0013 0.1383 0.0000
# 4 texture coords

g world05_grass07
usemtl world05_map02
s 1
f 1/1/1 2/2/1 3/3/1 
f 3/3/1 4/4/1 1/1/1 
# 2 faces

