# 3ds Max Wavefront OBJ Exporter v0.94b - (c)2007 guruware
# File Created: 29.06.2011 15:03:48

mtllib world05_node03.mtl

#
# object world05_node03
#

v  -31.7701 -0.0100 27.9846
v  10.3002 -0.0100 27.9846
v  10.3004 -0.0100 54.7109
v  -31.7701 -0.0100 54.7109
# 4 vertices

vn 0.0000 -1.0000 -0.0000
# 1 vertex normals

vt 0.3823 0.0990 0.0000
vt 0.4811 0.0990 0.0000
vt 0.4811 0.1628 0.0000
vt 0.3823 0.1628 0.0000
# 4 texture coords

g world05_node03
usemtl world05_map02
s 1
f 1/1/1 2/2/1 3/3/1 
f 3/3/1 4/4/1 1/1/1 
# 2 faces

