# 3ds Max Wavefront OBJ Exporter v0.94b - (c)2007 guruware
# File Created: 15.03.2011 13:47:35

mtllib world05_hiddenroad_48b_alpha.mtl

#
# object world05_hiddenroad_48b_alpha
#

v  -73.6009 -0.0200 -6.3199
v  -0.8426 -0.0200 28.5679
v  -14.1836 -0.0200 52.2469
v  -88.4721 -0.0200 17.8074
# 4 vertices

vn 0.0000 -1.0000 -0.0000
# 1 vertex normals

vt 0.5000 0.0000 0.0000
vt 1.0000 0.0000 0.0000
vt 1.0000 1.0000 0.0000
vt 0.5000 1.0000 0.0000
# 4 texture coords

g world05_hiddenroad_48b_alpha
usemtl alpha_gradient
s 1
f 1/1/1 2/2/1 3/3/1 
f 3/3/1 4/4/1 1/1/1 
# 2 faces

