# 3ds Max Wavefront OBJ Exporter v0.94b - (c)2007 guruware
# File Created: 01.03.2011 16:32:05

mtllib world05_road04.mtl

#
# object world05_road_04
#

v  33.7838 0.0150 27.3998
v  34.0569 0.0150 56.3082
v  -9.4021 0.0150 56.1394
v  -9.1372 0.0150 27.2538
v  52.2181 0.0150 32.1081
v  89.8850 0.0150 32.2862
v  91.0511 0.0150 56.5295
# 7 vertices

vn -0.0000 -1.0000 -0.0000
vn 0.0000 -1.0000 -0.0000
# 2 vertex normals

vt 0.5846 0.6026 0.0000
vt 0.5853 0.7111 0.0000
vt 0.4765 0.7105 0.0000
vt 0.4771 0.6020 0.0000
vt 0.6314 0.6204 0.0000
vt 0.7267 0.6214 0.0000
vt 0.7280 0.7120 0.0000
# 7 texture coords

g world05_road_04
usemtl world05_map03
s 1
f 1/1/1 2/2/1 3/3/2 
f 3/3/2 4/4/2 1/1/1 
f 5/5/1 6/6/1 7/7/1 
f 5/5/1 7/7/1 2/2/1 
f 1/1/1 5/5/1 2/2/1 
# 5 faces

