# 3ds Max Wavefront OBJ Exporter v0.94b - (c)2007 guruware
# File Created: 15.03.2011 10:06:50

mtllib world05_road_11.mtl

#
# object world05_road_11
#

v  64.1327 0.0150 -65.6332
v  0.1332 0.0150 -66.2862
v  0.6632 0.0150 -97.0397
v  73.6167 0.0150 -97.4995
v  98.5975 0.0150 -82.6163
v  80.8230 0.0150 -55.7311
# 6 vertices

vn 0.0000 -1.0000 -0.0000
# 1 vertex normals

vt 0.6606 0.2535 0.0000
vt 0.5003 0.2510 0.0000
vt 0.5017 0.1355 0.0000
vt 0.6843 0.1338 0.0000
vt 0.7469 0.1897 0.0000
vt 0.7024 0.2907 0.0000
# 6 texture coords

g world05_road_11
usemtl world05_map03
s 1
f 1/1/1 2/2/1 3/3/1 
f 3/3/1 4/4/1 1/1/1 
f 1/1/1 4/4/1 5/5/1 
f 5/5/1 6/6/1 1/1/1 
# 4 faces

