# 3ds Max Wavefront OBJ Exporter v0.94b - (c)2007 guruware
# File Created: 01.03.2011 15:16:55

mtllib world04_grass09b.mtl

#
# object world04_grass09b
#

v  80.9293 0.0050 -100.3873
v  25.5439 0.0050 -133.3119
v  145.3187 0.0050 -133.5014
v  80.6370 0.0050 -166.7666
# 4 vertices

vn 0.0000 -1.0000 -0.0000
# 1 vertex normals

vt 0.6295 0.0794 0.0000
vt 0.4995 0.0021 0.0000
vt 0.7807 0.0017 0.0000
vt 0.6288 0.0770 0.0000
# 4 texture coords

g world04_grass09b
usemtl orig_world01_map02
s 1
f 1/1/1 2/2/1 3/3/1 
f 2/2/1 4/4/1 3/3/1 
# 2 faces

