# 3ds Max Wavefront OBJ Exporter v0.94b - (c)2007 guruware
# File Created: 25.02.2011 12:03:09

mtllib world04_grass02.mtl

#
# object world04_grass02
#

v  -1.9666 0.0050 69.3044
v  -63.2743 0.0050 88.1696
v  -127.4749 0.0050 63.8252
v  -55.6452 0.0050 24.5186
# 4 vertices

vn 0.0000 -1.0000 -0.0000
# 1 vertex normals

vt 0.7783 0.4362 0.0000
vt 0.6343 0.4805 0.0000
vt 0.4836 0.4234 0.0000
vt 0.6523 0.3311 0.0000
# 4 texture coords

g world04_grass02
usemtl orig_world01_map02
s 1
f 1/1/1 2/2/1 3/3/1 
f 3/3/1 4/4/1 1/1/1 
# 2 faces

