# 3ds Max Wavefront OBJ Exporter v0.94b - (c)2007 guruware
# File Created: 25.02.2011 13:32:13

mtllib world04_road_11.mtl

#
# object world04_road_11
#

v  212.9434 0.0149 -34.6802
v  212.9755 0.0149 4.8725
v  175.0497 0.0149 -25.7740
v  195.7371 0.0149 -49.2271
v  146.7668 0.0149 -47.5381
v  151.2422 0.0149 -83.3412
# 6 vertices

vn 0.0000 -1.0000 -0.0000
# 1 vertex normals

vt 0.9993 0.1824 0.0000
vt 0.9985 0.3290 0.0000
vt 0.9045 0.2150 0.0000
vt 0.9563 0.1269 0.0000
vt 0.8336 0.1333 0.0000
vt 0.8449 -0.0012 0.0000
# 6 texture coords

g world04_road_11
usemtl world01_map03
s 1
f 1/1/1 2/2/1 3/3/1 
f 3/3/1 4/4/1 1/1/1 
f 5/5/1 6/6/1 4/4/1 
f 4/4/1 3/3/1 5/5/1 
# 4 faces

