# 3ds Max Wavefront OBJ Exporter v0.94b - (c)2007 guruware
# File Created: 25.02.2011 13:32:35

mtllib world04_node11.mtl

#
# object world04_node11
#

v  208.5381 -0.0100 -25.5941
v  169.1181 -0.0100 -25.5941
v  169.1181 -0.0100 -36.7338
v  211.9523 -0.0100 -36.7338
v  169.1181 -0.0100 -47.8735
v  211.9523 -0.0100 -47.8735
# 6 vertices

vn 0.0000 -1.0000 -0.0000
# 1 vertex normals

vt 0.7797 0.3311 0.0000
vt 0.6872 0.3310 0.0000
vt 0.6872 0.3051 0.0000
vt 0.7878 0.3051 0.0000
vt 0.6872 0.2791 0.0000
vt 0.7878 0.2791 0.0000
# 6 texture coords

g world04_node11
usemtl orig_world01_map02
s 1
f 1/1/1 2/2/1 3/3/1 
f 3/3/1 4/4/1 1/1/1 
f 4/4/1 3/3/1 5/5/1 
f 5/5/1 6/6/1 4/4/1 
# 4 faces

