# 3ds Max Wavefront OBJ Exporter v0.94b - (c)2007 guruware
# File Created: 25.02.2011 12:03:56

mtllib world04_grass03.mtl

#
# object world04_grass03
#

v  -13.1036 0.0050 -51.5209
v  -66.1677 0.0050 -27.1594
v  -132.4198 0.0050 -58.3133
v  -77.2332 0.0050 -94.1060
# 4 vertices

vn 0.0000 -1.0000 -0.0000
# 1 vertex normals

vt 0.2739 0.2213 0.0000
vt 0.1494 0.2785 0.0000
vt -0.0061 0.2054 0.0000
vt 0.1234 0.1214 0.0000
# 4 texture coords

g world04_grass03
usemtl orig_world01_map02
s 1
f 1/1/1 2/2/1 3/3/1 
f 3/3/1 4/4/1 1/1/1 
# 2 faces

