# 3ds Max Wavefront OBJ Exporter v0.94b - (c)2007 guruware
# File Created: 25.02.2011 12:59:10

mtllib world04_node10.mtl

#
# object world04_node10
#

v  145.0219 -0.0100 -59.7330
v  145.0163 -0.0100 -50.1891
v  130.7313 -0.0100 -52.5180
v  123.5285 -0.0100 -59.7330
v  123.5285 -0.0100 -72.8281
v  145.0219 -0.0100 -72.8281
v  159.7310 -0.0100 -52.1395
v  166.8560 -0.0100 -60.8282
v  160.5534 -0.0100 -72.8281
# 9 vertices

vn -0.0000 -1.0000 -0.0000
vn 0.0000 -1.0000 -0.0000
# 2 vertex normals

vt 0.9453 0.3285 0.0000
vt 0.9453 0.3508 0.0000
vt 0.9117 0.3453 0.0000
vt 0.8948 0.3285 0.0000
vt 0.8949 0.2980 0.0000
vt 0.9453 0.2980 0.0000
vt 0.9798 0.3462 0.0000
vt 0.9966 0.3260 0.0000
vt 0.9818 0.2980 0.0000
# 9 texture coords

g world04_node10
usemtl orig_world01_map02
s 1
f 1/1/1 2/2/2 3/3/2 
f 3/3/2 4/4/2 1/1/1 
f 1/1/1 4/4/2 5/5/2 
f 5/5/2 6/6/2 1/1/1 
f 7/7/1 2/2/2 1/1/1 
f 1/1/1 8/8/1 7/7/1 
f 1/1/1 6/6/2 9/9/1 
f 9/9/1 8/8/1 1/1/1 
# 8 faces

