# 3ds Max Wavefront OBJ Exporter v0.94b - (c)2007 guruware
# File Created: 01.03.2011 15:12:53

mtllib world04_building10.mtl

#
# object world04_building10
#

v  2.9721 -0.2001 -23.3027
v  34.1069 -0.2001 -7.7001
v  -30.9918 -0.2001 13.1087
v  -20.1140 -0.2001 -4.9478
v  16.2258 -0.2001 30.5143
v  -30.9918 -0.2001 30.7360
v  16.1975 -0.2001 48.3632
v  -30.9919 -0.2001 48.3632
# 8 vertices

vn 0.0000 -1.0000 -0.0000
# 1 vertex normals

vt 0.2526 0.4286 0.0000
vt 0.3257 0.4652 0.0000
vt 0.1729 0.5141 0.0000
vt 0.1984 0.4717 0.0000
vt 0.2837 0.5549 0.0000
vt 0.1729 0.5554 0.0000
vt 0.2836 0.5968 0.0000
vt 0.1729 0.5968 0.0000
# 8 texture coords

g world04_building10
usemtl orig_world01_map02
s 1
f 1/1/1 2/2/1 3/3/1 
f 3/3/1 4/4/1 1/1/1 
f 5/5/1 6/6/1 3/3/1 
f 3/3/1 2/2/1 5/5/1 
f 7/7/1 8/8/1 6/6/1 
f 6/6/1 5/5/1 7/7/1 
# 6 faces

