# 3ds Max Wavefront OBJ Exporter v0.94b - (c)2007 guruware
# File Created: 30.06.2011 14:25:17

mtllib world04_background_details.mtl

#
# object world04_background_details
#

v  -99.2168 -0.2693 33.5081
v  -145.5500 -0.2693 33.5081
v  -145.5499 -0.2693 -22.3496
v  -99.2168 -0.2693 -22.3496
v  165.5757 -0.2693 -111.7701
v  127.4536 -0.2693 -111.7701
v  127.4536 -0.2693 -154.2444
v  165.5757 -0.2693 -154.2444
v  -104.1046 -0.2693 89.6607
v  -144.3578 -0.2693 89.6607
v  -144.3578 -0.2693 40.6492
v  -104.1046 -0.2693 40.6492
v  58.9085 -0.2693 57.3871
v  5.4816 -0.2693 57.3871
v  5.4816 -0.2693 -0.0091
v  58.9086 -0.2693 -0.0091
v  75.7227 -0.2693 -35.2115
v  42.5958 -0.2693 -35.2115
v  42.5958 -0.2693 -78.1247
v  75.7227 -0.2693 -78.1247
v  -173.4777 -0.2693 -58.4254
v  -210.2374 -0.2693 -58.4254
v  -210.2374 -0.2693 -95.4011
v  -173.4777 -0.2693 -95.4011
v  117.7871 -0.2693 147.3604
v  77.5339 -0.2693 147.3604
v  77.5339 -0.2693 98.3490
v  117.7871 -0.2693 98.3490
v  54.4345 -0.2693 -63.8003
v  14.1813 -0.2693 -63.8003
v  14.1813 -0.2693 -112.8117
v  54.4345 -0.2693 -112.8117
v  138.3454 -0.2693 92.0466
v  100.2233 -0.2693 92.0466
v  100.2233 -0.2693 49.5723
v  138.3454 -0.2693 49.5723
v  182.8961 -0.2693 134.3033
v  144.7740 -0.2693 134.3033
v  144.7740 -0.2693 91.8290
v  182.8961 -0.2693 91.8290
v  -99.2587 -0.2693 -107.4074
v  -132.3856 -0.2693 -107.4074
v  -132.3855 -0.2693 -150.3205
v  -99.2587 -0.2693 -150.3205
v  21.4361 -0.2693 121.9686
v  -11.6908 -0.2693 121.9686
v  -11.6908 -0.2693 79.0555
v  21.4361 -0.2693 79.0555
v  -33.8461 -0.2693 -114.4661
v  -70.6058 -0.2693 -114.4661
v  -70.6058 -0.2693 -151.4418
v  -33.8461 -0.2693 -151.4418
v  145.4700 -0.2693 -89.4714
v  108.7104 -0.2693 -89.4714
v  108.7104 -0.2693 -126.4471
v  145.4700 -0.2693 -126.4471
# 56 vertices

vn 0.0000 -1.0000 -0.0000
vn -0.0000 -1.0000 -0.0000
# 2 vertex normals

vt 0.6127 0.6050 0.0000
vt 0.5039 0.6050 0.0000
vt 0.5039 0.4739 0.0000
vt 0.6127 0.4739 0.0000
vt 0.5827 0.1560 0.0000
vt 0.4932 0.1560 0.0000
vt 0.4932 0.0563 0.0000
vt 0.5827 0.0563 0.0000
vt 0.3816 0.6108 0.0000
vt 0.2871 0.6108 0.0000
vt 0.2871 0.4957 0.0000
vt 0.3816 0.4957 0.0000
vt 0.5067 0.5996 0.0000
vt 0.3813 0.5996 0.0000
vt 0.3813 0.4648 0.0000
vt 0.5067 0.4648 0.0000
vt 0.7817 0.5913 0.0000
vt 0.7039 0.5913 0.0000
vt 0.7039 0.4906 0.0000
vt 0.7817 0.4906 0.0000
vt 0.7031 0.5931 0.0000
vt 0.6168 0.5931 0.0000
vt 0.6168 0.5063 0.0000
vt 0.7031 0.5063 0.0000
# 24 texture coords

g world04_background_details
usemtl orig_world01_map02
s 1
f 1/1/1 2/2/1 3/3/1 
f 3/3/1 4/4/1 1/1/1 
f 5/5/2 6/6/2 7/7/2 
f 7/7/2 8/8/2 5/5/2 
f 9/9/1 10/10/1 11/11/1 
f 11/11/1 12/12/1 9/9/1 
f 13/13/1 14/14/1 15/15/1 
f 15/15/1 16/16/1 13/13/1 
f 17/17/1 18/18/1 19/19/1 
f 19/19/1 20/20/1 17/17/1 
f 21/21/1 22/22/1 23/23/1 
f 23/23/1 24/24/1 21/21/1 
f 25/9/1 26/10/1 27/11/1 
f 27/11/1 28/12/1 25/9/1 
f 29/9/1 30/10/1 31/11/1 
f 31/11/1 32/12/1 29/9/1 
f 33/5/1 34/6/1 35/7/1 
f 35/7/1 36/8/1 33/5/1 
f 37/5/1 38/6/1 39/7/1 
f 39/7/1 40/8/1 37/5/1 
f 41/17/1 42/18/1 43/19/1 
f 43/19/1 44/20/1 41/17/1 
f 45/17/1 46/18/1 47/19/1 
f 47/19/1 48/20/1 45/17/1 
f 49/21/1 50/22/1 51/23/1 
f 51/23/1 52/24/1 49/21/1 
f 53/21/1 54/22/1 55/23/1 
f 55/23/1 56/24/1 53/21/1 
# 28 faces

