# 3ds Max Wavefront OBJ Exporter v0.94b - (c)2007 guruware
# File Created: 25.02.2011 12:03:25

mtllib world04_grass08.mtl

#
# object world04_grass08
#

v  212.7255 0.0050 82.1644
v  112.7288 0.0050 57.4378
v  181.6046 0.0050 20.2781
v  212.7487 0.0050 39.3748
v  192.6911 0.0050 97.3151
# 5 vertices

vn 0.0000 -1.0000 -0.0000
# 1 vertex normals

vt 0.7846 0.2395 0.0000
vt 0.5499 0.1815 0.0000
vt 0.7116 0.0942 0.0000
vt 0.7847 0.1391 0.0000
vt 0.7376 0.2751 0.0000
# 5 texture coords

g world04_grass08
usemtl orig_world01_map02
s 1
f 1/1/1 2/2/1 3/3/1 
f 3/3/1 4/4/1 1/1/1 
f 2/2/1 1/1/1 5/5/1 
# 3 faces

