# 3ds Max Wavefront OBJ Exporter v0.94b - (c)2007 guruware
# File Created: 24.02.2011 10:07:53

mtllib world06_hiddenroad_669.mtl

#
# object world06_hiddenroad_669
#

v  10.2553 -0.0200 16.2354
v  48.8109 -0.0200 -8.7543
v  62.8976 -0.0200 13.7708
v  22.0690 -0.0200 38.4300
# 4 vertices

vn 0.0000 -1.0000 -0.0000
# 1 vertex normals

vt 0.5257 0.5610 0.0000
vt 0.6222 0.4671 0.0000
vt 0.6575 0.5517 0.0000
vt 0.5553 0.6443 0.0000
# 4 texture coords

g world06_hiddenroad_669
usemtl world06_map03
s 1
f 1/1/1 2/2/1 3/3/1 
f 3/3/1 4/4/1 1/1/1 
# 2 faces

