# 3ds Max Wavefront OBJ Exporter v0.94b - (c)2007 guruware
# File Created: 04.07.2011 13:23:57

mtllib world06_grass12.mtl

#
# object world06_grass12
#

v  87.1954 -0.2000 -22.0496
v  149.1767 -0.2000 -22.0495
v  149.1767 -0.2000 25.0635
v  87.1954 -0.2000 25.0635
# 4 vertices

vn 0.0000 -1.0000 -0.0000
# 1 vertex normals

vt 0.4282 0.0788 0.0000
vt 0.5737 0.0788 0.0000
vt 0.5737 0.1893 0.0000
vt 0.4282 0.1893 0.0000
# 4 texture coords

g world06_grass12
usemtl world06_map02
s 1
f 1/1/1 2/2/1 3/3/1 
f 3/3/1 4/4/1 1/1/1 
# 2 faces

