# 3ds Max Wavefront OBJ Exporter v0.94b - (c)2007 guruware
# File Created: 24.02.2011 15:25:28

mtllib world06_road_04.mtl

#
# object world06_road_04
#

v  -145.7491 0.0150 13.7753
v  -175.3955 0.0150 13.6500
v  -174.8370 0.0150 4.7134
v  -144.8121 0.0150 7.5881
v  -118.1547 0.0150 -39.7743
v  -94.1890 0.0150 -32.5755
# 6 vertices

vn 0.0000 -1.0000 -0.0000
# 1 vertex normals

vt 0.1351 0.5517 0.0000
vt 0.0608 0.5513 0.0000
vt 0.0622 0.5177 0.0000
vt 0.1374 0.5285 0.0000
vt 0.2042 0.3506 0.0000
vt 0.2642 0.3777 0.0000
# 6 texture coords

g world06_road_04
usemtl world06_map03
s 1
f 1/1/1 2/2/1 3/3/1 
f 3/3/1 4/4/1 1/1/1 
f 4/4/1 3/3/1 5/5/1 
f 5/5/1 6/6/1 4/4/1 
# 4 faces

