# 3ds Max Wavefront OBJ Exporter v0.94b - (c)2007 guruware
# File Created: 09.03.2011 16:34:54

mtllib world06_building14.mtl

#
# object world06_building14
#

v  -17.5654 -0.2000 -15.7055
v  45.7525 -0.2000 -15.7055
v  45.7524 -0.2000 40.3018
v  -17.5654 -0.2000 40.3018
# 4 vertices

vn -0.0000 -1.0000 -0.0000
# 1 vertex normals

vt 0.8351 0.8677 0.0000
vt 0.9837 0.8677 0.0000
vt 0.9837 0.9992 0.0000
vt 0.8351 0.9992 0.0000
# 4 texture coords

g world06_building14
usemtl world06_map02
s 1
f 1/1/1 2/2/1 3/3/1 
f 3/3/1 4/4/1 1/1/1 
# 2 faces

