# 3ds Max Wavefront OBJ Exporter v0.94b - (c)2007 guruware
# File Created: 09.03.2011 16:42:25

mtllib world06_building06.mtl

#
# object world06_building06
#

v  -30.1675 -0.2000 -21.6242
v  32.6539 -0.2000 -21.6243
v  32.6539 -0.2000 35.2529
v  -30.1675 -0.2000 35.2529
# 4 vertices

vn -0.0000 -1.0000 -0.0000
vn 0.0000 -1.0000 -0.0000
# 2 vertex normals

vt 0.6841 0.8659 0.0000
vt 0.8316 0.8659 0.0000
vt 0.8316 0.9994 0.0000
vt 0.6841 0.9994 0.0000
# 4 texture coords

g world06_building06
usemtl world06_map02
s 1
f 1/1/1 2/2/1 3/3/1 
f 3/3/1 4/4/2 1/1/1 
# 2 faces

