# 3ds Max Wavefront OBJ Exporter v0.94b - (c)2007 guruware
# File Created: 24.02.2011 14:30:06

mtllib world06_node01.mtl

#
# object world06_node01
#

v  -134.2299 -0.0100 -98.8546
v  -90.7588 -0.0100 -98.8546
v  -90.7589 -0.0100 -73.6755
v  -135.7375 -0.0100 -73.6755
# 4 vertices

vn -0.0000 -1.0000 -0.0000
# 1 vertex normals

vt 0.2157 0.3193 0.0000
vt 0.3177 0.3193 0.0000
vt 0.3177 0.3784 0.0000
vt 0.2121 0.3784 0.0000
# 4 texture coords

g world06_node01
usemtl world06_map02
s 1
f 1/1/1 2/2/1 3/3/1 
f 3/3/1 4/4/1 1/1/1 
# 2 faces

