# 3ds Max Wavefront OBJ Exporter v0.94b - (c)2007 guruware
# File Created: 23.02.2011 16:05:16

mtllib world06_grass06.mtl

#
# object world06_grass06
#

v  -10.5701 0.0050 82.5232
v  62.1916 0.0050 82.5232
v  62.1916 0.0050 127.5532
v  -10.5702 0.0050 120.5479
# 4 vertices

vn 0.0000 -1.0000 -0.0000
# 1 vertex normals

vt 0.3559 0.4890 0.0000
vt 0.5267 0.4890 0.0000
vt 0.5267 0.5947 0.0000
vt 0.3559 0.5782 0.0000
# 4 texture coords

g world06_grass06
usemtl world06_map02
s 1
f 1/1/1 2/2/1 3/3/1 
f 3/3/1 4/4/1 1/1/1 
# 2 faces

