# 3ds Max Wavefront OBJ Exporter v0.94b - (c)2007 guruware
# File Created: 09.03.2011 17:03:53

mtllib world06_building02.mtl

#
# object world06_building02
#

v  -36.9772 -0.2000 -31.4674
v  32.4254 -0.2000 -19.6617
v  32.4252 -0.2000 25.0161
v  -36.9772 -0.2000 25.0161
# 4 vertices

vn 0.0000 -1.0000 -0.0000
vn -0.0000 -1.0000 -0.0000
# 2 vertex normals

vt 0.2174 0.8665 0.0000
vt 0.3803 0.8942 0.0000
vt 0.3803 0.9991 0.0000
vt 0.2174 0.9991 0.0000
# 4 texture coords

g world06_building02
usemtl world06_map02
s 1
f 1/1/1 2/2/1 3/3/1 
f 3/3/1 4/4/2 1/1/1 
# 2 faces

