# 3ds Max Wavefront OBJ Exporter v0.94b - (c)2007 guruware
# File Created: 24.02.2011 10:07:16

mtllib world06_road_04b.mtl

#
# object world06_road_04b
#

v  3.2399 -0.0200 37.7261
v  -159.6303 -0.0200 24.1831
v  -158.7255 -0.0200 5.4565
v  5.1242 -0.0200 18.2948
# 4 vertices

vn 0.0000 -1.0000 -0.0000
# 1 vertex normals

vt 0.5081 0.6417 0.0000
vt 0.1003 0.5908 0.0000
vt 0.1026 0.5205 0.0000
vt 0.5128 0.5687 0.0000
# 4 texture coords

g world06_road_04b
usemtl world06_map03
s 1
f 1/1/1 2/2/1 3/3/1 
f 3/3/1 4/4/1 1/1/1 
# 2 faces

