# 3ds Max Wavefront OBJ Exporter v0.94b - (c)2007 guruware
# File Created: 24.02.2011 16:18:05

mtllib world06_hiddenroad_666.mtl

#
# object world06_hiddenroad_666
#

v  1.9459 -0.5195 -72.8893
v  92.0407 -0.5195 -129.2933
v  85.6054 -0.5195 -93.3310
v  32.2298 -0.5195 -57.3688
# 4 vertices

vn 0.0000 -1.0000 -0.0000
# 1 vertex normals

vt 0.5105 0.9427 0.0000
vt 0.7361 0.7308 0.0000
vt 0.7200 0.8659 0.0000
vt 0.5863 1.0010 0.0000
# 4 texture coords

g world06_hiddenroad_666
usemtl world06_map03
s 1
f 1/1/1 2/2/1 3/3/1 
f 3/3/1 4/4/1 1/1/1 
# 2 faces

