# 3ds Max Wavefront OBJ Exporter v0.94b - (c)2007 guruware
# File Created: 09.03.2011 16:36:12

mtllib world06_building07.mtl

#
# object world06_building07
#

v  -25.6040 -0.2000 -39.4142
v  47.1782 -0.2000 -39.4142
v  47.1782 -0.2000 31.7356
v  -25.6040 -0.2000 31.7356
# 4 vertices

vn 0.0000 -1.0000 -0.0000
# 1 vertex normals

vt 0.0456 0.6644 0.0000
vt 0.2164 0.6644 0.0000
vt 0.2164 0.8315 0.0000
vt 0.0456 0.8315 0.0000
# 4 texture coords

g world06_building07
usemtl world06_map02
s 1
f 1/1/1 2/2/1 3/3/1 
f 3/3/1 4/4/1 1/1/1 
# 2 faces

