# 3ds Max Wavefront OBJ Exporter v0.94b - (c)2007 guruware
# File Created: 24.02.2011 15:25:19

mtllib world06_road_03.mtl

#
# object world06_road_03
#

v  -94.1890 0.0150 -32.5755
v  -118.1547 0.0150 -39.7743
v  -79.8209 0.0150 -69.8609
v  -38.0397 0.0150 -77.5653
v  -81.1637 0.0150 -71.9711
v  -30.5351 0.0150 -87.5109
v  -29.0842 0.0150 -84.7409
# 7 vertices

vn 0.0000 -1.0000 -0.0000
# 1 vertex normals

vt 0.2642 0.3777 0.0000
vt 0.2042 0.3506 0.0000
vt 0.3001 0.2376 0.0000
vt 0.4048 0.2087 0.0000
vt 0.2968 0.2297 0.0000
vt 0.4235 0.1713 0.0000
vt 0.4272 0.1817 0.0000
# 7 texture coords

g world06_road_03
usemtl world06_map03
s 1
f 1/1/1 2/2/1 3/3/1 
f 3/3/1 4/4/1 1/1/1 
f 3/3/1 5/5/1 6/6/1 
f 4/4/1 3/3/1 6/6/1 
f 4/4/1 6/6/1 7/7/1 
# 5 faces

