# 3ds Max Wavefront OBJ Exporter v0.94b - (c)2007 guruware
# File Created: 24.02.2011 15:35:25

mtllib world06_road_04_alpha.mtl

#
# object world06_road_04_alpha
#

v  -118.1547 0.0150 -39.7743
v  -88.9872 0.0150 -31.0130
v  -139.2533 0.0150 8.1204
v  -174.8370 0.0150 4.7134
v  -139.2533 0.0150 13.8027
v  -175.3955 0.0150 13.6500
# 6 vertices

vn 0.0000 -1.0000 -0.0000
# 1 vertex normals

vt 0.5000 0.0000 0.0000
vt 0.5000 1.0000 0.0000
vt 0.9190 1.0000 0.0000
vt 0.9190 0.0000 0.0000
vt 1.0000 1.0000 0.0000
vt 1.0000 0.0000 0.0000
# 6 texture coords

g world06_road_04_alpha
usemtl alpha_gradient
s 1
f 1/1/1 2/2/1 3/3/1 
f 3/3/1 4/4/1 1/1/1 
f 4/4/1 3/3/1 5/5/1 
f 5/5/1 6/6/1 4/4/1 
# 4 faces

