# 3ds Max Wavefront OBJ Exporter v0.94b - (c)2007 guruware
# File Created: 24.02.2011 14:20:00

mtllib world06_grass07.mtl

#
# object world06_grass07
#

v  -80.9102 0.0050 29.1612
v  -3.4404 0.0050 27.3913
v  -3.4404 0.0050 76.0975
v  -80.9103 0.0050 76.0975
# 4 vertices

vn 0.0000 -1.0000 -0.0000
# 1 vertex normals

vt 0.0009 0.3950 0.0000
vt 0.1828 0.3909 0.0000
vt 0.1828 0.5052 0.0000
vt 0.0009 0.5052 0.0000
# 4 texture coords

g world06_grass07
usemtl world06_map02
s 1
f 1/1/1 2/2/1 3/3/1 
f 3/3/1 4/4/1 1/1/1 
# 2 faces

