# 3ds Max Wavefront OBJ Exporter v0.94b - (c)2007 guruware
# File Created: 29.06.2011 15:44:32

mtllib world06_road_13_alpha.mtl

#
# object world06_road_13_alpha
#

v  165.8580 0.0150 -25.1920
v  199.6913 0.0150 63.0101
v  164.3438 0.0150 70.9597
v  156.7728 0.0150 25.5337
# 4 vertices

vn 0.0000 -1.0000 -0.0000
# 1 vertex normals

vt 0.5000 0.0000 0.0000
vt 1.0000 0.0000 0.0000
vt 1.0000 1.0000 0.0000
vt 0.5000 1.0000 0.0000
# 4 texture coords

g world06_road_13_alpha
usemtl alpha_gradient
s 1
f 1/1/1 2/2/1 3/3/1 
f 3/3/1 4/4/1 1/1/1 
# 2 faces

