# 3ds Max Wavefront OBJ Exporter v0.94b - (c)2007 guruware
# File Created: 05.08.2011 14:06:50

mtllib world02_grass10.mtl

#
# object world02_grass10
#

v  106.2088 0.0050 -84.5786
v  164.1472 0.0050 -50.2642
v  109.8005 0.0050 -23.8004
v  49.6601 0.0050 -52.6910
# 4 vertices

vn 0.0000 -1.0000 -0.0000
# 1 vertex normals

vt 0.7123 0.2696 0.0000
vt 0.8483 0.3501 0.0000
vt 0.7208 0.4122 0.0000
vt 0.5796 0.3444 0.0000
# 4 texture coords

g world02_grass10
usemtl world02_map02
s 1
f 1/1/1 2/2/1 3/3/1 
f 3/3/1 4/4/1 1/1/1 
# 2 faces

