# 3ds Max Wavefront OBJ Exporter v0.94b - (c)2007 guruware
# File Created: 08.04.2011 16:00:32

mtllib world02_worldprev.mtl

#
# object world02_worldprev
#

v  -14.9728 -0.2000 -7.4162
v  17.7234 -0.2000 -7.4162
v  17.7234 -0.2000 24.7914
v  -14.9728 -0.2000 24.7914
# 4 vertices

vn 0.0000 -1.0000 -0.0000
# 1 vertex normals

vt 0.1994 0.5895 0.0000
vt 0.2761 0.5895 0.0000
vt 0.2761 0.6651 0.0000
vt 0.1994 0.6651 0.0000
# 4 texture coords

g world02_worldprev
usemtl world02_map02
s 1
f 1/1/1 2/2/1 3/3/1 
f 3/3/1 4/4/1 1/1/1 
# 2 faces

