# 3ds Max Wavefront OBJ Exporter v0.94b - (c)2007 guruware
# File Created: 28.02.2011 11:49:32

mtllib world02_node12.mtl

#
# object world02_node12
#

v  146.7141 -0.0100 -24.1685
v  195.6451 -0.0100 -24.1685
v  195.6451 -0.0100 0.2715
v  146.7141 -0.0100 0.2715
# 4 vertices

vn -0.0000 -1.0000 -0.0000
vn 0.0000 -1.0000 -0.0000
# 2 vertex normals

vt 0.6025 0.2151 0.0000
vt 0.7173 0.2151 0.0000
vt 0.7173 0.2725 0.0000
vt 0.6025 0.2725 0.0000
# 4 texture coords

g world02_node12
usemtl world02_map02
s 1
f 1/1/1 2/2/2 3/3/1 
f 3/3/1 4/4/1 1/1/1 
# 2 faces

