# 3ds Max Wavefront OBJ Exporter v0.94b - (c)2007 guruware
# File Created: 28.02.2011 11:46:48

mtllib world02_grass03.mtl

#
# object world02_grass03
#

v  -70.7767 0.0050 29.6733
v  -5.8485 0.0050 67.2585
v  -52.9865 0.0050 87.5722
v  -101.9497 0.0050 62.2717
# 4 vertices

vn 0.0000 -1.0000 -0.0000
# 1 vertex normals

vt 0.5555 0.3401 0.0000
vt 0.7079 0.4284 0.0000
vt 0.5973 0.4761 0.0000
vt 0.4824 0.4167 0.0000
# 4 texture coords

g world02_grass03
usemtl world02_map02
s 1
f 1/1/1 2/2/1 3/3/1 
f 3/3/1 4/4/1 1/1/1 
# 2 faces

