# 3ds Max Wavefront OBJ Exporter v0.94b - (c)2007 guruware
# File Created: 08.04.2011 16:00:50

mtllib world02_worldnext.mtl

#
# object world02_worldnext
#

v  -13.0677 -0.2000 -7.3137
v  19.4009 -0.2000 -7.3137
v  19.4009 -0.2000 25.8042
v  -13.0677 -0.2000 25.8042
# 4 vertices

vn 0.0000 -1.0000 -0.0000
# 1 vertex normals

vt 0.3638 0.6039 0.0000
vt 0.4401 0.6039 0.0000
vt 0.4401 0.6816 0.0000
vt 0.3639 0.6816 0.0000
# 4 texture coords

g world02_worldnext
usemtl world02_map02
s 1
f 1/1/1 2/2/1 3/3/1 
f 3/3/1 4/4/1 1/1/1 
# 2 faces

