# 3ds Max Wavefront OBJ Exporter v0.94b - (c)2007 guruware
# File Created: 28.02.2011 11:48:54

mtllib world02_node03.mtl

#
# object world02_node03
#

v  -56.5008 -0.0100 31.7936
v  -2.4330 -0.0100 31.7936
v  -2.4330 -0.0100 57.4325
v  -56.5008 -0.0100 57.4325
# 4 vertices

vn -0.0000 -1.0000 -0.0000
vn 0.0000 -1.0000 -0.0000
# 2 vertex normals

vt 0.8703 0.2223 0.0000
vt 0.9972 0.2223 0.0000
vt 0.9972 0.2824 0.0000
vt 0.8702 0.2824 0.0000
# 4 texture coords

g world02_node03
usemtl world02_map02
s 1
f 1/1/1 2/2/2 3/3/1 
f 3/3/1 4/4/1 1/1/1 
# 2 faces

