# 3ds Max Wavefront OBJ Exporter v0.94b - (c)2007 guruware
# File Created: 05.08.2011 14:07:19

mtllib world02_grass12.mtl

#
# object world02_grass12
#

v  129.8934 0.0050 -19.5497
v  176.0229 0.0050 14.4435
v  139.3549 0.0050 34.1851
v  84.9049 0.0050 16.3863
# 4 vertices

vn 0.0000 -1.0000 -0.0000
# 1 vertex normals

vt 0.4846 0.1062 0.0000
vt 0.5929 0.1860 0.0000
vt 0.5068 0.2323 0.0000
vt 0.3790 0.1905 0.0000
# 4 texture coords

g world02_grass12
usemtl world02_map02
s 1
f 1/1/1 2/2/1 3/3/1 
f 3/3/1 4/4/1 1/1/1 
# 2 faces

