# 3ds Max Wavefront OBJ Exporter v0.94b - (c)2007 guruware
# File Created: 01.07.2011 13:19:05

mtllib world02_road_13_alpha.mtl

#
# object world02_road_13_alpha
#

v  153.2101 0.0150 -12.0328
v  187.6143 0.0150 -12.4361
v  187.2368 0.0150 30.6003
v  154.2011 0.0150 47.4299
v  213.0040 0.0150 83.5333
v  213.0040 0.0150 45.5521
# 6 vertices

vn 0.0000 -1.0000 -0.0000
# 1 vertex normals

vt 0.5000 1.0000 0.0000
vt 0.5000 0.0000 0.0000
vt 0.7500 0.0009 0.0000
vt 0.7500 1.0009 0.0000
vt 1.0000 1.0000 0.0000
vt 1.0000 0.0000 0.0000
# 6 texture coords

g world02_road_13_alpha
usemtl alpha_gradient
s 1
f 1/1/1 2/2/1 3/3/1 
f 3/3/1 4/4/1 1/1/1 
f 5/5/1 4/4/1 3/3/1 
f 3/3/1 6/6/1 5/5/1 
# 4 faces

