# 3ds Max Wavefront OBJ Exporter v0.94b - (c)2007 guruware
# File Created: 28.02.2011 11:48:47

mtllib world02_node02.mtl

#
# object world02_node02
#

v  -106.3828 -0.0100 2.7046
v  -52.3690 -0.0100 2.7046
v  -52.3690 -0.0100 28.4209
v  -106.3827 -0.0100 28.4210
# 4 vertices

vn -0.0000 -1.0000 -0.0000
vn 0.0000 -1.0000 -0.0000
# 2 vertex normals

vt 0.8707 0.2902 0.0000
vt 0.9975 0.2902 0.0000
vt 0.9975 0.3506 0.0000
vt 0.8707 0.3506 0.0000
# 4 texture coords

g world02_node02
usemtl world02_map02
s 1
f 1/1/1 2/2/2 3/3/1 
f 3/3/1 4/4/1 1/1/1 
# 2 faces

