# 3ds Max Wavefront OBJ Exporter v0.94b - (c)2007 guruware
# File Created: 28.02.2011 11:49:02

mtllib world02_node04.mtl

#
# object world02_node04
#

v  10.7224 -0.0100 35.8826
v  64.7290 -0.0100 35.8826
v  64.7290 -0.0100 61.8373
v  10.7224 -0.0100 61.8374
# 4 vertices

vn -0.0000 -1.0000 -0.0000
# 1 vertex normals

vt 0.5983 0.0775 0.0000
vt 0.7251 0.0775 0.0000
vt 0.7251 0.1385 0.0000
vt 0.5983 0.1385 0.0000
# 4 texture coords

g world02_node04
usemtl world02_map02
s 1
f 1/1/1 2/2/1 3/3/1 
f 3/3/1 4/4/1 1/1/1 
# 2 faces

