# 3ds Max Wavefront OBJ Exporter v0.94b - (c)2007 guruware
# File Created: 28.02.2011 11:49:25

mtllib world02_node13.mtl

#
# object world02_node13
#

v  147.9946 -0.0100 29.2976
v  196.9256 -0.0100 29.2976
v  196.9256 -0.0100 53.7375
v  147.9946 -0.0100 53.7376
# 4 vertices

vn -0.0000 -1.0000 -0.0000
vn 0.0000 -1.0000 -0.0000
# 2 vertex normals

vt 0.7374 0.0109 0.0000
vt 0.8522 0.0109 0.0000
vt 0.8522 0.0683 0.0000
vt 0.7374 0.0683 0.0000
# 4 texture coords

g world02_node13
usemtl world02_map02
s 1
f 1/1/1 2/2/2 3/3/1 
f 3/3/1 4/4/1 1/1/1 
# 2 faces

