# 3ds Max Wavefront OBJ Exporter v0.94b - (c)2007 guruware
# File Created: 28.02.2011 11:49:08

mtllib world02_node05.mtl

#
# object world02_node05
#

v  7.1159 -0.0100 0.2672
v  61.1458 -0.0100 0.2672
v  61.1458 -0.0100 27.0261
v  7.1159 -0.0100 27.0261
# 4 vertices

vn -0.0000 -1.0000 -0.0000
vn 0.0000 -1.0000 -0.0000
# 2 vertex normals

vt 0.5963 0.1478 0.0000
vt 0.7232 0.1478 0.0000
vt 0.7232 0.2106 0.0000
vt 0.5963 0.2106 0.0000
# 4 texture coords

g world02_node05
usemtl world02_map02
s 1
f 1/1/1 2/2/2 3/3/1 
f 3/3/1 4/4/1 1/1/1 
# 2 faces

