# 3ds Max Wavefront OBJ Exporter v0.94b - (c)2007 guruware
# File Created: 01.07.2011 13:12:12

mtllib world02_road_13.mtl

#
# object world02_road_13
#

v  153.2101 0.0150 -12.0328
v  187.6143 0.0150 -12.4361
v  187.2368 0.0150 30.6003
v  154.2011 0.0150 47.4299
v  213.0040 0.0150 45.5521
v  213.0040 0.0150 83.5333
# 6 vertices

vn 0.0000 -1.0000 -0.0000
# 1 vertex normals

vt 0.7571 0.4623 0.0000
vt 0.8379 0.4611 0.0000
vt 0.8370 0.5958 0.0000
vt 0.7595 0.6484 0.0000
vt 0.8975 0.6426 0.0000
vt 0.8975 0.7614 0.0000
# 6 texture coords

g world02_road_13
usemtl orig_orig_orig_orig_world02_map03
s 1
f 1/1/1 2/2/1 3/3/1 
f 3/3/1 4/4/1 1/1/1 
f 4/4/1 3/3/1 5/5/1 
f 5/5/1 6/6/1 4/4/1 
# 4 faces

