# 3ds Max Wavefront OBJ Exporter v0.94b - (c)2007 guruware
# File Created: 28.02.2011 13:31:45

mtllib world02_road_01.mtl

#
# object world02_road_01
#

v  -128.1019 0.0150 7.3277
v  -165.4699 0.0150 30.1253
v  -199.6913 0.0150 10.1071
v  -132.0724 0.0150 -31.1862
# 4 vertices

vn 0.0000 -1.0000 -0.0000
# 1 vertex normals

vt 0.1793 0.5275 0.0000
vt 0.0857 0.6131 0.0000
vt 0.0000 0.5380 0.0000
vt 0.1693 0.3829 0.0000
# 4 texture coords

g world02_road_01
usemtl orig_orig_orig_world02_map03
s 1
f 1/1/1 2/2/1 3/3/1 
f 3/3/1 4/4/1 1/1/1 
# 2 faces

