# 3ds Max Wavefront OBJ Exporter v0.94b - (c)2007 guruware
# File Created: 10.08.2011 17:10:43

mtllib world08_road_04.mtl

#
# object world08_road_04
#

v  118.4030 -0.0700 -28.0530
v  71.4208 -0.0700 -28.0531
v  71.4209 -0.0700 23.8175
v  118.4030 -0.0700 23.8175
# 4 vertices

vn 0.0000 -1.0000 -0.0000
vn -0.0000 -1.0000 -0.0000
# 2 vertex normals

vt 0.1609 0.8774 0.0000
vt 0.2712 0.8774 0.0000
vt 0.2712 0.9992 0.0000
vt 0.1609 0.9992 0.0000
# 4 texture coords

g world08_road_04
usemtl world06_map02
s 1
f 3/3/1 2/2/1 1/1/1 
f 1/1/1 4/4/2 3/3/1 
# 2 faces

