# 3ds Max Wavefront OBJ Exporter v0.94b - (c)2007 guruware
# File Created: 11.08.2011 11:11:49

mtllib world08_background_details.mtl

#
# object world08_background_details
#

v  -213.0040 0.0250 40.0913
v  0.0000 0.0250 40.0913
v  0.0000 0.0250 164.3952
v  -213.0040 0.0250 164.3952
v  213.0040 0.0250 40.0913
v  213.0040 0.0250 164.3952
# 6 vertices

vn 0.0000 -1.0000 -0.0000
# 1 vertex normals

vt 0.0000 0.0434 0.0000
vt 0.5000 0.0434 0.0000
vt 0.5000 0.3352 0.0000
vt 0.0000 0.3352 0.0000
vt 1.0000 0.0434 0.0000
vt 1.0000 0.3352 0.0000
# 6 texture coords

g world08_background_details
usemtl world06_map02
s 1
f 1/1/1 2/2/1 3/3/1 
f 3/3/1 4/4/1 1/1/1 
f 5/5/1 6/6/1 3/3/1 
f 3/3/1 2/2/1 5/5/1 
# 4 faces

