# 3ds Max Wavefront OBJ Exporter v0.94b - (c)2007 guruware
# File Created: 11.08.2011 11:28:32

mtllib world08_road_10.mtl

#
# object world08_road_10
#

v  158.3022 -0.1900 -109.0766
v  158.3022 -0.1900 -44.1408
v  68.9429 -0.1900 -30.4236
v  68.9429 -0.1900 -109.0766
v  18.8905 -0.1900 -109.0766
v  18.8905 -0.1900 -44.6489
# 6 vertices

vn -0.0000 -1.0000 0.0000
vn 0.0000 -1.0000 0.0000
# 2 vertex normals

vt 0.0320 0.4879 0.0000
vt 0.0320 0.6403 0.0000
vt 0.2418 0.6725 0.0000
vt 0.2417 0.4879 0.0000
vt 0.3592 0.4879 0.0000
vt 0.3592 0.6391 0.0000
# 6 texture coords

g world08_road_10
usemtl world06_map02
s 1
f 1/1/1 2/2/1 3/3/2 
f 3/3/2 4/4/2 1/1/1 
f 5/5/2 4/4/2 3/3/2 
f 3/3/2 6/6/2 5/5/2 
# 4 faces

