# 3ds Max Wavefront OBJ Exporter v0.94b - (c)2007 guruware
# File Created: 10.08.2011 17:31:07

mtllib world08_node05_alpha.mtl

#
# object world08_node05_alpha
#

v  -107.0791 -0.1100 13.2688
v  -117.0759 -0.1100 15.4426
v  -116.6137 -0.1100 28.9149
v  -83.9553 -0.1100 -30.9064
v  -94.1753 -0.1100 -31.2949
v  -96.0359 -0.1100 -28.8147
v  -73.6033 -0.1100 -28.4257
v  -118.5505 -0.1100 -33.9829
v  -127.3926 -0.1100 -28.8695
v  -128.1306 -0.1100 -23.5848
v  -108.0338 -0.1100 -31.1852
v  -106.9214 -0.1100 -28.8334
v  -125.6141 -0.1100 -20.1599
v  -127.5540 -0.1100 4.3553
v  -127.3776 -0.1100 12.1705
v  -121.9827 -0.1100 7.9747
v  -99.9697 -0.1100 -1.2543
v  -118.6874 -0.1100 9.3736
v  -102.2449 -0.1100 13.8420
v  -94.9869 -0.1100 18.0894
v  -91.8216 -0.1100 13.0389
v  -98.5652 -0.1100 28.4492
v  -126.7650 -0.1100 -9.5802
v  -73.6913 -0.1100 -2.2651
v  -126.2037 -0.1100 -0.1812
v  -86.1703 -0.1100 6.4612
v  -87.2487 -0.1100 11.8692
# 27 vertices

vn 0.0000 -1.0000 -0.0000
vn -0.0000 -1.0000 -0.0000
# 2 vertex normals

vt 0.5021 0.6101 0.0000
vt 0.4289 0.5927 0.0000
vt 0.4323 0.4849 0.0000
vt 0.6715 0.9635 0.0000
vt 0.5966 0.9666 0.0000
vt 0.5830 0.9468 0.0000
vt 0.7473 0.9437 0.0000
vt 0.4181 0.9881 0.0000
vt 0.3533 0.9472 0.0000
vt 0.3479 0.9050 0.0000
vt 0.4951 0.9658 0.0000
vt 0.5032 0.9469 0.0000
vt 0.3663 0.8776 0.0000
vt 0.3521 0.6814 0.0000
vt 0.3534 0.6189 0.0000
vt 0.3929 0.6525 0.0000
vt 0.5542 0.7263 0.0000
vt 0.4171 0.6413 0.0000
vt 0.5375 0.6055 0.0000
vt 0.5907 0.5715 0.0000
vt 0.6138 0.6120 0.0000
vt 0.5644 0.4887 0.0000
vt 0.3579 0.7929 0.0000
vt 0.7466 0.7344 0.0000
vt 0.3620 0.7177 0.0000
vt 0.6552 0.6646 0.0000
vt 0.6473 0.6213 0.0000
# 27 texture coords

g world08_node05_alpha
usemtl alpha_gradient__rocks
s 1
f 3/3/1 2/2/1 1/1/1 
f 6/6/1 5/5/1 4/4/2 
f 4/4/2 7/7/2 6/6/1 
f 10/10/1 9/9/2 8/8/1 
f 8/8/1 11/11/1 10/10/1 
f 10/10/1 11/11/1 12/12/1 
f 12/12/1 13/13/1 10/10/1 
f 16/16/2 15/15/2 14/14/2 
f 18/18/1 17/17/1 1/1/1 
f 2/2/1 18/18/1 1/1/1 
f 21/21/2 20/20/1 19/19/1 
f 20/20/1 22/22/1 19/19/1 
f 6/6/1 17/17/1 12/12/1 
f 23/23/1 13/13/1 12/12/1 
f 12/12/1 17/17/1 23/23/1 
f 6/6/1 7/7/2 24/24/1 
f 24/24/1 17/17/1 6/6/1 
f 17/17/1 25/25/2 23/23/1 
f 17/17/1 26/26/1 19/19/1 
f 19/19/1 1/1/1 17/17/1 
f 17/17/1 24/24/1 26/26/1 
f 27/27/1 21/21/2 19/19/1 
f 19/19/1 26/26/1 27/27/1 
f 16/16/2 14/14/2 25/25/2 
f 18/18/1 16/16/2 25/25/2 
f 25/25/2 17/17/1 18/18/1 
# 26 faces

