# 3ds Max Wavefront OBJ Exporter v0.94b - (c)2007 guruware
# File Created: 11.08.2011 11:35:23

mtllib world08_road_00.mtl

#
# object world08_road_00
#

v  -44.1439 -0.2200 6.9780
v  -95.0698 -0.2200 6.9780
v  -95.0698 -0.2200 82.8653
v  -44.1439 -0.2200 82.8653
# 4 vertices

vn 0.0000 -1.0000 -0.0000
# 1 vertex normals

vt 0.8313 0.5203 0.0000
vt 0.9509 0.5204 0.0000
vt 0.9509 0.6985 0.0000
vt 0.8313 0.6985 0.0000
# 4 texture coords

g world08_road_00
usemtl world06_map02
s 1
f 3/3/1 2/2/1 1/1/1 
f 1/1/1 4/4/1 3/3/1 
# 2 faces

