# 3ds Max Wavefront OBJ Exporter v0.94b - (c)2007 guruware
# File Created: 11.08.2011 10:11:29

mtllib world08_node09.mtl

#
# object world08_node09
#

v  107.5478 -0.2200 -134.0362
v  51.5694 -0.2200 -134.0362
v  51.5695 -0.2200 -72.2610
v  107.5478 -0.2200 -72.2610
# 4 vertices

vn -0.0000 -1.0000 -0.0000
vn 0.0000 -1.0000 -0.0000
# 2 vertex normals

vt 0.0010 0.6644 0.0000
vt 0.1324 0.6644 0.0000
vt 0.1324 0.8094 0.0000
vt 0.0010 0.8094 0.0000
# 4 texture coords

g world08_node09
usemtl world06_map02
s 1
f 3/3/1 2/2/1 1/1/1 
f 1/1/1 4/4/2 3/3/1 
# 2 faces

