# 3ds Max Wavefront OBJ Exporter v0.94b - (c)2007 guruware
# File Created: 10.08.2011 17:32:01

mtllib world08_road_06_alpha.mtl

#
# object world08_road_06_alpha
#

v  -153.9365 -0.1200 0.3860
v  -150.2288 -0.1200 14.9730
v  -145.1744 -0.1200 -2.5915
v  -163.7832 -0.1200 -9.6896
v  -163.4622 -0.1200 -0.8067
v  -160.1151 -0.1200 -7.1798
v  -178.2079 -0.1200 -18.8609
v  -173.5822 -0.1200 -11.9422
v  -170.6490 -0.1200 -17.7713
v  -192.4089 -0.1200 -28.2841
v  -193.6934 -0.1200 -13.7943
v  -187.4509 -0.1200 -22.4021
v  -169.8420 -0.1200 -24.0216
v  -180.9119 -0.1200 -26.5275
v  -189.6600 -0.1200 -2.5027
v  -180.4844 -0.1200 -16.5627
v  -170.1746 -0.1200 -14.1613
v  -159.4373 -0.1200 12.1018
v  -154.4779 -0.1200 2.1972
v  -165.2631 -0.1200 -8.4483
v  -134.4104 -0.1200 2.6971
v  -125.6638 -0.1200 5.4651
v  -123.8221 -0.1200 -0.0862
v  -139.8299 -0.1200 -1.9992
v  -124.1255 -0.1200 -9.9613
v  -142.8558 -0.1200 -3.3379
v  -144.4924 -0.1200 -16.7528
v  -157.2652 -0.1200 -20.8816
v  -145.2040 -0.1200 -30.1424
v  -168.8324 -0.1200 -35.0023
v  -180.0610 -0.1200 -35.7784
v  -156.9810 -0.1200 -35.7948
v  -191.3678 -0.1200 -38.4118
v  -145.4516 -0.1200 -38.9851
v  -133.2909 -0.1200 -25.9433
v  -139.1443 -0.1200 -31.5212
v  -123.2660 -0.1200 -21.0956
v  -126.3928 -0.1200 -25.0851
# 38 vertices

vn 0.0000 -1.0000 -0.0000
# 1 vertex normals

vt 0.5220 0.6361 0.0000
vt 0.5548 0.4783 0.0000
vt 0.6015 0.6353 0.0000
vt 0.4386 0.7100 0.0000
vt 0.4403 0.6202 0.0000
vt 0.4703 0.6818 0.0000
vt 0.3070 0.7945 0.0000
vt 0.3481 0.7176 0.0000
vt 0.3741 0.7737 0.0000
vt 0.1864 0.8726 0.0000
vt 0.1719 0.7382 0.0000
vt 0.2297 0.8325 0.0000
vt 0.3813 0.8339 0.0000
vt 0.2830 0.8580 0.0000
vt 0.2094 0.6412 0.0000
vt 0.2850 0.7722 0.0000
vt 0.3835 0.7427 0.0000
vt 0.4737 0.4862 0.0000
vt 0.5179 0.5919 0.0000
vt 0.4246 0.6877 0.0000
vt 0.6960 0.5767 0.0000
vt 0.7737 0.5501 0.0000
vt 0.7900 0.6035 0.0000
vt 0.6479 0.6219 0.0000
vt 0.7873 0.6985 0.0000
vt 0.6210 0.6348 0.0000
vt 0.6064 0.7639 0.0000
vt 0.4930 0.8037 0.0000
vt 0.6001 0.8928 0.0000
vt 0.3903 0.9396 0.0000
vt 0.2905 0.9470 0.0000
vt 0.4955 0.9472 0.0000
vt 0.1901 0.9724 0.0000
vt 0.5979 0.9779 0.0000
vt 0.7059 0.8524 0.0000
vt 0.6539 0.9061 0.0000
vt 0.7950 0.8057 0.0000
vt 0.7672 0.8441 0.0000
# 38 texture coords

g world08_road_06_alpha
usemtl alpha_gradient__rocks
s 1
f 3/3/1 2/2/1 1/1/1 
f 6/6/1 5/5/1 4/4/1 
f 9/9/1 8/8/1 7/7/1 
f 12/12/1 11/11/1 10/10/1 
f 7/7/1 14/14/1 13/13/1 
f 13/13/1 9/9/1 7/7/1 
f 12/12/1 16/16/1 15/15/1 
f 12/12/1 7/7/1 16/16/1 
f 4/4/1 17/17/1 9/9/1 
f 6/6/1 19/19/1 18/18/1 
f 6/6/1 1/1/1 19/19/1 
f 4/4/1 20/20/1 17/17/1 
f 23/23/1 22/22/1 21/21/1 
f 21/21/1 24/24/1 23/23/1 
f 25/25/1 23/23/1 24/24/1 
f 27/27/1 26/26/1 3/3/1 
f 13/13/1 28/28/1 4/4/1 
f 4/4/1 9/9/1 13/13/1 
f 28/28/1 29/29/1 27/27/1 
f 27/27/1 25/25/1 24/24/1 
f 24/24/1 26/26/1 27/27/1 
f 14/14/1 31/31/1 30/30/1 
f 30/30/1 13/13/1 14/14/1 
f 13/13/1 30/30/1 32/32/1 
f 32/32/1 28/28/1 13/13/1 
f 28/28/1 6/6/1 4/4/1 
f 28/28/1 1/1/1 6/6/1 
f 27/27/1 3/3/1 1/1/1 
f 1/1/1 28/28/1 27/27/1 
f 10/10/1 33/33/1 31/31/1 
f 31/31/1 14/14/1 10/10/1 
f 12/12/1 10/10/1 14/14/1 
f 7/7/1 12/12/1 14/14/1 
f 32/32/1 34/34/1 29/29/1 
f 28/28/1 32/32/1 29/29/1 
f 27/27/1 35/35/1 25/25/1 
f 36/36/1 35/35/1 27/27/1 
f 27/27/1 29/29/1 36/36/1 
f 37/37/1 25/25/1 35/35/1 
f 35/35/1 38/38/1 37/37/1 
# 40 faces

