# 3ds Max Wavefront OBJ Exporter v0.94b - (c)2007 guruware
# File Created: 10.08.2011 17:30:39

mtllib world08_road_05_alpha.mtl

#
# object world08_road_05_alpha
#

v  -18.6245 -0.1000 18.9438
v  -15.5873 -0.1000 -12.6678
v  -26.5233 -0.1000 -10.6879
v  -34.5627 -0.1000 24.3885
v  -36.3651 -0.1000 -15.7558
v  -50.8273 -0.1000 17.2693
v  -4.5941 -0.1000 23.4455
v  -8.8633 -0.1000 -11.0583
v  -55.4359 -0.1000 -12.0791
v  -68.9532 -0.1000 15.5041
v  7.1734 -0.1000 14.1463
v  -3.9815 -0.1000 -16.5374
v  30.5828 -0.1000 1.9505
v  30.3995 -0.1000 -17.9299
v  25.7067 -0.1000 -22.6097
v  13.4066 -0.1000 16.9190
v  27.4310 -0.1000 16.9974
v  -65.2943 -0.1000 -13.8755
v  -76.7145 -0.1000 11.2011
v  -87.2335 -0.1000 11.4115
v  -83.5268 -0.1000 16.1377
v  -80.7894 -0.1000 11.2005
v  -76.1325 -0.1000 -13.6629
v  -75.5732 -0.1000 -21.0776
v  -89.4852 -0.1000 -4.6447
v  -89.2775 -0.1000 5.3373
v  -90.2963 -0.1000 11.3994
# 27 vertices

vn -0.0000 -1.0000 -0.0000
vn 0.0000 -1.0000 -0.0000
# 2 vertex normals

vt 0.5866 0.5865 0.0000
vt 0.6110 0.8794 0.0000
vt 0.5232 0.8611 0.0000
vt 0.4586 0.5361 0.0000
vt 0.4441 0.9080 0.0000
vt 0.3279 0.6020 0.0000
vt 0.6993 0.5448 0.0000
vt 0.6650 0.8645 0.0000
vt 0.2909 0.8739 0.0000
vt 0.1823 0.6184 0.0000
vt 0.7938 0.6310 0.0000
vt 0.7042 0.9153 0.0000
vt 0.9819 0.7440 0.0000
vt 0.9804 0.9282 0.0000
vt 0.9427 0.9715 0.0000
vt 0.8439 0.6053 0.0000
vt 0.9566 0.6045 0.0000
vt 0.2117 0.8906 0.0000
vt 0.1200 0.6582 0.0000
vt 0.0355 0.6563 0.0000
vt 0.0652 0.6125 0.0000
vt 0.0872 0.6583 0.0000
vt 0.1246 0.8886 0.0000
vt 0.1291 0.9573 0.0000
vt 0.0174 0.8051 0.0000
vt 0.0190 0.7126 0.0000
vt 0.0108 0.6564 0.0000
# 27 texture coords

g world08_road_05_alpha
usemtl alpha_gradient__rocks
s 1
f 3/3/1 2/2/2 1/1/1 
f 1/1/1 4/4/1 3/3/1 
f 6/6/2 5/5/2 3/3/1 
f 3/3/1 4/4/1 6/6/2 
f 8/8/1 7/7/1 1/1/1 
f 1/1/1 2/2/2 8/8/1 
f 6/6/2 10/10/2 9/9/2 
f 9/9/2 5/5/2 6/6/2 
f 12/12/1 11/11/2 7/7/1 
f 7/7/1 8/8/1 12/12/1 
f 12/12/1 14/14/2 13/13/2 
f 13/13/2 11/11/2 12/12/1 
f 12/12/1 15/15/2 14/14/2 
f 17/17/2 16/16/2 11/11/2 
f 11/11/2 13/13/2 17/17/2 
f 10/10/2 19/19/1 18/18/2 
f 18/18/2 9/9/2 10/10/2 
f 22/22/1 21/21/2 20/20/2 
f 24/24/2 18/18/2 23/23/2 
f 19/19/1 22/22/1 23/23/2 
f 23/23/2 18/18/2 19/19/1 
f 26/26/1 25/25/2 23/23/2 
f 22/22/1 20/20/2 26/26/1 
f 22/22/1 26/26/1 23/23/2 
f 20/20/2 27/27/1 26/26/1 
# 25 faces

