# 3ds Max Wavefront OBJ Exporter v0.94b - (c)2007 guruware
# File Created: 10.08.2011 17:32:27

mtllib world08_node06_alpha.mtl

#
# object world08_node06_alpha
#

v  -158.2889 -0.1300 -22.7235
v  -159.1306 -0.1300 -43.3657
v  -173.9228 -0.1300 -42.4986
v  -178.4415 -0.1300 -22.7739
v  -187.8236 -0.1300 -25.2107
v  -195.1713 -0.1300 -34.4554
v  -195.0708 -0.1300 -27.8680
v  -151.0931 -0.1300 -24.4275
v  -146.5144 -0.1300 -26.5839
v  -144.9919 -0.1300 -28.2841
v  -139.3313 -0.1300 -58.9850
v  -136.6755 -0.1300 -63.4409
v  -153.1653 -0.1300 -74.3817
v  -160.9029 -0.1300 -67.1848
v  -170.4139 -0.1300 -65.2390
v  -132.5876 -0.1300 -42.9817
v  -134.7271 -0.1300 -56.4759
v  -178.9854 -0.1300 -65.0592
v  -194.1970 -0.1300 -63.0779
v  -195.4936 -0.1300 -43.8374
v  -186.0338 -0.1300 -68.0466
v  -201.9044 -0.1300 -48.3603
v  -139.3158 -0.1300 -29.6944
v  -134.0040 -0.1300 -36.1870
# 24 vertices

vn 0.0000 -1.0000 -0.0000
# 1 vertex normals

vt 0.5577 0.4205 0.0000
vt 0.5500 0.6328 0.0000
vt 0.4144 0.6237 0.0000
vt 0.3729 0.4210 0.0000
vt 0.2869 0.4465 0.0000
vt 0.2227 0.5431 0.0000
vt 0.2236 0.4743 0.0000
vt 0.6237 0.4383 0.0000
vt 0.6656 0.4609 0.0000
vt 0.6796 0.4786 0.0000
vt 0.7315 0.7960 0.0000
vt 0.7558 0.8426 0.0000
vt 0.6047 0.9570 0.0000
vt 0.5337 0.8817 0.0000
vt 0.4465 0.8614 0.0000
vt 0.7933 0.6288 0.0000
vt 0.7737 0.7698 0.0000
vt 0.3680 0.8595 0.0000
vt 0.2285 0.8388 0.0000
vt 0.2197 0.6377 0.0000
vt 0.3033 0.8907 0.0000
vt 0.1754 0.6942 0.0000
vt 0.7316 0.4934 0.0000
vt 0.7803 0.5612 0.0000
# 24 texture coords

g world08_node06_alpha
usemtl alpha_gradient__rocks
s 1
f 3/3/1 2/2/1 1/1/1 
f 1/1/1 4/4/1 3/3/1 
f 6/6/1 3/3/1 5/5/1 
f 5/5/1 7/7/1 6/6/1 
f 10/10/1 9/9/1 8/8/1 
f 8/8/1 2/2/1 10/10/1 
f 13/13/1 12/12/1 11/11/1 
f 15/15/1 14/14/1 2/2/1 
f 2/2/1 3/3/1 15/15/1 
f 11/11/1 17/17/1 16/16/1 
f 16/16/1 2/2/1 11/11/1 
f 20/20/1 19/19/1 18/18/1 
f 18/18/1 3/3/1 20/20/1 
f 6/6/1 20/20/1 3/3/1 
f 3/3/1 4/4/1 5/5/1 
f 19/19/1 21/21/1 18/18/1 
f 18/18/1 15/15/1 3/3/1 
f 20/20/1 22/22/1 19/19/1 
f 8/8/1 1/1/1 2/2/1 
f 2/2/1 16/16/1 10/10/1 
f 24/24/1 23/23/1 10/10/1 
f 10/10/1 16/16/1 24/24/1 
f 2/2/1 14/14/1 11/11/1 
f 14/14/1 13/13/1 11/11/1 
# 24 faces

