# 3ds Max Wavefront OBJ Exporter v0.94b - (c)2007 guruware
# File Created: 11.08.2011 10:10:38

mtllib world08_node08_alpha.mtl

#
# object world08_node08_alpha
#

v  -51.0948 -0.1700 -72.0982
v  -45.2369 -0.1700 -82.0185
v  -52.1021 -0.1700 -87.1804
v  -42.4132 -0.1700 -84.4560
v  -40.5691 -0.1700 -82.3320
v  -34.1232 -0.1700 -82.4190
v  -57.0083 -0.1700 -101.3852
v  -13.0520 -0.1700 -105.8889
v  -11.3660 -0.1700 -109.7623
v  -57.6045 -0.1700 -104.4725
v  -56.9282 -0.1700 -94.2558
v  -34.9037 -0.1700 -95.1419
v  -11.1058 -0.1700 -120.7503
v  -15.5055 -0.1700 -126.9229
v  -31.5445 -0.1700 -132.3483
v  -39.2009 -0.1700 -125.7630
v  -51.2083 -0.1700 -124.8301
v  -59.8266 -0.1700 -118.6062
v  -58.9767 -0.1700 -114.8972
v  -12.1911 -0.1700 -117.3621
v  -12.8793 -0.1700 -96.0280
v  -22.8187 -0.1700 -84.3944
v  -11.5086 -0.1700 -91.4172
v  -57.6059 -0.1700 -91.0330
v  -36.8454 -0.1700 -72.7851
# 25 vertices

vn -0.0000 -1.0000 -0.0000
vn 0.0000 -1.0000 -0.0000
# 2 vertex normals

vt 0.3916 0.4859 0.0000
vt 0.4376 0.5691 0.0000
vt 0.3837 0.6124 0.0000
vt 0.4597 0.5895 0.0000
vt 0.4742 0.5717 0.0000
vt 0.5248 0.5724 0.0000
vt 0.3453 0.7315 0.0000
vt 0.6900 0.7692 0.0000
vt 0.7032 0.8017 0.0000
vt 0.3406 0.7573 0.0000
vt 0.3459 0.6717 0.0000
vt 0.5186 0.6791 0.0000
vt 0.7053 0.8938 0.0000
vt 0.6708 0.9456 0.0000
vt 0.5450 0.9911 0.0000
vt 0.4849 0.9359 0.0000
vt 0.3908 0.9280 0.0000
vt 0.3232 0.8759 0.0000
vt 0.3298 0.8448 0.0000
vt 0.6968 0.8654 0.0000
vt 0.6914 0.6865 0.0000
vt 0.6134 0.5890 0.0000
vt 0.7021 0.6479 0.0000
vt 0.3406 0.6447 0.0000
vt 0.5034 0.4917 0.0000
# 25 texture coords

g world08_node08_alpha
usemtl alpha_gradient__rocks
s 1
f 3/3/1 2/2/1 1/1/1 
f 6/6/2 5/5/2 4/4/2 
f 9/9/1 8/8/1 7/7/1 
f 7/7/1 10/10/1 9/9/1 
f 4/4/2 3/3/1 11/11/1 
f 11/11/1 12/12/1 4/4/2 
f 15/15/2 14/14/2 13/13/2 
f 13/13/2 16/16/1 15/15/2 
f 18/18/2 17/17/1 16/16/1 
f 16/16/1 19/19/1 18/18/2 
f 16/16/1 13/13/2 20/20/2 
f 20/20/2 19/19/1 16/16/1 
f 10/10/1 19/19/1 20/20/2 
f 20/20/2 9/9/1 10/10/1 
f 12/12/1 11/11/1 7/7/1 
f 8/8/1 21/21/2 12/12/1 
f 8/8/1 12/12/1 7/7/1 
f 21/21/2 23/23/2 22/22/1 
f 22/22/1 12/12/1 21/21/2 
f 22/22/1 6/6/2 4/4/2 
f 4/4/2 12/12/1 22/22/1 
f 3/3/1 24/24/1 11/11/1 
f 6/6/2 25/25/2 5/5/2 
f 3/3/1 4/4/2 2/2/1 
# 24 faces

