# 3ds Max Wavefront OBJ Exporter v0.94b - (c)2007 guruware
# File Created: 11.08.2011 10:10:57

mtllib world08_road_09_alpha.mtl

#
# object world08_road_09_alpha
#

v  8.5342 -0.1800 -90.2977
v  10.7859 -0.1800 -95.9943
v  4.4130 -0.1800 -95.4068
v  17.4037 -0.1800 -122.3647
v  0.6528 -0.1800 -121.7177
v  -14.5710 -0.1800 -96.5801
v  -12.6994 -0.1800 -90.9801
v  -10.1884 -0.1800 -92.4086
v  -5.3168 -0.1800 -98.5491
v  54.3393 -0.1800 -101.3918
v  56.8198 -0.1800 -107.8536
v  34.3604 -0.1800 -110.8372
v  36.5347 -0.1800 -96.2448
v  52.8736 -0.1800 -122.5296
v  32.7524 -0.1800 -122.4707
v  57.6842 -0.1800 -113.9894
v  51.5111 -0.1800 -97.2397
v  22.1439 -0.1800 -95.8370
v  7.8176 -0.1800 -128.0837
v  -4.9371 -0.1800 -126.0581
v  -13.3805 -0.1800 -121.6724
v  -13.6765 -0.1800 -118.0395
v  -13.0494 -0.1800 -110.8755
v  -14.6893 -0.1800 -106.7361
v  16.5365 -0.1800 -98.5627
v  57.6784 -0.1800 -119.7279
v  58.4965 -0.1800 -123.3024
# 27 vertices

vn 0.0000 -1.0000 -0.0000
vn -0.0000 -1.0000 -0.0000
# 2 vertex normals

vt 0.3402 0.4939 0.0000
vt 0.3681 0.5673 0.0000
vt 0.2892 0.5597 0.0000
vt 0.4502 0.9070 0.0000
vt 0.2426 0.8987 0.0000
vt 0.0539 0.5748 0.0000
vt 0.0771 0.5027 0.0000
vt 0.1082 0.5211 0.0000
vt 0.1686 0.6002 0.0000
vt 0.9079 0.6368 0.0000
vt 0.9386 0.7201 0.0000
vt 0.6603 0.7585 0.0000
vt 0.6872 0.5705 0.0000
vt 0.8897 0.9091 0.0000
vt 0.6404 0.9084 0.0000
vt 0.9493 0.7991 0.0000
vt 0.8728 0.5833 0.0000
vt 0.5089 0.5652 0.0000
vt 0.3314 0.9807 0.0000
vt 0.1733 0.9546 0.0000
vt 0.0687 0.8981 0.0000
vt 0.0650 0.8513 0.0000
vt 0.0728 0.7590 0.0000
vt 0.0524 0.7057 0.0000
vt 0.4394 0.6004 0.0000
vt 0.9493 0.8730 0.0000
vt 0.9594 0.9191 0.0000
# 27 texture coords

g world08_road_09_alpha
usemtl alpha_gradient__rocks
s 1
f 3/3/1 2/2/1 1/1/1 
f 5/5/1 4/4/1 2/2/1 
f 2/2/1 3/3/1 5/5/1 
f 8/8/2 7/7/2 6/6/2 
f 6/6/2 9/9/2 8/8/2 
f 12/12/2 11/11/2 10/10/2 
f 10/10/2 13/13/2 12/12/2 
f 12/12/2 15/15/1 14/14/2 
f 14/14/2 16/16/2 12/12/2 
f 10/10/2 17/17/2 13/13/2 
f 4/4/1 12/12/2 18/18/1 
f 5/5/1 19/19/2 4/4/1 
f 22/22/1 21/21/1 20/20/1 
f 20/20/1 5/5/1 22/22/1 
f 6/6/2 24/24/1 23/23/1 
f 23/23/1 9/9/2 6/6/2 
f 3/3/1 9/9/2 23/23/1 
f 23/23/1 5/5/1 3/3/1 
f 4/4/1 25/25/2 2/2/1 
f 4/4/1 18/18/1 25/25/2 
f 23/23/1 22/22/1 5/5/1 
f 12/12/2 13/13/2 18/18/1 
f 4/4/1 15/15/1 12/12/2 
f 12/12/2 16/16/2 11/11/2 
f 14/14/2 27/27/2 26/26/2 
f 14/14/2 26/26/2 16/16/2 
# 26 faces

