# 3ds Max Wavefront OBJ Exporter v0.94b - (c)2007 guruware
# File Created: 11.08.2011 10:09:24

mtllib world08_road_07_alpha.mtl

#
# object world08_road_07_alpha
#

v  -138.5359 -0.1400 -107.6234
v  -133.5053 -0.1400 -76.1597
v  -125.9316 -0.1400 -81.9724
v  -127.3947 -0.1400 -102.2179
v  -180.5488 -0.1400 -60.2752
v  -179.5019 -0.1400 -50.9054
v  -163.4821 -0.1400 -50.7919
v  -159.7956 -0.1400 -55.9476
v  -158.7474 -0.1400 -63.0178
v  -182.5640 -0.1400 -64.8180
v  -154.4641 -0.1400 -66.5882
v  -182.4672 -0.1400 -90.3007
v  -175.1286 -0.1400 -95.9995
v  -150.0540 -0.1400 -75.8060
v  -142.9028 -0.1400 -112.3058
v  -150.5698 -0.1400 -108.5304
v  -141.6950 -0.1400 -75.4978
v  -169.3294 -0.1400 -107.4681
# 18 vertices

vn 0.0000 -1.0000 -0.0000
# 1 vertex normals

vt 0.6220 0.9476 0.0000
vt 0.6572 0.7065 0.0000
vt 0.7103 0.7510 0.0000
vt 0.7001 0.9062 0.0000
vt 0.3274 0.5848 0.0000
vt 0.3347 0.5129 0.0000
vt 0.4470 0.5121 0.0000
vt 0.4729 0.5516 0.0000
vt 0.4802 0.6058 0.0000
vt 0.3132 0.6196 0.0000
vt 0.5103 0.6331 0.0000
vt 0.3139 0.8149 0.0000
vt 0.3654 0.8586 0.0000
vt 0.5412 0.7038 0.0000
vt 0.5913 0.9835 0.0000
vt 0.5376 0.9546 0.0000
vt 0.5998 0.7014 0.0000
vt 0.4060 0.9464 0.0000
# 18 texture coords

g world08_road_07_alpha
usemtl alpha_gradient__rocks
s 1
f 3/3/1 2/2/1 1/1/1 
f 1/1/1 4/4/1 3/3/1 
f 7/7/1 6/6/1 5/5/1 
f 5/5/1 8/8/1 7/7/1 
f 9/9/1 8/8/1 5/5/1 
f 5/5/1 10/10/1 9/9/1 
f 11/11/1 9/9/1 10/10/1 
f 10/10/1 12/12/1 11/11/1 
f 11/11/1 12/12/1 13/13/1 
f 13/13/1 14/14/1 11/11/1 
f 16/16/1 15/15/1 1/1/1 
f 17/17/1 16/16/1 1/1/1 
f 1/1/1 2/2/1 17/17/1 
f 14/14/1 13/13/1 16/16/1 
f 16/16/1 17/17/1 14/14/1 
f 13/13/1 18/18/1 16/16/1 
# 16 faces

