# 3ds Max Wavefront OBJ Exporter v0.94b - (c)2007 guruware
# File Created: 11.08.2011 13:20:10

mtllib world08_node04_alpha.mtl

#
# object world08_node04_alpha
#

v  33.8093 -0.0900 19.0392
v  34.1396 -0.0900 25.7861
v  38.7846 -0.0900 22.0585
v  45.9708 -0.0900 24.4387
v  49.7466 -0.0900 31.5189
v  52.8027 -0.0900 23.2981
v  59.3906 -0.0900 22.2786
v  62.4800 -0.0900 28.8108
v  65.7979 -0.0900 22.1100
v  72.2042 -0.0900 38.8484
v  72.8029 -0.0900 18.9469
v  50.9713 -0.0900 -33.7714
v  37.1517 -0.0900 -33.5099
v  23.9978 -0.0900 -21.8905
v  57.2833 -0.0900 -30.4402
v  80.6065 -0.0900 -21.5640
v  80.0165 -0.0900 -26.7715
v  64.7909 -0.0900 -34.0328
v  27.5919 -0.0900 -17.7151
v  79.2343 -0.0900 -16.6914
v  27.5771 -0.0900 1.5671
v  79.2186 -0.0900 2.0171
v  54.5751 -0.0900 17.3810
v  76.1482 -0.0900 15.7227
v  24.7589 -0.0900 16.1757
v  77.4185 -0.0900 15.3926
# 26 vertices

vn 0.0000 -1.0000 -0.0000
# 1 vertex normals

vt 0.3694 0.6184 0.0000
vt 0.3716 0.5736 0.0000
vt 0.4017 0.5983 0.0000
vt 0.4483 0.5826 0.0000
vt 0.4727 0.5356 0.0000
vt 0.4925 0.5901 0.0000
vt 0.5352 0.5969 0.0000
vt 0.5553 0.5536 0.0000
vt 0.5768 0.5980 0.0000
vt 0.6183 0.4870 0.0000
vt 0.6222 0.6190 0.0000
vt 0.4807 0.9685 0.0000
vt 0.3911 0.9668 0.0000
vt 0.3111 0.8898 0.0000
vt 0.5216 0.9465 0.0000
vt 0.6675 0.8876 0.0000
vt 0.6637 0.9221 0.0000
vt 0.5703 0.9703 0.0000
vt 0.3344 0.8621 0.0000
vt 0.6586 0.8553 0.0000
vt 0.3343 0.7342 0.0000
vt 0.6585 0.7312 0.0000
vt 0.5040 0.6294 0.0000
vt 0.6386 0.6404 0.0000
vt 0.3161 0.6374 0.0000
vt 0.6469 0.6425 0.0000
# 26 texture coords

g world08_node04_alpha
usemtl alpha_gradient__rocks
s 1
f 3/3/1 2/2/1 1/1/1 
f 6/6/1 5/5/1 4/4/1 
f 9/9/1 8/8/1 7/7/1 
f 11/11/1 10/10/1 9/9/1 
f 14/14/1 13/13/1 12/12/1 
f 12/12/1 15/15/1 14/14/1 
f 18/18/1 17/17/1 16/16/1 
f 16/16/1 15/15/1 18/18/1 
f 19/19/1 14/14/1 15/15/1 
f 19/19/1 15/15/1 16/16/1 
f 19/19/1 16/16/1 20/20/1 
f 20/20/1 22/22/1 21/21/1 
f 21/21/1 19/19/1 20/20/1 
f 6/6/1 4/4/1 3/3/1 
f 23/23/1 6/6/1 3/3/1 
f 23/23/1 3/3/1 1/1/1 
f 23/23/1 7/7/1 6/6/1 
f 23/23/1 24/24/1 11/11/1 
f 23/23/1 11/11/1 9/9/1 
f 23/23/1 9/9/1 7/7/1 
f 23/23/1 1/1/1 21/21/1 
f 24/24/1 23/23/1 21/21/1 
f 22/22/1 24/24/1 21/21/1 
f 1/1/1 25/25/1 21/21/1 
f 22/22/1 26/26/1 24/24/1 
# 25 faces

