# 3ds Max Wavefront OBJ Exporter v0.94b - (c)2007 guruware
# File Created: 10.08.2011 17:11:09

mtllib world08_node04.mtl

#
# object world08_node04
#

v  80.2291 -0.0800 -33.5211
v  25.6943 -0.0800 -33.5211
v  25.6943 -0.0800 36.5604
v  80.2292 -0.0800 36.5604
# 4 vertices

vn 0.0000 -1.0000 -0.0000
# 1 vertex normals

vt 0.2726 0.8345 0.0000
vt 0.4006 0.8345 0.0000
vt 0.4006 0.9990 0.0000
vt 0.2726 0.9990 0.0000
# 4 texture coords

g world08_node04
usemtl world06_map02
s 1
f 3/3/1 2/2/1 1/1/1 
f 1/1/1 4/4/1 3/3/1 
# 2 faces

