# 3ds Max Wavefront OBJ Exporter v0.94b - (c)2007 guruware
# File Created: 11.08.2011 10:11:07

mtllib world08_road_09.mtl

#
# object world08_road_09
#

v  60.8487 -0.1700 -128.9031
v  -18.2718 -0.1700 -128.9031
v  -18.2717 -0.1700 -91.1519
v  60.8487 -0.1700 -91.1519
# 4 vertices

vn 0.0000 -1.0000 -0.0000
# 1 vertex normals

vt 0.4792 0.6747 0.0000
vt 0.6650 0.6747 0.0000
vt 0.6650 0.7633 0.0000
vt 0.4792 0.7633 0.0000
# 4 texture coords

g world08_road_09
usemtl world06_map02
s 1
f 3/3/1 2/2/1 1/1/1 
f 1/1/1 4/4/1 3/3/1 
# 2 faces

