# 3ds Max Wavefront OBJ Exporter v0.94b - (c)2007 guruware
# File Created: 10.08.2011 17:10:30

mtllib world08_node03_alpha.mtl

#
# object world08_node03_alpha
#

v  109.6864 -0.0700 18.1315
v  147.2913 -0.0700 -36.2844
v  108.3134 -0.0700 -18.4270
v  106.9620 -0.0700 17.5645
v  107.1890 -0.0700 3.4031
v  115.3301 -0.0700 22.1540
v  116.6168 -0.0700 38.6745
v  122.2039 -0.0700 26.9542
v  110.0056 -0.0700 24.2243
v  134.1275 -0.0700 28.6446
v  152.1272 -0.0700 26.0704
v  157.4240 -0.0700 19.2613
v  166.8499 -0.0700 14.0742
v  166.6159 -0.0700 8.0228
v  169.8139 -0.0700 7.4362
v  170.1186 -0.0700 -3.5329
v  132.7467 -0.0700 -45.1646
v  105.2165 -0.0700 -22.6105
v  162.2877 -0.0700 -40.2613
# 19 vertices

vn 0.0000 -1.0000 -0.0000
# 1 vertex normals

vt 0.3553 0.6125 0.0000
vt 0.5537 0.9295 0.0000
vt 0.3481 0.8254 0.0000
vt 0.3409 0.6158 0.0000
vt 0.3421 0.6983 0.0000
vt 0.3860 0.5913 0.0000
vt 0.3958 0.5094 0.0000
vt 0.4194 0.5619 0.0000
vt 0.3570 0.5770 0.0000
vt 0.4842 0.5513 0.0000
vt 0.5792 0.5663 0.0000
vt 0.6071 0.6059 0.0000
vt 0.6568 0.6362 0.0000
vt 0.6556 0.6714 0.0000
vt 0.6725 0.6748 0.0000
vt 0.6741 0.7387 0.0000
vt 0.4769 0.9812 0.0000
vt 0.3317 0.8498 0.0000
vt 0.6328 0.9526 0.0000
# 19 texture coords

g world08_node03_alpha
usemtl alpha_gradient__rocks
s 1
f 3/3/1 2/2/1 1/1/1 
f 3/3/1 1/1/1 4/4/1 
f 3/3/1 4/4/1 5/5/1 
f 8/8/1 7/7/1 6/6/1 
f 6/6/1 9/9/1 1/1/1 
f 12/12/1 11/11/1 10/10/1 
f 10/10/1 8/8/1 12/12/1 
f 14/14/1 13/13/1 12/12/1 
f 14/14/1 12/12/1 8/8/1 
f 14/14/1 8/8/1 6/6/1 
f 16/16/1 15/15/1 14/14/1 
f 3/3/1 18/18/1 17/17/1 
f 17/17/1 2/2/1 3/3/1 
f 2/2/1 19/19/1 16/16/1 
f 16/16/1 14/14/1 2/2/1 
f 14/14/1 6/6/1 1/1/1 
f 1/1/1 2/2/1 14/14/1 
# 17 faces

