# 3ds Max Wavefront OBJ Exporter v0.94b - (c)2007 guruware
# File Created: 11.08.2011 13:51:23

mtllib world08_road_13_alpha.mtl

#
# object world08_road_13_alpha
#

v  -16.4974 -1.1482 -27.6115
v  -4.5479 -1.1482 -29.6749
v  -16.2681 -1.1482 -28.8725
v  -30.8262 -1.1482 -76.6733
v  -38.3643 -1.1482 -69.3092
v  -11.5683 -1.1483 -65.6688
v  -11.1658 -1.1482 -75.3638
v  -19.2705 -1.1482 -83.6731
v  -9.3903 -1.1482 -79.9976
v  -12.5161 -1.1482 -77.4943
v  -22.3057 -1.1482 -79.6767
v  -15.0072 -1.1482 -24.4019
v  -3.9748 -1.1482 -24.6311
v  -44.0201 -1.1482 -66.1571
v  -41.2575 -1.1482 -64.2932
v  -36.9043 -1.1482 -76.0807
v  -26.8438 -1.1482 -80.7652
v  -29.6256 -1.1482 -78.7330
v  -12.5110 -1.1484 -60.7960
v  -42.0907 -1.1482 -57.4060
v  -40.9063 -1.1482 -53.6272
v  -41.9390 -1.1482 -51.6806
v  -42.4571 -1.1482 -44.7774
v  -7.6594 -1.1483 -50.9959
v  -8.2440 -1.1482 -22.9235
v  -19.0804 -1.1482 -32.0248
v  -17.8730 -1.1482 -28.7578
v  -3.7802 -1.1482 -43.9681
v  -2.1764 -1.1482 -48.0502
v  -25.0488 -1.1482 -36.1385
v  -25.3239 -1.1482 -32.9991
v  -4.1640 -1.1482 -36.8215
v  -35.2968 -1.1482 -37.5844
v  -33.7551 -1.1482 -35.4380
v  -28.0466 -1.1482 -34.6432
v  -43.2161 -1.1482 -42.1544
v  -42.5184 -1.1482 -38.2722
v  -15.3187 -1.1482 -84.0085
# 38 vertices

vn 0.0000 -1.0000 0.0000
vn -0.0000 -1.0000 -0.0000
vn 0.0000 -1.0000 -0.0000
vn 0.0000 1.0000 0.0000
vn -0.0000 1.0000 0.0000
vn -0.0000 -1.0000 0.0000
vn -1.0000 0.0000 0.0000
# 7 vertex normals

vt 0.5366 0.4375 0.0000
vt 0.6247 0.4562 0.0000
vt 0.5385 0.4489 0.0000
vt 0.4182 0.8816 0.0000
vt 0.3559 0.8150 0.0000
vt 0.5773 0.7820 0.0000
vt 0.5807 0.8698 0.0000
vt 0.5137 0.9450 0.0000
vt 0.5953 0.9117 0.0000
vt 0.5695 0.8891 0.0000
vt 0.4886 0.9088 0.0000
vt 0.5489 0.4085 0.0000
vt 0.6295 0.4106 0.0000
vt 0.3026 0.7842 0.0000
vt 0.3320 0.7696 0.0000
vt 0.3679 0.8763 0.0000
vt 0.4511 0.9187 0.0000
vt 0.4281 0.9003 0.0000
vt 0.5492 0.7227 0.0000
vt 0.3251 0.7072 0.0000
vt 0.3349 0.6730 0.0000
vt 0.3263 0.6554 0.0000
vt 0.3220 0.5929 0.0000
vt 0.5990 0.6210 0.0000
vt 0.6048 0.3951 0.0000
vt 0.5196 0.4832 0.0000
vt 0.5252 0.4479 0.0000
vt 0.6311 0.5856 0.0000
vt 0.6443 0.6225 0.0000
vt 0.4551 0.5309 0.0000
vt 0.4637 0.4863 0.0000
vt 0.6279 0.5209 0.0000
vt 0.3812 0.5278 0.0000
vt 0.3841 0.5091 0.0000
vt 0.4314 0.5081 0.0000
vt 0.3158 0.5692 0.0000
vt 0.3215 0.5340 0.0000
vt 0.5463 0.9480 0.0000
# 38 texture coords

g world08_road_13_alpha
usemtl alpha_gradient__rocks
s 1
f 3/3/1 2/2/1 1/1/1 
f 6/6/3 5/5/2 4/4/2 
f 4/4/2 7/7/3 6/6/3 
f 10/10/5 9/9/4 8/8/4 
f 8/8/4 11/11/2 10/10/5 
f 8/8/3 9/9/4 10/10/3 
f 10/10/2 11/11/2 8/8/2 
f 2/2/1 13/13/6 12/12/6 
f 12/12/6 1/1/1 2/2/1 
f 15/15/2 14/14/2 5/5/2 
f 5/5/2 16/16/2 4/4/2 
f 18/18/3 17/17/3 11/11/2 
f 11/11/2 4/4/2 18/18/3 
f 11/11/2 10/10/2 7/7/3 
f 7/7/3 4/4/2 11/11/2 
f 19/19/2 15/15/2 5/5/2 
f 5/5/2 6/6/3 19/19/2 
f 19/19/2 20/20/6 15/15/2 
f 19/19/2 21/21/6 20/20/6 
f 23/23/6 22/22/2 21/21/6 
f 24/24/1 23/23/6 21/21/6 
f 19/19/2 24/24/1 21/21/6 
f 13/13/6 25/25/6 12/12/6 
f 3/3/1 27/27/2 26/26/2 
f 24/24/1 29/29/1 28/28/1 
f 26/26/2 31/31/2 30/30/6 
f 30/30/6 32/32/1 26/26/2 
f 2/2/1 3/3/1 26/26/2 
f 26/26/2 32/32/1 2/2/1 
f 35/35/6 34/34/6 33/33/6 
f 33/33/6 30/30/6 35/35/6 
f 37/37/2 36/36/2 23/23/6 
f 23/23/6 33/33/6 37/37/2 
f 24/24/1 28/28/1 32/32/1 
f 24/24/1 32/32/1 30/30/6 
f 24/24/1 30/30/6 33/33/6 
f 24/24/1 33/33/6 23/23/6 
f 9/9/4 38/38/7 8/8/4 
f 8/8/2 38/38/7 9/9/2 
# 39 faces

