# 3ds Max Wavefront OBJ Exporter v0.94b - (c)2007 guruware
# File Created: 10.08.2011 17:32:57

mtllib world08_road_07.mtl

#
# object world08_road_07
#

v  -121.1354 -0.1300 -113.5008
v  -183.7376 -0.1300 -113.5008
v  -183.7375 -0.1300 -40.6313
v  -121.1354 -0.1300 -40.6313
# 4 vertices

vn 0.0000 -1.0000 -0.0000
# 1 vertex normals

vt 0.6988 0.3455 0.0000
vt 0.8458 0.3455 0.0000
vt 0.8458 0.5165 0.0000
vt 0.6988 0.5165 0.0000
# 4 texture coords

g world08_road_07
usemtl world06_map02
s 1
f 3/3/1 2/2/1 1/1/1 
f 1/1/1 4/4/1 3/3/1 
# 2 faces

