# 3ds Max Wavefront OBJ Exporter v0.94b - (c)2007 guruware
# File Created: 11.08.2011 13:52:51

mtllib world08_road_13.mtl

#
# object world08_road_13
#

v  -0.7152 -0.7474 -85.3927
v  -43.3688 -0.7474 -85.3927
v  -43.3688 -0.7474 -23.4339
v  -0.7152 -0.7474 -23.4339
# 4 vertices

vn 0.0000 -1.0000 -0.0000
# 1 vertex normals

vt 0.3601 0.5515 0.0000
vt 0.4602 0.5515 0.0000
vt 0.4602 0.6969 0.0000
vt 0.3601 0.6969 0.0000
# 4 texture coords

g world08_road_13
usemtl world06_map02
s 1
f 3/3/1 2/2/1 1/1/1 
f 1/1/1 4/4/1 3/3/1 
# 2 faces

