# 3ds Max Wavefront OBJ Exporter v0.94b - (c)2007 guruware
# File Created: 11.08.2011 15:21:27

mtllib world08_node12.mtl

#
# object world08_node12
#

v  -69.6170 -0.2000 -81.0384
v  -131.4856 -0.2000 -81.0384
v  -131.4856 -0.2000 -28.8542
v  -69.6170 -0.2000 -28.8542
v  -85.7439 -0.2200 -89.6109
v  -105.9150 -0.2200 -89.6109
v  -105.9150 -0.2200 -64.7052
v  -85.7438 -0.2200 -64.7052
# 8 vertices

vn 0.0000 -1.0000 -0.0000
# 1 vertex normals

vt 0.4013 0.7637 0.0000
vt 0.5465 0.7637 0.0000
vt 0.5465 0.8862 0.0000
vt 0.4013 0.8862 0.0000
vt 0.3225 0.7755 0.0000
vt 0.3698 0.7755 0.0000
vt 0.3698 0.8340 0.0000
vt 0.3225 0.8340 0.0000
# 8 texture coords

g world08_node12
usemtl world06_map02
s 1
f 3/3/1 2/2/1 1/1/1 
f 1/1/1 4/4/1 3/3/1 
f 7/7/1 6/6/1 5/5/1 
f 5/5/1 8/8/1 7/7/1 
# 4 faces

