# 3ds Max Wavefront OBJ Exporter v0.94b - (c)2007 guruware
# File Created: 10.08.2011 17:32:13

mtllib world08_node06.mtl

#
# object world08_node06
#

v  -134.4491 -0.1200 -73.2090
v  -201.0337 -0.1200 -73.2090
v  -201.0336 -0.1200 -23.0973
v  -134.4491 -0.1200 -23.0973
# 4 vertices

vn 0.0000 -1.0000 -0.0000
# 1 vertex normals

vt 0.6768 0.7330 0.0000
vt 0.8331 0.7330 0.0000
vt 0.8331 0.8506 0.0000
vt 0.6768 0.8506 0.0000
# 4 texture coords

g world08_node06
usemtl world06_map02
s 1
f 3/3/1 2/2/1 1/1/1 
f 1/1/1 4/4/1 3/3/1 
# 2 faces

