# 3ds Max Wavefront OBJ Exporter v0.94b - (c)2007 guruware
# File Created: 11.08.2011 10:10:48

mtllib world08_node08.mtl

#
# object world08_node08
#

v  -10.5010 -0.1600 -132.8580
v  -60.4182 -0.1600 -132.8581
v  -60.4181 -0.1600 -73.6576
v  -12.2018 -0.1600 -73.6576
# 4 vertices

vn 0.0000 -1.0000 -0.0000
# 1 vertex normals

vt 0.8313 0.7019 0.0000
vt 0.9485 0.7018 0.0000
vt 0.9485 0.8408 0.0000
vt 0.8353 0.8408 0.0000
# 4 texture coords

g world08_node08
usemtl world06_map02
s 1
f 3/3/1 2/2/1 1/1/1 
f 1/1/1 4/4/1 3/3/1 
# 2 faces

