# 3ds Max Wavefront OBJ Exporter v0.94b - (c)2007 guruware
# File Created: 10.08.2011 17:30:09

mtllib world08_road_05.mtl

#
# object world08_road_05
#

v  35.3852 -0.0900 -24.2743
v  -96.2068 -0.0900 -24.2743
v  -96.2068 -0.0900 23.4455
v  35.3852 -0.0900 23.4455
# 4 vertices

vn 0.0000 -1.0000 -0.0000
# 1 vertex normals

vt 0.4014 0.8869 0.0000
vt 0.7104 0.8869 0.0000
vt 0.7104 0.9989 0.0000
vt 0.4015 0.9989 0.0000
# 4 texture coords

g world08_road_05
usemtl world06_map02
s 1
f 3/3/1 2/2/1 1/1/1 
f 1/1/1 4/4/1 3/3/1 
# 2 faces

