# 3ds Max Wavefront OBJ Exporter v0.94b - (c)2007 guruware
# File Created: 11.08.2011 10:12:07

mtllib world08_node11.mtl

#
# object world08_node11
#

v  196.9952 -0.2200 -107.5535
v  134.9837 -0.2200 -107.5536
v  139.5387 -0.2200 -47.9322
v  196.9952 -0.2200 -47.9322
# 4 vertices

vn 0.0000 -1.0000 -0.0000
# 1 vertex normals

vt 0.1351 0.3359 0.0000
vt 0.2807 0.3359 0.0000
vt 0.2700 0.4758 0.0000
vt 0.1351 0.4758 0.0000
# 4 texture coords

g world08_node11
usemtl world06_map02
s 1
f 3/3/1 2/2/1 1/1/1 
f 1/1/1 4/4/1 3/3/1 
# 2 faces

