# 3ds Max Wavefront OBJ Exporter v0.94b - (c)2007 guruware
# File Created: 11.08.2011 10:11:58

mtllib world08_node11_alpha.mtl

#
# object world08_node11_alpha
#

v  163.2733 -0.2300 -59.2617
v  158.3971 -0.2300 -57.7777
v  160.5376 -0.2300 -51.3385
v  167.7610 -0.2300 -61.5476
v  166.3685 -0.2300 -77.5950
v  156.6825 -0.2300 -60.4005
v  148.2471 -0.2300 -60.9736
v  154.3612 -0.2300 -56.9584
v  155.6739 -0.2300 -60.5397
v  152.0330 -0.2300 -43.9007
v  179.6930 -0.2300 -63.3567
v  186.5873 -0.2300 -53.0107
v  186.2773 -0.2300 -66.4654
v  191.4354 -0.2300 -62.5131
v  189.3243 -0.2300 -69.3575
v  190.7203 -0.2300 -73.8231
v  195.0071 -0.2300 -76.8302
v  196.0610 -0.2300 -90.0145
v  190.1977 -0.2300 -99.1384
v  190.4590 -0.2300 -86.4808
v  179.6986 -0.2300 -105.1431
v  168.2370 -0.2300 -106.0581
v  164.1408 -0.2300 -103.1261
v  177.1693 -0.2300 -101.1322
v  178.4138 -0.2300 -82.0379
v  137.1884 -0.2300 -95.1522
v  153.2798 -0.2300 -75.0113
v  176.2764 -0.2300 -61.8704
v  160.6027 -0.2300 -106.1678
v  150.5442 -0.2300 -105.9642
v  138.3974 -0.2300 -76.2165
v  142.2166 -0.2300 -68.5766
v  146.3878 -0.2300 -61.1478
v  135.7108 -0.2300 -87.4310
v  136.9984 -0.2300 -84.8526
# 35 vertices

vn 0.0000 -1.0000 -0.0000
vn -0.0000 -1.0000 -0.0000
# 2 vertex normals

vt 0.5849 0.6012 0.0000
vt 0.5492 0.5892 0.0000
vt 0.5649 0.5373 0.0000
vt 0.6177 0.6196 0.0000
vt 0.6075 0.7489 0.0000
vt 0.5367 0.6103 0.0000
vt 0.4750 0.6150 0.0000
vt 0.5197 0.5826 0.0000
vt 0.5293 0.6115 0.0000
vt 0.5027 0.4773 0.0000
vt 0.7050 0.6342 0.0000
vt 0.7554 0.5508 0.0000
vt 0.7532 0.6592 0.0000
vt 0.7909 0.6274 0.0000
vt 0.7755 0.6825 0.0000
vt 0.7857 0.7185 0.0000
vt 0.8170 0.7428 0.0000
vt 0.8247 0.8491 0.0000
vt 0.7818 0.9226 0.0000
vt 0.7838 0.8206 0.0000
vt 0.7050 0.9710 0.0000
vt 0.6212 0.9784 0.0000
vt 0.5912 0.9547 0.0000
vt 0.6865 0.9387 0.0000
vt 0.6956 0.7848 0.0000
vt 0.3941 0.8905 0.0000
vt 0.5118 0.7281 0.0000
vt 0.6800 0.6222 0.0000
vt 0.5653 0.9793 0.0000
vt 0.4918 0.9776 0.0000
vt 0.4029 0.7378 0.0000
vt 0.4308 0.6762 0.0000
vt 0.4614 0.6164 0.0000
vt 0.3833 0.8282 0.0000
vt 0.3927 0.8074 0.0000
# 35 texture coords

g world08_node11_alpha
usemtl alpha_gradient__rocks
s 1
f 3/3/1 2/2/1 1/1/1 
f 6/6/1 5/5/1 4/4/1 
f 4/4/1 1/1/1 6/6/1 
f 2/2/1 6/6/1 1/1/1 
f 9/9/1 8/8/2 7/7/2 
f 8/8/2 10/10/2 7/7/2 
f 13/13/1 12/12/1 11/11/1 
f 15/15/1 14/14/1 13/13/1 
f 18/18/2 17/17/2 16/16/1 
f 20/20/1 19/19/2 18/18/2 
f 20/20/1 18/18/2 16/16/1 
f 23/23/1 22/22/1 21/21/2 
f 24/24/2 23/23/1 21/21/2 
f 24/24/2 21/21/2 19/19/2 
f 24/24/2 19/19/2 20/20/1 
f 20/20/1 25/25/1 24/24/2 
f 27/27/1 26/26/2 23/23/1 
f 23/23/1 5/5/1 27/27/1 
f 5/5/1 25/25/1 28/28/1 
f 28/28/1 4/4/1 5/5/1 
f 30/30/1 29/29/2 23/23/1 
f 23/23/1 26/26/2 30/30/1 
f 27/27/1 32/32/1 31/31/1 
f 25/25/1 5/5/1 23/23/1 
f 23/23/1 24/24/2 25/25/1 
f 25/25/1 16/16/1 15/15/1 
f 15/15/1 13/13/1 25/25/1 
f 25/25/1 11/11/1 28/28/1 
f 25/25/1 13/13/1 11/11/1 
f 25/25/1 20/20/1 16/16/1 
f 6/6/1 9/9/1 27/27/1 
f 27/27/1 5/5/1 6/6/1 
f 9/9/1 7/7/2 27/27/1 
f 7/7/2 33/33/1 27/27/1 
f 35/35/2 34/34/2 26/26/2 
f 26/26/2 27/27/1 35/35/2 
f 27/27/1 31/31/1 35/35/2 
f 33/33/1 32/32/1 27/27/1 
# 38 faces

