# 3ds Max Wavefront OBJ Exporter v0.94b - (c)2007 guruware
# File Created: 10.08.2011 17:09:59

mtllib world08_road_03_alpha.mtl

#
# object world08_road_03_alpha
#

v  152.1412 -0.0600 24.8765
v  132.4819 -0.0600 28.3663
v  137.4987 -0.0600 40.5529
v  156.2383 -0.0600 37.2908
v  152.4450 -0.0600 -5.6484
v  133.6462 -0.0600 -5.6858
v  136.8801 -0.0600 57.4637
v  156.0811 -0.0600 57.2010
# 8 vertices

vn -0.0000 -1.0000 -0.0000
vn 0.0000 -1.0000 -0.0000
# 2 vertex normals

vt 0.5570 0.7623 0.0000
vt 0.4088 0.7374 0.0000
vt 0.4522 0.6435 0.0000
vt 0.5870 0.6687 0.0000
vt 0.5616 0.9920 0.0000
vt 0.4202 0.9937 0.0000
vt 0.4476 0.5152 0.0000
vt 0.5834 0.5181 0.0000
# 8 texture coords

g world08_road_03_alpha
usemtl alpha_gradient__rocks
s 1
f 3/3/1 2/2/1 1/1/1 
f 1/1/1 4/4/1 3/3/1 
f 6/6/1 5/5/1 1/1/1 
f 1/1/1 2/2/1 6/6/1 
f 4/4/1 8/8/2 7/7/1 
f 7/7/1 3/3/1 4/4/1 
# 6 faces

