# 3ds Max Wavefront OBJ Exporter v0.94b - (c)2007 guruware
# File Created: 11.08.2011 11:35:15

mtllib world08_road_00_alpha.mtl

#
# object world08_road_00_alpha
#

v  -83.1806 -0.2200 79.2968
v  -81.0837 -0.2200 82.2817
v  -75.0659 -0.2200 81.9109
v  -70.5883 -0.2200 80.3436
v  -69.7462 -0.2200 77.6177
v  -69.8218 -0.2200 68.0578
v  -84.5906 -0.2200 69.1301
v  -83.6501 -0.2200 70.5145
v  -70.9813 -0.2200 71.6853
v  -53.7946 -0.2200 23.4304
v  -71.8438 -0.2200 28.0361
v  -67.3421 -0.2200 33.0135
v  -49.3739 -0.2200 30.6102
v  -65.6729 -0.2200 59.5091
v  -57.1072 -0.2200 58.9306
v  -56.5097 -0.2200 54.2517
v  -57.9783 -0.2200 17.7545
v  -75.8622 -0.2200 24.0356
v  -55.4532 -0.2200 18.9966
v  -80.6855 -0.2200 22.2250
v  -80.6359 -0.2200 19.7541
v  -70.7115 -0.2200 65.1133
v  -84.1650 -0.2200 66.8918
v  -70.7215 -0.2200 75.4417
v  -83.3991 -0.2200 74.6895
v  -69.1975 -0.2200 37.4087
v  -71.0531 -0.2200 34.9543
v  -76.9920 -0.2200 35.7194
v  -79.7869 -0.2200 39.1631
v  -47.6603 -0.2200 47.0085
v  -43.8442 -0.2200 47.2869
v  -44.8660 -0.2200 31.7321
v  -49.6739 -0.2200 23.0118
v  -59.2939 -0.2200 16.7771
v  -59.9990 -0.2200 13.9846
v  -68.8505 -0.2200 13.3656
v  -74.9158 -0.2200 8.8718
v  -81.9138 -0.2200 9.0081
v  -83.9613 -0.2200 13.6146
v  -92.0753 -0.2200 10.1710
v  -94.0256 -0.2200 11.5804
v  -93.1859 -0.2200 14.5663
v  -86.8273 -0.2200 15.6035
v  -86.2511 -0.2200 9.4153
v  -85.9258 -0.2200 18.5607
v  -82.5991 -0.2200 20.0934
v  -67.8293 -0.2200 36.9864
v  -49.6209 -0.2200 48.2651
v  -51.5182 -0.2200 53.9625
v  -48.5650 -0.2200 50.8887
v  -65.2339 -0.2200 60.9069
v  -82.7292 -0.2200 39.4666
v  -66.8225 -0.2200 64.2102
v  -85.9535 -0.2200 42.2775
# 54 vertices

vn -0.0000 -1.0000 -0.0000
vn 0.0000 -1.0000 -0.0000
# 2 vertex normals

vt 0.4118 0.4045 0.0000
vt 0.4243 0.3801 0.0000
vt 0.4603 0.3831 0.0000
vt 0.4871 0.3960 0.0000
vt 0.4921 0.4183 0.0000
vt 0.4917 0.4967 0.0000
vt 0.4034 0.4879 0.0000
vt 0.4090 0.4766 0.0000
vt 0.4847 0.4670 0.0000
vt 0.5875 0.8627 0.0000
vt 0.4796 0.8250 0.0000
vt 0.5065 0.7841 0.0000
vt 0.6139 0.8038 0.0000
vt 0.5165 0.5668 0.0000
vt 0.5677 0.5716 0.0000
vt 0.5713 0.6099 0.0000
vt 0.5625 0.9093 0.0000
vt 0.4555 0.8578 0.0000
vt 0.5776 0.8991 0.0000
vt 0.4267 0.8726 0.0000
vt 0.4270 0.8929 0.0000
vt 0.4863 0.5209 0.0000
vt 0.4059 0.5063 0.0000
vt 0.4863 0.4362 0.0000
vt 0.4105 0.4423 0.0000
vt 0.4954 0.7481 0.0000
vt 0.4843 0.7682 0.0000
vt 0.4488 0.7619 0.0000
vt 0.4321 0.7337 0.0000
vt 0.6242 0.6694 0.0000
vt 0.6470 0.6671 0.0000
vt 0.6409 0.7946 0.0000
vt 0.6121 0.8662 0.0000
vt 0.5546 0.9173 0.0000
vt 0.5504 0.9402 0.0000
vt 0.4975 0.9453 0.0000
vt 0.4612 0.9821 0.0000
vt 0.4194 0.9810 0.0000
vt 0.4071 0.9432 0.0000
vt 0.3586 0.9715 0.0000
vt 0.3469 0.9599 0.0000
vt 0.3520 0.9354 0.0000
vt 0.3900 0.9269 0.0000
vt 0.3934 0.9777 0.0000
vt 0.3954 0.9027 0.0000
vt 0.4153 0.8901 0.0000
vt 0.5036 0.7515 0.0000
vt 0.6125 0.6590 0.0000
vt 0.6011 0.6123 0.0000
vt 0.6188 0.6375 0.0000
vt 0.5191 0.5554 0.0000
vt 0.4145 0.7312 0.0000
vt 0.5096 0.5283 0.0000
vt 0.3952 0.7082 0.0000
# 54 texture coords

g world08_road_00_alpha
usemtl alpha_gradient__rocks
s 1
f 3/3/1 2/2/1 1/1/1 
f 4/4/1 3/3/1 1/1/1 
f 4/4/1 1/1/1 5/5/1 
f 8/8/1 7/7/1 6/6/1 
f 6/6/1 9/9/2 8/8/1 
s off
f 12/12/2 11/11/2 10/10/2 
f 10/10/2 13/13/2 12/12/2 
f 16/16/1 15/15/1 14/14/1 
f 11/11/2 18/18/2 17/17/2 
f 10/10/2 11/11/2 17/17/2 
f 10/10/2 17/17/2 19/19/2 
f 21/21/2 18/18/2 20/20/2 
s 1
f 7/7/1 23/23/2 22/22/1 
f 22/22/1 6/6/1 7/7/1 
f 1/1/1 25/25/2 24/24/1 
f 24/24/1 5/5/1 1/1/1 
f 25/25/2 8/8/1 9/9/2 
f 9/9/2 24/24/1 25/25/2 
f 28/28/1 27/27/1 26/26/1 
f 26/26/1 29/29/1 28/28/1 
f 32/32/1 31/31/2 30/30/1 
f 30/30/1 13/13/1 32/32/1 
s off
f 10/10/2 33/33/2 13/13/2 
f 36/36/2 35/35/2 34/34/2 
f 39/39/2 38/38/2 37/37/2 
f 37/37/2 36/36/2 39/39/2 
f 42/42/2 41/41/2 40/40/2 
f 43/43/2 42/42/2 40/40/2 
f 40/40/2 44/44/2 43/43/2 
f 43/43/2 44/44/2 39/39/2 
f 39/39/2 45/45/2 43/43/2 
f 46/46/2 45/45/2 39/39/2 
f 21/21/2 46/46/2 39/39/2 
f 39/39/2 36/36/2 21/21/2 
f 34/34/2 17/17/2 18/18/2 
f 36/36/2 34/34/2 18/18/2 
f 21/21/2 36/36/2 18/18/2 
s 1
f 47/47/2 12/12/1 13/13/1 
f 47/47/2 16/16/1 14/14/2 
f 47/47/2 48/48/1 16/16/1 
f 13/13/1 30/30/1 48/48/1 
f 48/48/1 47/47/2 13/13/1 
f 50/50/1 49/49/1 16/16/1 
f 16/16/1 48/48/1 50/50/1 
f 51/51/2 23/23/2 14/14/2 
f 52/52/2 29/29/1 14/14/2 
f 14/14/2 23/23/2 52/52/2 
f 51/51/2 53/53/2 22/22/1 
f 22/22/1 23/23/2 51/51/2 
f 14/14/2 29/29/1 26/26/1 
f 26/26/1 47/47/2 14/14/2 
f 23/23/2 54/54/2 52/52/2 
# 52 faces

