# 3ds Max Wavefront OBJ Exporter v0.94b - (c)2007 guruware
# File Created: 11.08.2011 10:11:41

mtllib world08_road_10_alpha.mtl

#
# object world08_road_10_alpha
#

v  121.2593 -0.2111 -76.7534
v  112.6051 -0.2100 -78.2581
v  110.2835 -0.2200 -65.3677
v  122.9763 -0.2200 -64.8269
v  83.7568 -0.2000 -42.0851
v  88.6564 -0.2000 -36.8875
v  89.2254 -0.2000 -45.9031
v  115.3236 -0.2000 -92.6768
v  113.1335 -0.2000 -102.9928
v  105.2063 -0.2000 -107.2786
v  102.6370 -0.2000 -104.7770
v  83.8980 -0.2000 -98.1380
v  83.3430 -0.2000 -90.5187
v  81.5453 -0.2000 -89.8906
v  87.2193 -0.2000 -79.8629
v  76.7766 -0.2000 -89.1729
v  139.6275 -0.2200 -84.5758
v  137.4216 -0.2200 -74.5202
v  145.4310 -0.2200 -77.1879
v  138.3438 -0.2200 -63.3504
v  146.8026 -0.2200 -63.7616
v  145.8065 -0.2200 -67.3084
v  138.7259 -0.2200 -86.0498
v  135.3706 -0.2200 -87.5216
v  127.6527 -0.2200 -87.7106
v  128.7689 -0.2200 -75.3249
v  136.9429 -0.2200 -89.2273
v  129.8851 -0.2200 -62.9392
v  100.0114 -0.2050 -79.4426
v  120.3114 -0.2023 -92.6619
v  90.0817 -0.2000 -65.4163
v  68.4763 -0.2000 -64.8387
v  59.6222 -0.2000 -50.9206
v  62.0942 -0.2000 -36.2718
v  69.8806 -0.2000 -31.9677
v  74.9207 -0.2000 -68.9157
v  72.1315 -0.2000 -68.5435
v  92.6665 -0.2000 -47.8984
v  97.1968 -0.2000 -49.4709
v  76.2600 -0.2000 -72.9234
v  81.2297 -0.2000 -75.8966
v  60.2436 -0.2000 -64.6207
v  56.4279 -0.2000 -67.7364
v  50.9560 -0.2000 -54.0804
v  43.6205 -0.2000 -71.3771
v  33.7321 -0.2000 -66.7035
v  35.6055 -0.2000 -61.4926
v  52.0538 -0.2000 -70.9544
v  38.7559 -0.2000 -74.6978
v  33.9196 -0.2000 -70.2215
v  47.6713 -0.2000 -38.8153
v  55.9074 -0.2000 -38.1694
v  36.0770 -0.2000 -56.2430
v  35.7776 -0.2000 -50.8019
v  34.6537 -0.2000 -47.3356
v  106.0281 -0.2000 -62.2789
v  107.1788 -0.2200 -64.4673
v  98.3548 -0.2000 -53.1144
v  99.5127 -0.2000 -56.7578
# 59 vertices

vn -0.0007 -1.0000 -0.0005
vn -0.0002 -1.0000 -0.0008
vn -0.0001 -1.0000 -0.0008
vn -0.0002 -1.0000 -0.0004
vn -0.0000 -1.0000 -0.0000
vn 0.0000 -1.0000 -0.0000
vn -0.0001 -1.0000 -0.0000
vn -0.0003 -1.0000 0.0001
vn -0.0011 -1.0000 -0.0002
vn -0.0005 -1.0000 -0.0001
vn -0.0004 -1.0000 -0.0004
vn -0.0011 -1.0000 -0.0005
vn -0.0011 -1.0000 0.0056
vn -0.0009 -1.0000 0.0019
# 14 vertex normals

vt 0.6908 0.7877 0.0000
vt 0.6338 0.7975 0.0000
vt 0.6185 0.7138 0.0000
vt 0.7022 0.7103 0.0000
vt 0.4438 0.5625 0.0000
vt 0.4761 0.5288 0.0000
vt 0.4798 0.5873 0.0000
vt 0.6517 0.8912 0.0000
vt 0.6373 0.9582 0.0000
vt 0.5851 0.9860 0.0000
vt 0.5682 0.9698 0.0000
vt 0.4447 0.9266 0.0000
vt 0.4411 0.8771 0.0000
vt 0.4292 0.8731 0.0000
vt 0.4666 0.8079 0.0000
vt 0.3978 0.8684 0.0000
vt 0.8118 0.8385 0.0000
vt 0.7973 0.7732 0.0000
vt 0.8501 0.7906 0.0000
vt 0.8034 0.7007 0.0000
vt 0.8591 0.7033 0.0000
vt 0.8525 0.7264 0.0000
vt 0.8059 0.8481 0.0000
vt 0.7838 0.8577 0.0000
vt 0.7330 0.8589 0.0000
vt 0.7403 0.7785 0.0000
vt 0.7942 0.8688 0.0000
vt 0.7477 0.6980 0.0000
vt 0.5509 0.8052 0.0000
vt 0.6846 0.8911 0.0000
vt 0.4855 0.7141 0.0000
vt 0.3431 0.7103 0.0000
vt 0.2848 0.6199 0.0000
vt 0.3011 0.5248 0.0000
vt 0.3524 0.4968 0.0000
vt 0.3856 0.7368 0.0000
vt 0.3672 0.7344 0.0000
vt 0.5025 0.6003 0.0000
vt 0.5323 0.6105 0.0000
vt 0.3944 0.7629 0.0000
vt 0.4271 0.7822 0.0000
vt 0.2889 0.7089 0.0000
vt 0.2638 0.7292 0.0000
vt 0.2277 0.6404 0.0000
vt 0.1794 0.7528 0.0000
vt 0.1143 0.7224 0.0000
vt 0.1266 0.6886 0.0000
vt 0.2350 0.7501 0.0000
vt 0.1474 0.7744 0.0000
vt 0.1155 0.7453 0.0000
vt 0.2061 0.5413 0.0000
vt 0.2603 0.5371 0.0000
vt 0.1297 0.6545 0.0000
vt 0.1277 0.6191 0.0000
vt 0.1203 0.5966 0.0000
vt 0.5905 0.6937 0.0000
vt 0.5981 0.7079 0.0000
vt 0.5400 0.6342 0.0000
vt 0.5476 0.6578 0.0000
# 59 texture coords

g world08_road_10_alpha
usemtl alpha_gradient__rocks
s 1
f 3/3/3 2/2/2 1/1/1 
f 1/1/1 4/4/4 3/3/3 
f 7/7/6 6/6/6 5/5/5 
f 10/10/6 9/9/5 8/8/4 
f 8/8/4 11/11/6 10/10/6 
f 13/13/7 12/12/6 11/11/6 
f 11/11/6 8/8/4 13/13/7 
f 15/15/8 14/14/6 13/13/7 
f 15/15/8 16/16/6 14/14/6 
f 19/19/6 18/18/6 17/17/6 
f 22/22/6 21/21/6 20/20/6 
f 25/25/9 24/24/6 23/23/6 
f 26/26/10 25/25/9 23/23/6 
f 18/18/6 26/26/10 23/23/6 
f 18/18/6 23/23/6 17/17/6 
f 24/24/6 27/27/6 23/23/6 
f 26/26/10 28/28/5 4/4/4 
f 4/4/4 1/1/1 26/26/10 
f 2/2/2 29/29/11 8/8/4 
f 8/8/4 30/30/12 1/1/1 
f 1/1/1 2/2/2 8/8/4 
f 28/28/5 26/26/10 18/18/6 
f 18/18/6 20/20/6 28/28/5 
f 1/1/1 30/30/12 25/25/9 
f 25/25/9 26/26/10 1/1/1 
f 19/19/6 22/22/6 20/20/6 
f 20/20/6 18/18/6 19/19/6 
f 29/29/11 31/31/8 15/15/8 
f 34/34/6 33/33/5 32/32/5 
f 32/32/5 35/35/6 34/34/6 
f 7/7/6 37/37/5 36/36/6 
f 36/36/6 38/38/6 7/7/6 
f 39/39/6 38/38/6 36/36/6 
f 36/36/6 40/40/5 39/39/6 
f 31/31/8 40/40/5 41/41/5 
f 5/5/5 35/35/6 32/32/5 
f 32/32/5 37/37/5 5/5/5 
f 7/7/6 5/5/5 37/37/5 
f 44/44/6 43/43/6 42/42/6 
f 42/42/6 33/33/5 44/44/6 
f 47/47/6 46/46/6 45/45/6 
f 44/44/6 47/47/6 45/45/6 
f 44/44/6 45/45/6 48/48/6 
f 44/44/6 48/48/6 43/43/6 
f 46/46/6 50/50/6 49/49/6 
f 49/49/6 45/45/6 46/46/6 
f 52/52/5 51/51/5 44/44/6 
f 44/44/6 33/33/5 52/52/5 
f 34/34/6 52/52/5 33/33/5 
f 44/44/6 53/53/6 47/47/6 
f 51/51/5 55/55/5 54/54/5 
f 44/44/6 51/51/5 54/54/5 
f 54/54/5 53/53/6 44/44/6 
f 33/33/5 42/42/6 32/32/5 
f 57/57/14 56/56/13 31/31/8 
f 31/31/8 29/29/11 57/57/14 
f 59/59/6 58/58/6 31/31/8 
f 2/2/2 3/3/3 57/57/14 
f 57/57/14 29/29/11 2/2/2 
f 56/56/13 59/59/6 31/31/8 
f 58/58/6 39/39/6 40/40/5 
f 40/40/5 31/31/8 58/58/6 
f 31/31/8 41/41/5 15/15/8 
f 29/29/11 15/15/8 13/13/7 
f 29/29/11 13/13/7 8/8/4 
# 65 faces

