# 3ds Max Wavefront OBJ Exporter v0.94b - (c)2007 guruware
# File Created: 11.08.2011 11:35:31

mtllib world08_road_05b_alpha.mtl

#
# object world08_road_05b_alpha
#

v  -102.7266 -0.2200 -21.5904
v  -102.0520 -0.2201 -30.5515
v  -105.2283 -0.2202 -25.9706
v  -105.0716 -0.2201 -23.9080
v  -92.7951 -0.2197 -28.1947
v  -95.1583 -0.2200 -32.1787
v  -96.8464 -0.2200 -30.7026
v  -96.5573 -0.2200 -19.8076
v  -93.2318 -0.2198 -25.6380
v  -92.4575 -0.2200 -22.0696
# 10 vertices

vn 0.0000 -1.0000 0.0000
vn -0.0000 -1.0000 0.0001
vn 0.0001 -1.0000 0.0000
vn 0.0000 -1.0000 -0.0000
vn -0.0000 -1.0000 -0.0000
# 5 vertex normals

vt 0.3820 0.5542 0.0000
vt 0.4003 0.8052 0.0000
vt 0.3141 0.6769 0.0000
vt 0.3184 0.6192 0.0000
vt 0.6515 0.7392 0.0000
vt 0.5873 0.8508 0.0000
vt 0.5415 0.8095 0.0000
vt 0.5494 0.5043 0.0000
vt 0.6396 0.6676 0.0000
vt 0.6606 0.5677 0.0000
# 10 texture coords

g world08_road_05b_alpha
usemtl alpha_gradient__rocks
s 1
f 3/3/1 2/2/1 1/1/1 
f 1/1/1 4/4/2 3/3/1 
f 7/7/1 6/6/3 5/5/3 
f 5/5/3 9/9/5 8/8/4 
f 8/8/4 7/7/1 5/5/3 
f 9/9/5 10/10/5 8/8/4 
f 7/7/1 8/8/4 1/1/1 
f 1/1/1 2/2/1 7/7/1 
# 8 faces

