# 3ds Max Wavefront OBJ Exporter v0.94b - (c)2007 guruware
# File Created: 11.08.2011 15:26:42

mtllib world08_node10_alpha.mtl

#
# object world08_node10_alpha
#

v  37.1841 -1.0024 -46.7603
v  37.6956 -1.0024 -50.4171
v  31.8676 -1.0024 -47.4851
v  3.7594 -1.0024 -45.8893
v  14.3441 -1.0024 -46.9155
v  1.7682 -1.0024 -63.8049
v  2.3214 -1.0024 -88.1723
v  -10.1327 -1.0024 -92.7948
v  -14.8091 -1.0024 -79.0196
v  37.9402 -1.0024 -55.8959
v  22.7208 -1.0024 -46.8959
v  30.2205 -1.0024 -35.8164
v  22.2241 -1.0024 -44.5164
v  20.5680 -1.0024 -21.8538
v  38.7577 -1.0024 -78.9370
v  24.4613 -1.0024 -89.0379
v  19.8538 -1.0024 -85.2276
v  39.8334 -1.0024 -73.4057
v  14.7455 -1.0024 -88.4474
v  -0.2231 -1.0024 -81.7205
v  -11.5901 -1.0024 -75.1857
v  -17.5272 -1.0024 -65.6352
v  -20.1630 -1.0024 -58.1312
v  35.5923 -1.0024 -67.5389
v  36.1269 -1.0024 -70.0695
v  21.2873 -1.0024 -66.0617
v  -4.9623 -1.0024 -45.2707
v  -16.5019 -1.0024 -72.1189
v  37.6056 -1.0024 -61.8406
v  12.9274 -1.0024 -40.9577
v  11.1451 -1.0024 -27.7152
v  -13.2899 -1.0024 -45.2855
# 32 vertices

vn 0.0000 -1.0000 -0.0000
vn -0.0000 -1.0000 -0.0000
# 2 vertex normals

vt 0.6859 0.6427 0.0000
vt 0.6895 0.6697 0.0000
vt 0.6492 0.6480 0.0000
vt 0.4549 0.6363 0.0000
vt 0.5281 0.6438 0.0000
vt 0.4412 0.7685 0.0000
vt 0.4450 0.9483 0.0000
vt 0.3589 0.9825 0.0000
vt 0.3266 0.8808 0.0000
vt 0.6912 0.7101 0.0000
vt 0.5860 0.6437 0.0000
vt 0.6378 0.5619 0.0000
vt 0.5826 0.6261 0.0000
vt 0.5711 0.4589 0.0000
vt 0.6968 0.8802 0.0000
vt 0.5980 0.9547 0.0000
vt 0.5662 0.9266 0.0000
vt 0.7043 0.8393 0.0000
vt 0.5309 0.9504 0.0000
vt 0.4274 0.9007 0.0000
vt 0.3488 0.8525 0.0000
vt 0.3078 0.7820 0.0000
vt 0.2896 0.7266 0.0000
vt 0.6749 0.7960 0.0000
vt 0.6786 0.8147 0.0000
vt 0.5761 0.7851 0.0000
vt 0.3947 0.6317 0.0000
vt 0.3149 0.8299 0.0000
vt 0.6889 0.7540 0.0000
vt 0.5183 0.5999 0.0000
vt 0.5060 0.5021 0.0000
vt 0.3371 0.6318 0.0000
# 32 texture coords

g world08_node10_alpha
usemtl alpha_gradient__rocks
s 1
f 3/3/1 2/2/1 1/1/1 
f 6/6/1 5/5/2 4/4/2 
f 9/9/2 8/8/1 7/7/2 
f 3/3/1 11/11/1 10/10/1 
f 10/10/1 2/2/1 3/3/1 
f 3/3/1 12/12/1 11/11/1 
f 11/11/1 13/13/2 5/5/2 
f 13/13/2 14/14/2 5/5/2 
f 17/17/2 16/16/2 15/15/1 
f 15/15/1 18/18/2 17/17/2 
f 7/7/2 19/19/2 17/17/2 
f 17/17/2 20/20/2 7/7/2 
f 6/6/1 21/21/2 20/20/2 
f 20/20/2 9/9/2 7/7/2 
f 6/6/1 23/23/1 22/22/1 
f 26/26/2 25/25/2 24/24/2 
f 26/26/2 17/17/2 18/18/2 
f 18/18/2 25/25/2 26/26/2 
f 6/6/1 4/4/2 27/27/1 
f 27/27/1 23/23/1 6/6/1 
f 6/6/1 28/28/1 21/21/2 
f 6/6/1 22/22/1 28/28/1 
f 26/26/2 24/24/2 29/29/2 
f 26/26/2 29/29/2 10/10/1 
f 10/10/1 11/11/1 26/26/2 
f 5/5/2 30/30/2 4/4/2 
f 30/30/2 31/31/2 4/4/2 
f 26/26/2 11/11/1 5/5/2 
f 6/6/1 26/26/2 5/5/2 
f 20/20/2 17/17/2 26/26/2 
f 26/26/2 6/6/1 20/20/2 
f 27/27/1 32/32/2 23/23/1 
f 21/21/2 9/9/2 20/20/2 
# 33 faces

