# 3ds Max Wavefront OBJ Exporter v0.94b - (c)2007 guruware
# File Created: 10.08.2011 17:30:54

mtllib world08_node05.mtl

#
# object world08_node05
#

v  -129.1690 -0.1000 27.5956
v  -74.1317 -0.1000 27.5956
v  -74.1317 -0.1000 -33.3650
v  -129.1690 -0.1000 -33.2265
# 4 vertices

vn 0.0000 -1.0000 -0.0000
# 1 vertex normals

vt 0.8416 1.0009 0.0000
vt 0.7124 1.0009 0.0000
vt 0.7124 0.8578 0.0000
vt 0.8416 0.8581 0.0000
# 4 texture coords

g world08_node05
usemtl world06_map02
s 1
f 3/3/1 2/2/1 1/1/1 
f 1/1/1 4/4/1 3/3/1 
# 2 faces

