# 3ds Max Wavefront OBJ Exporter v0.94b - (c)2007 guruware
# File Created: 11.08.2011 11:35:38

mtllib world08_road_05b.mtl

#
# object world08_road_05b
#

v  -92.2578 -0.2200 -32.1787
v  -105.5831 -0.2200 -32.1787
v  -105.5831 -0.2200 -19.4246
v  -92.2578 -0.2200 -19.4245
# 4 vertices

vn 0.0000 -1.0000 -0.0000
# 1 vertex normals

vt 0.3220 0.7442 0.0000
vt 0.3533 0.7442 0.0000
vt 0.3533 0.7741 0.0000
vt 0.3220 0.7741 0.0000
# 4 texture coords

g world08_road_05b
usemtl world06_map02
s 1
f 3/3/1 2/2/1 1/1/1 
f 1/1/1 4/4/1 3/3/1 
# 2 faces

