# 3ds Max Wavefront OBJ Exporter v0.94b - (c)2007 guruware
# File Created: 10.08.2011 17:31:49

mtllib world08_road_06.mtl

#
# object world08_road_06
#

v  -118.7665 -0.1100 -41.5729
v  -195.7354 -0.1100 -41.5729
v  -195.7354 -0.1100 11.1941
v  -118.7665 -0.1100 11.1941
# 4 vertices

vn 0.0000 -1.0000 -0.0000
# 1 vertex normals

vt 0.1392 0.6688 0.0000
vt 0.3199 0.6688 0.0000
vt 0.3199 0.7927 0.0000
vt 0.1392 0.7927 0.0000
# 4 texture coords

g world08_road_06
usemtl world06_map02
s 1
f 3/3/1 2/2/1 1/1/1 
f 1/1/1 4/4/1 3/3/1 
# 2 faces

