# 3ds Max Wavefront OBJ Exporter v0.94b - (c)2007 guruware
# File Created: 11.08.2011 15:24:58

mtllib world08_node12_alpha.mtl

#
# object world08_node12_alpha
#

v  -127.3573 -1.5832 -39.8165
v  -125.5498 -1.5832 -54.4429
v  -130.9442 -1.5832 -63.4097
v  -108.6092 -1.5832 -29.2284
v  -96.5837 -1.5832 -29.1750
v  -93.6277 -1.5832 -32.7803
v  -111.3640 -1.5832 -33.3194
v  -118.1825 -1.5832 -35.6887
v  -99.6602 -1.5832 -35.4153
v  -81.1379 -1.5832 -35.1420
v  -86.9359 -1.5832 -32.6942
v  -74.7509 -1.5832 -36.5916
v  -99.5836 -1.5832 -51.7960
v  -92.2415 -1.5832 -78.2139
v  -102.5191 -1.5832 -80.9742
v  -108.3473 -1.5832 -77.0001
v  -76.3593 -1.5832 -74.6062
v  -76.5247 -1.5832 -78.0238
v  -82.0873 -1.5832 -81.0204
v  -115.5818 -1.5832 -78.1894
v  -120.7763 -1.5832 -74.8040
v  -125.6438 -1.5832 -68.9310
v  -73.3703 -1.5832 -67.4222
v  -99.5070 -1.5832 -68.1766
v  -125.4559 -1.5832 -39.9548
v  -73.2228 -1.5832 -60.1816
v  -71.1005 -1.5832 -46.3058
v  -125.2881 -1.5832 -37.8895
v  -87.2286 -2.1368 -71.8197
v  -93.7107 -2.1369 -83.3767
v  -97.0737 -2.1368 -69.7916
v  -92.7539 -2.1367 -65.3390
v  -103.7039 -2.1368 -73.6781
v  -103.5177 -2.1370 -84.2207
v  -105.9120 -2.1370 -79.3688
v  -96.8743 -2.1367 -65.8706
v  -88.7043 -2.1368 -82.3693
v  -92.4881 -2.1369 -84.2794
v  -93.7926 -2.1369 -86.4361
v  -96.0730 -2.1370 -87.6363
v  -86.7727 -2.1368 -66.2029
# 41 vertices

vn 0.0000 -1.0000 -0.0000
vn -0.0000 -1.0000 -0.0000
vn 0.0000 -1.0000 0.0000
vn -0.0000 -1.0000 0.0000
# 4 vertex normals

vt 0.2591 0.6206 0.0000
vt 0.2742 0.7488 0.0000
vt 0.2292 0.8274 0.0000
vt 0.4154 0.5278 0.0000
vt 0.5156 0.5273 0.0000
vt 0.5402 0.5589 0.0000
vt 0.3924 0.5636 0.0000
vt 0.3356 0.5844 0.0000
vt 0.4899 0.5820 0.0000
vt 0.6443 0.5796 0.0000
vt 0.5960 0.5581 0.0000
vt 0.6975 0.5923 0.0000
vt 0.4906 0.7256 0.0000
vt 0.5518 0.9572 0.0000
vt 0.4661 0.9814 0.0000
vt 0.4175 0.9466 0.0000
vt 0.6841 0.9256 0.0000
vt 0.6827 0.9555 0.0000
vt 0.6364 0.9818 0.0000
vt 0.3573 0.9570 0.0000
vt 0.3140 0.9273 0.0000
vt 0.2734 0.8758 0.0000
vt 0.7090 0.8626 0.0000
vt 0.4912 0.8692 0.0000
vt 0.2750 0.6218 0.0000
vt 0.7102 0.7991 0.0000
vt 0.7279 0.6775 0.0000
vt 0.2764 0.6037 0.0000
vt 0.6459 0.5905 0.0000
vt 0.5205 0.8296 0.0000
vt 0.4554 0.5486 0.0000
vt 0.5390 0.4564 0.0000
vt 0.3271 0.6290 0.0000
vt 0.3307 0.8471 0.0000
vt 0.2844 0.7467 0.0000
vt 0.4593 0.4674 0.0000
vt 0.6174 0.8088 0.0000
vt 0.5442 0.8483 0.0000
vt 0.5189 0.8929 0.0000
vt 0.4748 0.9177 0.0000
vt 0.6548 0.4743 0.0000
# 41 texture coords

g world08_node12_alpha
usemtl alpha_gradient__rocks
s 1
f 3/3/1 2/2/1 1/1/1 
f 6/6/1 5/5/1 4/4/1 
f 4/4/1 7/7/1 6/6/1 
f 6/6/1 7/7/1 8/8/1 
f 6/6/1 8/8/1 9/9/2 
f 6/6/1 9/9/2 10/10/2 
f 6/6/1 10/10/2 11/11/1 
f 9/9/2 13/13/1 12/12/1 
f 12/12/1 10/10/2 9/9/2 
f 16/16/1 15/15/1 14/14/1 
f 19/19/1 18/18/2 17/17/1 
f 17/17/1 14/14/1 19/19/1 
f 21/21/1 20/20/1 16/16/1 
f 16/16/1 22/22/1 21/21/1 
f 14/14/1 17/17/1 23/23/1 
f 23/23/1 24/24/1 14/14/1 
f 2/2/1 22/22/1 24/24/1 
f 24/24/1 13/13/1 2/2/1 
f 24/24/1 16/16/1 14/14/1 
f 24/24/1 22/22/1 16/16/1 
f 13/13/1 25/25/1 2/2/1 
f 24/24/1 23/23/1 26/26/1 
f 26/26/1 13/13/1 24/24/1 
f 26/26/1 27/27/2 12/12/1 
f 12/12/1 13/13/1 26/26/1 
f 8/8/1 28/28/1 25/25/1 
f 25/25/1 13/13/1 8/8/1 
f 13/13/1 9/9/2 8/8/1 
f 3/3/1 22/22/1 2/2/1 
f 2/2/1 25/25/1 1/1/1 
f 31/31/4 30/30/3 29/29/3 
f 29/29/3 32/32/3 31/31/4 
s off
f 35/35/3 34/34/3 33/33/3 
s 1
f 32/32/3 36/36/4 31/31/4 
f 30/30/3 38/38/3 37/37/3 
f 40/40/3 39/39/3 30/30/3 
f 30/30/3 34/34/3 40/40/3 
f 31/31/4 33/33/4 30/30/3 
f 30/30/3 37/37/3 29/29/3 
f 29/29/3 41/41/3 32/32/3 
f 33/33/4 34/34/3 30/30/3 
# 41 faces

