# 3ds Max Wavefront OBJ Exporter v0.94b - (c)2007 guruware
# File Created: 11.08.2011 13:19:10

mtllib world08_road_04_alpha.mtl

#
# object world08_road_04_alpha
#

v  109.9057 -0.0800 3.0219
v  102.8910 -0.0800 17.3944
v  108.9394 -0.0800 17.8011
v  99.0260 -0.0800 -27.5682
v  89.2593 -0.0800 -21.3578
v  111.2457 -0.0800 -17.4973
v  106.5008 -0.0800 -22.8531
v  76.0884 -0.0800 0.4052
v  74.0555 -0.0800 14.8553
v  89.5212 -0.0800 18.6277
v  110.5128 -0.0800 -16.0519
v  75.8474 -0.0800 -17.5303
v  83.9689 -0.0800 -24.2824
v  78.7817 -0.0800 -22.6479
# 14 vertices

vn -0.0000 -1.0000 -0.0000
vn 0.0000 -1.0000 -0.0000
# 2 vertex normals

vt 0.6408 0.6768 0.0000
vt 0.5847 0.5341 0.0000
vt 0.6315 0.5301 0.0000
vt 0.5477 0.9805 0.0000
vt 0.4542 0.9189 0.0000
vt 0.6536 0.8805 0.0000
vt 0.6193 0.9337 0.0000
vt 0.3381 0.7028 0.0000
vt 0.3186 0.5593 0.0000
vt 0.4567 0.5219 0.0000
vt 0.6466 0.8662 0.0000
vt 0.3358 0.8809 0.0000
vt 0.4035 0.9479 0.0000
vt 0.3539 0.9317 0.0000
# 14 texture coords

g world08_road_04_alpha
usemtl alpha_gradient__rocks
s 1
f 3/3/1 2/2/1 1/1/1 
f 6/6/1 5/5/1 4/4/1 
f 4/4/1 7/7/2 6/6/1 
f 10/10/2 9/9/2 8/8/1 
f 10/10/2 8/8/1 1/1/1 
f 1/1/1 2/2/1 10/10/2 
f 11/11/1 1/1/1 8/8/1 
f 8/8/1 12/12/1 11/11/1 
f 14/14/1 13/13/2 5/5/1 
f 12/12/1 14/14/1 5/5/1 
f 5/5/1 11/11/1 12/12/1 
f 6/6/1 11/11/1 5/5/1 
# 12 faces

