# 3ds Max Wavefront OBJ Exporter v0.94b - (c)2007 guruware
# File Created: 08.12.2010 17:05:11

mtllib world06_road_02_alpha.mtl

#
# object world06_road_02_alpha
#

v  -82.4708 0.0150 -74.0250
v  -113.6077 0.0150 -74.2261
v  -113.6068 0.0150 -95.4214
v  -34.7735 0.0150 -95.6023
v  -81.1637 0.0150 -71.9711
v  -30.5351 0.0150 -87.5109
# 6 vertices

vn 0.0000 -1.0000 -0.0000
# 1 vertex normals

vt 0.9360 1.0000 0.0000
vt 0.5000 1.0000 0.0000
vt 0.5000 0.0000 0.0000
vt 0.9360 0.0000 0.0000
vt 1.0000 1.0000 0.0000
vt 1.0000 0.0000 0.0000
# 6 texture coords

g world06_road_02_alpha
usemtl alpha_gradient
s 1
f 1/1/1 2/2/1 3/3/1 
f 3/3/1 4/4/1 1/1/1 
f 5/5/1 1/1/1 4/4/1 
f 4/4/1 6/6/1 5/5/1 
# 4 faces

