# 3ds Max Wavefront OBJ Exporter v0.94b - (c)2007 guruware
# File Created: 02.12.2010 11:29:29

mtllib world06_grass08.mtl

#
# object world06_grass08
#

v  22.9104 0.0050 -58.2864
v  86.6168 0.0050 -58.2864
v  86.6168 0.0050 -12.1096
v  22.9104 0.0050 -12.1096
# 4 vertices

vn 0.0000 -1.0000 -0.0000
# 1 vertex normals

vt 0.5278 0.4848 0.0000
vt 0.6774 0.4848 0.0000
vt 0.6774 0.5931 0.0000
vt 0.5278 0.5931 0.0000
# 4 texture coords

g world06_grass08
usemtl world06_map02
s 1
f 1/1/1 2/2/1 3/3/1 
f 3/3/1 4/4/1 1/1/1 
# 2 faces

