# 3ds Max Wavefront OBJ Exporter v0.94b - (c)2007 guruware
# File Created: 09.03.2011 16:39:58

mtllib world06_building15.mtl

#
# object world06_building15
#

v  -30.3290 -0.2000 -41.9190
v  39.3618 -0.2000 -41.9190
v  39.3618 -0.2000 43.3827
v  -30.3290 -0.2000 29.0342
# 4 vertices

vn 0.0000 -1.0000 -0.0000
# 1 vertex normals

vt 0.2170 0.7001 0.0000
vt 0.3806 0.7001 0.0000
vt 0.3806 0.9003 0.0000
vt 0.2170 0.8666 0.0000
# 4 texture coords

g world06_building15
usemtl world06_map02
s 1
f 1/1/1 2/2/1 3/3/1 
f 3/3/1 4/4/1 1/1/1 
# 2 faces

