# 3ds Max Wavefront OBJ Exporter v0.94b - (c)2007 guruware
# File Created: 08.12.2010 16:07:46

mtllib world06_building01.mtl

#
# object world06_building01
#

v  -45.8339 0.0000 -34.9827
v  45.8339 0.0000 -34.9827
v  45.8338 -0.0000 34.9827
v  -45.8339 -0.0000 34.9827
# 4 vertices

vn -0.0000 -1.0000 -0.0000
# 1 vertex normals

vt 0.0011 0.8343 0.0000
vt 0.2163 0.8343 0.0000
vt 0.2163 0.9986 0.0000
vt 0.0011 0.9986 0.0000
# 4 texture coords

g world06_building01
usemtl world06_map02
s 1
f 1/1/1 2/2/1 3/3/1 
f 3/3/1 4/4/1 1/1/1 
# 2 faces

