# 3ds Max Wavefront OBJ Exporter v0.94b - (c)2007 guruware
# File Created: 09.03.2011 16:09:38

mtllib world06_grass15.mtl

#
# object world06_grass15
#

v  -69.2671 0.0050 -45.2371
v  5.4033 0.0050 -45.2371
v  5.4034 0.0050 5.2632
v  -69.2671 0.0050 5.2632
# 4 vertices

vn 0.0000 -1.0000 -0.0000
# 1 vertex normals

vt 0.7937 0.5898 0.0000
vt 0.9690 0.5898 0.0000
vt 0.9690 0.7083 0.0000
vt 0.7937 0.7083 0.0000
# 4 texture coords

g world06_grass15
usemtl world06_map02
s 1
f 1/1/1 2/2/1 3/3/1 
f 3/3/1 4/4/1 1/1/1 
# 2 faces

