# 3ds Max Wavefront OBJ Exporter v0.94b - (c)2007 guruware
# File Created: 01.03.2011 15:32:58

mtllib world06_grass09.mtl

#
# object world06_grass09
#

v  124.4877 0.0050 -46.1952
v  122.8792 0.0050 -73.1633
v  215.9945 0.0050 -67.7757
v  160.0795 0.0050 -46.1952
v  121.2707 0.0050 -100.1314
v  178.9094 0.0050 -100.1314
# 6 vertices

vn 0.0000 -1.0000 -0.0000
# 1 vertex normals

vt 0.0032 0.3934 0.0000
vt -0.0005 0.3301 0.0000
vt 0.2180 0.3428 0.0000
vt 0.0868 0.3934 0.0000
vt -0.0043 0.2668 0.0000
vt 0.1310 0.2668 0.0000
# 6 texture coords

g world06_grass09
usemtl world06_map02
s 1
f 1/1/1 2/2/1 3/3/1 
f 3/3/1 4/4/1 1/1/1 
f 2/2/1 5/5/1 6/6/1 
f 6/6/1 3/3/1 2/2/1 
# 4 faces

