# 3ds Max Wavefront OBJ Exporter v0.94b - (c)2007 guruware
# File Created: 08.12.2010 16:55:17

mtllib world06_node11.mtl

#
# object world06_node11
#

v  93.7381 -0.0100 46.4920
v  139.6538 -0.0100 46.4920
v  139.6538 -0.0100 71.9845
v  93.7383 -0.0100 71.9845
# 4 vertices

vn -0.0000 -1.0000 -0.0000
vn 0.0000 -1.0000 -0.0000
# 2 vertex normals

vt 0.6849 0.1985 0.0000
vt 0.7929 0.1985 0.0000
vt 0.7929 0.2586 0.0000
vt 0.6849 0.2586 0.0000
# 4 texture coords

g world06_node11
usemtl world06_map02
s 1
f 1/1/1 2/2/2 3/3/2 
f 3/3/2 4/4/1 1/1/1 
# 2 faces

