# 3ds Max Wavefront OBJ Exporter v0.94b - (c)2007 guruware
# File Created: 08.12.2010 17:00:57

mtllib world06_node13.mtl

#
# object world06_node13
#

v  152.3588 -0.0100 42.8889
v  198.2744 -0.0100 42.8889
v  198.2744 -0.0100 68.8596
v  152.3589 -0.0100 68.8596
# 4 vertices

vn -0.0000 -1.0000 -0.0000
vn 0.0000 -1.0000 -0.0000
# 2 vertex normals

vt 0.8909 0.1591 0.0000
vt 0.9988 0.1591 0.0000
vt 0.9988 0.2203 0.0000
vt 0.8909 0.2203 0.0000
# 4 texture coords

g world06_node13
usemtl world06_map02
s 1
f 1/1/1 2/2/2 3/3/2 
f 3/3/2 4/4/1 1/1/1 
# 2 faces

