# 3ds Max Wavefront OBJ Exporter v0.94b - (c)2007 guruware
# File Created: 08.12.2010 17:08:04

mtllib world06_hiddenroad_671_alpha.mtl

#
# object world06_hiddenroad_671_alpha
#

v  148.8566 -0.0200 -69.2055
v  174.7157 -0.0200 -4.6495
v  143.1889 -0.0200 5.1188
v  120.4549 -0.0200 -56.0681
# 4 vertices

vn 0.0000 -1.0000 -0.0000
# 1 vertex normals

vt 1.0000 1.0000 0.0000
vt 0.5000 1.0000 0.0000
vt 0.5000 0.0000 0.0000
vt 1.0000 0.0000 0.0000
# 4 texture coords

g world06_hiddenroad_671_alpha
usemtl alpha_gradient
s 1
f 1/1/1 2/2/1 3/3/1 
f 3/3/1 4/4/1 1/1/1 
# 2 faces

