# 3ds Max Wavefront OBJ Exporter v0.94b - (c)2007 guruware
# File Created: 08.12.2010 16:07:55

mtllib world06_building05.mtl

#
# object world06_building05
#

v  -28.8847 0.0000 -29.6336
v  28.8847 0.0000 -29.6336
v  28.8847 -0.0000 29.6337
v  -28.8847 -0.0000 29.6337
# 4 vertices

vn 0.0000 -1.0000 -0.0000
# 1 vertex normals

vt 0.5478 0.8600 0.0000
vt 0.6834 0.8600 0.0000
vt 0.6834 0.9992 0.0000
vt 0.5478 0.9992 0.0000
# 4 texture coords

g world06_building05
usemtl world06_map02
s 1
f 1/1/1 2/2/1 3/3/1 
f 3/3/1 4/4/1 1/1/1 
# 2 faces

