# 3ds Max Wavefront OBJ Exporter v0.94b - (c)2007 guruware
# File Created: 09.03.2011 16:38:10

mtllib world06_building11.mtl

#
# object world06_building11
#

v  -19.0729 -0.2000 -29.0146
v  39.4540 -0.2000 -29.0146
v  39.4540 -0.2000 24.7514
v  -19.0729 -0.2000 24.7514
# 4 vertices

vn -0.0000 -1.0000 -0.0000
# 1 vertex normals

vt 0.2178 0.5717 0.0000
vt 0.3552 0.5717 0.0000
vt 0.3552 0.6979 0.0000
vt 0.2178 0.6979 0.0000
# 4 texture coords

g world06_building11
usemtl world06_map02
s 1
f 1/1/1 2/2/1 3/3/1 
f 3/3/1 4/4/1 1/1/1 
# 2 faces

