# 3ds Max Wavefront OBJ Exporter v0.94b - (c)2007 guruware
# File Created: 22.12.2010 16:43:48

mtllib world06_building09.mtl

#
# object world06_building09
#

v  -25.6611 -0.2000 -33.1514
v  25.6611 -0.2000 -33.1514
v  25.6610 -0.2000 33.1514
v  -25.6611 -0.2000 33.1514
# 4 vertices

vn -0.0000 -1.0000 -0.0000
# 1 vertex normals

vt 0.8333 0.7101 0.0000
vt 0.9538 0.7101 0.0000
vt 0.9538 0.8657 0.0000
vt 0.8333 0.8657 0.0000
# 4 texture coords

g world06_building09
usemtl world06_map02
s 1
f 1/1/1 2/2/1 3/3/1 
f 3/3/1 4/4/1 1/1/1 
# 2 faces

