# 3ds Max Wavefront OBJ Exporter v0.94b - (c)2007 guruware
# File Created: 24.02.2011 13:18:51

mtllib world06_grass02.mtl

#
# object world06_grass02
#

v  -106.2006 0.0050 -126.9773
v  -43.7642 0.0050 -144.8049
v  -23.6769 0.0050 -88.3480
v  -105.8439 0.0050 -88.3480
# 4 vertices

vn 0.0000 -1.0000 -0.0000
# 1 vertex normals

vt 0.5990 0.6184 0.0000
vt 0.7456 0.5766 0.0000
vt 0.7928 0.7091 0.0000
vt 0.5999 0.7091 0.0000
# 4 texture coords

g world06_grass02
usemtl world06_map02
s 1
f 1/1/1 2/2/1 3/3/1 
f 3/3/1 4/4/1 1/1/1 
# 2 faces

