# 3ds Max Wavefront OBJ Exporter v0.94b - (c)2007 guruware
# File Created: 08.12.2010 17:02:38

mtllib world06_road_05.mtl

#
# object world06_road_05
#

v  -175.3955 0.0150 13.6500
v  -139.2533 0.0150 13.8027
v  -139.2533 0.0150 19.4769
v  -175.9726 0.0150 22.8838
v  -119.1901 0.0150 78.5306
v  -98.7176 0.0150 58.1455
# 6 vertices

vn 0.0000 -1.0000 -0.0000
# 1 vertex normals

vt 0.0608 0.5513 0.0000
vt 0.1513 0.5518 0.0000
vt 0.1513 0.5732 0.0000
vt 0.0594 0.5859 0.0000
vt 0.2016 0.7949 0.0000
vt 0.2528 0.7184 0.0000
# 6 texture coords

g world06_road_05
usemtl world06_map03
s 1
f 1/1/1 2/2/1 3/3/1 
f 3/3/1 4/4/1 1/1/1 
f 5/5/1 4/4/1 3/3/1 
f 3/3/1 6/6/1 5/5/1 
# 4 faces

