# 3ds Max Wavefront OBJ Exporter v0.94b - (c)2007 guruware
# File Created: 24.02.2011 16:17:57

mtllib world06_road_05b.mtl

#
# object world06_road_05b
#

v  -57.1582 -0.0200 -82.7646
v  -28.9194 -0.0200 -84.2379
v  -25.6044 -0.0200 -32.5487
v  -52.8684 -0.0200 -31.5761
# 4 vertices

vn 0.0000 -1.0000 -0.0000
# 1 vertex normals

vt 0.3606 0.4716 0.0000
vt 0.4313 0.4661 0.0000
vt 0.4396 0.6602 0.0000
vt 0.3714 0.6639 0.0000
# 4 texture coords

g world06_road_05b
usemtl world06_map03
s 1
f 1/1/1 2/2/1 3/3/1 
f 3/3/1 4/4/1 1/1/1 
# 2 faces

