# 3ds Max Wavefront OBJ Exporter v0.94b - (c)2007 guruware
# File Created: 08.12.2010 17:08:35

mtllib world06_hiddenroad_666_alpha.mtl

#
# object world06_hiddenroad_666_alpha
#

v  1.9459 0.0150 -72.8893
v  92.0407 0.0150 -129.2933
v  85.6054 0.0150 -93.3310
v  32.2298 0.0150 -57.3688
# 4 vertices

vn 0.0000 -1.0000 -0.0000
# 1 vertex normals

vt 0.5000 0.0000 0.0000
vt 1.0000 0.0000 0.0000
vt 1.0000 1.0000 0.0000
vt 0.5000 1.0000 0.0000
# 4 texture coords

g world06_hiddenroad_666_alpha
usemtl alpha_gradient
s 1
f 1/1/1 2/2/1 3/3/1 
f 3/3/1 4/4/1 1/1/1 
# 2 faces

