# 3ds Max Wavefront OBJ Exporter v0.94b - (c)2007 guruware
# File Created: 09.03.2011 16:21:40

mtllib world06_grass10.mtl

#
# object world06_grass10
#

v  18.8819 0.0050 14.4154
v  83.2181 0.0050 14.4154
v  83.2181 0.0050 60.7729
v  17.4608 0.0050 46.3602
# 4 vertices

vn 0.0000 -1.0000 -0.0000
# 1 vertex normals

vt 0.6790 0.4882 0.0000
vt 0.8300 0.4882 0.0000
vt 0.8300 0.5971 0.0000
vt 0.6756 0.5632 0.0000
# 4 texture coords

g world06_grass10
usemtl world06_map02
s 1
f 1/1/1 2/2/1 3/3/1 
f 3/3/1 4/4/1 1/1/1 
# 2 faces

