# 3ds Max Wavefront OBJ Exporter v0.94b - (c)2007 guruware
# File Created: 08.12.2010 17:03:20

mtllib world06_road_12.mtl

#
# object world06_road_12
#

v  120.8105 0.0150 31.5905
v  165.8580 0.0150 -25.1920
v  156.7728 0.0150 25.5337
v  127.6244 0.0150 70.2025
v  118.9446 0.0150 70.8535
v  112.7814 0.0150 32.6198
# 6 vertices

vn 0.0000 -1.0000 -0.0000
# 1 vertex normals

vt 0.8025 0.6186 0.0000
vt 0.9153 0.4054 0.0000
vt 0.8925 0.5959 0.0000
vt 0.8196 0.7637 0.0000
vt 0.7978 0.7661 0.0000
vt 0.7824 0.6225 0.0000
# 6 texture coords

g world06_road_12
usemtl world06_map03
s 1
f 1/1/1 2/2/1 3/3/1 
f 3/3/1 4/4/1 1/1/1 
f 1/1/1 4/4/1 5/5/1 
f 5/5/1 6/6/1 1/1/1 
# 4 faces

