# 3ds Max Wavefront OBJ Exporter v0.94b - (c)2007 guruware
# File Created: 08.12.2010 17:08:28

mtllib world06_hiddenroad_669_alpha.mtl

#
# object world06_hiddenroad_669_alpha
#

v  10.2553 -0.0200 16.2354
v  48.8109 -0.0200 -8.7543
v  62.8976 -0.0200 13.7708
v  22.0690 -0.0200 38.4300
# 4 vertices

vn 0.0000 -1.0000 -0.0000
# 1 vertex normals

vt 1.0000 0.0000 0.0000
vt 0.5000 0.0000 0.0000
vt 0.5000 1.0000 0.0000
vt 1.0000 1.0000 0.0000
# 4 texture coords

g world06_hiddenroad_669_alpha
usemtl alpha_gradient
s 1
f 1/1/1 2/2/1 3/3/1 
f 3/3/1 4/4/1 1/1/1 
# 2 faces

