# 3ds Max Wavefront OBJ Exporter v0.94b - (c)2007 guruware
# File Created: 08.12.2010 17:05:18

mtllib world06_road_03_alpha.mtl

#
# object world06_road_03_alpha
#

v  -79.8209 0.0150 -69.8609
v  -81.1637 0.0150 -71.9711
v  -30.5351 0.0150 -87.5109
v  -26.4454 0.0150 -79.7032
v  -88.9872 0.0150 -31.0130
v  -118.1547 0.0150 -39.7743
# 6 vertices

vn 0.0000 -1.0000 -0.0000
# 1 vertex normals

vt 0.9470 1.0000 0.0000
vt 0.5000 1.0000 0.0000
vt 0.5000 0.0000 0.0000
vt 0.9470 0.0000 0.0000
vt 1.0000 0.0000 0.0000
vt 1.0000 1.0000 0.0000
# 6 texture coords

g world06_road_03_alpha
usemtl alpha_gradient
s 1
f 1/1/1 2/2/1 3/3/1 
f 3/3/1 4/4/1 1/1/1 
f 1/1/1 4/4/1 5/5/1 
f 5/5/1 6/6/1 1/1/1 
# 4 faces

