# 3ds Max Wavefront OBJ Exporter v0.94b - (c)2007 guruware
# File Created: 08.12.2010 17:02:45

mtllib world06_road_06.mtl

#
# object world06_road_06
#

v  -119.1901 0.0150 78.5306
v  -98.7176 0.0150 58.1455
v  -29.4738 0.0150 83.0732
v  -12.0605 0.0150 117.1428
v  -23.3892 0.0150 81.0451
v  -4.6943 0.0150 116.0457
# 6 vertices

vn 0.0000 -1.0000 -0.0000
# 1 vertex normals

vt 0.2016 0.7949 0.0000
vt 0.2528 0.7184 0.0000
vt 0.4262 0.8120 0.0000
vt 0.4698 0.9400 0.0000
vt 0.4414 0.8044 0.0000
vt 0.4882 0.9358 0.0000
# 6 texture coords

g world06_road_06
usemtl world06_map03
s 1
f 1/1/1 2/2/1 3/3/1 
f 3/3/1 4/4/1 1/1/1 
f 5/5/1 6/6/1 4/4/1 
f 4/4/1 3/3/1 5/5/1 
# 4 faces

