# 3ds Max Wavefront OBJ Exporter v0.94b - (c)2007 guruware
# File Created: 08.12.2010 17:03:06

mtllib world06_road_10.mtl

#
# object world06_road_10
#

v  81.4413 0.0150 0.5494
v  81.4413 0.0150 6.9416
v  42.0721 0.0150 7.2847
v  42.0721 0.0150 -1.7219
v  143.1450 0.0150 -64.9398
v  104.9114 0.0150 -68.3467
# 6 vertices

vn 0.0000 -1.0000 -0.0000
# 1 vertex normals

vt 0.7039 0.5021 0.0000
vt 0.7039 0.5261 0.0000
vt 0.6053 0.5274 0.0000
vt 0.6053 0.4935 0.0000
vt 0.8584 0.2561 0.0000
vt 0.7627 0.2433 0.0000
# 6 texture coords

g world06_road_10
usemtl world06_map03
s 1
f 1/1/1 2/2/1 3/3/1 
f 3/3/1 4/4/1 1/1/1 
f 5/5/1 1/1/1 4/4/1 
f 4/4/1 6/6/1 5/5/1 
# 4 faces

