# 3ds Max Wavefront OBJ Exporter v0.94b - (c)2007 guruware
# File Created: 04.07.2011 13:12:03

mtllib world06_background_details.mtl

#
# object world06_background_details
#

v  -181.4996 -0.3000 -54.8337
v  -145.8235 -0.3000 -54.8337
v  -145.8235 -0.3000 5.5671
v  -181.4996 -0.3000 5.5671
v  -167.7126 -0.3000 38.0081
v  -131.5528 -0.3000 38.0081
v  -131.5528 -0.3000 99.8032
v  -167.7126 -0.3000 99.8032
v  -28.9406 -0.3000 -135.5312
v  79.3292 -0.3000 -135.5312
v  79.3291 -0.3000 -84.0600
v  -28.9406 -0.3000 -84.0600
v  -210.1932 -0.3000 -47.8126
v  -174.0333 -0.3000 -47.8126
v  -174.0334 -0.3000 13.9824
v  -210.1932 -0.3000 13.9824
v  51.5866 -0.3000 68.3500
v  87.7465 -0.3000 68.3500
v  87.7465 -0.3000 130.1450
v  51.5866 -0.3000 130.1450
v  114.1772 -0.3000 -67.8513
v  150.3371 -0.3000 -67.8513
v  150.3370 -0.3000 -6.0563
v  114.1772 -0.3000 -6.0563
v  5.0863 -0.3000 30.6967
v  40.7625 -0.3000 30.6967
v  40.7625 -0.3000 91.0974
v  5.0863 -0.3000 91.0974
v  174.2093 -0.3000 -146.0795
v  209.8854 -0.3000 -146.0795
v  209.8854 -0.3000 -85.6787
v  174.2093 -0.3000 -85.6787
# 32 vertices

vn 0.0000 -1.0000 -0.0000
# 1 vertex normals

vt 0.8019 0.1736 0.0000
vt 0.8857 0.1736 0.0000
vt 0.8857 0.3154 0.0000
vt 0.8019 0.3154 0.0000
vt 0.9084 0.3038 0.0000
vt 0.9933 0.3038 0.0000
vt 0.9933 0.4488 0.0000
vt 0.9084 0.4488 0.0000
vt 0.0043 0.0685 0.0000
vt 0.2585 0.0685 0.0000
vt 0.2585 0.1893 0.0000
vt 0.0043 0.1893 0.0000
# 12 texture coords

g world06_background_details
usemtl world06_map02
s 1
f 1/1/1 2/2/1 3/3/1 
f 3/3/1 4/4/1 1/1/1 
f 5/5/1 6/6/1 7/7/1 
f 7/7/1 8/8/1 5/5/1 
f 9/9/1 10/10/1 11/11/1 
f 11/11/1 12/12/1 9/9/1 
f 13/5/1 14/6/1 15/7/1 
f 15/7/1 16/8/1 13/5/1 
f 17/5/1 18/6/1 19/7/1 
f 19/7/1 20/8/1 17/5/1 
f 21/5/1 22/6/1 23/7/1 
f 23/7/1 24/8/1 21/5/1 
f 25/1/1 26/2/1 27/3/1 
f 27/3/1 28/4/1 25/1/1 
f 29/1/1 30/2/1 31/3/1 
f 31/3/1 32/4/1 29/1/1 
# 16 faces

