# 3ds Max Wavefront OBJ Exporter v0.94b - (c)2007 guruware
# File Created: 02.12.2010 11:29:04

mtllib world06_grass05.mtl

#
# object world06_grass05
#

v  -153.3370 0.0050 72.4558
v  -83.4733 0.0050 72.4558
v  -83.4733 0.0050 114.9095
v  -153.3370 0.0050 114.9095
# 4 vertices

vn 0.0000 -1.0000 -0.0000
# 1 vertex normals

vt 0.1906 0.4696 0.0000
vt 0.3546 0.4696 0.0000
vt 0.3546 0.5692 0.0000
vt 0.1906 0.5692 0.0000
# 4 texture coords

g world06_grass05
usemtl world06_map02
s 1
f 1/1/1 2/2/1 3/3/1 
f 3/3/1 4/4/1 1/1/1 
# 2 faces

