# 3ds Max Wavefront OBJ Exporter v0.94b - (c)2007 guruware
# File Created: 29.06.2011 15:43:59

mtllib world06_road_13.mtl

#
# object world06_road_13
#

v  165.8580 0.0150 -25.1920
v  199.6913 0.0150 63.0101
v  164.3438 0.0150 70.9597
v  156.7728 0.0150 25.5337
# 4 vertices

vn 0.0000 -1.0000 -0.0000
# 1 vertex normals

vt 0.9153 0.4054 0.0000
vt 1.0000 0.7367 0.0000
vt 0.9115 0.7665 0.0000
vt 0.8925 0.5959 0.0000
# 4 texture coords

g world06_road_13
usemtl world06_map03
s 1
f 1/1/1 2/2/1 3/3/1 
f 3/3/1 4/4/1 1/1/1 
# 2 faces

