# 3ds Max Wavefront OBJ Exporter v0.94b - (c)2007 guruware
# File Created: 16.12.2010 15:06:24

mtllib world06_road_05b_alpha.mtl

#
# object world06_road_05b_alpha
#

v  -57.1582 -0.0200 -82.7646
v  -28.9194 -0.0200 -84.2379
v  -25.6044 -0.0200 -32.5487
v  -52.8684 -0.0200 -31.5761
# 4 vertices

vn 0.0000 -1.0000 -0.0000
# 1 vertex normals

vt 0.5000 1.0000 0.0000
vt 0.5000 0.0000 0.0000
vt 1.0000 0.0000 0.0000
vt 1.0000 1.0000 0.0000
# 4 texture coords

g world06_road_05b_alpha
usemtl alpha_gradient
s 1
f 1/1/1 2/2/1 3/3/1 
f 3/3/1 4/4/1 1/1/1 
# 2 faces

