# 3ds Max Wavefront OBJ Exporter v0.94b - (c)2007 guruware
# File Created: 03.03.2011 17:11:11

mtllib world06_grass11.mtl

#
# object world06_grass11
#

v  99.9191 0.0050 46.9557
v  172.3627 0.0050 46.9557
v  171.8395 0.0050 95.2995
v  99.9190 0.0050 95.2995
# 4 vertices

vn -0.0000 -1.0000 -0.0000
vn 0.0000 -1.0000 -0.0000
# 2 vertex normals

vt 0.2587 0.0769 0.0000
vt 0.4288 0.0769 0.0000
vt 0.4276 0.1903 0.0000
vt 0.2588 0.1904 0.0000
# 4 texture coords

g world06_grass11
usemtl world06_map02
s 1
f 1/1/1 2/2/2 3/3/1 
f 3/3/1 4/4/1 1/1/1 
# 2 faces

