# 3ds Max Wavefront OBJ Exporter v0.94b - (c)2007 guruware
# File Created: 08.12.2010 16:54:05

mtllib world06_node03.mtl

#
# object world06_node03
#

v  -128.5989 -0.0100 -48.0954
v  -82.7822 -0.0100 -48.0954
v  -82.7822 -0.0100 -23.1812
v  -128.5989 -0.0100 -23.1812
# 4 vertices

vn -0.0000 -1.0000 -0.0000
vn 0.0000 -1.0000 -0.0000
# 2 vertex normals

vt 0.1202 0.1923 0.0000
vt 0.2279 0.1923 0.0000
vt 0.2279 0.2513 0.0000
vt 0.1202 0.2513 0.0000
# 4 texture coords

g world06_node03
usemtl world06_map02
s 1
f 1/1/1 2/2/2 3/3/2 
f 3/3/2 4/4/1 1/1/1 
# 2 faces

