# 3ds Max Wavefront OBJ Exporter v0.94b - (c)2007 guruware
# File Created: 22.12.2010 16:42:59

mtllib world06_building08.mtl

#
# object world06_building08
#

v  -32.5408 -0.2000 -31.6145
v  32.5408 -0.2000 -31.6145
v  32.5407 -0.2000 31.6145
v  -32.5408 -0.2000 31.6145
# 4 vertices

vn 0.0000 -1.0000 -0.0000
# 1 vertex normals

vt 0.5340 0.7100 0.0000
vt 0.6868 0.7100 0.0000
vt 0.6868 0.8584 0.0000
vt 0.5340 0.8584 0.0000
# 4 texture coords

g world06_building08
usemtl world06_map02
s 1
f 1/1/1 2/2/1 3/3/1 
f 3/3/1 4/4/1 1/1/1 
# 2 faces

