# 3ds Max Wavefront OBJ Exporter v0.94b - (c)2007 guruware
# File Created: 23.02.2011 16:35:48

mtllib world06_grass04.mtl

#
# object world06_grass04
#

v  -199.8190 0.0050 4.2664
v  -148.2991 0.0050 4.2664
v  -148.2992 0.0050 48.2362
v  -199.8191 0.0050 48.2362
# 4 vertices

vn 0.0000 -1.0000 -0.0000
# 1 vertex normals

vt 0.7864 0.3174 0.0000
vt 0.9074 0.3174 0.0000
vt 0.9074 0.4206 0.0000
vt 0.7864 0.4206 0.0000
# 4 texture coords

g world06_grass04
usemtl world06_map02
s 1
f 1/1/1 2/2/1 3/3/1 
f 3/3/1 4/4/1 1/1/1 
# 2 faces

