# 3ds Max Wavefront OBJ Exporter v0.94b - (c)2007 guruware
# File Created: 09.03.2011 16:51:08

mtllib world06_building12.mtl

#
# object world06_building12
#

v  -32.3441 -0.2000 -11.9453
v  25.0918 -0.2000 -11.9452
v  25.0918 -0.2000 63.1567
v  -32.3441 -0.2000 63.1567
# 4 vertices

vn 0.0000 -1.0000 -0.0000
# 1 vertex normals

vt 0.6054 0.0074 0.0000
vt 0.7403 0.0074 0.0000
vt 0.7403 0.1837 0.0000
vt 0.6054 0.1837 0.0000
# 4 texture coords

g world06_building12
usemtl world06_map02
s 1
f 1/1/1 2/2/1 3/3/1 
f 3/3/1 4/4/1 1/1/1 
# 2 faces

