# 3ds Max Wavefront OBJ Exporter v0.94b - (c)2007 guruware
# File Created: 08.12.2010 17:02:52

mtllib world06_road_07.mtl

#
# object world06_road_07
#

v  -16.9816 0.0150 78.9092
v  -6.3822 0.0150 27.4264
v  23.5232 0.0150 28.1835
v  5.7314 0.0150 114.4929
v  -4.6943 0.0150 116.0457
v  -23.3892 0.0150 81.0451
# 6 vertices

vn 0.0000 -1.0000 -0.0000
# 1 vertex normals

vt 0.4575 0.7964 0.0000
vt 0.4840 0.6030 0.0000
vt 0.5589 0.6059 0.0000
vt 0.5144 0.9300 0.0000
vt 0.4882 0.9358 0.0000
vt 0.4414 0.8044 0.0000
# 6 texture coords

g world06_road_07
usemtl world06_map03
s 1
f 1/1/1 2/2/1 3/3/1 
f 3/3/1 4/4/1 1/1/1 
f 1/1/1 4/4/1 5/5/1 
f 5/5/1 6/6/1 1/1/1 
# 4 faces

