# 3ds Max Wavefront OBJ Exporter v0.94b - (c)2007 guruware
# File Created: 24.02.2011 10:07:25

mtllib world06_road_02b.mtl

#
# object world06_road_02b
#

v  11.3837 -0.0200 -53.8604
v  -40.8502 -0.0200 -73.4736
v  -34.1628 -0.0200 -97.1882
v  21.5631 -0.0200 -75.9158
# 4 vertices

vn 0.0000 -1.0000 -0.0000
# 1 vertex normals

vt 0.5285 0.2977 0.0000
vt 0.3977 0.2240 0.0000
vt 0.4145 0.1350 0.0000
vt 0.5540 0.2149 0.0000
# 4 texture coords

g world06_road_02b
usemtl world06_map03
s 1
f 1/1/1 2/2/1 3/3/1 
f 3/3/1 4/4/1 1/1/1 
# 2 faces

