# 3ds Max Wavefront OBJ Exporter v0.94b - (c)2007 guruware
# File Created: 08.12.2010 17:06:22

mtllib world06_road_11_alpha.mtl

#
# object world06_road_11_alpha
#

v  81.4413 0.0150 13.4201
v  106.0471 0.0150 33.4832
v  112.4824 0.0150 71.3382
v  42.0722 0.0150 16.8270
v  112.7814 0.0150 32.6198
v  118.9446 0.0150 70.8535
v  42.0721 0.0150 7.2847
v  81.4413 0.0150 6.9416
# 8 vertices

vn 0.0000 -1.0000 -0.0000
# 1 vertex normals

vt 0.5830 0.0000 0.0000
vt 0.8940 0.0000 0.0000
vt 0.8940 1.0000 0.0000
vt 0.5830 1.0000 0.0000
vt 1.0000 0.0000 0.0000
vt 1.0000 1.0000 0.0000
vt 0.5000 1.0000 0.0000
vt 0.5000 0.0000 0.0000
# 8 texture coords

g world06_road_11_alpha
usemtl alpha_gradient
s 1
f 1/1/1 2/2/1 3/3/1 
f 3/3/1 4/4/1 1/1/1 
f 5/5/1 6/6/1 3/3/1 
f 3/3/1 2/2/1 5/5/1 
f 1/1/1 4/4/1 7/7/1 
f 7/7/1 8/8/1 1/1/1 
# 6 faces

