# 3ds Max Wavefront OBJ Exporter v0.94b - (c)2007 guruware
# File Created: 24.02.2011 10:08:06

mtllib world06_hiddenroad_671.mtl

#
# object world06_hiddenroad_671
#

v  148.8566 -0.0200 -69.2055
v  174.7157 -0.0200 -4.6495
v  143.1889 -0.0200 5.1188
v  120.4549 -0.0200 -56.0681
# 4 vertices

vn 0.0000 -1.0000 -0.0000
# 1 vertex normals

vt 0.8727 0.2401 0.0000
vt 0.9375 0.4825 0.0000
vt 0.8585 0.5192 0.0000
vt 0.8016 0.2894 0.0000
# 4 texture coords

g world06_hiddenroad_671
usemtl world06_map03
s 1
f 1/1/1 2/2/1 3/3/1 
f 3/3/1 4/4/1 1/1/1 
# 2 faces

