# 3ds Max Wavefront OBJ Exporter v0.94b - (c)2007 guruware
# File Created: 24.02.2011 14:19:06

mtllib world06_node12.mtl

#
# object world06_node12
#

v  141.0747 -0.0100 -8.0605
v  186.2504 -0.0100 -8.0605
v  186.2504 -0.0100 19.1828
v  141.0749 -0.0100 19.1828
# 4 vertices

vn -0.0000 -1.0000 -0.0000
vn 0.0000 -1.0000 -0.0000
# 2 vertex normals

vt 0.8929 0.2199 0.0000
vt 0.9991 0.2199 0.0000
vt 0.9991 0.2841 0.0000
vt 0.8929 0.2841 0.0000
# 4 texture coords

g world06_node12
usemtl world06_map02
s 1
f 1/1/1 2/2/2 3/3/1 
f 3/3/1 4/4/1 1/1/1 
# 2 faces

