# 3ds Max Wavefront OBJ Exporter v0.94b - (c)2007 guruware
# File Created: 24.02.2011 13:14:17

mtllib world06_grass01.mtl

#
# object world06_grass01
#

v  -195.7257 0.0050 -80.7091
v  -90.5191 0.0050 -80.7091
v  -90.5192 0.0050 -37.8353
v  -195.7257 0.0050 -37.8353
# 4 vertices

vn 0.0000 -1.0000 -0.0000
# 1 vertex normals

vt 0.3523 0.5924 0.0000
vt 0.5992 0.5924 0.0000
vt 0.5992 0.6931 0.0000
vt 0.3523 0.6931 0.0000
# 4 texture coords

g world06_grass01
usemtl world06_map02
s 1
f 1/1/1 2/2/1 3/3/1 
f 3/3/1 4/4/1 1/1/1 
# 2 faces

