# 3ds Max Wavefront OBJ Exporter v0.94b - (c)2007 guruware
# File Created: 08.12.2010 17:06:11

mtllib world06_road_10_alpha.mtl

#
# object world06_road_10_alpha
#

v  81.4413 0.0150 0.5494
v  81.4413 0.0150 6.9416
v  42.0721 0.0150 7.2847
v  42.0721 0.0150 -1.7219
v  143.1450 0.0150 -64.9398
v  104.9114 0.0150 -68.3467
# 6 vertices

vn 0.0000 -1.0000 -0.0000
# 1 vertex normals

vt 0.8970 0.0000 0.0000
vt 1.0000 0.0000 0.0000
vt 1.0000 1.0000 0.0000
vt 0.8970 1.0000 0.0000
vt 0.5000 0.0000 0.0000
vt 0.5000 1.0000 0.0000
# 6 texture coords

g world06_road_10_alpha
usemtl alpha_gradient
s 1
f 1/1/1 2/2/1 3/3/1 
f 3/3/1 4/4/1 1/1/1 
f 5/5/1 1/1/1 4/4/1 
f 4/4/1 6/6/1 5/5/1 
# 4 faces

