# 3ds Max Wavefront OBJ Exporter v0.94b - (c)2007 guruware
# File Created: 16.12.2010 15:07:20

mtllib world06_road_14b_alpha.mtl

#
# object world06_road_14b_alpha
#

v  92.0407 0.0150 -129.2933
v  143.1450 0.0150 -64.9398
v  104.9114 0.0150 -68.3467
v  85.6054 0.0150 -93.3310
# 4 vertices

vn 0.0000 -1.0000 -0.0000
# 1 vertex normals

vt 0.5000 0.0000 0.0000
vt 1.0000 0.0000 0.0000
vt 1.0000 1.0000 0.0000
vt 0.5000 1.0000 0.0000
# 4 texture coords

g world06_road_14b_alpha
usemtl alpha_gradient
s 1
f 1/1/1 2/2/1 3/3/1 
f 3/3/1 4/4/1 1/1/1 
# 2 faces

