# 3ds Max Wavefront OBJ Exporter v0.94b - (c)2007 guruware
# File Created: 09.12.2010 13:07:52

mtllib world06_road_09_alpha.mtl

#
# object world06_road_09_alpha
#

v  135.3667 0.0250 -52.7406
v  -0.0873 0.0250 -52.7406
v  -0.0873 0.0250 -76.4192
v  135.3667 0.0250 -76.4192
# 4 vertices

vn 0.0000 -1.0000 -0.0000
# 1 vertex normals

vt 1.0000 1.0000 0.0000
vt 0.5000 1.0000 0.0000
vt 0.5000 0.0000 0.0000
vt 1.0000 0.0000 0.0000
# 4 texture coords

g world06_road_09_alpha
usemtl alpha_gradient
s 1
f 1/1/1 2/2/1 3/3/1 
f 3/3/1 4/4/1 1/1/1 
# 2 faces

