# 3ds Max Wavefront OBJ Exporter v0.94b - (c)2007 guruware
# File Created: 08.12.2010 17:08:20

mtllib world06_road_02b_alpha.mtl

#
# object world06_road_02b_alpha
#

v  11.3837 -0.0200 -53.8604
v  -40.8502 -0.0200 -73.4736
v  -34.1628 -0.0200 -97.1882
v  21.5631 -0.0200 -75.9158
# 4 vertices

vn 0.0000 -1.0000 -0.0000
# 1 vertex normals

vt 0.5000 1.0000 0.0000
vt 1.0000 1.0000 0.0000
vt 1.0000 0.0000 0.0000
vt 0.5000 0.0000 0.0000
# 4 texture coords

g world06_road_02b_alpha
usemtl alpha_gradient
s 1
f 1/1/1 2/2/1 3/3/1 
f 3/3/1 4/4/1 1/1/1 
# 2 faces

