# 3ds Max Wavefront OBJ Exporter v0.94b - (c)2007 guruware
# File Created: 16.12.2010 15:08:20

mtllib world06_road_03b_alpha.mtl

#
# object world06_road_03b_alpha
#

v  -40.7408 -0.0200 -21.2094
v  -104.1750 -0.0200 -23.3160
v  -102.4039 -0.0200 -44.7902
v  -40.6338 -0.0200 -45.1223
# 4 vertices

vn 0.0000 -1.0000 -0.0000
# 1 vertex normals

vt 0.5000 1.0000 0.0000
vt 1.0000 1.0000 0.0000
vt 1.0000 0.0000 0.0000
vt 0.5000 0.0000 0.0000
# 4 texture coords

g world06_road_03b_alpha
usemtl alpha_gradient
s 1
f 1/1/1 2/2/1 3/3/1 
f 3/3/1 4/4/1 1/1/1 
# 2 faces

