# 3ds Max Wavefront OBJ Exporter v0.94b - (c)2007 guruware
# File Created: 08.12.2010 17:05:57

mtllib world06_road_08_alpha.mtl

#
# object world06_road_08_alpha
#

v  -6.3822 0.0150 27.4264
v  1.9459 0.0150 -72.8893
v  32.2298 0.0150 -57.3688
v  23.5232 0.0150 28.1835
# 4 vertices

vn 0.0000 -1.0000 -0.0000
# 1 vertex normals

vt 0.5000 0.0000 0.0000
vt 1.0000 0.0000 0.0000
vt 1.0000 1.0000 0.0000
vt 0.5000 1.0000 0.0000
# 4 texture coords

g world06_road_08_alpha
usemtl alpha_gradient
s 1
f 1/1/1 2/2/1 3/3/1 
f 3/3/1 4/4/1 1/1/1 
# 2 faces

