# 3ds Max Wavefront OBJ Exporter v0.94b - (c)2007 guruware
# File Created: 08.12.2010 16:07:39

mtllib world06_building04.mtl

#
# object world06_building04
#

v  -32.0764 0.0000 -35.8033
v  32.0764 0.0000 -35.8033
v  32.0764 -0.0000 35.8033
v  -32.0764 -0.0000 35.8033
# 4 vertices

vn 0.0000 -1.0000 -0.0000
# 1 vertex normals

vt 0.3820 0.6942 0.0000
vt 0.5326 0.6942 0.0000
vt 0.5326 0.8623 0.0000
vt 0.3820 0.8623 0.0000
# 4 texture coords

g world06_building04
usemtl world06_map02
s 1
f 1/1/1 2/2/1 3/3/1 
f 3/3/1 4/4/1 1/1/1 
# 2 faces

