# 3ds Max Wavefront OBJ Exporter v0.94b - (c)2007 guruware
# File Created: 08.12.2010 16:08:06

mtllib world06_building03.mtl

#
# object world06_building03
#

v  -34.9367 0.0000 -28.6655
v  34.9367 0.0000 -28.6655
v  34.9367 -0.0000 28.6655
v  -34.9367 -0.0000 28.6655
# 4 vertices

vn -0.0000 -1.0000 -0.0000
# 1 vertex normals

vt 0.3820 0.8643 0.0000
vt 0.5461 0.8643 0.0000
vt 0.5461 0.9989 0.0000
vt 0.3820 0.9989 0.0000
# 4 texture coords

g world06_building03
usemtl world06_map02
s 1
f 1/1/1 2/2/1 3/3/1 
f 3/3/1 4/4/1 1/1/1 
# 2 faces

