# 3ds Max Wavefront OBJ Exporter v0.94b - (c)2007 guruware
# File Created: 24.02.2011 15:14:37

mtllib world06_road_09.mtl

#
# object world06_road_09
#

v  135.3667 0.0250 -57.6817
v  -0.0873 0.0250 -57.6817
v  -0.0872 0.0250 -70.5533
v  135.3667 0.0250 -71.9704
# 4 vertices

vn 0.0000 -1.0000 -0.0000
# 1 vertex normals

vt 0.8389 0.2834 0.0000
vt 0.4998 0.2834 0.0000
vt 0.4998 0.2350 0.0000
vt 0.8389 0.2297 0.0000
# 4 texture coords

g world06_road_09
usemtl world06_map03
s 1
f 1/1/1 2/2/1 3/3/1 
f 3/3/1 4/4/1 1/1/1 
# 2 faces

