# 3ds Max Wavefront OBJ Exporter v0.94b - (c)2007 guruware
# File Created: 08.12.2010 17:06:30

mtllib world06_road_12_alpha.mtl

#
# object world06_road_12_alpha
#

v  120.8105 0.0150 31.5905
v  165.8580 0.0150 -25.1920
v  156.7728 0.0150 25.5337
v  127.6244 0.0150 70.2025
v  118.9446 0.0150 70.8535
v  112.7814 0.0150 32.6198
# 6 vertices

vn 0.0000 -1.0000 -0.0000
# 1 vertex normals

vt 0.6040 0.0000 0.0000
vt 1.0000 0.0000 0.0000
vt 1.0000 1.0000 0.0000
vt 0.6040 1.0000 0.0000
vt 0.5000 1.0000 0.0000
vt 0.5000 0.0000 0.0000
# 6 texture coords

g world06_road_12_alpha
usemtl alpha_gradient
s 1
f 1/1/1 2/2/1 3/3/1 
f 3/3/1 4/4/1 1/1/1 
f 1/1/1 4/4/1 5/5/1 
f 5/5/1 6/6/1 1/1/1 
# 4 faces

