# 3ds Max Wavefront OBJ Exporter v0.94b - (c)2007 guruware
# File Created: 20.12.2010 15:06:41

mtllib world02_building10.mtl

#
# object world02_building10
#

v  -41.2456 -0.2000 -41.3727
v  41.2456 -0.2000 -41.3727
v  41.2456 -0.2000 41.3727
v  -41.2456 -0.2000 41.3727
# 4 vertices

vn 0.0000 -1.0000 -0.0000
# 1 vertex normals

vt 0.4893 0.6036 0.0000
vt 0.6830 0.6036 0.0000
vt 0.6830 0.7978 0.0000
vt 0.4893 0.7978 0.0000
# 4 texture coords

g world02_building10
usemtl world02_map02
s 1
f 1/1/1 2/2/1 3/3/1 
f 3/3/1 4/4/1 1/1/1 
# 2 faces

