# 3ds Max Wavefront OBJ Exporter v0.94b - (c)2007 guruware
# File Created: 02.12.2010 16:36:37

mtllib world02_road_04_alpha.mtl

#
# object world02_road_04_alpha
#

v  6.8953 0.0150 47.0328
v  20.0659 0.0150 38.9423
v  49.2895 0.0150 60.1792
v  9.2776 0.0150 86.3408
v  -43.1767 0.0150 56.1720
v  -21.4795 0.0150 31.0618
# 6 vertices

vn 0.0000 -1.0000 -0.0000
# 1 vertex normals

vt 0.7500 0.0000 0.0000
vt 1.0000 0.0000 0.0000
vt 1.0000 1.0000 0.0000
vt 0.7500 1.0000 0.0000
vt 0.5000 1.0000 0.0000
vt 0.5000 0.0000 0.0000
# 6 texture coords

g world02_road_04_alpha
usemtl alpha_gradient
s 1
f 1/1/1 2/2/1 3/3/1 
f 3/3/1 4/4/1 1/1/1 
f 5/5/1 6/6/1 1/1/1 
f 1/1/1 4/4/1 5/5/1 
# 4 faces

