# 3ds Max Wavefront OBJ Exporter v0.94b - (c)2007 guruware
# File Created: 10.08.2010 11:50:39

mtllib world02_building05_origin.mtl

#
# object world02_building05
#

v  -33.6233 0.0000 -36.3998
v  33.6234 0.0000 -36.3998
v  33.6234 -0.0000 36.3998
v  -33.6233 -0.0000 36.3998
# 4 vertices

vn 0.0000 -1.0000 -0.0000
# 1 vertex normals

vt 0.7021 0.8287 0.0000
vt 0.8599 0.8287 0.0000
vt 0.8599 0.9996 0.0000
vt 0.7021 0.9996 0.0000
# 4 texture coords

g world02_building05
usemtl world01_map02
s 1
f 1/1/1 2/2/1 3/3/1 
f 3/3/1 4/4/1 1/1/1 
# 2 faces

