# 3ds Max Wavefront OBJ Exporter v0.94b - (c)2007 guruware
# File Created: 05.08.2011 14:07:06

mtllib world02_grass11.mtl

#
# object world02_grass11
#

v  151.7376 0.0050 -80.0570
v  184.9484 0.0050 -122.6925
v  192.3244 0.0050 -49.7138
v  212.9161 0.0050 -99.1879
v  212.9103 0.0050 -62.8586
# 5 vertices

vn 0.0000 -1.0000 -0.0000
# 1 vertex normals

vt 0.2763 0.1071 0.0000
vt 0.3543 0.0033 0.0000
vt 0.3716 0.1746 0.0000
vt 0.4199 0.0584 0.0000
vt 0.4199 0.1437 0.0000
# 5 texture coords

g world02_grass11
usemtl world02_map02
s 1
f 1/1/1 2/2/1 3/3/1 
f 4/4/1 5/5/1 3/3/1 
f 3/3/1 2/2/1 4/4/1 
# 3 faces

