# 3ds Max Wavefront OBJ Exporter v0.94b - (c)2007 guruware
# File Created: 30.11.2010 16:16:57

mtllib world02_road03.mtl

#
# object world02_road03
#

v  -43.1767 0.0150 56.1720
v  -93.7438 0.0150 27.0886
v  -73.4534 0.0150 1.8080
v  -21.4795 0.0150 31.0618
# 4 vertices

vn 0.0000 -1.0000 -0.0000
# 1 vertex normals

vt 0.3919 0.7110 0.0000
vt 0.2653 0.6017 0.0000
vt 0.3161 0.5068 0.0000
vt 0.4462 0.6167 0.0000
# 4 texture coords

g world02_road03
usemtl world02_map03
s 1
f 1/1/1 2/2/1 3/3/1 
f 3/3/1 4/4/1 1/1/1 
# 2 faces

