# 3ds Max Wavefront OBJ Exporter v0.94b - (c)2007 guruware
# File Created: 20.12.2010 15:54:15

mtllib world02_building09.mtl

#
# object world02_building09
#

v  -32.9800 -0.2000 -35.6687
v  32.9800 -0.2000 -35.6687
v  32.9799 -0.2000 35.6687
v  -32.9800 -0.2000 35.6687
# 4 vertices

vn 0.0000 -1.0000 -0.0000
# 1 vertex normals

vt 0.3328 0.6982 0.0000
vt 0.4876 0.6982 0.0000
vt 0.4876 0.8657 0.0000
vt 0.3328 0.8657 0.0000
# 4 texture coords

g world02_building09
usemtl world02_map02
s 1
f 1/1/1 2/2/1 3/3/1 
f 3/3/1 4/4/1 1/1/1 
# 2 faces

