# 3ds Max Wavefront OBJ Exporter v0.94b - (c)2007 guruware
# File Created: 09.12.2010 11:42:33

mtllib world02_hiddenroad_217_alpha.mtl

#
# object world02_hiddenroad_217_alpha
#

v  -140.9111 -0.0110 1.7000
v  -140.9111 -0.0110 -28.9470
v  -35.3636 -0.0110 -28.9846
v  12.6125 -0.0110 1.6796
# 4 vertices

vn 0.0000 -1.0000 -0.0000
# 1 vertex normals

vt 1.0000 1.0000 0.0000
vt 1.0000 0.0000 0.0000
vt 0.8281 0.0000 0.0000
vt 0.7500 1.0000 0.0000
# 4 texture coords

g world02_hiddenroad_217_alpha
usemtl alpha_gradient
s 1
f 1/1/1 2/2/1 3/3/1 
f 3/3/1 4/4/1 1/1/1 
# 2 faces

