# 3ds Max Wavefront OBJ Exporter v0.94b - (c)2007 guruware
# File Created: 02.12.2010 16:37:30

mtllib world02_road_09_alpha.mtl

#
# object world02_road_09_alpha
#

v  -35.4408 0.0150 -88.3407
v  -35.1921 0.0150 -133.1275
v  45.0122 0.0150 -83.5969
v  48.5856 0.0150 -38.3331
v  -47.6421 0.0150 -89.4361
v  -51.4712 0.0150 -133.1275
# 6 vertices

vn 0.0000 -1.0000 -0.0000
# 1 vertex normals

vt 0.5737 1.0000 0.0000
vt 0.5743 0.0000 0.0000
vt 1.0000 0.0000 0.0000
vt 1.0000 1.0000 0.0000
vt 0.5000 1.0000 0.0000
vt 0.5000 0.0000 0.0000
# 6 texture coords

g world02_road_09_alpha
usemtl alpha_gradient
s 1
f 1/1/1 2/2/1 3/3/1 
f 3/3/1 4/4/1 1/1/1 
f 5/5/1 6/6/1 2/2/1 
f 2/2/1 1/1/1 5/5/1 
# 4 faces

