# 3ds Max Wavefront OBJ Exporter v0.94b - (c)2007 guruware
# File Created: 05.08.2011 14:06:41

mtllib world02_grass09.mtl

#
# object world02_grass09
#

v  20.6150 0.0050 -136.3600
v  85.4070 0.0050 -96.2655
v  43.7143 0.0050 -73.6474
v  -15.9577 0.0050 -110.1952
# 4 vertices

vn 0.0000 -1.0000 -0.0000
# 1 vertex normals

vt 0.4305 0.2157 0.0000
vt 0.5826 0.3098 0.0000
vt 0.4848 0.3629 0.0000
vt 0.3447 0.2771 0.0000
# 4 texture coords

g world02_grass09
usemtl world02_map02
s 1
f 1/1/1 2/2/1 3/3/1 
f 3/3/1 4/4/1 1/1/1 
# 2 faces

