# 3ds Max Wavefront OBJ Exporter v0.94b - (c)2007 guruware
# File Created: 09.12.2010 11:34:55

mtllib world02_hiddenroad_220_alpha.mtl

#
# object world02_hiddenroad_220_alpha
#

v  -58.7337 -0.8000 -131.9092
v  15.8063 -0.7925 -131.7730
v  15.8275 -0.7925 -102.6264
v  -58.9301 -0.8000 -102.4858
v  72.1737 -0.7850 -131.7828
v  121.5331 -0.7850 -103.6595
v  108.1947 -0.7850 -77.2092
v  59.3929 -0.7850 -102.7339
# 8 vertices

vn 0.0001 -1.0000 0.0000
vn 0.0001 -1.0000 -0.0000
vn 0.0000 -1.0000 0.0000
vn 0.0000 -1.0000 -0.0000
# 4 vertex normals

vt 1.0001 0.0000 0.0000
vt 0.8204 0.0000 0.0000
vt 0.8203 1.0000 0.0000
vt 1.0001 1.0000 0.0000
vt 0.5934 0.0000 0.0000
vt 0.5001 0.0000 0.0000
vt 0.5001 1.0000 0.0000
vt 0.6414 1.0000 0.0000
# 8 texture coords

g world02_hiddenroad_220_alpha
usemtl alpha_gradient
s 1
f 1/1/1 2/2/2 3/3/1 
f 3/3/1 4/4/1 1/1/1 
f 3/3/1 2/2/2 5/5/1 
f 6/6/3 7/7/4 8/8/1 
f 5/5/1 6/6/3 8/8/1 
f 3/3/1 5/5/1 8/8/1 
# 6 faces

