# 3ds Max Wavefront OBJ Exporter v0.94b - (c)2007 guruware
# File Created: 30.11.2010 16:19:08

mtllib world02_road07.mtl

#
# object world02_road07
#

v  -71.4698 0.0150 -31.3619
v  -157.0866 0.0150 -80.8175
v  -84.8234 0.0150 -75.6558
v  -33.5224 0.0150 -44.2988
# 4 vertices

vn 0.0000 -1.0000 -0.0000
# 1 vertex normals

vt 0.3210 0.3822 0.0000
vt 0.1067 0.1965 0.0000
vt 0.2876 0.2159 0.0000
vt 0.4161 0.3336 0.0000
# 4 texture coords

g world02_road07
usemtl world02_map03
s 1
f 1/1/1 2/2/1 3/3/1 
f 3/3/1 4/4/1 1/1/1 
# 2 faces

