# 3ds Max Wavefront OBJ Exporter v0.94b - (c)2007 guruware
# File Created: 30.11.2010 16:18:10

mtllib world02_road05.mtl

#
# object world02_road05
#

v  34.6888 0.0150 29.9596
v  15.4960 0.0150 18.8731
v  39.6139 0.0150 0.4047
v  91.8641 0.0150 32.3419
v  49.2895 0.0150 60.1792
v  20.0659 0.0150 38.9423
# 6 vertices

vn 0.0000 -1.0000 -0.0000
# 1 vertex normals

vt 0.5869 0.6125 0.0000
vt 0.5388 0.5709 0.0000
vt 0.5992 0.5015 0.0000
vt 0.7300 0.6215 0.0000
vt 0.6234 0.7260 0.0000
vt 0.5502 0.6463 0.0000
# 6 texture coords

g world02_road05
usemtl world02_map03
s 1
f 1/1/1 2/2/1 3/3/1 
f 3/3/1 4/4/1 1/1/1 
f 1/1/1 4/4/1 5/5/1 
f 5/5/1 6/6/1 1/1/1 
# 4 faces

