# 3ds Max Wavefront OBJ Exporter v0.94b - (c)2007 guruware
# File Created: 28.02.2011 16:34:08

mtllib world02_building11.mtl

#
# object world02_building11
#

v  33.0003 -0.2000 28.5775
v  -25.7590 -0.2000 28.5775
v  -25.7589 -0.2000 -28.5775
v  33.0002 -0.2000 -28.5775
# 4 vertices

vn 0.0000 -1.0000 0.0000
# 1 vertex normals

vt 0.9995 1.0000 0.0000
vt 0.8616 1.0000 0.0000
vt 0.8616 0.8659 0.0000
vt 0.9995 0.8659 0.0000
# 4 texture coords

g world02_building11
usemtl world02_map02
s 1
f 1/1/1 2/2/1 3/3/1 
f 3/3/1 4/4/1 1/1/1 
# 2 faces

