# 3ds Max Wavefront OBJ Exporter v0.94b - (c)2007 guruware
# File Created: 05.08.2011 14:06:31

mtllib world02_grass07.mtl

#
# object world02_grass07
#

v  -163.7676 0.0050 -148.4374
v  -105.3565 0.0050 -102.5662
v  -156.9027 0.0050 -70.4703
v  -206.5264 0.0050 -94.9693
# 4 vertices

vn 0.0000 -1.0000 -0.0000
# 1 vertex normals

vt 0.3369 0.2873 0.0000
vt 0.4740 0.3950 0.0000
vt 0.3530 0.4703 0.0000
vt 0.2366 0.4128 0.0000
# 4 texture coords

g world02_grass07
usemtl world02_map02
s 1
f 1/1/1 2/2/1 3/3/1 
f 3/3/1 4/4/1 1/1/1 
# 2 faces

