# 3ds Max Wavefront OBJ Exporter v0.94b - (c)2007 guruware
# File Created: 10.08.2010 11:50:05

mtllib world02_building03_origin.mtl

#
# object world02_building03
#

v  -40.7819 0.0000 -28.7655
v  40.7819 0.0000 -28.7655
v  40.7820 -0.0000 28.7655
v  -40.7819 -0.0000 28.7655
# 4 vertices

vn 0.0000 -1.0000 -0.0000
# 1 vertex normals

vt 0.1633 0.8639 0.0000
vt 0.3547 0.8639 0.0000
vt 0.3547 0.9989 0.0000
vt 0.1633 0.9989 0.0000
# 4 texture coords

g world02_building03
usemtl world01_map02
s 1
f 1/1/1 2/2/1 3/3/1 
f 3/3/1 4/4/1 1/1/1 
# 2 faces

