# 3ds Max Wavefront OBJ Exporter v0.94b - (c)2007 guruware
# File Created: 30.11.2010 16:18:46

mtllib world02_road06.mtl

#
# object world02_road06
#

v  -71.4698 0.0150 -31.3619
v  -33.5224 0.0150 -44.2988
v  39.6139 0.0150 0.4047
v  15.4960 0.0150 18.8731
# 4 vertices

vn 0.0000 -1.0000 -0.0000
# 1 vertex normals

vt 0.3210 0.3822 0.0000
vt 0.4161 0.3336 0.0000
vt 0.5992 0.5015 0.0000
vt 0.5388 0.5709 0.0000
# 4 texture coords

g world02_road06
usemtl world02_map03
s 1
f 1/1/1 2/2/1 3/3/1 
f 3/3/1 4/4/1 1/1/1 
# 2 faces

