# 3ds Max Wavefront OBJ Exporter v0.94b - (c)2007 guruware
# File Created: 10.08.2010 11:47:38

mtllib world03_building01_origin.mtl

#
# object world02_building01
#

v  -34.5562 0.0000 -35.6188
v  34.5562 0.0000 -35.6189
v  34.5562 -0.0000 35.6189
v  -34.5562 -0.0000 35.6189
# 4 vertices

vn 0.0000 -1.0000 -0.0000
# 1 vertex normals

vt 0.0011 0.8313 0.0000
vt 0.1634 0.8313 0.0000
vt 0.1634 0.9986 0.0000
vt 0.0011 0.9986 0.0000
# 4 texture coords

g world02_building01
usemtl world01_map02
s 1
f 1/1/1 2/2/1 3/3/1 
f 3/3/1 4/4/1 1/1/1 
# 2 faces

