# 3ds Max Wavefront OBJ Exporter v0.94b - (c)2007 guruware
# File Created: 30.11.2010 16:20:59

mtllib world02_road11.mtl

#
# object world02_road11
#

v  106.9520 0.0150 -74.8617
v  100.0660 0.0150 -116.5405
v  188.0791 0.0150 -65.4187
v  152.6129 0.0150 -47.8623
# 4 vertices

vn 0.0000 -1.0000 -0.0000
# 1 vertex normals

vt 0.7678 0.2188 0.0000
vt 0.7506 0.0623 0.0000
vt 0.9709 0.2543 0.0000
vt 0.8821 0.3202 0.0000
# 4 texture coords

g world02_road11
usemtl world02_map03
s 1
f 1/1/1 2/2/1 3/3/1 
f 3/3/1 4/4/1 1/1/1 
# 2 faces

