# 3ds Max Wavefront OBJ Exporter v0.94b - (c)2007 guruware
# File Created: 28.02.2011 12:07:32

mtllib world02_node01.mtl

#
# object world02_node01
#

v  -156.1461 -0.0100 -25.4065
v  -102.3725 -0.0100 -25.4065
v  -102.3725 -0.0100 0.8162
v  -156.1461 -0.0100 0.8162
# 4 vertices

vn 0.0000 -1.0000 -0.0000
# 1 vertex normals

vt 0.7323 0.2135 0.0000
vt 0.8585 0.2135 0.0000
vt 0.8585 0.2750 0.0000
vt 0.7323 0.2750 0.0000
# 4 texture coords

g world02_node01
usemtl world02_map02
s 1
f 1/1/1 2/2/1 3/3/1 
f 3/3/1 4/4/1 1/1/1 
# 2 faces

