# 3ds Max Wavefront OBJ Exporter v0.94b - (c)2007 guruware
# File Created: 28.02.2011 11:50:15

mtllib world02_node08.mtl

#
# object world02_node08
#

v  -78.6597 -0.0100 -132.9382
v  -25.7794 -0.0100 -132.9382
v  -25.7793 -0.0100 -107.3113
v  -78.6597 -0.0100 -107.3113
# 4 vertices

vn -0.0000 -1.0000 -0.0000
vn 0.0000 -1.0000 -0.0000
# 2 vertex normals

vt 0.8685 0.0894 0.0000
vt 0.9926 0.0895 0.0000
vt 0.9926 0.1497 0.0000
vt 0.8685 0.1495 0.0000
# 4 texture coords

g world02_node08
usemtl world02_map02
s 1
f 1/1/1 2/2/2 3/3/2 
f 3/3/2 4/4/1 1/1/1 
# 2 faces

