# 3ds Max Wavefront OBJ Exporter v0.94b - (c)2007 guruware
# File Created: 28.02.2011 15:58:36

mtllib world02_hiddenroad_217.mtl

#
# object world02_hiddenroad_217
#

v  -140.9111 -0.0110 3.9881
v  -140.9111 -0.0110 -26.7528
v  -35.3636 -0.0110 -26.7905
v  12.6125 -0.0110 3.9677
# 4 vertices

vn 0.0000 -1.0000 -0.0000
# 1 vertex normals

vt 0.2239 0.9864 0.0000
vt 0.2239 0.8709 0.0000
vt 0.4881 0.8708 0.0000
vt 0.6083 0.9863 0.0000
# 4 texture coords

g world02_hiddenroad_217
usemtl orig_orig_orig_orig_world02_map03
s 1
f 1/1/1 2/2/1 3/3/1 
f 3/3/1 4/4/1 1/1/1 
# 2 faces

