# 3ds Max Wavefront OBJ Exporter v0.94b - (c)2007 guruware
# File Created: 28.02.2011 11:46:29

mtllib world02_grass02.mtl

#
# object world02_grass02
#

v  -119.2875 0.0050 2.1671
v  -69.1059 0.0050 30.3534
v  -107.7255 0.0050 58.6976
v  -150.0584 0.0050 34.0211
# 4 vertices

vn 0.0000 -1.0000 -0.0000
# 1 vertex normals

vt 0.0857 0.3210 0.0000
vt 0.2035 0.3872 0.0000
vt 0.1128 0.4537 0.0000
vt 0.0135 0.3958 0.0000
# 4 texture coords

g world02_grass02
usemtl world02_map02
s 1
f 1/1/1 2/2/1 3/3/1 
f 3/3/1 4/4/1 1/1/1 
# 2 faces

