# 3ds Max Wavefront OBJ Exporter v0.94b - (c)2007 guruware
# File Created: 28.02.2011 16:38:41

mtllib world02_hiddenroad_223.mtl

#
# object world02_hiddenroad_223
#

v  161.7039 -0.0110 -26.8623
v  161.7039 -0.0110 -0.7236
v  150.7598 -0.0110 -0.7842
v  151.0407 -0.0110 -26.8586
v  150.7085 -0.0110 5.2191
v  12.6125 -0.0110 3.9677
v  -35.3636 -0.0110 -26.7905
# 7 vertices

vn 0.0000 -1.0000 -0.0000
# 1 vertex normals

vt 0.9816 0.8705 0.0000
vt 0.9818 0.9687 0.0000
vt 0.9541 0.9684 0.0000
vt 0.9549 0.8705 0.0000
vt 0.9540 0.9910 0.0000
vt 0.6083 0.9863 0.0000
vt 0.4881 0.8708 0.0000
# 7 texture coords

g world02_hiddenroad_223
usemtl orig_orig_orig_orig_world02_map03
s 1
f 1/1/1 2/2/1 3/3/1 
f 3/3/1 4/4/1 1/1/1 
f 5/5/1 6/6/1 3/3/1 
f 6/6/1 7/7/1 4/4/1 
f 4/4/1 3/3/1 6/6/1 
# 5 faces

