# 3ds Max Wavefront OBJ Exporter v0.94b - (c)2007 guruware
# File Created: 02.12.2010 16:36:54

mtllib world02_road_06_alpha.mtl

#
# object world02_road_06_alpha
#

v  -71.4698 0.0150 -31.3619
v  -33.5224 0.0150 -44.2988
v  39.6139 0.0150 0.4047
v  15.4960 0.0150 18.8731
# 4 vertices

vn 0.0000 -1.0000 -0.0000
# 1 vertex normals

vt 1.0000 0.0000 0.0000
vt 1.0000 1.0000 0.0000
vt 0.5000 1.0000 0.0000
vt 0.5000 0.0000 0.0000
# 4 texture coords

g world02_road_06_alpha
usemtl alpha_gradient
s 1
f 1/1/1 2/2/1 3/3/1 
f 3/3/1 4/4/1 1/1/1 
# 2 faces

