# 3ds Max Wavefront OBJ Exporter v0.94b - (c)2007 guruware
# File Created: 10.08.2010 11:50:57

mtllib world02_building06_origin.mtl

#
# object world02_building06
#

v  -38.6765 0.0000 -51.8285
v  30.5629 0.0000 -51.8285
v  30.5628 -0.0000 28.9205
v  -38.6765 -0.0000 28.9205
# 4 vertices

vn 0.0000 -1.0000 -0.0000
# 1 vertex normals

vt 0.0007 0.6414 0.0000
vt 0.1633 0.6414 0.0000
vt 0.1633 0.8310 0.0000
vt 0.0007 0.8310 0.0000
# 4 texture coords

g world02_building06
usemtl world01_map02
s 1
f 1/1/1 2/2/1 3/3/1 
f 3/3/1 4/4/1 1/1/1 
# 2 faces

