# 3ds Max Wavefront OBJ Exporter v0.94b - (c)2007 guruware
# File Created: 10.08.2010 11:52:58

mtllib world02_bus_origin.mtl

#
# object world02_bus
#

v  -29.9086 0.0000 -26.0437
v  29.9086 0.0000 -26.0437
v  29.9086 -0.0000 26.0437
v  -29.9086 -0.0000 26.0437
# 4 vertices

vn 0.0000 -1.0000 -0.0000
# 1 vertex normals

vt 0.3382 0.5766 0.0000
vt 0.4786 0.5766 0.0000
vt 0.4786 0.6989 0.0000
vt 0.3382 0.6989 0.0000
# 4 texture coords

g world02_bus
usemtl world01_map02
s 1
f 1/1/1 2/2/1 3/3/1 
f 3/3/1 4/4/1 1/1/1 
# 2 faces

