# 3ds Max Wavefront OBJ Exporter v0.94b - (c)2007 guruware
# File Created: 30.11.2010 16:17:39

mtllib world02_road04.mtl

#
# object world02_road04
#

v  6.8953 0.0150 47.0328
v  20.0659 0.0150 38.9423
v  49.2895 0.0150 60.1792
v  9.2776 0.0150 86.3408
v  -43.1767 0.0150 56.1720
v  -21.4795 0.0150 31.0618
# 6 vertices

vn 0.0000 -1.0000 -0.0000
# 1 vertex normals

vt 0.5173 0.6766 0.0000
vt 0.5502 0.6463 0.0000
vt 0.6234 0.7260 0.0000
vt 0.5232 0.8243 0.0000
vt 0.3919 0.7110 0.0000
vt 0.4462 0.6167 0.0000
# 6 texture coords

g world02_road04
usemtl world02_map03
s 1
f 1/1/1 2/2/1 3/3/1 
f 3/3/1 4/4/1 1/1/1 
f 5/5/1 6/6/1 1/1/1 
f 1/1/1 4/4/1 5/5/1 
# 4 faces

