# 3ds Max Wavefront OBJ Exporter v0.94b - (c)2007 guruware
# File Created: 10.08.2010 11:58:43

mtllib world02_building11_origin.mtl

#
# object world02_building11
#

v  -22.8330 0.0000 -12.0833
v  22.8330 0.0000 -12.0833
v  22.8330 -0.0000 14.7142
v  -22.8330 -0.0000 14.7142
# 4 vertices

vn -0.0000 -1.0000 -0.0000
vn 0.0000 -1.0000 -0.0000
# 2 vertex normals

vt 0.7040 0.7709 0.0000
vt 0.8112 0.7709 0.0000
vt 0.8112 0.8338 0.0000
vt 0.7040 0.8338 0.0000
# 4 texture coords

g world02_building11
usemtl world01_map02
s 1
f 1/1/1 2/2/1 3/3/1 
f 3/3/1 4/4/2 1/1/1 
# 2 faces

