# 3ds Max Wavefront OBJ Exporter v0.94b - (c)2007 guruware
# File Created: 28.02.2011 15:58:52

mtllib world02_hiddenroad_220.mtl

#
# object world02_hiddenroad_220
#

v  -46.3994 -0.8000 -131.4794
v  15.6308 -0.7925 -131.1953
v  15.8222 -0.7925 -108.3828
v  -46.3712 -0.8000 -108.6622
v  71.9983 -0.7850 -130.9888
v  57.8103 -0.7850 -108.4369
v  113.1005 -0.7850 -109.2788
v  94.1091 -0.7850 -86.2666
# 8 vertices

vn 0.0001 -1.0000 -0.0000
vn 0.0001 -1.0000 0.0000
vn 0.0000 -1.0000 0.0000
# 3 vertex normals

vt 0.0097 0.6946 0.0000
vt 0.1650 0.6956 0.0000
vt 0.1655 0.7813 0.0000
vt 0.0098 0.7803 0.0000
vt 0.3062 0.6964 0.0000
vt 0.2706 0.7811 0.0000
vt 0.4091 0.7779 0.0000
vt 0.3615 0.8644 0.0000
# 8 texture coords

g world02_hiddenroad_220
usemtl orig_orig_orig_orig_world02_map03
s 1
f 1/1/1 2/2/2 3/3/1 
f 3/3/1 4/4/1 1/1/1 
f 2/2/2 5/5/2 6/6/2 
f 6/6/2 3/3/1 2/2/2 
f 6/6/2 5/5/2 7/7/3 
f 7/7/3 8/8/3 6/6/2 
# 6 faces

