# 3ds Max Wavefront OBJ Exporter v0.94b - (c)2007 guruware
# File Created: 30.11.2010 16:19:41

mtllib world02_road08.mtl

#
# object world02_road08
#

v  -84.8234 0.0150 -75.6558
v  -157.0866 0.0150 -80.8175
v  -67.7502 0.0150 -133.1275
v  -59.8435 0.0150 -90.5316
v  -51.4712 0.0150 -133.1275
v  -47.6421 0.0150 -89.4361
# 6 vertices

vn 0.0000 -1.0000 -0.0000
# 1 vertex normals

vt 0.2876 0.2159 0.0000
vt 0.1067 0.1965 0.0000
vt 0.3304 0.0000 0.0000
vt 0.3502 0.1600 0.0000
vt 0.3711 0.0000 0.0000
vt 0.3807 0.1641 0.0000
# 6 texture coords

g world02_road08
usemtl world02_map03
s 1
f 1/1/1 2/2/1 3/3/1 
f 3/3/1 4/4/1 1/1/1 
f 4/4/1 3/3/1 5/5/1 
f 5/5/1 6/6/1 4/4/1 
# 4 faces

