# 3ds Max Wavefront OBJ Exporter v0.94b - (c)2007 guruware
# File Created: 30.11.2010 16:06:57

mtllib world02_road02.mtl

#
# object world02_road02
#

v  -128.1019 0.0150 7.3277
v  -132.0724 0.0150 -31.1862
v  -73.4534 0.0150 1.8080
v  -93.7438 0.0150 27.0886
# 4 vertices

vn 0.0000 -1.0000 -0.0000
# 1 vertex normals

vt 0.1793 0.5275 0.0000
vt 0.1693 0.3829 0.0000
vt 0.3161 0.5068 0.0000
vt 0.2653 0.6017 0.0000
# 4 texture coords

g world02_road02
usemtl world02_map03
s 1
f 1/1/1 2/2/1 3/3/1 
f 3/3/1 4/4/1 1/1/1 
# 2 faces

