# 3ds Max Wavefront OBJ Exporter v0.94b - (c)2007 guruware
# File Created: 02.12.2010 16:37:56

mtllib world02_road_12_alpha.mtl

#
# object world02_road_12_alpha
#

v  152.6129 0.0150 -47.8623
v  188.0791 0.0150 -65.4187
v  187.6143 0.0150 -12.4361
v  153.2101 0.0150 -12.0328
# 4 vertices

vn 0.0000 -1.0000 -0.0000
# 1 vertex normals

vt 0.5000 1.0000 0.0000
vt 0.5000 0.0000 0.0000
vt 1.0000 0.0000 0.0000
vt 1.0000 1.0000 0.0000
# 4 texture coords

g world02_road_12_alpha
usemtl alpha_gradient
s 1
f 1/1/1 2/2/1 3/3/1 
f 3/3/1 4/4/1 1/1/1 
# 2 faces

