# 3ds Max Wavefront OBJ Exporter v0.94b - (c)2007 guruware
# File Created: 28.02.2011 11:46:54

mtllib world02_grass04.mtl

#
# object world02_grass04
#

v  79.9906 0.0050 24.8531
v  143.1010 0.0050 67.5055
v  73.5992 0.0050 103.6671
v  19.4712 0.0050 72.0820
# 4 vertices

vn 0.0000 -1.0000 -0.0000
# 1 vertex normals

vt 0.7832 0.4148 0.0000
vt 0.9314 0.5149 0.0000
vt 0.7682 0.5998 0.0000
vt 0.6412 0.5256 0.0000
# 4 texture coords

g world02_grass04
usemtl world02_map02
s 1
f 1/1/1 2/2/1 3/3/1 
f 3/3/1 4/4/1 1/1/1 
# 2 faces

