# 3ds Max Wavefront OBJ Exporter v0.94b - (c)2007 guruware
# File Created: 05.08.2011 14:06:21

mtllib world02_grass06.mtl

#
# object world02_grass06
#

v  -53.6340 0.0050 -110.5837
v  15.4101 0.0050 -69.2161
v  -48.2209 0.0050 -43.3383
v  -110.2101 0.0050 -76.7722
# 4 vertices

vn 0.0000 -1.0000 -0.0000
# 1 vertex normals

vt 0.1655 0.1852 0.0000
vt 0.3275 0.2824 0.0000
vt 0.1782 0.3431 0.0000
vt 0.0326 0.2646 0.0000
# 4 texture coords

g world02_grass06
usemtl world02_map02
s 1
f 1/1/1 2/2/1 3/3/1 
f 3/3/1 4/4/1 1/1/1 
# 2 faces

