# 3ds Max Wavefront OBJ Exporter v0.94b - (c)2007 guruware
# File Created: 01.08.2011 15:33:11

mtllib world02_background_details.mtl

#
# object world02_background_details
#

v  -129.4667 -0.6545 -62.3447
v  -105.6828 -0.6545 -62.3447
v  -105.6828 -0.6545 -33.4040
v  -129.4667 -0.6545 -33.4040
v  61.3614 -0.6545 15.5759
v  85.1453 -0.6545 15.5759
v  85.1453 -0.6545 55.6740
v  61.3614 -0.6545 55.6740
v  49.4272 -0.6545 -56.3925
v  71.5129 -0.6545 -56.3925
v  71.5129 -0.6545 -27.3981
v  49.4272 -0.6545 -27.3981
v  -101.0570 -0.6545 -49.2152
v  -70.1192 -0.6545 -49.2152
v  -70.1192 -0.6545 -26.5451
v  -101.0570 -0.6545 -26.5451
v  -117.6454 -0.6545 -129.8850
v  -87.1503 -0.6545 -129.8850
v  -87.1503 -0.6545 -105.6668
v  -117.6454 -0.6545 -105.6668
v  -17.7543 -0.6545 63.4129
v  13.4439 -0.6545 63.4129
v  13.4439 -0.6545 87.2009
v  -17.7544 -0.6545 87.2009
v  -124.0565 -0.6545 1.2709
v  -111.6390 -0.6545 1.2709
v  -111.6390 -0.6545 16.4376
v  -124.0565 -0.6545 16.4376
v  -29.5828 -0.6545 -89.6924
v  -14.2535 -0.6545 -89.6924
v  -14.2535 -0.6545 -72.7713
v  -29.5828 -0.6545 -72.7713
v  185.9467 -0.6545 7.2708
v  210.1231 -0.6545 7.2708
v  210.1231 -0.6545 38.4896
v  185.9467 -0.6545 38.4896
v  -41.9710 -0.6545 -0.5252
v  -18.1870 -0.6545 -0.5252
v  -18.1870 -0.6545 28.4155
v  -41.9710 -0.6545 28.4155
v  -88.4275 -0.6545 28.8328
v  -64.6435 -0.6545 28.8328
v  -64.6435 -0.6545 57.7735
v  -88.4275 -0.6545 57.7735
v  16.4516 -0.6545 64.1935
v  40.6280 -0.6545 64.1935
v  40.6280 -0.6545 95.4122
v  16.4516 -0.6545 95.4122
v  31.5976 -0.6545 25.8974
v  44.0152 -0.6545 25.8974
v  44.0152 -0.6545 41.0641
v  31.5976 -0.6545 41.0641
v  -131.2105 -0.6545 -106.4036
v  -118.7929 -0.6545 -106.4036
v  -118.7929 -0.6545 -91.2369
v  -131.2105 -0.6545 -91.2369
v  -14.5335 -0.6545 -123.0312
v  -2.1159 -0.6545 -123.0312
v  -2.1159 -0.6545 -107.8645
v  -14.5335 -0.6545 -107.8645
v  142.5659 -0.6545 -121.8092
v  166.3497 -0.6545 -121.8092
v  166.3497 -0.6545 -81.7111
v  142.5659 -0.6545 -81.7111
# 64 vertices

vn 0.0000 -1.0000 -0.0000
# 1 vertex normals

vt 0.8724 0.7893 0.0000
vt 0.9282 0.7893 0.0000
vt 0.9282 0.8573 0.0000
vt 0.8724 0.8573 0.0000
vt 0.9400 0.7712 0.0000
vt 0.9959 0.7712 0.0000
vt 0.9959 0.8654 0.0000
vt 0.9400 0.8654 0.0000
vt 0.9439 0.6939 0.0000
vt 0.9958 0.6939 0.0000
vt 0.9958 0.7619 0.0000
vt 0.9439 0.7619 0.0000
vt 0.0557 0.5869 0.0000
vt 0.1283 0.5869 0.0000
vt 0.1283 0.6401 0.0000
vt 0.0557 0.6401 0.0000
vt 0.0562 0.5299 0.0000
vt 0.1278 0.5299 0.0000
vt 0.1278 0.5867 0.0000
vt 0.0562 0.5867 0.0000
vt 0.9265 0.4520 0.0000
vt 0.9997 0.4520 0.0000
vt 0.9997 0.5078 0.0000
vt 0.9265 0.5078 0.0000
vt 0.8195 0.7881 0.0000
vt 0.8486 0.7881 0.0000
vt 0.8486 0.8237 0.0000
vt 0.8195 0.8237 0.0000
vt 0.9460 0.6495 0.0000
vt 0.9819 0.6495 0.0000
vt 0.9819 0.6892 0.0000
vt 0.9460 0.6892 0.0000
vt 0.9364 0.5282 0.0000
vt 0.9931 0.5282 0.0000
vt 0.9931 0.6015 0.0000
vt 0.9364 0.6015 0.0000
# 36 texture coords

g world02_background_details
usemtl world02_map02
s 1
f 1/1/1 2/2/1 3/3/1 
f 3/3/1 4/4/1 1/1/1 
f 5/5/1 6/6/1 7/7/1 
f 7/7/1 8/8/1 5/5/1 
f 9/9/1 10/10/1 11/11/1 
f 11/11/1 12/12/1 9/9/1 
f 13/13/1 14/14/1 15/15/1 
f 15/15/1 16/16/1 13/13/1 
f 17/17/1 18/18/1 19/19/1 
f 19/19/1 20/20/1 17/17/1 
f 21/21/1 22/22/1 23/23/1 
f 23/23/1 24/24/1 21/21/1 
f 25/25/1 26/26/1 27/27/1 
f 27/27/1 28/28/1 25/25/1 
f 29/29/1 30/30/1 31/31/1 
f 31/31/1 32/32/1 29/29/1 
f 33/33/1 34/34/1 35/35/1 
f 35/35/1 36/36/1 33/33/1 
f 37/1/1 38/2/1 39/3/1 
f 39/3/1 40/4/1 37/1/1 
f 41/1/1 42/2/1 43/3/1 
f 43/3/1 44/4/1 41/1/1 
f 45/33/1 46/34/1 47/35/1 
f 47/35/1 48/36/1 45/33/1 
f 49/25/1 50/26/1 51/27/1 
f 51/27/1 52/28/1 49/25/1 
f 53/25/1 54/26/1 55/27/1 
f 55/27/1 56/28/1 53/25/1 
f 57/25/1 58/26/1 59/27/1 
f 59/27/1 60/28/1 57/25/1 
f 61/5/1 62/6/1 63/7/1 
f 63/7/1 64/8/1 61/5/1 
# 32 faces

