# 3ds Max Wavefront OBJ Exporter v0.94b - (c)2007 guruware
# File Created: 20.12.2010 15:06:05

mtllib world02_building07.mtl

#
# object world02_building07
#

v  -34.6197 -0.2000 -40.3745
v  34.6197 -0.2000 -40.3745
v  34.6197 -0.2000 40.3745
v  -34.6197 -0.2000 40.3745
# 4 vertices

vn 0.0000 -1.0000 -0.0000
# 1 vertex normals

vt 0.0007 0.6414 0.0000
vt 0.1633 0.6414 0.0000
vt 0.1633 0.8310 0.0000
vt 0.0007 0.8310 0.0000
# 4 texture coords

g world02_building07
usemtl world02_map02
s 1
f 1/1/1 2/2/1 3/3/1 
f 3/3/1 4/4/1 1/1/1 
# 2 faces

