# 3ds Max Wavefront OBJ Exporter v0.94b - (c)2007 guruware
# File Created: 28.02.2011 11:49:54

mtllib world02_node09.mtl

#
# object world02_node09
#

v  16.9154 -0.0100 -77.9481
v  70.9166 -0.0100 -77.9481
v  70.9166 -0.0100 -51.2488
v  16.9154 -0.0100 -51.2488
# 4 vertices

vn 0.0000 -1.0000 -0.0000
vn -0.0000 -1.0000 -0.0000
# 2 vertex normals

vt 0.7339 0.0726 0.0000
vt 0.8606 0.0726 0.0000
vt 0.8605 0.1353 0.0000
vt 0.7337 0.1353 0.0000
# 4 texture coords

g world02_node09
usemtl world02_map02
s 1
f 1/1/1 2/2/1 3/3/1 
f 3/3/1 4/4/2 1/1/1 
# 2 faces

