# 3ds Max Wavefront OBJ Exporter v0.94b - (c)2007 guruware
# File Created: 02.12.2010 16:36:23

mtllib world02_road_03_alpha.mtl

#
# object world02_road_03_alpha
#

v  -43.1767 0.0150 56.1720
v  -93.7438 0.0150 27.0886
v  -73.4534 0.0150 1.8080
v  -21.4795 0.0150 31.0618
# 4 vertices

vn 0.0000 -1.0000 -0.0000
# 1 vertex normals

vt 1.0000 1.0000 0.0000
vt 0.5000 1.0000 0.0000
vt 0.5000 0.0000 0.0000
vt 1.0000 0.0000 0.0000
# 4 texture coords

g world02_road_03_alpha
usemtl alpha_gradient
s 1
f 1/1/1 2/2/1 3/3/1 
f 3/3/1 4/4/1 1/1/1 
# 2 faces

