# 3ds Max Wavefront OBJ Exporter v0.94b - (c)2007 guruware
# File Created: 08.04.2011 11:21:56

mtllib world01_worldnext.mtl

#
# object world01_worldnext
#

v  -30.6886 -0.2000 -8.9566
v  28.7930 -0.2000 -8.9566
v  28.7929 -0.2000 32.8582
v  -30.6886 -0.2000 32.8582
# 4 vertices

vn 0.0000 -1.0000 -0.0000
# 1 vertex normals

vt 0.5627 0.6310 0.0000
vt 0.7023 0.6310 0.0000
vt 0.7023 0.7292 0.0000
vt 0.5627 0.7292 0.0000
# 4 texture coords

g world01_worldnext
usemtl world01_map02
s 1
f 1/1/1 2/2/1 3/3/1 
f 3/3/1 4/4/1 1/1/1 
# 2 faces

