# 3ds Max Wavefront OBJ Exporter v0.94b - (c)2007 guruware
# File Created: 02.12.2010 16:42:09

mtllib world04_road_04.mtl

#
# object world04_road_04
#

v  -141.0009 0.0150 -64.0970
v  -191.5728 0.0150 -71.7052
v  -142.0939 0.0150 -101.8862
v  -115.2669 0.0150 -80.1201
v  -129.2688 0.0150 -25.1618
v  -110.1913 0.0150 -41.0556
# 6 vertices

vn 0.0000 -1.0000 -0.0000
# 1 vertex normals

vt 0.1470 0.2593 0.0000
vt 0.0203 0.2307 0.0000
vt 0.1442 0.1173 0.0000
vt 0.2114 0.1991 0.0000
vt 0.1763 0.4055 0.0000
vt 0.2241 0.3458 0.0000
# 6 texture coords

g world04_road_04
usemtl world01_map03
s 1
f 1/1/1 2/2/1 3/3/1 
f 3/3/1 4/4/1 1/1/1 
f 5/5/1 2/2/1 1/1/1 
f 1/1/1 6/6/1 5/5/1 
# 4 faces

