# 3ds Max Wavefront OBJ Exporter v0.94b - (c)2007 guruware
# File Created: 25.02.2011 12:09:19

mtllib world04_node09.mtl

#
# object world04_node09
#

v  118.7940 -0.0100 -22.0786
v  75.8073 -0.0100 -22.0786
v  75.8073 -0.0100 -44.3581
v  118.7940 -0.0100 -44.3581
# 4 vertices

vn 0.0000 -1.0000 -0.0000
# 1 vertex normals

vt 0.5608 0.3212 0.0000
vt 0.4599 0.3211 0.0000
vt 0.4599 0.2692 0.0000
vt 0.5608 0.2692 0.0000
# 4 texture coords

g world04_node09
usemtl orig_world01_map02
s 1
f 1/1/1 2/2/1 3/3/1 
f 3/3/1 4/4/1 1/1/1 
# 2 faces

