# 3ds Max Wavefront OBJ Exporter v0.94b - (c)2007 guruware
# File Created: 02.12.2010 16:43:54

mtllib world04_road_01_alpha.mtl

#
# object world04_road_01_alpha
#

v  -143.9725 0.0150 31.3214
v  -183.1272 0.0150 7.9837
v  -165.6894 0.0150 -9.2593
v  -127.7913 0.0150 15.4482
# 4 vertices

vn 0.0000 -1.0000 -0.0000
# 1 vertex normals

vt 1.0000 1.0000 0.0000
vt 0.5000 1.0000 0.0000
vt 0.5000 0.0000 0.0000
vt 1.0000 0.0000 0.0000
# 4 texture coords

g world04_road_01_alpha
usemtl alpha_gradient
s 1
f 1/1/1 2/2/1 3/3/1 
f 3/3/1 4/4/1 1/1/1 
# 2 faces

