# 3ds Max Wavefront OBJ Exporter v0.94b - (c)2007 guruware
# File Created: 25.02.2011 12:03:33

mtllib world04_grass06.mtl

#
# object world04_grass06
#

v  38.5215 0.0050 -7.9580
v  -14.0506 0.0050 22.5827
v  -59.2563 0.0050 -8.4442
v  -9.2289 0.0050 -40.4070
# 4 vertices

vn 0.0000 -1.0000 -0.0000
# 1 vertex normals

vt 1.0043 0.4078 0.0000
vt 0.8809 0.4794 0.0000
vt 0.7748 0.4066 0.0000
vt 0.8922 0.3316 0.0000
# 4 texture coords

g world04_grass06
usemtl orig_world01_map02
s 1
f 1/1/1 2/2/1 3/3/1 
f 3/3/1 4/4/1 1/1/1 
# 2 faces

