# 3ds Max Wavefront OBJ Exporter v0.94b - (c)2007 guruware
# File Created: 22.12.2010 13:31:48

mtllib world04_building05.mtl

#
# object world04_building05
#

v  -38.8190 -0.2000 -36.6518
v  38.8190 -0.2000 -36.6518
v  38.8191 -0.2000 36.6518
v  -38.8190 -0.2000 36.6518
# 4 vertices

vn 0.0000 -1.0000 -0.0000
# 1 vertex normals

vt 0.7152 0.8295 0.0000
vt 0.8975 0.8295 0.0000
vt 0.8975 1.0016 0.0000
vt 0.7152 1.0016 0.0000
# 4 texture coords

g world04_building05
usemtl world01_map02
s 1
f 1/1/1 2/2/1 3/3/1 
f 3/3/1 4/4/1 1/1/1 
# 2 faces

