# 3ds Max Wavefront OBJ Exporter v0.94b - (c)2007 guruware
# File Created: 02.12.2010 16:42:18

mtllib world04_road_05.mtl

#
# object world04_road_05
#

v  -142.0939 0.0150 -101.8862
v  -90.8765 0.0150 -133.1275
v  -93.5618 0.0150 -93.6346
v  -115.2669 0.0150 -80.1201
v  -36.1114 0.0150 -90.7995
v  -62.5679 0.0150 -71.6313
# 6 vertices

vn 0.0000 -1.0000 -0.0000
# 1 vertex normals

vt 0.1442 0.1173 0.0000
vt 0.2725 0.0000 0.0000
vt 0.2657 0.1483 0.0000
vt 0.2114 0.1991 0.0000
vt 0.4096 0.1590 0.0000
vt 0.3433 0.2310 0.0000
# 6 texture coords

g world04_road_05
usemtl world01_map03
s 1
f 1/1/1 2/2/1 3/3/1 
f 3/3/1 4/4/1 1/1/1 
f 3/3/1 2/2/1 5/5/1 
f 5/5/1 6/6/1 3/3/1 
# 4 faces

