# 3ds Max Wavefront OBJ Exporter v0.94b - (c)2007 guruware
# File Created: 02.12.2010 16:51:29

mtllib world04_road_06b_alpha.mtl

#
# object world04_road_06b_alpha
#

v  98.6502 -0.0200 -43.0291
v  98.5749 -0.0200 -23.0875
v  25.7856 -0.0200 -23.0875
v  25.9181 -0.0200 -43.0457
# 4 vertices

vn -0.0000 -1.0000 -0.0000
vn 0.0000 -1.0000 -0.0000
# 2 vertex normals

vt 0.5000 1.0000 0.0000
vt 0.5000 0.0000 0.0000
vt 1.0000 0.0000 0.0000
vt 1.0000 1.0000 0.0000
# 4 texture coords

g world04_road_06b_alpha
usemtl alpha_gradient
s 1
f 1/1/1 2/2/2 3/3/1 
f 3/3/1 4/4/1 1/1/1 
# 2 faces

