# 3ds Max Wavefront OBJ Exporter v0.94b - (c)2007 guruware
# File Created: 02.12.2010 16:44:31

mtllib world04_road_06_alpha.mtl

#
# object world04_road_06_alpha
#

v  7.1385 0.0150 -22.1451
v  -62.5679 0.0150 -71.6313
v  -36.1114 0.0150 -90.7995
v  29.3021 0.0150 -40.2412
# 4 vertices

vn 0.0000 -1.0000 -0.0000
# 1 vertex normals

vt 1.0000 1.0000 0.0000
vt 0.5000 1.0000 0.0000
vt 0.5000 0.0000 0.0000
vt 1.0000 0.0000 0.0000
# 4 texture coords

g world04_road_06_alpha
usemtl alpha_gradient
s 1
f 1/1/1 2/2/1 3/3/1 
f 3/3/1 4/4/1 1/1/1 
# 2 faces

