# 3ds Max Wavefront OBJ Exporter v0.94b - (c)2007 guruware
# File Created: 25.02.2011 12:04:10

mtllib world04_grass05.mtl

#
# object world04_grass05
#

v  62.1322 0.0050 -90.6769
v  -6.0139 0.0050 -59.7439
v  -67.5327 0.0050 -104.0275
v  -19.0831 0.0050 -140.1403
# 4 vertices

vn 0.0000 -1.0000 -0.0000
# 1 vertex normals

vt 0.5679 0.2211 0.0000
vt 0.4080 0.2937 0.0000
vt 0.2636 0.1897 0.0000
vt 0.3773 0.1050 0.0000
# 4 texture coords

g world04_grass05
usemtl orig_world01_map02
s 1
f 1/1/1 2/2/1 3/3/1 
f 3/3/1 4/4/1 1/1/1 
# 2 faces

