# 3ds Max Wavefront OBJ Exporter v0.94b - (c)2007 guruware
# File Created: 11.08.2010 15:02:59

mtllib world04_building10_origin.mtl

#
# object world04_building10
#

v  -23.4872 0.0000 -12.8571
v  23.4872 0.0000 -12.8571
v  23.4871 -0.0000 12.8571
v  -23.4872 -0.0000 12.8571
# 4 vertices

vn 0.0000 -1.0000 -0.0000
# 1 vertex normals

vt 0.5720 0.2734 0.0000
vt 0.6823 0.2734 0.0000
vt 0.6823 0.3337 0.0000
vt 0.5720 0.3337 0.0000
# 4 texture coords

g world04_building10
usemtl world01_map02
s 1
f 1/1/1 2/2/1 3/3/1 
f 3/3/1 4/4/1 1/1/1 
# 2 faces

