# 3ds Max Wavefront OBJ Exporter v0.94b - (c)2007 guruware
# File Created: 02.12.2010 16:42:37

mtllib world04_road_07.mtl

#
# object world04_road_07
#

v  67.1048 0.0150 75.0877
v  -2.7113 0.0150 64.3467
v  10.2673 0.0150 37.9419
v  64.8671 0.0150 47.3402
v  -49.7029 0.0150 37.0468
v  23.6935 0.0150 -10.3923
v  70.2376 0.0150 -8.6021
v  0.4214 0.0150 33.9141
v  7.1385 0.0150 -22.1451
v  29.3021 0.0150 -40.2412
# 10 vertices

vn 0.0000 -1.0000 -0.0000
# 1 vertex normals

vt 0.6680 0.7820 0.0000
vt 0.4932 0.7417 0.0000
vt 0.5257 0.6425 0.0000
vt 0.6624 0.6778 0.0000
vt 0.3756 0.6391 0.0000
vt 0.5593 0.4610 0.0000
vt 0.6759 0.4677 0.0000
vt 0.5011 0.6274 0.0000
vt 0.5179 0.4168 0.0000
vt 0.5734 0.3489 0.0000
# 10 texture coords

g world04_road_07
usemtl world01_map03
s 1
f 1/1/1 2/2/1 3/3/1 
f 3/3/1 4/4/1 1/1/1 
f 5/5/1 6/6/1 7/7/1 
f 7/7/1 8/8/1 5/5/1 
f 2/2/1 5/5/1 8/8/1 
f 8/8/1 3/3/1 2/2/1 
f 6/6/1 9/9/1 10/10/1 
f 10/10/1 7/7/1 6/6/1 
# 8 faces

