# 3ds Max Wavefront OBJ Exporter v0.94b - (c)2007 guruware
# File Created: 11.08.2010 15:02:44

mtllib world04_building09b_origin.mtl

#
# object world04_building09b
#

v  -32.9800 0.0000 -43.4727
v  46.8280 0.0000 -43.4727
v  46.8280 -0.0000 33.2562
v  -32.9800 -0.0000 33.2562
# 4 vertices

vn 0.0000 -1.0000 -0.0000
# 1 vertex normals

vt 0.0019 0.4120 0.0000
vt 0.1893 0.4120 0.0000
vt 0.1893 0.5921 0.0000
vt 0.0019 0.5921 0.0000
# 4 texture coords

g world04_building09b
usemtl world01_map02
s 1
f 1/1/1 2/2/1 3/3/1 
f 3/3/1 4/4/1 1/1/1 
# 2 faces

