# 3ds Max Wavefront OBJ Exporter v0.94b - (c)2007 guruware
# File Created: 02.12.2010 16:53:48

mtllib world04_node05.mtl

#
# object world04_node05
#

v  -68.2506 -0.0100 -92.4348
v  -26.2603 -0.0100 -92.4348
v  -26.2603 -0.0100 -70.2970
v  -68.2506 -0.0100 -70.2970
# 4 vertices

vn 0.0000 -1.0000 -0.0000
# 1 vertex normals

vt 0.8935 0.6664 0.0000
vt 0.9921 0.6664 0.0000
vt 0.9921 0.7184 0.0000
vt 0.8935 0.7184 0.0000
# 4 texture coords

g world04_node05
usemtl world01_map02
s 1
f 1/1/1 2/2/1 3/3/1 
f 3/3/1 4/4/1 1/1/1 
# 2 faces

