# 3ds Max Wavefront OBJ Exporter v0.94b - (c)2007 guruware
# File Created: 02.12.2010 16:51:13

mtllib world04_road_01b_alpha.mtl

#
# object world04_road_01b_alpha
#

v  -137.4389 -0.0200 -40.6594
v  -118.8449 -0.0200 -24.7998
v  -159.9083 -0.0199 8.5016
v  -176.8143 -0.0201 -7.5730
# 4 vertices

vn 0.0000 -1.0000 0.0000
# 1 vertex normals

vt 0.5000 1.0000 0.0000
vt 0.5000 0.0000 0.0000
vt 1.0000 0.0000 0.0000
vt 1.0000 1.0000 0.0000
# 4 texture coords

g world04_road_01b_alpha
usemtl alpha_gradient
s 1
f 1/1/1 2/2/1 3/3/1 
f 3/3/1 4/4/1 1/1/1 
# 2 faces

