# 3ds Max Wavefront OBJ Exporter v0.94b - (c)2007 guruware
# File Created: 02.12.2010 16:52:51

mtllib world04_node02.mtl

#
# object world04_node02
#

v  -103.3740 -0.0100 19.9195
v  -60.5904 -0.0100 19.9195
v  -60.5903 -0.0100 42.3162
v  -103.3740 -0.0100 42.3163
# 4 vertices

vn -0.0000 -1.0000 -0.0000
vn 0.0000 -1.0000 -0.0000
# 2 vertex normals

vt 0.8973 0.8365 0.0000
vt 0.9977 0.8365 0.0000
vt 0.9977 0.8891 0.0000
vt 0.8973 0.8891 0.0000
# 4 texture coords

g world04_node02
usemtl world01_map02
s 1
f 1/1/1 2/2/2 3/3/1 
f 3/3/1 4/4/1 1/1/1 
# 2 faces

