# 3ds Max Wavefront OBJ Exporter v0.94b - (c)2007 guruware
# File Created: 02.12.2010 16:44:10

mtllib world04_road_03_alpha.mtl

#
# object world04_road_03_alpha
#

v  -78.3454 0.0150 12.8797
v  -129.2688 0.0150 -25.1618
v  -110.1913 0.0150 -41.0556
v  -36.2768 0.0150 14.2223
v  -72.4743 0.0150 38.9488
v  -92.5968 0.0150 21.7576
# 6 vertices

vn 0.0000 -1.0000 -0.0000
# 1 vertex normals

vt 0.6502 0.0000 0.0000
vt 1.0002 0.0000 0.0000
vt 1.0002 1.0000 0.0000
vt 0.6502 1.0000 0.0000
vt 0.5002 1.0000 0.0000
vt 0.5002 0.0000 0.0000
# 6 texture coords

g world04_road_03_alpha
usemtl alpha_gradient
s 1
f 1/1/1 2/2/1 3/3/1 
f 3/3/1 4/4/1 1/1/1 
f 1/1/1 4/4/1 5/5/1 
f 5/5/1 6/6/1 1/1/1 
# 4 faces

