# 3ds Max Wavefront OBJ Exporter v0.94b - (c)2007 guruware
# File Created: 11.08.2010 15:02:29

mtllib world04_building02_origin.mtl

#
# object world04_building02
#

v  -35.1325 0.0000 -41.9265
v  35.1325 0.0000 -41.9265
v  35.1324 -0.0000 41.9265
v  -35.1325 -0.0000 41.9265
# 4 vertices

vn -0.0000 -1.0000 -0.0000
# 1 vertex normals

vt 0.1502 0.8022 0.0000
vt 0.3152 0.8022 0.0000
vt 0.3152 0.9991 0.0000
vt 0.1502 0.9991 0.0000
# 4 texture coords

g world04_building02
usemtl world01_map02
s 1
f 1/1/1 2/2/1 3/3/1 
f 3/3/1 4/4/1 1/1/1 
# 2 faces

