# 3ds Max Wavefront OBJ Exporter v0.94b - (c)2007 guruware
# File Created: 10.12.2010 14:18:29

mtllib world04_road_12_alpha.mtl

#
# object world04_road_12_alpha
#

v  88.5489 -0.0200 -39.7163
v  87.9047 -0.0200 -90.2912
v  107.1033 -0.0200 -90.3028
v  107.6502 -0.0200 -40.5366
# 4 vertices

vn 0.0000 -1.0000 -0.0000
# 1 vertex normals

vt 0.5000 0.0000 0.0000
vt 1.0000 0.0000 0.0000
vt 1.0000 1.0000 0.0000
vt 0.5000 1.0000 0.0000
# 4 texture coords

g world04_road_12_alpha
usemtl alpha_gradient
s 1
f 1/1/1 2/2/1 3/3/1 
f 3/3/1 4/4/1 1/1/1 
# 2 faces

