# 3ds Max Wavefront OBJ Exporter v0.94b - (c)2007 guruware
# File Created: 02.12.2010 16:51:03

mtllib world04_road_03b.mtl

#
# object world04_road_03b
#

v  19.9093 -0.0200 -25.3929
v  -112.2289 -0.0200 -25.3929
v  -112.1899 -0.0200 -40.5225
v  19.9587 -0.0200 -40.6796
# 4 vertices

vn 0.0000 -1.0000 -0.0000
# 1 vertex normals

vt 0.5186 0.9825 0.0000
vt 0.1877 0.9825 0.0000
vt 0.1877 0.9257 0.0000
vt 0.5187 0.9252 0.0000
# 4 texture coords

g world04_road_03b
usemtl world01_map03
s 1
f 1/1/1 2/2/1 3/3/1 
f 3/3/1 4/4/1 1/1/1 
# 2 faces

