# 3ds Max Wavefront OBJ Exporter v0.94b - (c)2007 guruware
# File Created: 08.12.2010 15:58:02

mtllib world04_building06.mtl

#
# object world04_building06
#

v  -42.6649 -0.2000 -46.1192
v  43.0052 -0.2000 -46.1192
v  43.0052 -0.2000 31.3350
v  -42.6649 -0.2000 31.3350
# 4 vertices

vn -0.0000 -1.0000 -0.0000
vn 0.0000 -1.0000 -0.0000
# 2 vertex normals

vt 0.0014 0.5930 0.0000
vt 0.2025 0.5930 0.0000
vt 0.2025 0.7748 0.0000
vt 0.0014 0.7748 0.0000
# 4 texture coords

g world04_building06
usemtl world01_map02
s 1
f 1/1/1 2/2/1 3/3/1 
f 3/3/1 4/4/2 1/1/1 
# 2 faces

