# 3ds Max Wavefront OBJ Exporter v0.94b - (c)2007 guruware
# File Created: 25.02.2011 13:10:24

mtllib world04_road_11_alpha.mtl

#
# object world04_road_11_alpha
#

v  213.1481 0.0149 -34.5071
v  213.1803 0.0149 5.0380
v  175.0497 0.0150 -25.7740
v  195.7371 0.0150 -49.2271
v  146.7668 0.0150 -47.5381
v  151.2422 0.0150 -83.3412
# 6 vertices

vn -0.0000 -1.0000 -0.0000
vn 0.0000 -1.0000 -0.0000
# 2 vertex normals

vt 1.0000 0.0000 0.0000
vt 1.0000 1.0000 0.0000
vt 0.7593 1.0000 0.0000
vt 0.8738 0.0000 0.0000
vt 0.5000 1.0000 0.0000
vt 0.5000 0.0000 0.0000
# 6 texture coords

g world04_road_11_alpha
usemtl alpha_gradient
s 1
f 1/1/1 2/2/1 3/3/1 
f 3/3/1 4/4/1 1/1/1 
f 5/5/2 6/6/2 4/4/1 
f 4/4/1 3/3/1 5/5/2 
# 4 faces

