# 3ds Max Wavefront OBJ Exporter v0.94b - (c)2007 guruware
# File Created: 02.12.2010 16:42:57

mtllib world04_road_09.mtl

#
# object world04_road_09
#

v  122.1521 0.0150 -34.5594
v  195.5486 0.0150 21.8305
v  143.6340 0.0150 21.3830
v  65.7622 0.0150 -36.3496
# 4 vertices

vn 0.0000 -1.0000 -0.0000
# 1 vertex normals

vt 0.8059 0.3702 0.0000
vt 0.9896 0.5820 0.0000
vt 0.8596 0.5803 0.0000
vt 0.6647 0.3635 0.0000
# 4 texture coords

g world04_road_09
usemtl world01_map03
s 1
f 1/1/1 2/2/1 3/3/1 
f 3/3/1 4/4/1 1/1/1 
# 2 faces

