# 3ds Max Wavefront OBJ Exporter v0.94b - (c)2007 guruware
# File Created: 17.05.2011 14:30:59

mtllib world04_road_785_alpha.mtl

#
# object world04_road_785_alpha
#

v  -10.0684 -0.0201 72.9883
v  20.5126 -0.0201 67.3614
v  28.0966 -0.0201 82.7742
v  -7.6219 -0.0200 87.4225
v  48.4024 -0.0201 63.4471
v  50.8488 -0.0201 74.7009
# 6 vertices

vn -0.0000 -1.0000 0.0000
# 1 vertex normals

vt 1.0000 0.0000 0.0000
vt 0.7500 0.0000 0.0000
vt 0.7500 1.0000 0.0000
vt 1.0000 1.0000 0.0000
vt 0.5000 0.0000 0.0000
vt 0.5000 1.0000 0.0000
# 6 texture coords

g world04_road_785_alpha
usemtl alpha_gradient
s 1
f 1/1/1 2/2/1 3/3/1 
f 3/3/1 4/4/1 1/1/1 
f 2/2/1 5/5/1 6/6/1 
f 6/6/1 3/3/1 2/2/1 
# 4 faces

