# 3ds Max Wavefront OBJ Exporter v0.94b - (c)2007 guruware
# File Created: 11.08.2010 15:01:47

mtllib world04_building03_origin.mtl

#
# object world04_building03
#

v  -45.8385 0.0000 -41.8249
v  45.8383 0.0000 -41.8249
v  45.8384 -0.0000 41.8250
v  -45.8385 -0.0000 41.8250
# 4 vertices

vn 0.0000 -1.0000 -0.0000
# 1 vertex normals

vt 0.3167 0.8025 0.0000
vt 0.5319 0.8025 0.0000
vt 0.5319 0.9989 0.0000
vt 0.3167 0.9989 0.0000
# 4 texture coords

g world04_building03
usemtl world01_map02
s 1
f 1/1/1 2/2/1 3/3/1 
f 3/3/1 4/4/1 1/1/1 
# 2 faces

