# 3ds Max Wavefront OBJ Exporter v0.94b - (c)2007 guruware
# File Created: 25.02.2011 13:15:51

mtllib world04_grass10.mtl

#
# object world04_grass10
#

v  213.6755 0.0050 -79.5615
v  164.0064 0.0050 -59.0674
v  120.0396 0.0050 -75.8847
v  162.9996 0.0050 -112.8954
# 4 vertices

vn 0.0000 -1.0000 -0.0000
# 1 vertex normals

vt 0.2216 0.0749 0.0000
vt 0.1050 0.1230 0.0000
vt 0.0018 0.0835 0.0000
vt 0.1026 -0.0033 0.0000
# 4 texture coords

g world04_grass10
usemtl orig_world01_map02
s 1
f 1/1/1 2/2/1 3/3/1 
f 3/3/1 4/4/1 1/1/1 
# 2 faces

