# 3ds Max Wavefront OBJ Exporter v0.94b - (c)2007 guruware
# File Created: 11.08.2010 14:59:40

mtllib world04_building08_origin.mtl

#
# object world04_building08
#

v  -42.8442 0.0000 -43.1993
v  42.8443 0.0000 -43.1993
v  42.8442 -0.0000 43.1993
v  -42.8442 -0.0000 43.1993
# 4 vertices

vn 0.0000 -1.0000 -0.0000
# 1 vertex normals

vt 0.4522 0.5999 0.0000
vt 0.6534 0.5999 0.0000
vt 0.6534 0.8027 0.0000
vt 0.4522 0.8027 0.0000
# 4 texture coords

g world04_building08
usemtl world01_map02
s 1
f 1/1/1 2/2/1 3/3/1 
f 3/3/1 4/4/1 1/1/1 
# 2 faces

