# 3ds Max Wavefront OBJ Exporter v0.94b - (c)2007 guruware
# File Created: 02.12.2010 16:51:21

mtllib world04_road_03b_alpha.mtl

#
# object world04_road_03b_alpha
#

v  19.9093 -0.0200 -25.3929
v  -112.2289 -0.0200 -25.3929
v  -112.1899 -0.0200 -40.5225
v  19.9587 -0.0200 -40.6796
# 4 vertices

vn 0.0000 -1.0000 -0.0000
# 1 vertex normals

vt 0.5000 0.0000 0.0000
vt 1.0000 0.0000 0.0000
vt 1.0000 1.0000 0.0000
vt 0.5000 1.0000 0.0000
# 4 texture coords

g world04_road_03b_alpha
usemtl alpha_gradient
s 1
f 1/1/1 2/2/1 3/3/1 
f 3/3/1 4/4/1 1/1/1 
# 2 faces

