# 3ds Max Wavefront OBJ Exporter v0.94b - (c)2007 guruware
# File Created: 11.08.2010 15:01:14

mtllib world04_building01_origin.mtl

#
# object world04_building01
#

v  -31.9721 0.0000 -47.3139
v  31.9722 0.0000 -47.3139
v  31.9721 -0.0000 47.3139
v  -31.9721 -0.0000 47.3139
# 4 vertices

vn -0.0000 -1.0000 -0.0000
# 1 vertex normals

vt 0.0011 0.7764 0.0000
vt 0.1512 0.7764 0.0000
vt 0.1512 0.9986 0.0000
vt 0.0011 0.9986 0.0000
# 4 texture coords

g world04_building01
usemtl world01_map02
s 1
f 1/1/1 2/2/1 3/3/1 
f 3/3/1 4/4/1 1/1/1 
# 2 faces

