# 3ds Max Wavefront OBJ Exporter v0.94b - (c)2007 guruware
# File Created: 25.02.2011 13:14:36

mtllib world04_node07.mtl

#
# object world04_node07
#

v  42.9592 -0.0100 55.5376
v  63.5220 -0.0100 55.5376
v  63.7736 -0.0100 71.7573
v  42.9592 -0.0100 70.9421
v  51.8774 -0.0100 48.2451
v  63.3212 -0.0100 48.2451
v  84.0848 -0.0100 55.5376
v  82.9472 -0.0100 66.4843
v  74.7650 -0.0100 48.2451
# 9 vertices

vn 0.0000 -1.0000 -0.0000
vn -0.0000 -1.0000 -0.0000
# 2 vertex normals

vt 0.7843 0.3120 0.0000
vt 0.8325 0.3120 0.0000
vt 0.8331 0.3504 0.0000
vt 0.7842 0.3484 0.0000
vt 0.8052 0.2947 0.0000
vt 0.8320 0.2947 0.0000
vt 0.8808 0.3120 0.0000
vt 0.8781 0.3379 0.0000
vt 0.8589 0.2947 0.0000
# 9 texture coords

g world04_node07
usemtl orig_world01_map02
s 1
f 1/1/1 2/2/2 3/3/2 
f 3/3/2 4/4/1 1/1/1 
f 5/5/2 6/6/1 2/2/2 
f 2/2/2 1/1/1 5/5/2 
f 2/2/2 7/7/2 8/8/2 
f 8/8/2 3/3/2 2/2/2 
f 9/9/2 7/7/2 2/2/2 
f 2/2/2 6/6/1 9/9/2 
# 8 faces

