# 3ds Max Wavefront OBJ Exporter v0.94b - (c)2007 guruware
# File Created: 11.08.2010 14:59:09

mtllib world04_building07_origin.mtl

#
# object world04_building07
#

v  -52.1029 0.0000 -41.2291
v  52.1029 0.0000 -41.2291
v  52.1029 -0.0000 41.2291
v  -52.1029 -0.0000 41.2291
# 4 vertices

vn 0.0000 -1.0000 -0.0000
# 1 vertex normals

vt 0.2049 0.6077 0.0000
vt 0.4495 0.6077 0.0000
vt 0.4495 0.8013 0.0000
vt 0.2049 0.8013 0.0000
# 4 texture coords

g world04_building07
usemtl world01_map02
s 1
f 1/1/1 2/2/1 3/3/1 
f 3/3/1 4/4/1 1/1/1 
# 2 faces

