# 3ds Max Wavefront OBJ Exporter v0.94b - (c)2007 guruware
# File Created: 08.12.2010 15:58:55

mtllib world04_rickshaw.mtl

#
# object world04_rickshaw
#

v  -28.2223 0.0000 -23.3897
v  28.2223 0.0000 -23.3897
v  28.2223 -0.0000 23.3897
v  -28.2223 -0.0000 23.3897
# 4 vertices

vn 0.0000 -1.0000 -0.0000
# 1 vertex normals

vt 0.8660 0.1260 0.0000
vt 0.9980 0.1260 0.0000
vt 0.9980 0.2360 0.0000
vt 0.8660 0.2360 0.0000
# 4 texture coords

g world04_rickshaw
usemtl world01_map02
s 1
f 1/1/1 2/2/1 3/3/1 
f 3/3/1 4/4/1 1/1/1 
# 2 faces

