# 3ds Max Wavefront OBJ Exporter v0.94b - (c)2007 guruware
# File Created: 02.12.2010 16:41:59

mtllib world04_road_03.mtl

#
# object world04_road_03
#

v  -78.3454 0.0150 12.8797
v  -129.2688 0.0150 -25.1618
v  -110.1913 0.0150 -41.0556
v  -36.2768 0.0150 14.2223
v  -72.4743 0.0150 38.9488
v  -92.5968 0.0150 21.7576
# 6 vertices

vn 0.0000 -1.0000 -0.0000
# 1 vertex normals

vt 0.3038 0.5484 0.0000
vt 0.1763 0.4055 0.0000
vt 0.2241 0.3458 0.0000
vt 0.4092 0.5534 0.0000
vt 0.3185 0.6463 0.0000
vt 0.2682 0.5817 0.0000
# 6 texture coords

g world04_road_03
usemtl world01_map03
s 1
f 1/1/1 2/2/1 3/3/1 
f 3/3/1 4/4/1 1/1/1 
f 1/1/1 4/4/1 5/5/1 
f 5/5/1 6/6/1 1/1/1 
# 4 faces

