# 3ds Max Wavefront OBJ Exporter v0.94b - (c)2007 guruware
# File Created: 02.12.2010 16:42:45

mtllib world04_road_08.mtl

#
# object world04_road_08
#

v  143.6340 0.0150 21.3830
v  195.5486 0.0150 21.8305
v  123.4947 0.0150 62.5566
v  108.2784 0.0150 38.3895
v  67.1048 0.0150 75.0877
v  64.8671 0.0150 47.3402
# 6 vertices

vn 0.0000 -1.0000 -0.0000
# 1 vertex normals

vt 0.8596 0.5803 0.0000
vt 0.9896 0.5820 0.0000
vt 0.8092 0.7349 0.0000
vt 0.7711 0.6442 0.0000
vt 0.6680 0.7820 0.0000
vt 0.6624 0.6778 0.0000
# 6 texture coords

g world04_road_08
usemtl world01_map03
s 1
f 1/1/1 2/2/1 3/3/1 
f 3/3/1 4/4/1 1/1/1 
f 4/4/1 3/3/1 5/5/1 
f 5/5/1 6/6/1 4/4/1 
# 4 faces

