# 3ds Max Wavefront OBJ Exporter v0.94b - (c)2007 guruware
# File Created: 02.12.2010 16:50:55

mtllib world04_road_12.mtl

#
# object world04_road_12
#

v  88.5489 -0.0200 -39.7163
v  87.9047 -0.0200 -90.2912
v  107.1033 -0.0200 -90.3028
v  107.6502 -0.0200 -40.5366
# 4 vertices

vn 0.0000 -1.0000 -0.0000
# 1 vertex normals

vt 0.6374 0.2419 0.0000
vt 0.6358 0.0520 0.0000
vt 0.6839 0.0519 0.0000
vt 0.6852 0.2388 0.0000
# 4 texture coords

g world04_road_12
usemtl world01_map03
s 1
f 1/1/1 2/2/1 3/3/1 
f 3/3/1 4/4/1 1/1/1 
# 2 faces

