# 3ds Max Wavefront OBJ Exporter v0.94b - (c)2007 guruware
# File Created: 25.02.2011 12:04:34

mtllib world04_grass11.mtl

#
# object world04_grass11
#

v  171.2782 0.0050 -1.3235
v  122.2156 0.0050 -23.6986
v  159.0795 0.0050 -52.9502
v  201.2865 0.0050 -22.0021
# 4 vertices

vn 0.0000 -1.0000 -0.0000
# 1 vertex normals

vt 0.9307 0.1165 0.0000
vt 0.8155 0.0640 0.0000
vt 0.9021 -0.0047 0.0000
vt 1.0011 0.0680 0.0000
# 4 texture coords

g world04_grass11
usemtl orig_world01_map02
s 1
f 1/1/1 2/2/1 3/3/1 
f 3/3/1 4/4/1 1/1/1 
# 2 faces

