# 3ds Max Wavefront OBJ Exporter v0.94b - (c)2007 guruware
# File Created: 02.12.2010 16:53:54

mtllib world04_node06.mtl

#
# object world04_node06
#

v  -3.4391 -0.0100 -44.8744
v  39.7082 -0.0100 -44.8745
v  39.7082 -0.0100 -21.5819
v  -3.4391 -0.0100 -21.5818
# 4 vertices

vn -0.0000 -1.0000 -0.0000
# 1 vertex normals

vt 0.8730 0.6080 0.0000
vt 0.9743 0.6080 0.0000
vt 0.9743 0.6626 0.0000
vt 0.8730 0.6626 0.0000
# 4 texture coords

g world04_node06
usemtl world01_map02
s 1
f 1/1/1 2/2/1 3/3/1 
f 3/3/1 4/4/1 1/1/1 
# 2 faces

