# 3ds Max Wavefront OBJ Exporter v0.94b - (c)2007 guruware
# File Created: 11.08.2010 15:00:47

mtllib world04_building04_origin.mtl

#
# object world04_building04
#

v  -41.3738 0.0000 -38.6357
v  41.3738 0.0000 -38.6357
v  41.3738 -0.0000 38.6357
v  -41.3738 -0.0000 38.6357
# 4 vertices

vn 0.0000 -1.0000 -0.0000
# 1 vertex normals

vt 0.5326 0.8179 0.0000
vt 0.7268 0.8179 0.0000
vt 0.7268 0.9993 0.0000
vt 0.5326 0.9993 0.0000
# 4 texture coords

g world04_building04
usemtl world01_map02
s 1
f 1/1/1 2/2/1 3/3/1 
f 3/3/1 4/4/1 1/1/1 
# 2 faces

