# 3ds Max Wavefront OBJ Exporter v0.94b - (c)2007 guruware
# File Created: 09.03.2011 17:26:14

mtllib world04_building11.mtl

#
# object world04_building11
#

v  46.8280 -0.2001 -32.6720
v  46.8280 -0.2001 5.6924
v  -32.9800 -0.2001 5.6924
v  -32.9800 -0.2001 -32.6721
v  14.5874 -0.2001 44.0568
v  -32.9800 -0.2001 44.0568
# 6 vertices

vn 0.0000 -1.0000 -0.0000
# 1 vertex normals

vt 0.1893 0.4120 0.0000
vt 0.1893 0.5021 0.0000
vt 0.0019 0.5021 0.0000
vt 0.0019 0.4120 0.0000
vt 0.1136 0.5921 0.0000
vt 0.0019 0.5921 0.0000
# 6 texture coords

g world04_building11
usemtl orig_world01_map02
s 1
f 1/1/1 2/2/1 3/3/1 
f 3/3/1 4/4/1 1/1/1 
f 5/5/1 6/6/1 3/3/1 
f 3/3/1 2/2/1 5/5/1 
# 4 faces

