# 3ds Max Wavefront OBJ Exporter v0.94b - (c)2007 guruware
# File Created: 02.12.2010 16:41:40

mtllib world04_road_01.mtl

#
# object world04_road_01
#

v  -143.9725 0.0150 31.3214
v  -183.1272 0.0150 7.9837
v  -165.6894 0.0150 -9.2593
v  -127.7913 0.0150 15.4482
# 4 vertices

vn 0.0000 -1.0000 -0.0000
# 1 vertex normals

vt 0.1395 0.6176 0.0000
vt 0.0415 0.5300 0.0000
vt 0.0851 0.4652 0.0000
vt 0.1800 0.5580 0.0000
# 4 texture coords

g world04_road_01
usemtl world01_map03
s 1
f 1/1/1 2/2/1 3/3/1 
f 3/3/1 4/4/1 1/1/1 
# 2 faces

