# 3ds Max Wavefront OBJ Exporter v0.94b - (c)2007 guruware
# File Created: 02.12.2010 16:44:03

mtllib world04_road_02_alpha.mtl

#
# object world04_road_02_alpha
#

v  -143.9725 0.0150 31.3214
v  -127.7913 0.0150 15.4482
v  -105.6453 0.0150 29.8862
v  -99.8273 0.0150 57.6337
v  -92.5968 0.0150 21.7576
v  -72.4743 0.0150 38.9488
# 6 vertices

vn 0.0000 -1.0000 -0.0000
# 1 vertex normals

vt 0.5068 1.0000 0.0000
vt 0.5068 0.0000 0.0000
vt 0.8002 0.0000 0.0000
vt 0.8002 1.0000 0.0000
vt 0.9996 0.0000 0.0000
vt 1.0002 1.0000 0.0000
# 6 texture coords

g world04_road_02_alpha
usemtl alpha_gradient
s 1
f 1/1/1 2/2/1 3/3/1 
f 3/3/1 4/4/1 1/1/1 
f 3/3/1 5/5/1 6/6/1 
f 6/6/1 4/4/1 3/3/1 
# 4 faces

