# 3ds Max Wavefront OBJ Exporter v0.94b - (c)2007 guruware
# File Created: 11.08.2010 15:01:31

mtllib world04_building05_origin.mtl

#
# object world04_building05
#

v  -36.3132 0.0000 -35.5309
v  36.3131 0.0000 -35.5309
v  36.3131 -0.0000 35.5308
v  -36.3132 -0.0000 35.5308
# 4 vertices

vn 0.0000 -1.0000 -0.0000
# 1 vertex normals

vt 0.7270 0.8316 0.0000
vt 0.8975 0.8316 0.0000
vt 0.8975 0.9984 0.0000
vt 0.7270 0.9984 0.0000
# 4 texture coords

g world04_building05
usemtl world01_map02
s 1
f 1/1/1 2/2/1 3/3/1 
f 3/3/1 4/4/1 1/1/1 
# 2 faces

