# 3ds Max Wavefront OBJ Exporter v0.94b - (c)2007 guruware
# File Created: 10.08.2011 15:11:51

mtllib world07_hiddenroad_788.mtl

#
# object world07_hiddenroad_788
#

v  108.0428 -0.0110 -31.2476
v  120.2108 -0.0110 -58.2759
v  153.0891 -0.0110 -55.0163
v  131.6124 -0.0110 -15.3615
v  96.8555 -0.0110 -95.1290
v  121.3409 -0.0110 -104.2686
# 6 vertices

vn 0.0000 -1.0000 -0.0000
# 1 vertex normals

vt 0.7705 0.3826 0.0000
vt 0.8010 0.2811 0.0000
vt 0.8833 0.2934 0.0000
vt 0.8295 0.4423 0.0000
vt 0.7425 0.1427 0.0000
vt 0.8038 0.1084 0.0000
# 6 texture coords

g world07_hiddenroad_788
usemtl world07_map03
s 1
f 1/1/1 2/2/1 3/3/1 
f 3/3/1 4/4/1 1/1/1 
f 2/2/1 5/5/1 6/6/1 
f 6/6/1 3/3/1 2/2/1 
# 4 faces

