# 3ds Max Wavefront OBJ Exporter v0.94b - (c)2007 guruware
# File Created: 16.12.2010 10:36:21

mtllib world07_road_05.mtl

#
# object world07_road_05
#

v  -74.4066 0.0150 -0.8776
v  -21.3394 0.0150 -23.9503
v  -22.4005 0.0150 -0.2538
v  -54.8110 0.0150 18.4068
v  23.5012 0.0150 -15.4898
v  22.9369 0.0150 5.3840
# 6 vertices

vn 0.0000 -1.0000 -0.0000
# 1 vertex normals

vt 0.3137 0.4967 0.0000
vt 0.4466 0.4100 0.0000
vt 0.4439 0.4990 0.0000
vt 0.3628 0.5691 0.0000
vt 0.5588 0.4418 0.0000
vt 0.5574 0.5202 0.0000
# 6 texture coords

g world07_road_05
usemtl world07_map03
s 1
f 1/1/1 2/2/1 3/3/1 
f 3/3/1 4/4/1 1/1/1 
f 3/3/1 2/2/1 5/5/1 
f 5/5/1 6/6/1 3/3/1 
# 4 faces

