# 3ds Max Wavefront OBJ Exporter v0.94b - (c)2007 guruware
# File Created: 07.09.2011 17:13:02

mtllib world07_road_10.mtl

#
# object world07_road_10
#

v  48.6297 0.0150 54.3536
v  -23.1150 0.0150 61.3866
v  -26.2909 0.0150 34.4067
v  51.6828 0.0150 24.9523
# 4 vertices

vn 0.0000 -1.0000 -0.0000
# 1 vertex normals

vt 0.6218 0.7041 0.0000
vt 0.4421 0.7306 0.0000
vt 0.4342 0.6292 0.0000
vt 0.6294 0.5937 0.0000
# 4 texture coords

g world07_road_10
usemtl world07_map03
s 1
f 1/1/1 2/2/1 3/3/1 
f 3/3/1 4/4/1 1/1/1 
# 2 faces

