# 3ds Max Wavefront OBJ Exporter v0.94b - (c)2007 guruware
# File Created: 06.12.2010 11:44:09

mtllib world07_road_04.mtl

#
# object world07_road_04
#

v  22.9369 0.0150 5.3840
v  23.5012 0.0150 -15.4898
v  34.8954 0.0150 -13.3399
v  45.8594 0.0150 8.2345
v  78.7515 0.0150 -20.7672
v  135.7005 0.0150 -5.5030
v  61.7750 0.0150 -4.8516
v  42.3227 0.0150 -20.4135
# 8 vertices

vn 0.0000 -1.0000 -0.0000
# 1 vertex normals

vt 0.5574 0.5202 0.0000
vt 0.5588 0.4418 0.0000
vt 0.5874 0.4499 0.0000
vt 0.6148 0.5309 0.0000
vt 0.6972 0.4220 0.0000
vt 0.8398 0.4793 0.0000
vt 0.6547 0.4818 0.0000
vt 0.6060 0.4233 0.0000
# 8 texture coords

g world07_road_04
usemtl world07_map03
s 1
f 1/1/1 2/2/1 3/3/1 
f 3/3/1 4/4/1 1/1/1 
f 5/5/1 6/6/1 7/7/1 
f 7/7/1 8/8/1 5/5/1 
f 3/3/1 8/8/1 7/7/1 
f 7/7/1 4/4/1 3/3/1 
# 6 faces

