# 3ds Max Wavefront OBJ Exporter v0.94b - (c)2007 guruware
# File Created: 10.08.2011 15:40:13

mtllib world07_node03.mtl

#
# object world07_node03
#

v  89.5091 -0.0100 -1.4274
v  89.5091 -0.0100 -22.3398
v  130.7445 -0.0100 -22.1212
v  130.7445 -0.0100 -1.4274
# 4 vertices

vn 0.0000 -1.0000 -0.0000
# 1 vertex normals

vt 0.5606 0.4322 0.0000
vt 0.5606 0.3343 0.0000
vt 0.7537 0.3353 0.0000
vt 0.7537 0.4322 0.0000
# 4 texture coords

g world07_node03
usemtl world07_map02
s 1
f 1/1/1 2/2/1 3/3/1 
f 3/3/1 4/4/1 1/1/1 
# 2 faces

