# 3ds Max Wavefront OBJ Exporter v0.94b - (c)2007 guruware
# File Created: 10.08.2011 15:07:14

mtllib world07_volcano.mtl

#
# object world07_volcano
#

v  -81.3846 -0.6400 130.0856
v  -81.3847 -0.6400 64.9578
v  71.7547 -0.6400 64.9578
v  71.7546 -0.6400 130.0857
# 4 vertices

vn 0.0000 -1.0000 -0.0000
# 1 vertex normals

vt 0.2337 0.2507 0.0000
vt 0.2337 0.0061 0.0000
vt 0.6171 0.0061 0.0000
vt 0.6171 0.2507 0.0000
# 4 texture coords

g world07_volcano
usemtl world07_map03
s 1
f 1/1/1 2/2/1 3/3/1 
f 3/3/1 4/4/1 1/1/1 
# 2 faces

