# 3ds Max Wavefront OBJ Exporter v0.94b - (c)2007 guruware
# File Created: 27.09.2011 11:44:48

mtllib world07_road_09_alpha.mtl

#
# object world07_road_09_alpha
#

v  73.1436 0.0150 64.5178
v  66.3728 0.0150 59.1642
v  91.8376 0.0150 31.2236
v  109.5842 0.0150 59.3245
v  48.6297 0.0150 54.3536
v  51.6828 0.0150 24.9523
v  109.7088 -0.0083 62.6652
v  141.2154 -0.0083 56.9729
v  141.2154 -0.0083 78.2192
v  108.6998 -0.0083 81.5346
v  158.8919 -0.0083 47.2645
v  154.6208 -0.0083 97.1767
v  178.1744 -0.0083 49.1636
v  173.4839 -0.0083 90.3226
v  198.8419 -0.0083 61.1300
v  197.5554 -0.0083 77.3495
# 16 vertices

vn 0.0000 -1.0000 -0.0000
vn 0.0000 -1.0000 0.0000
vn -0.0000 -1.0000 0.0000
# 3 vertex normals

vt 0.5000 1.0000 0.0000
vt 0.7500 1.0000 0.0000
vt 0.7500 0.0000 0.0000
vt 0.5000 0.0000 0.0000
vt 1.0000 1.0000 0.0000
vt 1.0000 0.0000 0.0000
vt 0.6621 0.0000 0.0000
vt 0.6621 1.0000 0.0000
vt 0.8410 0.0000 0.0000
vt 0.8410 1.0000 0.0000
# 10 texture coords

g world07_road_09_alpha
usemtl alpha_gradient
s 1
f 1/1/1 2/2/1 3/3/1 
f 3/3/1 4/4/1 1/1/1 
f 5/5/1 6/6/1 3/3/1 
f 3/3/1 2/2/1 5/5/1 
f 7/4/2 8/7/2 9/8/3 
f 9/8/3 10/1/2 7/4/2 
f 11/3/2 12/2/3 9/8/3 
f 9/8/3 8/7/2 11/3/2 
f 13/9/3 14/10/2 12/2/3 
f 12/2/3 11/3/2 13/9/3 
f 15/6/2 16/5/2 14/10/2 
f 14/10/2 13/9/3 15/6/2 
# 12 faces

