# 3ds Max Wavefront OBJ Exporter v0.94b - (c)2007 guruware
# File Created: 06.12.2010 11:45:01

mtllib world07_road_03_alpha.mtl

#
# object world07_road_03_alpha
#

v  74.5074 0.0150 -25.3650
v  31.0049 0.0150 -35.6216
v  37.0175 0.0150 -55.0740
v  107.0458 0.0150 -34.9143
v  78.7515 0.0150 -20.7672
v  135.7005 0.0150 -5.5030
# 6 vertices

vn 0.0000 -1.0000 -0.0000
# 1 vertex normals

vt 0.8690 1.0000 0.0000
vt 0.5000 1.0000 0.0000
vt 0.5000 0.0000 0.0000
vt 0.7195 0.0000 0.0000
vt 1.0000 1.0000 0.0000
vt 1.0000 0.0000 0.0000
# 6 texture coords

g world07_road_03_alpha
usemtl alpha_gradient
s 1
f 1/1/1 2/2/1 3/3/1 
f 3/3/1 4/4/1 1/1/1 
f 5/5/1 1/1/1 4/4/1 
f 4/4/1 6/6/1 5/5/1 
# 4 faces

