# 3ds Max Wavefront OBJ Exporter v0.94b - (c)2007 guruware
# File Created: 16.12.2010 10:30:19

mtllib world07_node05.mtl

#
# object world07_node05
#

v  -44.5857 -0.0100 22.4433
v  -85.6320 -0.0100 22.4428
v  -85.6320 -0.0100 0.8062
v  -44.5857 -0.0100 0.8062
# 4 vertices

vn 0.0000 -1.0000 -0.0000
# 1 vertex normals

vt 0.7516 0.2289 0.0000
vt 0.5592 0.2289 0.0000
vt 0.5592 0.1275 0.0000
vt 0.7516 0.1275 0.0000
# 4 texture coords

g world07_node05
usemtl world07_map02
s 1
f 1/1/1 2/2/1 3/3/1 
f 3/3/1 4/4/1 1/1/1 
# 2 faces

