# 3ds Max Wavefront OBJ Exporter v0.94b - (c)2007 guruware
# File Created: 16.12.2010 10:36:34

mtllib world07_road_06.mtl

#
# object world07_road_06
#

v  -69.0860 0.0150 26.6257
v  -97.3803 0.0150 58.8105
v  -129.9187 0.0150 61.2862
v  -86.4163 0.0150 4.3440
v  -74.4066 0.0150 -0.8776
v  -54.8110 0.0150 18.4068
# 6 vertices

vn 0.0000 -1.0000 -0.0000
# 1 vertex normals

vt 0.3270 0.6000 0.0000
vt 0.2562 0.7209 0.0000
vt 0.1747 0.7302 0.0000
vt 0.2836 0.5163 0.0000
vt 0.3137 0.4967 0.0000
vt 0.3628 0.5691 0.0000
# 6 texture coords

g world07_road_06
usemtl world07_map03
s 1
f 1/1/1 2/2/1 3/3/1 
f 3/3/1 4/4/1 1/1/1 
f 1/1/1 4/4/1 5/5/1 
f 5/5/1 6/6/1 1/1/1 
# 4 faces

