# 3ds Max Wavefront OBJ Exporter v0.94b - (c)2007 guruware
# File Created: 06.12.2010 11:42:43

mtllib world07_node04.mtl

#
# object world07_node04
#

v  43.5637 -0.0100 -12.7325
v  43.5637 -0.0100 8.8009
v  2.7594 -0.0100 8.8009
v  2.7594 -0.0100 -12.7330
# 4 vertices

vn 0.0000 -1.0000 -0.0000
# 1 vertex normals

vt 0.7518 0.2291 0.0000
vt 0.7518 0.3300 0.0000
vt 0.5606 0.3300 0.0000
vt 0.5606 0.2291 0.0000
# 4 texture coords

g world07_node04
usemtl world07_map02
s 1
f 1/1/1 2/2/1 3/3/1 
f 3/3/1 4/4/1 1/1/1 
# 2 faces

