# 3ds Max Wavefront OBJ Exporter v0.94b - (c)2007 guruware
# File Created: 08.09.2011 09:52:53

mtllib world07_node02.mtl

#
# object world07_node02
#

v  53.1848 -0.0100 -30.8461
v  42.2796 -0.0100 -52.8341
v  53.1848 -0.0100 -45.9543
v  11.9879 -0.0100 -30.8461
v  11.9879 -0.0100 -52.8345
# 5 vertices

vn 0.0000 -1.0000 -0.0000
# 1 vertex normals

vt 0.8272 0.5347 0.0000
vt 0.7761 0.4317 0.0000
vt 0.8272 0.4639 0.0000
vt 0.6342 0.5347 0.0000
vt 0.6342 0.4317 0.0000
# 5 texture coords

g world07_node02
usemtl world07_map02
s 1
f 1/1/1 2/2/1 3/3/1 
f 4/4/1 5/5/1 2/2/1 
f 2/2/1 1/1/1 4/4/1 
# 3 faces

