# 3ds Max Wavefront OBJ Exporter v0.94b - (c)2007 guruware
# File Created: 27.09.2011 11:50:48

mtllib world07_road_08.mtl

#
# object world07_road_08
#

v  -97.3803 0.0150 58.8105
v  -78.2817 0.0150 71.5429
v  -73.3302 0.0150 95.2394
v  -129.9187 0.0150 61.2862
v  88.0840 0.0150 90.1656
v  54.7078 0.0150 94.7719
v  73.7249 0.0150 77.7551
v  108.2458 0.0150 77.7987
v  109.5842 0.0150 59.3245
v  73.1436 0.0150 64.5178
# 10 vertices

vn 0.0000 -1.0000 -0.0000
# 1 vertex normals

vt 0.2562 0.7209 0.0000
vt 0.3040 0.7687 0.0000
vt 0.3164 0.8577 0.0000
vt 0.1747 0.7302 0.0000
vt 0.7206 0.8386 0.0000
vt 0.6370 0.8559 0.0000
vt 0.6846 0.7920 0.0000
vt 0.7710 0.7922 0.0000
vt 0.7744 0.7228 0.0000
vt 0.6831 0.7423 0.0000
# 10 texture coords

g world07_road_08
usemtl world07_map03
s 1
f 1/1/1 2/2/1 3/3/1 
f 3/3/1 4/4/1 1/1/1 
f 5/5/1 6/6/1 7/7/1 
f 7/7/1 8/8/1 5/5/1 
f 9/9/1 8/8/1 7/7/1 
f 7/7/1 10/10/1 9/9/1 
# 6 faces

