# 3ds Max Wavefront OBJ Exporter v0.94b - (c)2007 guruware
# File Created: 06.12.2010 11:43:55

mtllib world07_road_02.mtl

#
# object world07_road_02
#

v  37.0175 0.0150 -55.0740
v  31.0049 0.0150 -35.6216
v  -88.5383 0.0150 -36.6827
v  -77.9280 0.0150 -55.4276
# 4 vertices

vn 0.0000 -1.0000 -0.0000
# 1 vertex normals

vt 0.5927 0.2932 0.0000
vt 0.5776 0.3662 0.0000
vt 0.2783 0.3622 0.0000
vt 0.3049 0.2918 0.0000
# 4 texture coords

g world07_road_02
usemtl world07_map03
s 1
f 1/1/1 2/2/1 3/3/1 
f 3/3/1 4/4/1 1/1/1 
# 2 faces

