# 3ds Max Wavefront OBJ Exporter v0.94b - (c)2007 guruware
# File Created: 07.09.2011 17:16:34

mtllib world07_road_08_alpha.mtl

#
# object world07_road_08_alpha
#

v  -97.3803 0.0150 58.8105
v  -78.2817 0.0150 71.5429
v  -73.3302 0.0150 95.2394
v  -129.9187 0.0150 61.2862
v  108.2458 0.0150 77.7987
v  73.7249 0.0150 77.7551
v  73.1436 0.0150 64.5178
v  109.5842 0.0150 59.3245
v  88.0840 0.0150 90.1656
v  54.7078 0.0150 94.7719
# 10 vertices

vn 0.0000 -1.0000 -0.0000
# 1 vertex normals

vt 0.5000 0.0000 0.0000
vt 0.7551 0.0000 0.0000
vt 0.7556 1.0000 0.0000
vt 0.5000 1.0000 0.0000
vt 0.8778 1.0000 0.0000
vt 0.8776 0.0000 0.0000
vt 1.0000 0.0000 0.0000
vt 1.0000 1.0000 0.0000
# 8 texture coords

g world07_road_08_alpha
usemtl alpha_gradient
s 1
f 1/1/1 2/2/1 3/3/1 
f 3/3/1 4/4/1 1/1/1 
f 5/5/1 6/6/1 7/7/1 
f 7/7/1 8/8/1 5/5/1 
f 9/3/1 10/2/1 6/6/1 
f 6/6/1 5/5/1 9/3/1 
# 6 faces

