# 3ds Max Wavefront OBJ Exporter v0.94b - (c)2007 guruware
# File Created: 16.12.2010 10:37:47

mtllib world07_road_06_alpha.mtl

#
# object world07_road_06_alpha
#

v  -69.0860 0.0150 26.6257
v  -97.3803 0.0150 58.8105
v  -129.9187 0.0150 61.2862
v  -86.4163 0.0150 4.3440
v  -74.4066 0.0150 -0.8776
v  -54.8110 0.0150 18.4068
# 6 vertices

vn 0.0000 -1.0000 -0.0000
# 1 vertex normals

vt 0.6266 0.0000 0.0000
vt 1.0000 0.0000 0.0000
vt 1.0000 1.0000 0.0000
vt 0.6275 1.0000 0.0000
vt 0.5000 1.0000 0.0000
vt 0.5000 0.0000 0.0000
# 6 texture coords

g world07_road_06_alpha
usemtl alpha_gradient
s 1
f 1/1/1 2/2/1 3/3/1 
f 3/3/1 4/4/1 1/1/1 
f 1/1/1 4/4/1 5/5/1 
f 5/5/1 6/6/1 1/1/1 
# 4 faces

