# 3ds Max Wavefront OBJ Exporter v0.94b - (c)2007 guruware
# File Created: 08.09.2011 10:15:10

mtllib world07_road_07.mtl

#
# object world07_road_07
#

v  -108.6337 -0.0110 25.1732
v  -101.7213 -0.0110 33.3181
v  -108.1417 -0.0110 45.7267
v  -116.3412 -0.0110 39.8230
v  -133.3445 -0.0110 39.1124
v  -133.3445 -0.0110 22.7133
# 6 vertices

vn 0.0000 -1.0000 -0.0000
# 1 vertex normals

vt 0.1135 0.8607 0.0000
vt 0.1309 0.8912 0.0000
vt 0.1149 0.9378 0.0000
vt 0.0943 0.9157 0.0000
vt 0.0518 0.9130 0.0000
vt 0.0516 0.8515 0.0000
# 6 texture coords

g world07_road_07
usemtl world07_map03
s 1
f 1/1/1 2/2/1 3/3/1 
f 3/3/1 4/4/1 1/1/1 
f 1/1/1 4/4/1 5/5/1 
f 5/5/1 6/6/1 1/1/1 
# 4 faces

