# 3ds Max Wavefront OBJ Exporter v0.94b - (c)2007 guruware
# File Created: 06.12.2010 11:44:02

mtllib world07_road_03.mtl

#
# object world07_road_03
#

v  74.5074 0.0150 -25.3650
v  31.0049 0.0150 -35.6216
v  37.0175 0.0150 -55.0740
v  107.0458 0.0150 -34.9143
v  78.7515 0.0150 -20.7672
v  135.7005 0.0150 -5.5030
# 6 vertices

vn 0.0000 -1.0000 -0.0000
# 1 vertex normals

vt 0.6866 0.4047 0.0000
vt 0.5776 0.3662 0.0000
vt 0.5927 0.2932 0.0000
vt 0.7680 0.3689 0.0000
vt 0.6972 0.4220 0.0000
vt 0.8398 0.4793 0.0000
# 6 texture coords

g world07_road_03
usemtl world07_map03
s 1
f 1/1/1 2/2/1 3/3/1 
f 3/3/1 4/4/1 1/1/1 
f 5/5/1 1/1/1 4/4/1 
f 4/4/1 6/6/1 5/5/1 
# 4 faces

