# 3ds Max Wavefront OBJ Exporter v0.94b - (c)2007 guruware
# File Created: 08.08.2011 11:13:00

mtllib world07_road_01_alpha.mtl

#
# object world07_road_01_alpha
#

v  -88.5383 0.0150 -36.6827
v  -166.2514 0.0150 -57.2066
v  -154.9356 0.0150 -85.8067
v  -77.9280 0.0150 -55.4276
v  -56.7573 0.0150 -36.4006
v  -56.1982 0.0150 -55.3608
# 6 vertices

vn 0.0000 -1.0000 -0.0000
# 1 vertex normals

vt 0.8500 1.0000 0.0000
vt 0.5000 1.0000 0.0000
vt 0.5000 0.0000 0.0000
vt 0.8500 0.0000 0.0000
vt 1.0000 1.0000 0.0000
vt 1.0000 0.0000 0.0000
# 6 texture coords

g world07_road_01_alpha
usemtl alpha_gradient
s 1
f 1/1/1 2/2/1 3/3/1 
f 3/3/1 4/4/1 1/1/1 
f 5/5/1 1/1/1 4/4/1 
f 4/4/1 6/6/1 5/5/1 
# 4 faces

