# 3ds Max Wavefront OBJ Exporter v0.94b - (c)2007 guruware
# File Created: 07.09.2011 17:16:54

mtllib world07_road_10_alpha.mtl

#
# object world07_road_10_alpha
#

v  51.6828 0.0150 24.9523
v  48.6297 0.0150 54.3536
v  -23.1150 0.0150 61.3866
v  -26.2909 0.0150 34.4067
# 4 vertices

vn 0.0000 -1.0000 -0.0000
# 1 vertex normals

vt 0.7500 0.0000 0.0000
vt 0.7500 1.0000 0.0000
vt 1.0000 1.0000 0.0000
vt 1.0000 0.0000 0.0000
# 4 texture coords

g world07_road_10_alpha
usemtl alpha_gradient
s 1
f 1/1/1 2/2/1 3/3/1 
f 3/3/1 4/4/1 1/1/1 
# 2 faces

