# 3ds Max Wavefront OBJ Exporter v0.94b - (c)2007 guruware
# File Created: 06.12.2010 11:42:23

mtllib world07_node01.mtl

#
# object world07_node01
#

v  -81.1532 -0.0100 -34.1284
v  -81.1532 -0.0100 -56.7542
v  -38.1321 -0.0100 -56.7537
v  -38.1321 -0.0100 -34.1284
# 4 vertices

vn 0.0000 -1.0000 -0.0000
# 1 vertex normals

vt 0.4319 0.5367 0.0000
vt 0.4319 0.4307 0.0000
vt 0.6334 0.4307 0.0000
vt 0.6334 0.5367 0.0000
# 4 texture coords

g world07_node01
usemtl world07_map02
s 1
f 1/1/1 2/2/1 3/3/1 
f 3/3/1 4/4/1 1/1/1 
# 2 faces

