# 3ds Max Wavefront OBJ Exporter v0.94b - (c)2007 guruware
# File Created: 08.09.2011 09:58:20

mtllib world07_node08.mtl

#
# object world07_node08
#

v  69.9728 -0.0100 66.2368
v  77.5451 -0.0100 58.6188
v  77.0513 -0.0100 80.4151
v  69.9728 -0.0100 73.8898
v  110.7466 -0.0100 58.6188
v  110.7466 -0.0100 80.4155
# 6 vertices

vn 0.0000 -1.0000 -0.0000
# 1 vertex normals

vt 0.8087 0.4101 0.0000
vt 0.8442 0.3744 0.0000
vt 0.8419 0.4767 0.0000
vt 0.8087 0.4460 0.0000
vt 1.0000 0.3744 0.0000
vt 1.0000 0.4767 0.0000
# 6 texture coords

g world07_node08
usemtl world07_map02
s 1
f 1/1/1 2/2/1 3/3/1 
f 3/3/1 4/4/1 1/1/1 
f 2/2/1 5/5/1 6/6/1 
f 6/6/1 3/3/1 2/2/1 
# 4 faces

