# 3ds Max Wavefront OBJ Exporter v0.94b - (c)2007 guruware
# File Created: 16.12.2010 10:30:31

mtllib world07_node07.mtl

#
# object world07_node07
#

v  -119.9168 -0.0100 45.0957
v  -171.8972 -0.0100 45.0957
v  -171.8972 -0.0100 9.4587
v  -119.9169 -0.0100 9.4587
# 4 vertices

vn 0.0000 -1.0000 -0.0000
# 1 vertex normals

vt 0.9982 0.1636 0.0000
vt 0.7546 0.1636 0.0000
vt 0.7546 -0.0034 0.0000
vt 0.9982 -0.0034 0.0000
# 4 texture coords

g world07_node07
usemtl world07_map02
s 1
f 1/1/1 2/2/1 3/3/1 
f 3/3/1 4/4/1 1/1/1 
# 2 faces

