# 3ds Max Wavefront OBJ Exporter v0.94b - (c)2007 guruware
# File Created: 16.12.2010 10:30:38

mtllib world07_node06.mtl

#
# object world07_node06
#

v  -91.1734 -0.0100 73.7743
v  -132.4842 -0.0100 73.7738
v  -132.4842 -0.0100 51.4625
v  -91.1734 -0.0100 51.4625
# 4 vertices

vn 0.0000 -1.0000 -0.0000
# 1 vertex normals

vt 0.7525 0.1292 0.0000
vt 0.5589 0.1292 0.0000
vt 0.5589 0.0247 0.0000
vt 0.7525 0.0247 0.0000
# 4 texture coords

g world07_node06
usemtl world07_map02
s 1
f 1/1/1 2/2/1 3/3/1 
f 3/3/1 4/4/1 1/1/1 
# 2 faces

