# 3ds Max Wavefront OBJ Exporter v0.94b - (c)2007 guruware
# File Created: 08.09.2011 09:53:02

mtllib world07_node09.mtl

#
# object world07_node09
#

v  39.3138 -0.0100 51.8297
v  39.3138 -0.0100 30.0335
v  80.3726 -0.0100 30.0335
v  80.3726 -0.0100 51.8302
# 4 vertices

vn 0.0000 -1.0000 -0.0000
# 1 vertex normals

vt 0.0053 0.1089 0.0000
vt 0.0053 0.0068 0.0000
vt 0.1977 0.0068 0.0000
vt 0.1977 0.1089 0.0000
# 4 texture coords

g world07_node09
usemtl world07_map02
s 1
f 1/1/1 2/2/1 3/3/1 
f 3/3/1 4/4/1 1/1/1 
# 2 faces

