# 3ds Max Wavefront OBJ Exporter v0.94b - (c)2007 guruware
# File Created: 08.08.2011 11:13:09

mtllib world07_road_02_alpha.mtl

#
# object world07_road_02_alpha
#

v  31.0049 0.0150 -35.6216
v  -56.7573 0.0150 -36.4006
v  -56.1982 0.0150 -55.3608
v  37.0175 0.0150 -55.0740
# 4 vertices

vn 0.0000 -1.0000 -0.0000
# 1 vertex normals

vt 1.0000 1.0000 0.0000
vt 0.5000 1.0000 0.0000
vt 0.5000 0.0000 0.0000
vt 1.0000 0.0000 0.0000
# 4 texture coords

g world07_road_02_alpha
usemtl alpha_gradient
s 1
f 1/1/1 2/2/1 3/3/1 
f 3/3/1 4/4/1 1/1/1 
# 2 faces

