# 3ds Max Wavefront OBJ Exporter v0.94b - (c)2007 guruware
# File Created: 10.08.2011 11:42:36

mtllib world07_details.mtl

#
# object world07_details
#

v  -67.0323 -2.5038 -103.9648
v  -67.0323 -2.5038 -43.5078
v  -143.0452 -2.5038 -43.5078
v  -143.0452 -2.5038 -103.9648
v  174.5175 -2.5038 -109.6802
v  174.5175 -2.5038 -15.5030
v  138.4973 -2.5038 -114.3161
v  -173.9139 -2.5038 -52.0786
v  -126.6534 -2.5038 30.0746
v  -183.7756 -2.5038 -39.2328
v  -3.7660 -2.5038 -124.2171
v  32.7566 -2.5038 -4.5006
v  -59.8273 -2.5038 -4.5006
v  -59.8273 -2.5038 -119.4881
v  32.7566 -2.5038 -124.2171
v  53.2853 -2.5038 -15.5030
v  53.2853 -2.5038 -114.3161
v  -183.7756 -2.5038 30.0746
v  -126.6534 -2.5038 -52.0786
# 19 vertices

vn 0.0000 -1.0000 -0.0000
vn -0.0000 -1.0000 -0.0000
# 2 vertex normals

vt 0.0083 0.1056 0.0000
vt 0.2916 0.1056 0.0000
vt 0.2916 0.4618 0.0000
vt 0.0083 0.4618 0.0000
vt 1.0019 0.5558 0.0000
vt 1.0019 0.9971 0.0000
vt 0.8332 0.5341 0.0000
vt 0.3355 0.0478 0.0000
vt 0.5569 0.4327 0.0000
vt 0.2893 0.1080 0.0000
vt 0.2627 0.4472 0.0000
vt 0.4338 1.0081 0.0000
vt 0.0000 1.0081 0.0000
vt 0.0000 0.4694 0.0000
vt 0.4338 0.4472 0.0000
vt 0.4339 0.9971 0.0000
vt 0.4339 0.5341 0.0000
vt 0.2893 0.4327 0.0000
vt 0.5569 0.0478 0.0000
# 19 texture coords

g world07_details
usemtl world07_map02
s 1
f 1/1/1 2/2/1 3/3/1 
f 3/3/1 4/4/1 1/1/1 
f 5/5/2 6/6/2 7/7/2 
f 8/8/1 9/9/1 10/10/1 
f 11/11/1 12/12/1 13/13/1 
f 13/13/1 14/14/1 11/11/1 
f 11/11/1 15/15/1 12/12/1 
f 16/16/1 17/17/1 7/7/2 
f 7/7/2 6/6/2 16/16/1 
f 9/9/1 18/18/1 10/10/1 
f 8/8/1 19/19/1 9/9/1 
# 11 faces

