# 3ds Max Wavefront OBJ Exporter v0.94b - (c)2007 guruware
# File Created: 08.09.2011 09:53:27

mtllib world07_node11.mtl

#
# object world07_node11
#

v  -81.9379 -0.0100 76.4006
v  -81.9379 -0.0100 54.4380
v  -40.9047 -0.0100 54.4380
v  -40.9047 -0.0100 76.4006
# 4 vertices

vn 0.0000 -1.0000 -0.0000
# 1 vertex normals

vt 0.7789 0.2653 0.0000
vt 0.7789 0.1624 0.0000
vt 0.9711 0.1624 0.0000
vt 0.9711 0.2653 0.0000
# 4 texture coords

g world07_node11
usemtl world07_map02
s 1
f 1/1/1 2/2/1 3/3/1 
f 3/3/1 4/4/1 1/1/1 
# 2 faces

