# 3ds Max Wavefront OBJ Exporter v0.94b - (c)2007 guruware
# File Created: 13.12.2010 11:52:54

mtllib world08_cathead.mtl

#
# object world08_cathead
#

v  -24.9558 -1.9000 -21.8979
v  73.3350 -1.9000 -21.8979
v  73.3350 -1.9000 52.4304
v  -24.9558 -1.9000 52.4304
# 4 vertices

vn -0.0000 -1.0000 -0.0000
# 1 vertex normals

vt 0.4670 0.4955 0.0000
vt 0.6977 0.4955 0.0000
vt 0.6977 0.6700 0.0000
vt 0.4670 0.6700 0.0000
# 4 texture coords

g world08_cathead
usemtl world06_map02
s 1
f 1/1/1 2/2/1 3/3/1 
f 3/3/1 4/4/1 1/1/1 
# 2 faces

