# 3ds Max Wavefront OBJ Exporter v0.94b - (c)2007 guruware
# File Created: 29.06.2011 10:01:53

mtllib world05_road_07.mtl

#
# object world05_road_07
#

v  28.7186 0.0150 14.7038
v  -56.3827 0.0150 -37.7122
v  -37.2059 0.0150 -55.6322
v  56.8971 0.0150 -1.1090
# 4 vertices

vn 0.0000 -1.0000 -0.0000
# 1 vertex normals

vt 0.5719 0.5552 0.0000
vt 0.3588 0.3584 0.0000
vt 0.4068 0.2911 0.0000
vt 0.6425 0.4958 0.0000
# 4 texture coords

g world05_road_07
usemtl world05_map03
s 1
f 1/1/1 2/2/1 3/3/1 
f 3/3/1 4/4/1 1/1/1 
# 2 faces

