# 3ds Max Wavefront OBJ Exporter v0.94b - (c)2007 guruware
# File Created: 15.03.2011 11:29:03

mtllib world05_grass10.mtl

#
# object world05_grass10
#

v  -89.1162 0.0050 -132.9776
v  3.2721 0.0050 -132.9776
v  3.2721 0.0050 -91.4701
v  -89.1162 0.0050 -91.4701
# 4 vertices

vn -0.0000 -1.0000 -0.0000
# 1 vertex normals

vt 0.5296 0.7156 0.0000
vt 0.7609 0.7156 0.0000
vt 0.7609 0.8715 0.0000
vt 0.5296 0.8715 0.0000
# 4 texture coords

g world05_grass10
usemtl world05_map03
s 1
f 1/1/1 2/2/1 3/3/1 
f 3/3/1 4/4/1 1/1/1 
# 2 faces

