# 3ds Max Wavefront OBJ Exporter v0.94b - (c)2007 guruware
# File Created: 01.03.2011 16:21:52

mtllib world05_node13.mtl

#
# object world05_node13
#

v  157.1030 -0.0100 -28.5514
v  200.0897 -0.0100 -28.5514
v  200.0897 -0.0100 -1.3024
v  157.1030 -0.0100 -1.3024
# 4 vertices

vn 0.0000 -1.0000 -0.0000
# 1 vertex normals

vt 0.6541 0.0015 0.0000
vt 0.7550 0.0015 0.0000
vt 0.7549 0.0651 0.0000
vt 0.6540 0.0650 0.0000
# 4 texture coords

g world05_node13
usemtl world05_map02
s 1
f 1/1/1 2/2/1 3/3/1 
f 3/3/1 4/4/1 1/1/1 
# 2 faces

