# 3ds Max Wavefront OBJ Exporter v0.94b - (c)2007 guruware
# File Created: 15.03.2011 10:05:55

mtllib world05_road01.mtl

#
# object world05_road_01
#

v  -183.4215 0.0150 -3.4180
v  -199.1434 0.0150 6.8248
v  -199.1434 0.0150 -28.0764
v  -184.1802 0.0150 -36.8017
v  -165.3859 0.0150 -28.6464
v  -120.7216 0.0150 1.0034
v  -144.8550 0.0150 19.2853
# 7 vertices

vn -0.0000 -1.0000 -0.0000
vn 0.0000 -1.0000 -0.0000
# 2 vertex normals

vt 0.0407 0.4872 0.0000
vt 0.0014 0.5256 0.0000
vt 0.0014 0.3946 0.0000
vt 0.0388 0.3618 0.0000
vt 0.0859 0.3924 0.0000
vt 0.1977 0.5038 0.0000
vt 0.1373 0.5724 0.0000
# 7 texture coords

g world05_road_01
usemtl world05_map03
s 1
f 1/1/1 2/2/2 3/3/2 
f 3/3/2 4/4/1 1/1/1 
f 1/1/1 5/5/1 6/6/1 
f 6/6/1 7/7/2 1/1/1 
f 1/1/1 4/4/1 5/5/1 
# 5 faces

