# 3ds Max Wavefront OBJ Exporter v0.94b - (c)2007 guruware
# File Created: 01.03.2011 16:36:44

mtllib world05_road_01_alpha.mtl

#
# object world05_road_01_alpha
#

v  -183.9693 0.0150 -3.4180
v  -199.6913 0.0150 6.8248
v  -199.6913 0.0150 -28.0764
v  -184.7281 0.0150 -36.8017
v  -165.3859 0.0150 -28.6464
v  -121.2694 0.0150 1.0034
v  -145.4029 0.0150 19.2853
v  -183.4488 0.0150 -3.1115
# 8 vertices

vn -0.0000 -1.0000 -0.0000
vn 0.0000 -1.0000 -0.0000
vn -0.0000 -1.0000 0.0000
# 3 vertex normals

vt 0.6097 1.0000 0.0000
vt 0.5000 1.0000 0.0000
vt 0.5000 0.0000 0.0000
vt 0.6096 0.0000 0.0000
vt 0.7381 0.0027 0.0000
vt 1.0000 0.0000 0.0000
vt 1.0000 1.0000 0.0000
vt 0.6150 1.0000 0.0000
# 8 texture coords

g world05_road_01_alpha
usemtl alpha_gradient
s 1
f 1/1/1 2/2/2 3/3/2 
f 3/3/2 4/4/1 1/1/1 
f 5/5/1 6/6/2 7/7/2 
f 7/7/2 8/8/3 5/5/1 
f 1/1/1 4/4/1 5/5/1 
f 5/5/1 8/8/3 1/1/1 
# 6 faces

