# 3ds Max Wavefront OBJ Exporter v0.94b - (c)2007 guruware
# File Created: 04.05.2011 14:29:12

mtllib world05_hiddenroad_48b_alpha.mtl

#
# object world05_hiddenroad_48b_alpha
#

v  -64.6029 -0.0200 -2.0053
v  -0.8426 -0.0200 28.5679
v  -11.6034 -0.0200 47.6673
v  -70.0127 -0.0200 20.9119
# 4 vertices

vn 0.0000 -1.0000 -0.0000
# 1 vertex normals

vt 0.5000 0.0000 0.0000
vt 1.0000 0.0000 0.0000
vt 1.0000 1.0000 0.0000
vt 0.5000 1.0000 0.0000
# 4 texture coords

g world05_hiddenroad_48b_alpha
usemtl alpha_gradient
s 1
f 1/1/1 2/2/1 3/3/1 
f 3/3/1 4/4/1 1/1/1 
# 2 faces

