# 3ds Max Wavefront OBJ Exporter v0.94b - (c)2007 guruware
# File Created: 29.06.2011 14:50:25

mtllib world05_grass11.mtl

#
# object world05_grass11
#

v  127.3728 0.0050 -62.5736
v  53.9668 0.0050 -134.4487
v  200.7788 0.0050 -118.0188
v  200.7788 0.0050 -134.4487
v  53.9668 0.0050 -62.5736
# 5 vertices

vn 0.0000 -1.0000 -0.0000
# 1 vertex normals

vt 0.8232 0.2987 0.0000
vt 0.6509 0.1300 0.0000
vt 0.9956 0.1686 0.0000
vt 0.9956 0.1300 0.0000
vt 0.6509 0.2987 0.0000
# 5 texture coords

g world05_grass11
usemtl world05_map02
s 1
f 1/1/1 2/2/1 3/3/1 
f 2/2/1 4/4/1 3/3/1 
f 1/1/1 5/5/1 2/2/1 
# 3 faces

