# 3ds Max Wavefront OBJ Exporter v0.94b - (c)2007 guruware
# File Created: 01.03.2011 16:23:42

mtllib world05_node02.mtl

#
# object world05_node02
#

v  -99.4093 -0.0100 26.4331
v  -57.1768 -0.0100 26.4331
v  -57.1768 -0.0100 53.6932
v  -99.4092 -0.0100 53.6932
# 4 vertices

vn -0.0000 -1.0000 -0.0000
vn 0.0000 -1.0000 -0.0000
# 2 vertex normals

vt 0.2837 0.1004 0.0000
vt 0.3828 0.1004 0.0000
vt 0.3828 0.1644 0.0000
vt 0.2837 0.1644 0.0000
# 4 texture coords

g world05_node02
usemtl world05_map02
s 1
f 1/1/1 2/2/2 3/3/1 
f 3/3/1 4/4/1 1/1/1 
# 2 faces

