# 3ds Max Wavefront OBJ Exporter v0.94b - (c)2007 guruware
# File Created: 01.03.2011 10:02:01

mtllib world05_building05.mtl

#
# object world05_building05
#

v  -40.8905 -0.2000 -24.0695
v  34.8760 -0.2000 -24.0695
v  34.8760 -0.2000 24.0695
v  -45.9105 -0.2000 24.0695
# 4 vertices

vn 0.0000 -1.0000 -0.0000
# 1 vertex normals

vt 0.8226 0.5470 0.0000
vt 1.0004 0.5470 0.0000
vt 1.0004 0.6600 0.0000
vt 0.8108 0.6600 0.0000
# 4 texture coords

g world05_building05
usemtl world05_map02
s 1
f 1/1/1 2/2/1 3/3/1 
f 3/3/1 4/4/1 1/1/1 
# 2 faces

