# 3ds Max Wavefront OBJ Exporter v0.94b - (c)2007 guruware
# File Created: 29.06.2011 14:20:19

mtllib world05_node08.mtl

#
# object world05_node08
#

v  -121.8093 -0.0100 -94.5831
v  -70.0568 -0.0100 -94.8020
v  -70.0568 -0.0100 -66.2820
v  -121.8093 -0.0100 -66.2820
# 4 vertices

vn -0.0000 -1.0000 -0.0000
# 1 vertex normals

vt 0.4599 0.0163 0.0000
vt 0.5814 0.0163 0.0000
vt 0.5814 0.0830 0.0000
vt 0.4599 0.0830 0.0000
# 4 texture coords

g world05_node08
usemtl world05_map02
s 1
f 1/1/1 2/2/1 3/3/1 
f 3/3/1 4/4/1 1/1/1 
# 2 faces

