# 3ds Max Wavefront OBJ Exporter v0.94b - (c)2007 guruware
# File Created: 15.03.2011 11:56:40

mtllib world05_grass01.mtl

#
# object world05_grass01
#

v  -199.9325 0.0050 37.0001
v  -118.1033 0.0050 37.0001
v  -142.4949 0.0050 55.4015
v  -199.9325 0.0050 55.4015
v  -199.9325 0.0050 -2.2636
v  -118.1033 0.0050 -2.2636
# 6 vertices

vn 0.0000 -1.0000 -0.0000
# 1 vertex normals

vt 0.0009 0.3623 0.0000
vt 0.1930 0.3623 0.0000
vt 0.1357 0.4055 0.0000
vt 0.0009 0.4055 0.0000
vt 0.0009 0.2702 0.0000
vt 0.1930 0.2702 0.0000
# 6 texture coords

g world05_grass01
usemtl world05_map02
s 1
f 1/1/1 2/2/1 3/3/1 
f 3/3/1 4/4/1 1/1/1 
f 5/5/1 6/6/1 2/2/1 
f 2/2/1 1/1/1 5/5/1 
# 4 faces

