# 3ds Max Wavefront OBJ Exporter v0.94b - (c)2007 guruware
# File Created: 15.03.2011 11:50:53

mtllib world05_node07.mtl

#
# object world05_node07
#

v  -66.6755 -0.0100 -32.0994
v  -66.6755 -0.0100 -59.5880
v  -24.2409 -0.0100 -32.0435
v  -24.3693 -0.0100 -59.5880
# 4 vertices

vn 0.0000 -1.0000 -0.0000
vn -0.0000 -1.0000 -0.0000
# 2 vertex normals

vt 0.3590 0.0910 0.0000
vt 0.3590 0.0260 0.0000
vt 0.4580 0.0910 0.0000
vt 0.4580 0.0260 0.0000
# 4 texture coords

g world05_node07
usemtl world05_map02
s 1
f 1/1/1 2/2/1 3/3/1 
f 2/2/1 4/4/2 3/3/1 
# 2 faces

