# 3ds Max Wavefront OBJ Exporter v0.94b - (c)2007 guruware
# File Created: 15.03.2011 11:47:45

mtllib world05_node12.mtl

#
# object world05_node12
#

v  114.6380 -0.0100 -28.8098
v  112.9828 -0.0100 -53.3291
v  154.6531 -0.0100 -29.3353
v  155.5228 -0.0100 -56.3559
# 4 vertices

vn -0.0000 -1.0000 -0.0000
# 1 vertex normals

vt 0.6560 0.1299 0.0000
vt 0.6535 0.0718 0.0000
vt 0.7513 0.1286 0.0000
vt 0.7534 0.0657 0.0000
# 4 texture coords

g world05_node12
usemtl world05_map02
s 1
f 1/1/1 2/2/1 3/3/1 
f 2/2/1 4/4/1 3/3/1 
# 2 faces

