# 3ds Max Wavefront OBJ Exporter v0.94b - (c)2007 guruware
# File Created: 29.06.2011 15:01:56

mtllib world05_node14.mtl

#
# object world05_node14
#

v  -99.9067 -0.0100 -4.4343
v  -55.9640 -0.0100 -4.4343
v  -55.9640 -0.0100 22.9305
v  -99.9067 -0.0100 22.9305
# 4 vertices

vn 0.0000 -1.0000 -0.0000
# 1 vertex normals

vt 0.8020 0.4092 0.0000
vt 0.8020 0.3061 0.0000
vt 0.8658 0.3061 0.0000
vt 0.8658 0.4093 0.0000
# 4 texture coords

g world05_node14
usemtl world05_map02
s 1
f 1/1/1 2/2/1 3/3/1 
f 3/3/1 4/4/1 1/1/1 
# 2 faces

