# 3ds Max Wavefront OBJ Exporter v0.94b - (c)2007 guruware
# File Created: 29.06.2011 11:22:13

mtllib world05_hiddenroad_50.mtl

#
# object world05_hiddenroad_50
#

v  152.9714 -0.0200 30.0392
v  152.7889 -0.0200 52.5265
v  147.3025 -0.0200 52.5267
v  141.6022 -0.0200 30.0392
v  107.4675 -0.0200 50.7830
v  108.6747 -0.0200 33.0786
v  135.1642 -0.0200 33.1457
v  140.5963 -0.0200 50.7830
# 8 vertices

vn 0.0000 -1.0000 -0.0000
vn -0.0000 -1.0000 -0.0000
# 2 vertex normals

vt 0.9975 0.6605 0.0000
vt 0.9970 0.7450 0.0000
vt 0.9833 0.7450 0.0000
vt 0.9690 0.6605 0.0000
vt 0.8836 0.7384 0.0000
vt 0.8866 0.6719 0.0000
vt 0.9529 0.6722 0.0000
vt 0.9665 0.7384 0.0000
# 8 texture coords

g world05_hiddenroad_50
usemtl world05_map03
s 1
f 1/1/1 2/2/1 3/3/2 
f 3/3/2 4/4/2 1/1/1 
f 5/5/1 6/6/1 7/7/2 
f 7/7/2 8/8/2 5/5/1 
f 8/8/2 7/7/2 4/4/2 
f 4/4/2 3/3/2 8/8/2 
# 6 faces

