# 3ds Max Wavefront OBJ Exporter v0.94b - (c)2007 guruware
# File Created: 15.03.2011 13:26:45

mtllib world05_hiddenroad_48_alpha.mtl

#
# object world05_hiddenroad_48_alpha
#

v  -88.8918 -0.0200 44.3544
v  -88.9644 -0.0200 7.7381
v  -68.1758 -0.0200 15.8864
v  -68.1772 -0.0200 44.3544
# 4 vertices

vn 0.0000 -1.0000 -0.0000
# 1 vertex normals

vt 0.5000 0.0000 0.0000
vt 1.0000 0.0000 0.0000
vt 1.0000 1.0000 0.0000
vt 0.5000 1.0000 0.0000
# 4 texture coords

g world05_hiddenroad_48_alpha
usemtl alpha_gradient
s 1
f 1/1/1 2/2/1 3/3/1 
f 3/3/1 4/4/1 1/1/1 
# 2 faces

