# 3ds Max Wavefront OBJ Exporter v0.94b - (c)2007 guruware
# File Created: 04.05.2011 14:29:59

mtllib world05_node09.mtl

#
# object world05_node09
#

v  -171.4154 -0.0100 -120.9639
v  -128.9620 -0.0100 -120.9639
v  -128.9620 -0.0100 -93.7042
v  -171.4153 -0.0100 -93.7042
# 4 vertices

vn 0.0000 -1.0000 -0.0000
vn -0.0000 -1.0000 -0.0000
# 2 vertex normals

vt 0.9344 0.2168 0.0000
vt 0.9344 0.3164 0.0000
vt 0.9985 0.3164 0.0000
vt 0.9984 0.2168 0.0000
# 4 texture coords

g world05_node09
usemtl world05_map02
s 1
f 1/1/1 2/2/1 3/3/1 
f 3/3/1 4/4/2 1/1/1 
# 2 faces

