# 3ds Max Wavefront OBJ Exporter v0.94b - (c)2007 guruware
# File Created: 04.05.2011 14:33:32

mtllib world05_hiddenroad_787_alpha.mtl

#
# object world05_hiddenroad_787_alpha
#

v  -61.6400 -0.5778 -27.5130
v  -102.6752 -0.5778 -20.1075
v  -102.6752 -0.5778 -32.2542
v  -61.6399 -0.5778 -39.7373
# 4 vertices

vn 0.0000 -1.0000 0.0000
# 1 vertex normals

vt 0.5000 1.0000 0.0000
vt 1.0000 1.0000 0.0000
vt 1.0000 0.0000 0.0000
vt 0.5000 0.0000 0.0000
# 4 texture coords

g world05_hiddenroad_787_alpha
usemtl alpha_gradient
s 1
f 1/1/1 2/2/1 3/3/1 
f 3/3/1 4/4/1 1/1/1 
# 2 faces

