# 3ds Max Wavefront OBJ Exporter v0.94b - (c)2007 guruware
# File Created: 29.06.2011 10:00:36

mtllib world05_road_06_alpha.mtl

#
# object world05_road_06_alpha
#

v  75.5826 0.0150 42.9341
v  28.7186 0.0150 14.7038
v  56.8971 0.0150 -1.1090
v  112.1438 0.0150 30.9009
# 4 vertices

vn 0.0000 -1.0000 -0.0000
# 1 vertex normals

vt 0.5000 0.0000 0.0000
vt 1.0000 0.0000 0.0000
vt 1.0000 1.0000 0.0000
vt 0.5000 1.0000 0.0000
# 4 texture coords

g world05_road_06_alpha
usemtl alpha_gradient
s 1
f 1/1/1 2/2/1 3/3/1 
f 3/3/1 4/4/1 1/1/1 
# 2 faces

