# 3ds Max Wavefront OBJ Exporter v0.94b - (c)2007 guruware
# File Created: 15.03.2011 13:40:28

mtllib world05_road_04.mtl

#
# object world05_road_04
#

v  33.7838 0.0150 27.3998
v  35.0983 0.0150 53.5500
v  -9.3764 0.0150 53.3348
v  -9.1372 0.0150 27.2538
v  52.2181 0.0150 32.6017
v  89.8850 0.0150 32.7798
v  90.9181 0.0150 53.8201
# 7 vertices

vn -0.0000 -1.0000 -0.0000
vn 0.0000 -1.0000 -0.0000
# 2 vertex normals

vt 0.5846 0.6029 0.0000
vt 0.5879 0.7011 0.0000
vt 0.4765 0.7003 0.0000
vt 0.4771 0.6024 0.0000
vt 0.6308 0.6223 0.0000
vt 0.7251 0.6231 0.0000
vt 0.7276 0.7021 0.0000
# 7 texture coords

g world05_road_04
usemtl world05_map03
s 1
f 1/1/1 2/2/1 3/3/1 
f 3/3/1 4/4/2 1/1/1 
f 1/1/1 5/5/1 2/2/1 
f 5/5/1 6/6/1 7/7/1 
f 7/7/1 2/2/1 5/5/1 
# 5 faces

