# 3ds Max Wavefront OBJ Exporter v0.94b - (c)2007 guruware
# File Created: 01.03.2011 13:48:56

mtllib world05_grass04.mtl

#
# object world05_grass04
#

v  40.4297 0.0050 50.0853
v  141.7408 0.0050 50.0853
v  141.7408 0.0050 102.1430
v  40.4297 0.0050 102.1430
# 4 vertices

vn -0.0000 -1.0000 -0.0000
vn 0.0000 -1.0000 -0.0000
# 2 vertex normals

vt 0.7569 0.0019 0.0000
vt 0.9947 0.0019 0.0000
vt 0.9947 0.1241 0.0000
vt 0.7569 0.1241 0.0000
# 4 texture coords

g world05_grass04
usemtl world05_map02
s 1
f 1/1/1 2/2/2 3/3/1 
f 3/3/1 4/4/1 1/1/1 
# 2 faces

