# 3ds Max Wavefront OBJ Exporter v0.94b - (c)2007 guruware
# File Created: 29.06.2011 14:51:30

mtllib world05_background_details.mtl

#
# object world05_background_details
#

v  0.6322 -0.2692 -146.4039
v  107.2727 -0.2692 -146.4039
v  107.2727 -0.2692 -95.7896
v  0.6322 -0.2692 -95.7896
v  92.7545 -0.2692 -51.7350
v  105.6258 -0.2692 -51.7351
v  105.6258 -0.2692 -36.0089
v  92.7545 -0.2692 -36.0089
v  -153.6076 -0.2692 46.9204
v  -138.2851 -0.2692 46.9204
v  -138.2851 -0.2692 64.7468
v  -153.6076 -0.2692 64.7468
v  -148.3549 -0.2692 20.0380
v  -119.3286 -0.2692 20.0380
v  -116.9369 -0.2692 44.4074
v  -148.3549 -0.2692 44.4074
v  -190.4510 -0.2692 -3.4479
v  -174.4460 -0.2692 -3.4479
v  -174.4460 -0.2692 21.1597
v  -190.4510 -0.2692 21.1597
v  30.5091 -0.2692 50.7365
v  46.3122 -0.2692 50.7365
v  46.3122 -0.2692 75.2852
v  30.5091 -0.2692 75.2852
v  -225.8010 -0.2692 -69.1927
v  -170.5616 -0.2692 -69.1927
v  -170.5616 -0.2692 -23.2212
v  -225.8010 -0.2692 -23.2212
v  -58.7642 -0.2692 50.7365
v  -42.9610 -0.2692 50.7365
v  -42.9610 -0.2692 75.2852
v  -58.7642 -0.2692 75.2852
v  101.4907 -0.2692 -37.1635
v  130.5076 -0.2692 -37.1635
v  132.1718 -0.2692 -14.1519
v  101.4907 -0.2692 -14.1518
v  -96.5793 -0.2692 -59.6002
v  -80.5743 -0.2692 -59.6002
v  -80.5743 -0.2692 -34.9927
v  -96.5793 -0.2692 -34.9927
v  55.5075 -0.2692 -71.0732
v  71.5125 -0.2692 -71.0732
v  71.5125 -0.2692 -43.9442
v  55.5075 -0.2692 -43.9442
v  140.2324 -0.2692 -20.0199
v  156.2374 -0.2692 -20.0199
v  156.2374 -0.2692 4.5876
v  140.2324 -0.2692 4.5876
v  -32.0204 -0.2692 47.9023
v  -19.1492 -0.2692 47.9022
v  -19.1492 -0.2692 63.6283
v  -32.0204 -0.2692 63.6283
v  -168.9756 -0.2692 -0.0861
v  -156.1044 -0.2692 -0.0862
v  -156.1044 -0.2692 15.6400
v  -168.9756 -0.2692 15.6400
v  -108.4874 -0.2692 -69.2149
v  -95.6162 -0.2692 -69.2149
v  -95.6162 -0.2692 -53.4888
v  -108.4874 -0.2692 -53.4888
# 60 vertices

vn -0.0000 -1.0000 -0.0000
vn 0.0000 -1.0000 -0.0000
# 2 vertex normals

vt 0.7513 0.4084 0.0000
vt 0.7777 0.4084 0.0000
vt 0.7777 0.5272 0.0000
vt 0.7513 0.5272 0.0000
vt 0.5088 0.7560 0.0000
vt 0.5390 0.7560 0.0000
vt 0.5390 0.7929 0.0000
vt 0.5088 0.7929 0.0000
vt 0.1104 0.5305 0.0000
vt 0.1464 0.5305 0.0000
vt 0.1464 0.5723 0.0000
vt 0.1104 0.5723 0.0000
vt 0.6242 0.5319 0.0000
vt 0.6923 0.5319 0.0000
vt 0.6979 0.5891 0.0000
vt 0.6242 0.5891 0.0000
vt 0.5848 0.5317 0.0000
vt 0.6223 0.5317 0.0000
vt 0.6223 0.5895 0.0000
vt 0.5848 0.5895 0.0000
vt 0.5478 0.5318 0.0000
vt 0.5849 0.5318 0.0000
vt 0.5849 0.5895 0.0000
vt 0.5478 0.5895 0.0000
vt 0.0012 0.4067 0.0000
vt 0.1309 0.4067 0.0000
vt 0.1309 0.5146 0.0000
vt 0.0012 0.5146 0.0000
vt 0.6242 0.5350 0.0000
vt 0.6923 0.5350 0.0000
vt 0.6962 0.5891 0.0000
vt 0.5848 0.5258 0.0000
vt 0.6223 0.5258 0.0000
# 33 texture coords

g world05_background_details
usemtl world05_map02
s 1
f 1/1/1 2/2/2 3/3/1 
f 3/3/1 4/4/1 1/1/1 
f 5/5/1 6/6/2 7/7/1 
f 7/7/1 8/8/1 5/5/1 
f 9/9/1 10/10/1 11/11/1 
f 11/11/1 12/12/2 9/9/1 
f 13/13/2 14/14/2 15/15/2 
f 15/15/2 16/16/2 13/13/2 
f 17/17/2 18/18/2 19/19/2 
f 19/19/2 20/20/2 17/17/2 
f 21/21/2 22/22/2 23/23/2 
f 23/23/2 24/24/2 21/21/2 
f 25/25/2 26/26/2 27/27/2 
f 27/27/2 28/28/2 25/25/2 
f 29/21/2 30/22/2 31/23/2 
f 31/23/2 32/24/2 29/21/2 
f 33/29/2 34/30/2 35/31/2 
f 35/31/2 36/16/1 33/29/2 
f 37/17/2 38/18/2 39/19/2 
f 39/19/2 40/20/2 37/17/2 
f 41/32/2 42/33/2 43/19/2 
f 43/19/2 44/20/2 41/32/2 
f 45/17/2 46/18/2 47/19/2 
f 47/19/2 48/20/2 45/17/2 
f 49/5/2 50/6/2 51/7/2 
f 51/7/2 52/8/1 49/5/2 
f 53/5/2 54/6/2 55/7/2 
f 55/7/2 56/8/2 53/5/2 
f 57/5/2 58/6/2 59/7/1 
f 59/7/1 60/8/1 57/5/2 
# 30 faces

