# 3ds Max Wavefront OBJ Exporter v0.94b - (c)2007 guruware
# File Created: 15.03.2011 10:42:59

mtllib world05_node05.mtl

#
# object world05_node05
#

v  128.6658 -0.0100 27.3365
v  171.4338 -0.0100 27.3365
v  171.4338 -0.0100 55.6308
v  128.6660 -0.0100 55.6308
# 4 vertices

vn -0.0000 -1.0000 -0.0000
# 1 vertex normals

vt 0.8012 0.4078 0.0000
vt 0.8012 0.3074 0.0000
vt 0.8676 0.3074 0.0000
vt 0.8676 0.4078 0.0000
# 4 texture coords

g world05_node05
usemtl world05_map02
s 1
f 1/1/1 2/2/1 3/3/1 
f 3/3/1 4/4/1 1/1/1 
# 2 faces

