# 3ds Max Wavefront OBJ Exporter v0.94b - (c)2007 guruware
# File Created: 29.06.2011 14:33:58

mtllib world05_node11.mtl

#
# object world05_node11
#

v  67.5410 -0.0100 -82.0363
v  109.6618 -0.0100 -82.0363
v  109.6619 -0.0100 -54.8677
v  67.5411 -0.0100 -54.8676
# 4 vertices

vn 0.0000 -1.0000 -0.0000
vn -0.0000 -1.0000 -0.0000
# 2 vertex normals

vt 0.6494 0.0486 0.0000
vt 0.6494 0.1475 0.0000
vt 0.5854 0.1475 0.0000
vt 0.5854 0.0486 0.0000
# 4 texture coords

g world05_node11
usemtl world05_map02
s 1
f 1/1/1 2/2/1 3/3/1 
f 3/3/1 4/4/2 1/1/1 
# 2 faces

