# 3ds Max Wavefront OBJ Exporter v0.94b - (c)2007 guruware
# File Created: 29.06.2011 17:08:15

mtllib world05_road_09b.mtl

#
# object world05_road_09b
#

v  -120.3457 -0.1000 -75.5015
v  -135.7222 -0.1000 -84.7606
v  -121.0881 -0.1000 -102.8912
v  -102.8363 -0.1000 -91.6654
v  -151.0987 -0.1000 -94.2917
v  -139.3399 -0.1000 -114.1171
# 6 vertices

vn 0.0000 -1.0000 -0.0000
# 1 vertex normals

vt 0.7355 0.1596 0.0000
vt 0.6970 0.1236 0.0000
vt 0.7337 0.0567 0.0000
vt 0.7794 0.0989 0.0000
vt 0.6585 0.0876 0.0000
vt 0.6880 0.0145 0.0000
# 6 texture coords

g world05_road_09b
usemtl world05_map03
s 1
f 1/1/1 2/2/1 3/3/1 
f 3/3/1 4/4/1 1/1/1 
f 2/2/1 5/5/1 3/3/1 
f 5/5/1 6/6/1 3/3/1 
# 4 faces

