# 3ds Max Wavefront OBJ Exporter v0.94b - (c)2007 guruware
# File Created: 04.05.2011 13:31:08

mtllib world03_road_06.mtl

#
# object world03_road_06
#

v  -25.8484 0.0150 55.5882
v  88.4899 0.0150 56.2569
v  88.2277 0.0150 80.6947
v  -28.0134 0.0150 81.0864
# 4 vertices

vn 0.0000 -1.0000 -0.0000
# 1 vertex normals

vt 0.4353 0.7088 0.0000
vt 0.7216 0.7113 0.0000
vt 0.7209 0.8031 0.0000
vt 0.4299 0.8045 0.0000
# 4 texture coords

g world03_road_06
usemtl world01_map03
s 1
f 1/1/1 2/2/1 3/3/1 
f 3/3/1 4/4/1 1/1/1 
# 2 faces

