# 3ds Max Wavefront OBJ Exporter v0.94b - (c)2007 guruware
# File Created: 08.12.2010 15:51:08

mtllib world03_building06.mtl

#
# object world03_building06
#

v  -44.6157 0.0000 -29.9569
v  44.6157 0.0000 -29.9570
v  44.6157 -0.0000 29.9569
v  -44.6157 -0.0000 29.9569
# 4 vertices

vn -0.0000 -1.0000 -0.0000
vn 0.0000 -1.0000 -0.0000
# 2 vertex normals

vt 0.4621 0.7022 0.0000
vt 0.6715 0.7022 0.0000
vt 0.6715 0.8429 0.0000
vt 0.4621 0.8429 0.0000
# 4 texture coords

g world03_building06
usemtl world01_map02
s 1
f 1/1/1 2/2/1 3/3/1 
f 3/3/1 4/4/2 1/1/1 
# 2 faces

