# 3ds Max Wavefront OBJ Exporter v0.94b - (c)2007 guruware
# File Created: 01.03.2011 13:49:33

mtllib world03_building03.mtl

#
# object world03_building03
#

v  -40.7819 -0.2000 29.2263
v  -40.7819 -0.2000 -9.4431
v  4.9169 -0.2000 29.2263
v  -4.7915 -0.2000 -36.1865
v  35.8168 -0.2000 -12.2984
# 5 vertices

vn 0.0000 -1.0000 -0.0000
# 1 vertex normals

vt 0.6434 1.0000 0.0000
vt 0.6434 0.9092 0.0000
vt 0.7507 1.0000 0.0000
vt 0.7279 0.8464 0.0000
vt 0.8232 0.9025 0.0000
# 5 texture coords

g world03_building03
usemtl world01_map02
s 1
f 1/1/1 2/2/1 3/3/1 
f 4/4/1 5/5/1 3/3/1 
f 3/3/1 2/2/1 4/4/1 
# 3 faces

