# 3ds Max Wavefront OBJ Exporter v0.94b - (c)2007 guruware
# File Created: 02.12.2010 16:28:59

mtllib world03_road_06_alpha.mtl

#
# object world03_road_06_alpha
#

v  88.1798 0.0150 85.1617
v  -28.5352 0.0150 87.2324
v  -25.8484 0.0150 55.5882
v  88.4899 0.0150 56.2569
# 4 vertices

vn 0.0000 -1.0000 -0.0000
# 1 vertex normals

vt 1.0000 1.0000 0.0000
vt 0.5000 1.0000 0.0000
vt 0.5000 0.0000 0.0000
vt 1.0000 0.0000 0.0000
# 4 texture coords

g world03_road_06_alpha
usemtl alpha_gradient
s 1
f 1/1/1 2/2/1 3/3/1 
f 3/3/1 4/4/1 1/1/1 
# 2 faces

