# 3ds Max Wavefront OBJ Exporter v0.94b - (c)2007 guruware
# File Created: 09.12.2010 13:31:58

mtllib world03_hiddenroad_334_alpha.mtl

#
# object world03_hiddenroad_334_alpha
#

v  123.5211 -0.0200 -22.4038
v  58.5240 -0.0200 -60.2801
v  73.4088 -0.0200 -74.0536
v  142.8170 -0.0200 -32.8564
v  -49.5643 -0.0200 -51.7333
v  -49.5209 -0.0200 -84.7088
v  71.0540 -0.0200 -84.2726
v  71.2045 -0.0200 -51.8823
# 8 vertices

vn 0.0000 -1.0000 -0.0000
vn -0.0000 -1.0000 -0.0000
# 2 vertex normals

vt 1.0000 1.0000 0.0000
vt 0.5000 1.0000 0.0000
vt 0.5000 0.0000 0.0000
vt 1.0000 0.0000 0.0000
# 4 texture coords

g world03_hiddenroad_334_alpha
usemtl alpha_gradient
s 1
f 1/1/1 2/2/2 3/3/2 
f 3/3/2 4/4/1 1/1/1 
f 5/1/1 6/4/1 7/3/2 
f 7/3/2 8/2/2 5/1/1 
# 4 faces

