# 3ds Max Wavefront OBJ Exporter v0.94b - (c)2007 guruware
# File Created: 01.03.2011 14:39:46

mtllib world03_grass10.mtl

#
# object world03_grass10
#

v  125.2558 0.0050 -94.0896
v  212.8325 0.0050 -128.4358
v  212.8353 0.0050 -69.9718
v  150.0947 0.0050 -63.4432
# 4 vertices

vn 0.0000 -1.0000 -0.0000
# 1 vertex normals

vt 0.7702 0.1168 0.0000
vt 0.9758 0.0361 0.0000
vt 0.9758 0.1734 0.0000
vt 0.8285 0.1887 0.0000
# 4 texture coords

g world03_grass10
usemtl world01_map02
s 1
f 1/1/1 2/2/1 3/3/1 
f 3/3/1 4/4/1 1/1/1 
# 2 faces

