# 3ds Max Wavefront OBJ Exporter v0.94b - (c)2007 guruware
# File Created: 22.12.2010 11:55:36

mtllib world03_building02.mtl

#
# object world03_building02
#

v  -43.2304 -0.2000 -35.1779
v  43.2304 -0.2000 -35.1779
v  43.2304 -0.2000 35.1780
v  -43.2304 -0.2000 35.1780
# 4 vertices

vn 0.0000 -1.0000 -0.0000
vn -0.0000 -1.0000 -0.0000
# 2 vertex normals

vt 0.4410 0.8426 0.0000
vt 0.6440 0.8426 0.0000
vt 0.6440 1.0077 0.0000
vt 0.4410 1.0078 0.0000
# 4 texture coords

g world03_building02
usemtl world01_map02
s 1
f 1/1/1 2/2/1 3/3/1 
f 3/3/1 4/4/2 1/1/1 
# 2 faces

