# 3ds Max Wavefront OBJ Exporter v0.94b - (c)2007 guruware
# File Created: 01.03.2011 11:20:35

mtllib world03_grass04.mtl

#
# object world03_grass04
#

v  -123.1669 0.0050 16.8739
v  -38.0101 0.0050 65.0546
v  -100.5076 0.0050 93.5641
v  -172.7498 0.0050 57.0036
# 4 vertices

vn 0.0000 -1.0000 -0.0000
# 1 vertex normals

vt 0.5457 0.4579 0.0000
vt 0.7456 0.5710 0.0000
vt 0.5989 0.6379 0.0000
vt 0.4293 0.5521 0.0000
# 4 texture coords

g world03_grass04
usemtl world01_map02
s 1
f 1/1/1 2/2/1 3/3/1 
f 3/3/1 4/4/1 1/1/1 
# 2 faces

