# 3ds Max Wavefront OBJ Exporter v0.94b - (c)2007 guruware
# File Created: 08.12.2010 15:52:20

mtllib world03_building08b.mtl

#
# object world03_building08b
#

v  -37.5433 0.0000 -34.5427
v  37.5433 0.0000 -34.5427
v  37.5432 -0.0000 34.5427
v  -37.5433 -0.0000 34.5427
# 4 vertices

vn 0.0000 -1.0000 -0.0000
# 1 vertex normals

vt 0.8232 0.8372 0.0000
vt 0.9995 0.8372 0.0000
vt 0.9995 0.9993 0.0000
vt 0.8232 0.9993 0.0000
# 4 texture coords

g world03_building08b
usemtl world01_map02
s 1
f 1/1/1 2/2/1 3/3/1 
f 3/3/1 4/4/1 1/1/1 
# 2 faces

