# 3ds Max Wavefront OBJ Exporter v0.94b - (c)2007 guruware
# File Created: 02.12.2010 16:29:30

mtllib world03_road_09_alpha.mtl

#
# object world03_road_09_alpha
#

v  97.7430 0.0150 0.9573
v  47.5900 0.0150 2.7484
v  119.1922 0.0150 -41.6889
v  136.3418 0.0150 -20.6777
# 4 vertices

vn 0.0000 -1.0000 -0.0000
# 1 vertex normals

vt 0.5000 1.0000 0.0000
vt 0.5000 0.0000 0.0000
vt 1.0000 0.0000 0.0000
vt 1.0000 1.0000 0.0000
# 4 texture coords

g world03_road_09_alpha
usemtl alpha_gradient
s 1
f 1/1/1 2/2/1 3/3/1 
f 3/3/1 4/4/1 1/1/1 
# 2 faces

