# 3ds Max Wavefront OBJ Exporter v0.94b - (c)2007 guruware
# File Created: 10.08.2010 13:02:03

mtllib world03_building08_origin.mtl

#
# object world03_building08
#

v  25.2294 -0.2000 6.4057
v  107.4244 -0.2000 6.4057
v  107.4243 -0.2000 71.3024
v  25.2294 -0.2000 71.3024
# 4 vertices

vn 0.0000 -1.0000 -0.0000
# 1 vertex normals

vt 0.6721 0.6856 0.0000
vt 0.8650 0.6856 0.0000
vt 0.8650 0.8379 0.0000
vt 0.6721 0.8379 0.0000
# 4 texture coords

g world03_building08
usemtl world01_map02
s 1
f 1/1/1 2/2/1 3/3/1 
f 3/3/1 4/4/1 1/1/1 
# 2 faces

