# 3ds Max Wavefront OBJ Exporter v0.94b - (c)2007 guruware
# File Created: 01.03.2011 14:44:00

mtllib world03_building09.mtl

#
# object world03_building09
#

v  -36.6166 -0.2000 -15.1028
v  16.3295 -0.2000 -15.1028
v  16.3295 -0.2000 49.9105
v  -36.6166 -0.2000 49.9105
# 4 vertices

vn 0.0000 -1.0000 -0.0000
# 1 vertex normals

vt 0.8626 0.6522 0.0000
vt 0.9869 0.6522 0.0000
vt 0.9869 0.8048 0.0000
vt 0.8626 0.8048 0.0000
# 4 texture coords

g world03_building09
usemtl world01_map02
s 1
f 1/1/1 2/2/1 3/3/1 
f 3/3/1 4/4/1 1/1/1 
# 2 faces

