# 3ds Max Wavefront OBJ Exporter v0.94b - (c)2007 guruware
# File Created: 01.03.2011 10:20:40

mtllib world03_road_10_alpha.mtl

#
# object world03_road_10_alpha
#

v  199.6913 0.0150 -81.7355
v  199.6913 0.0150 -51.1362
v  191.4814 0.0150 -51.5840
v  183.7197 0.0150 -81.7356
v  136.3418 0.0150 -20.6777
v  119.1922 0.0150 -41.6889
v  212.9849 0.0150 -81.7355
v  212.9849 0.0150 -51.1362
# 8 vertices

vn 0.0000 -1.0000 -0.0000
vn -0.0000 -1.0000 -0.0000
# 2 vertex normals

vt 0.9232 0.0000 0.0000
vt 0.9232 1.0000 0.0000
vt 0.8465 1.0000 0.0000
vt 0.8465 0.0000 0.0000
vt 0.4965 1.0000 0.0000
vt 0.4965 0.0000 0.0000
vt 1.0000 0.0000 0.0000
vt 1.0000 1.0000 0.0000
# 8 texture coords

g world03_road_10_alpha
usemtl alpha_gradient
s 1
f 1/1/1 2/2/2 3/3/1 
f 3/3/1 4/4/1 1/1/1 
f 3/3/1 5/5/1 6/6/1 
f 6/6/1 4/4/1 3/3/1 
f 7/7/2 8/8/2 2/2/2 
f 2/2/2 1/1/1 7/7/2 
# 6 faces

