# 3ds Max Wavefront OBJ Exporter v0.94b - (c)2007 guruware
# File Created: 04.05.2011 13:20:44

mtllib world03_hiddenroad_32_alpha.mtl

#
# object world03_hiddenroad_32_alpha
#

v  -51.7655 -0.0200 11.5502
v  -51.7220 -0.0200 -7.8587
v  52.5496 -0.0200 -7.4226
v  52.7001 -0.0200 11.4012
# 4 vertices

vn 0.0000 -1.0000 -0.0000
# 1 vertex normals

vt 0.5000 0.0000 0.0000
vt 0.5000 1.0000 0.0000
vt 0.0000 1.0000 0.0000
vt 0.0000 0.0000 0.0000
# 4 texture coords

g world03_hiddenroad_32_alpha
usemtl alpha_gradient
s 1
f 1/1/1 2/2/1 3/3/1 
f 3/3/1 4/4/1 1/1/1 
# 2 faces

