# 3ds Max Wavefront OBJ Exporter v0.94b - (c)2007 guruware
# File Created: 02.12.2010 16:28:41

mtllib world03_road_04_alpha.mtl

#
# object world03_road_04_alpha
#

v  -8.8322 0.0150 -1.4310
v  -63.1647 0.0150 35.2882
v  -106.1530 0.0150 36.1838
v  -61.9706 0.0150 -1.4310
# 4 vertices

vn 0.0000 -1.0000 -0.0000
# 1 vertex normals

vt 0.5000 0.0000 0.0000
vt 1.0000 0.0000 0.0000
vt 1.0000 1.0000 0.0000
vt 0.5000 1.0000 0.0000
# 4 texture coords

g world03_road_04_alpha
usemtl alpha_gradient
s 1
f 1/1/1 2/2/1 3/3/1 
f 3/3/1 4/4/1 1/1/1 
# 2 faces

