# 3ds Max Wavefront OBJ Exporter v0.94b - (c)2007 guruware
# File Created: 03.03.2011 16:47:20

mtllib world03_building08.mtl

#
# object world03_building08
#

v  7.9494 -0.2000 34.7299
v  -31.7896 -0.2000 7.3942
v  -36.2029 -0.2000 -2.4114
v  9.2945 -0.2000 -33.5338
v  49.1239 -0.2000 -9.6216
v  48.5439 -0.2000 15.5083
v  -26.0227 -0.2000 33.3030
# 7 vertices

vn -0.0000 -1.0000 -0.0000
vn 0.0000 -1.0000 -0.0000
# 2 vertex normals

vt 0.7682 0.8414 0.0000
vt 0.6749 0.7772 0.0000
vt 0.6645 0.7542 0.0000
vt 0.7713 0.6811 0.0000
vt 0.8648 0.7373 0.0000
vt 0.8634 0.7962 0.0000
vt 0.6884 0.8380 0.0000
# 7 texture coords

g world03_building08
usemtl world01_map02
s 1
f 1/1/1 2/2/2 3/3/2 
f 3/3/2 4/4/1 1/1/1 
f 5/5/2 6/6/1 1/1/1 
f 1/1/1 4/4/1 5/5/2 
f 1/1/1 7/7/2 2/2/2 
# 5 faces

