# 3ds Max Wavefront OBJ Exporter v0.94b - (c)2007 guruware
# File Created: 02.12.2010 15:49:44

mtllib world03_node06.mtl

#
# object world03_node06
#

v  72.3505 -0.0100 58.2601
v  110.4760 -0.0100 58.2600
v  110.4760 -0.0100 81.1628
v  72.3505 -0.0100 81.1628
# 4 vertices

vn -0.0000 -1.0000 -0.0000
# 1 vertex normals

vt 0.3356 0.0085 0.0000
vt 0.4251 0.0085 0.0000
vt 0.4251 0.0622 0.0000
vt 0.3356 0.0622 0.0000
# 4 texture coords

g world03_node06
usemtl world01_map02
s 1
f 1/1/1 2/2/1 3/3/1 
f 3/3/1 4/4/1 1/1/1 
# 2 faces

