# 3ds Max Wavefront OBJ Exporter v0.94b - (c)2007 guruware
# File Created: 28.06.2011 17:21:57

mtllib world03_hiddenroad_26.mtl

#
# object world03_hiddenroad_26
#

v  -45.4623 -0.0200 -48.4221
v  -94.6372 -0.0200 -36.7934
v  -43.4393 -0.0200 -74.6575
v  -76.7254 -0.0200 -24.5536
v  -27.9451 -0.0200 -61.6832
# 5 vertices

vn 0.0000 -1.0000 -0.0000
# 1 vertex normals

vt 0.3862 0.1460 0.0000
vt 0.2630 0.1897 0.0000
vt 0.3912 0.0475 0.0000
vt 0.3079 0.2357 0.0000
vt 0.4300 0.0962 0.0000
# 5 texture coords

g world03_hiddenroad_26
usemtl world01_map03
s 1
f 1/1/1 2/2/1 3/3/1 
f 1/1/1 4/4/1 2/2/1 
f 1/1/1 3/3/1 5/5/1 
# 3 faces

