# 3ds Max Wavefront OBJ Exporter v0.94b - (c)2007 guruware
# File Created: 01.03.2011 10:39:22

mtllib world03_node09.mtl

#
# object world03_node09
#

v  102.8695 -0.0100 -45.3188
v  147.2815 -0.0100 -45.3187
v  147.2815 -0.0100 -18.6194
v  102.8695 -0.0100 -18.6194
# 4 vertices

vn 0.0000 -1.0000 -0.0000
vn -0.0000 -1.0000 -0.0000
# 2 vertex normals

vt 0.6476 0.0050 0.0000
vt 0.7520 0.0050 0.0000
vt 0.7520 0.0679 0.0000
vt 0.6476 0.0679 0.0000
# 4 texture coords

g world03_node09
usemtl world01_map02
s 1
f 1/1/1 2/2/1 3/3/1 
f 3/3/1 4/4/2 1/1/1 
# 2 faces

