# 3ds Max Wavefront OBJ Exporter v0.94b - (c)2007 guruware
# File Created: 08.12.2010 15:51:38

mtllib world03_building04.mtl

#
# object world03_building04
#

v  -51.5491 0.0000 -44.4005
v  51.5492 0.0000 -44.4005
v  51.5492 -0.0000 44.4005
v  -51.5492 -0.0000 44.4005
# 4 vertices

vn 0.0000 -1.0000 -0.0000
# 1 vertex normals

vt 0.0010 0.6189 0.0000
vt 0.2430 0.6189 0.0000
vt 0.2430 0.8273 0.0000
vt 0.0010 0.8273 0.0000
# 4 texture coords

g world03_building04
usemtl world01_map02
s 1
f 1/1/1 2/2/1 3/3/1 
f 3/3/1 4/4/1 1/1/1 
# 2 faces

