# 3ds Max Wavefront OBJ Exporter v0.94b - (c)2007 guruware
# File Created: 02.12.2010 15:49:51

mtllib world03_node07.mtl

#
# object world03_node07
#

v  110.6288 -0.0100 28.6222
v  149.0304 -0.0100 28.6222
v  149.0305 -0.0100 51.3192
v  110.6288 -0.0100 51.3192
# 4 vertices

vn -0.0000 -1.0000 -0.0000
vn 0.0000 -1.0000 -0.0000
# 2 vertex normals

vt 0.4354 0.0080 0.0000
vt 0.5255 0.0080 0.0000
vt 0.5255 0.0617 0.0000
vt 0.4354 0.0617 0.0000
# 4 texture coords

g world03_node07
usemtl world01_map02
s 1
f 1/1/1 2/2/2 3/3/1 
f 3/3/1 4/4/1 1/1/1 
# 2 faces

