# 3ds Max Wavefront OBJ Exporter v0.94b - (c)2007 guruware
# File Created: 01.03.2011 16:31:44

mtllib world03_node08.mtl

#
# object world03_node08
#

v  38.5195 -0.0100 -11.3959
v  89.5036 -0.0100 -11.3959
v  89.5036 -0.0100 14.9567
v  38.5195 -0.0100 14.9567
# 4 vertices

vn 0.0000 -1.0000 -0.0000
vn -0.0000 -1.0000 -0.0000
# 2 vertex normals

vt 0.5296 0.0885 0.0000
vt 0.6492 0.0886 0.0000
vt 0.6492 0.1506 0.0000
vt 0.5296 0.1504 0.0000
# 4 texture coords

g world03_node08
usemtl world01_map02
s 1
f 1/1/1 2/2/1 3/3/1 
f 3/3/1 4/4/2 1/1/1 
# 2 faces

