# 3ds Max Wavefront OBJ Exporter v0.94b - (c)2007 guruware
# File Created: 09.03.2011 16:04:48

mtllib world03_grass09.mtl

#
# object world03_grass09
#

v  121.4091 0.0050 -21.3852
v  193.0807 0.0050 -14.4668
v  155.6103 0.0050 -2.6605
v  166.5587 0.0050 -48.7459
# 4 vertices

vn 0.0000 -1.0000 -0.0000
# 1 vertex normals

vt 0.2418 0.1475 0.0000
vt 0.4096 0.1632 0.0000
vt 0.3221 0.1915 0.0000
vt 0.3478 0.0833 0.0000
# 4 texture coords

g world03_grass09
usemtl world01_map02
s 1
f 1/1/1 2/2/1 3/3/1 
f 1/1/1 4/4/1 2/2/1 
# 2 faces

