# 3ds Max Wavefront OBJ Exporter v0.94b - (c)2007 guruware
# File Created: 02.12.2010 15:48:49

mtllib world03_node01.mtl

#
# object world03_node01
#

v  -160.6813 -0.0100 -68.1733
v  -116.7828 -0.0100 -68.1733
v  -116.7828 -0.0100 -43.3868
v  -160.6813 -0.0100 -43.3868
# 4 vertices

vn -0.0000 -1.0000 -0.0000
vn 0.0000 -1.0000 -0.0000
# 2 vertex normals

vt 0.6225 0.1671 0.0000
vt 0.7256 0.1671 0.0000
vt 0.7256 0.2252 0.0000
vt 0.6225 0.2252 0.0000
# 4 texture coords

g world03_node01
usemtl world01_map02
s 1
f 1/1/1 2/2/2 3/3/1 
f 3/3/1 4/4/1 1/1/1 
# 2 faces

