# 3ds Max Wavefront OBJ Exporter v0.94b - (c)2007 guruware
# File Created: 02.12.2010 16:28:19

mtllib world03_road_02_alpha.mtl

#
# object world03_road_02_alpha
#

v  -138.6927 0.0150 -42.0311
v  -138.9913 0.0150 -75.4664
v  -77.4192 0.0150 -40.4438
v  -94.4399 0.0150 -18.6132
# 4 vertices

vn 0.0000 -1.0000 -0.0000
# 1 vertex normals

vt 0.5002 1.0000 0.0000
vt 0.5002 0.0000 0.0000
vt 1.0002 0.0000 0.0000
vt 1.0002 1.0000 0.0000
# 4 texture coords

g world03_road_02_alpha
usemtl alpha_gradient
s 1
f 1/1/1 2/2/1 3/3/1 
f 3/3/1 4/4/1 1/1/1 
# 2 faces

