# 3ds Max Wavefront OBJ Exporter v0.94b - (c)2007 guruware
# File Created: 02.12.2010 15:47:52

mtllib world03_road_03b.mtl

#
# object world03_road_03b
#

v  -21.7023 -0.0210 3.4242
v  -47.8600 -0.0210 3.4675
v  -47.8600 -0.0210 -73.3836
v  -21.5530 -0.0210 -73.3831
# 4 vertices

vn 0.0000 -1.0000 -0.0000
# 1 vertex normals

vt 0.3448 0.2938 0.0000
vt 0.2793 0.2939 0.0000
vt 0.2793 0.0053 0.0000
vt 0.3452 0.0053 0.0000
# 4 texture coords

g world03_road_03b
usemtl world01_map03
s 1
f 1/1/1 2/2/1 3/3/1 
f 3/3/1 4/4/1 1/1/1 
# 2 faces

