# 3ds Max Wavefront OBJ Exporter v0.94b - (c)2007 guruware
# File Created: 09.03.2011 15:52:41

mtllib world03_grass03.mtl

#
# object world03_grass03
#

v  -64.7766 -0.1000 27.0053
v  -36.3212 -0.1000 8.8599
v  -34.6115 -0.1000 58.3646
v  -64.7767 -0.1000 42.4144
v  31.8168 -0.1000 21.6523
v  -14.9849 -0.1000 -3.4599
# 6 vertices

vn 0.0000 -1.0000 -0.0000
# 1 vertex normals

vt 0.7611 0.4359 0.0000
vt 0.8279 0.3933 0.0000
vt 0.8319 0.5095 0.0000
vt 0.7611 0.4721 0.0000
vt 0.9878 0.4226 0.0000
vt 0.8780 0.3644 0.0000
# 6 texture coords

g world03_grass03
usemtl world01_map02
s 1
f 1/1/1 2/2/1 3/3/1 
f 3/3/1 4/4/1 1/1/1 
f 2/2/1 5/5/1 3/3/1 
f 2/2/1 6/6/1 5/5/1 
# 4 faces

