# 3ds Max Wavefront OBJ Exporter v0.94b - (c)2007 guruware
# File Created: 04.05.2011 13:21:10

mtllib world03_hiddenroad_33_alpha.mtl

#
# object _world03_hiddenroad_33_alpha
#

v  50.1435 -0.0200 -3.3001
v  49.9942 -0.0200 -69.4209
v  75.6408 -0.0200 -69.4209
v  75.4916 -0.0200 -3.3001
# 4 vertices

vn 0.0000 -1.0000 -0.0000
# 1 vertex normals

vt 0.5000 0.0000 0.0000
vt 1.0000 0.0000 0.0000
vt 1.0000 1.0000 0.0000
vt 0.5000 1.0000 0.0000
# 4 texture coords

g _world03_hiddenroad_33_alpha
usemtl alpha_gradient
s 1
f 1/1/1 2/2/1 3/3/1 
f 3/3/1 4/4/1 1/1/1 
# 2 faces

