# 3ds Max Wavefront OBJ Exporter v0.94b - (c)2007 guruware
# File Created: 09.03.2011 15:51:00

mtllib world03_building05.mtl

#
# object world03_building05
#

v  -43.5410 -0.2000 37.3655
v  -43.5410 -0.2000 -35.6131
v  50.2849 -0.2000 -35.1522
v  49.4822 -0.2000 37.3655
# 4 vertices

vn 0.0000 -1.0000 -0.0000
# 1 vertex normals

vt 0.2433 0.8100 0.0000
vt 0.2433 0.6386 0.0000
vt 0.4636 0.6386 0.0000
vt 0.4617 0.8100 0.0000
# 4 texture coords

g world03_building05
usemtl world01_map02
s 1
f 1/1/1 2/2/1 3/3/1 
f 3/3/1 4/4/1 1/1/1 
# 2 faces

