# 3ds Max Wavefront OBJ Exporter v0.94b - (c)2007 guruware
# File Created: 10.08.2010 11:37:42

mtllib world03_road.mtl

#
# object world03_road
#

v  -170.3369 0.0150 29.3176
v  -181.9796 0.0150 4.8381
v  -172.1281 0.0150 -2.0281
v  -128.8413 0.0150 1.2558
v  -199.6913 0.0150 29.0191
v  -199.6913 0.0150 3.6440
v  127.2975 0.0150 56.4838
v  156.5534 0.0150 83.9486
v  88.1798 0.0150 85.1617
v  88.4899 0.0150 56.2569
v  -164.0678 0.0150 -27.1046
v  -202.0946 0.0150 -23.4010
v  -177.8002 0.0150 -54.2708
v  -153.6193 0.0150 -34.5678
v  -138.6927 0.0150 -42.0311
v  -138.9913 0.0150 -75.4664
v  -61.9706 0.0150 -1.4310
v  -94.4399 0.0150 -18.6132
v  -77.4192 0.0150 -40.4438
v  -8.8322 0.0150 -1.4310
v  -63.1647 0.0150 35.2882
v  -106.1530 0.0150 36.1838
v  -25.8484 0.0150 55.5882
v  -28.5352 0.0150 87.2324
v  130.8798 0.0150 53.7971
v  183.4211 0.0150 53.2000
v  118.0430 0.0150 46.9309
v  136.8504 0.0150 24.8396
v  47.5900 0.0150 2.7484
v  97.7430 0.0150 0.9573
v  199.6913 0.0150 -81.7356
v  199.6913 0.0150 -50.6884
v  191.4814 0.0150 -51.5840
v  183.7197 0.0150 -81.7356
v  136.3418 0.0150 -20.6777
v  119.1922 0.0150 -41.6889
# 36 vertices

vn 0.0000 -1.0000 -0.0000
# 1 vertex normals

vt 0.0735 0.6101 0.0000
vt 0.0443 0.5182 0.0000
vt 0.0690 0.4924 0.0000
vt 0.1774 0.5047 0.0000
vt 0.0000 0.6090 0.0000
vt 0.0000 0.5137 0.0000
vt 0.8187 0.7121 0.0000
vt 0.8920 0.8153 0.0000
vt 0.7208 0.8198 0.0000
vt 0.7216 0.7113 0.0000
vt 0.0892 0.3982 0.0000
vt -0.0061 0.4126 0.0000
vt 0.0548 0.2962 0.0000
vt 0.1154 0.3702 0.0000
vt 0.1527 0.3421 0.0000
vt 0.1520 0.2166 0.0000
vt 0.3448 0.4946 0.0000
vt 0.2635 0.4301 0.0000
vt 0.3062 0.3481 0.0000
vt 0.4779 0.4946 0.0000
vt 0.3418 0.6325 0.0000
vt 0.2342 0.6359 0.0000
vt 0.4353 0.7088 0.0000
vt 0.4286 0.8276 0.0000
vt 0.8277 0.7021 0.0000
vt 0.9593 0.6998 0.0000
vt 0.7956 0.6763 0.0000
vt 0.8427 0.5933 0.0000
vt 0.6192 0.5103 0.0000
vt 0.7447 0.5036 0.0000
vt 1.0000 0.1930 0.0000
vt 1.0000 0.3096 0.0000
vt 0.9794 0.3063 0.0000
vt 0.9600 0.1930 0.0000
vt 0.8414 0.4223 0.0000
vt 0.7984 0.3434 0.0000
# 36 texture coords

g world03_road
usemtl world01_map03
s 1
f 1/1/1 2/2/1 3/3/1 
f 3/3/1 4/4/1 1/1/1 
f 1/1/1 5/5/1 6/6/1 
f 6/6/1 2/2/1 1/1/1 
f 7/7/1 8/8/1 9/9/1 
f 9/9/1 10/10/1 7/7/1 
f 11/11/1 4/4/1 3/3/1 
f 3/3/1 12/12/1 11/11/1 
f 11/11/1 12/12/1 13/13/1 
f 13/13/1 14/14/1 11/11/1 
f 15/15/1 14/14/1 13/13/1 
f 13/13/1 16/16/1 15/15/1 
f 17/17/1 18/18/1 19/19/1 
f 19/19/1 20/20/1 17/17/1 
f 20/20/1 21/21/1 22/22/1 
f 22/22/1 17/17/1 20/20/1 
f 21/21/1 23/23/1 24/24/1 
f 24/24/1 22/22/1 21/21/1 
f 25/25/1 26/26/1 8/8/1 
f 8/8/1 7/7/1 25/25/1 
f 25/25/1 27/27/1 28/28/1 
f 28/28/1 26/26/1 25/25/1 
f 27/27/1 29/29/1 30/30/1 
f 30/30/1 28/28/1 27/27/1 
f 31/31/1 32/32/1 33/33/1 
f 33/33/1 34/34/1 31/31/1 
f 33/33/1 35/35/1 36/36/1 
f 36/36/1 34/34/1 33/33/1 
f 15/15/1 16/16/1 19/19/1 
f 19/19/1 18/18/1 15/15/1 
f 9/9/1 24/24/1 23/23/1 
f 23/23/1 10/10/1 9/9/1 
f 30/30/1 29/29/1 36/36/1 
f 36/36/1 35/35/1 30/30/1 
# 34 faces

