# 3ds Max Wavefront OBJ Exporter v0.94b - (c)2007 guruware
# File Created: 02.12.2010 15:49:01

mtllib world03_node02.mtl

#
# object world03_node02
#

v  -107.9910 -0.0100 -43.7631
v  -64.3028 -0.0100 -43.7631
v  -64.3027 -0.0100 -17.6187
v  -107.9909 -0.0100 -17.6187
# 4 vertices

vn -0.0000 -1.0000 -0.0000
vn 0.0000 -1.0000 -0.0000
# 2 vertex normals

vt 0.4107 0.1294 0.0000
vt 0.5133 0.1294 0.0000
vt 0.5133 0.1908 0.0000
vt 0.4107 0.1908 0.0000
# 4 texture coords

g world03_node02
usemtl world01_map02
s 1
f 1/1/1 2/2/2 3/3/1 
f 3/3/1 4/4/1 1/1/1 
# 2 faces

