# 3ds Max Wavefront OBJ Exporter v0.94b - (c)2007 guruware
# File Created: 01.03.2011 10:19:16

mtllib world03_road_01.mtl

#
# object world03_road_01
#

v  -170.3369 0.0150 29.3176
v  -181.9796 0.0150 4.8381
v  -172.1281 0.0150 -2.0281
v  -128.8413 0.0150 1.2558
v  -164.0678 0.0150 -27.1046
v  -198.7968 0.0150 -28.4964
v  -177.8002 0.0150 -54.2708
v  -153.6193 0.0150 -34.5678
v  -138.6927 0.0150 -42.0311
v  -138.9913 0.0150 -75.4664
v  -197.9672 0.0150 -21.2628
# 11 vertices

vn 0.0000 -1.0000 -0.0000
# 1 vertex normals

vt 0.0735 0.6101 0.0000
vt 0.0443 0.5182 0.0000
vt 0.0690 0.4924 0.0000
vt 0.1774 0.5047 0.0000
vt 0.0892 0.3982 0.0000
vt 0.0022 0.3930 0.0000
vt 0.0548 0.2962 0.0000
vt 0.1154 0.3702 0.0000
vt 0.1527 0.3421 0.0000
vt 0.1520 0.2166 0.0000
vt 0.0043 0.4201 0.0000
# 11 texture coords

g world03_road_01
usemtl world01_map03
s 1
f 1/1/1 2/2/1 3/3/1 
f 3/3/1 4/4/1 1/1/1 
f 5/5/1 6/6/1 7/7/1 
f 7/7/1 8/8/1 5/5/1 
f 9/9/1 8/8/1 7/7/1 
f 7/7/1 10/10/1 9/9/1 
f 5/5/1 11/11/1 6/6/1 
f 5/5/1 4/4/1 3/3/1 
f 3/3/1 11/11/1 5/5/1 
# 9 faces

