# 3ds Max Wavefront OBJ Exporter v0.94b - (c)2007 guruware
# File Created: 01.03.2011 14:37:15

mtllib world03_grass02b.mtl

#
# object world03_grass02b
#

v  -61.1635 0.0050 -138.7570
v  -0.4520 0.0050 -85.7855
v  -32.7557 0.0050 -51.9678
v  -112.7966 0.0050 -84.4967
# 4 vertices

vn 0.0000 -1.0000 -0.0000
# 1 vertex normals

vt 0.1308 0.0623 0.0000
vt 0.2733 0.1867 0.0000
vt 0.1974 0.2660 0.0000
vt 0.0096 0.1897 0.0000
# 4 texture coords

g world03_grass02b
usemtl world01_map02
s 1
f 1/1/1 2/2/1 3/3/1 
f 3/3/1 4/4/1 1/1/1 
# 2 faces

