# 3ds Max Wavefront OBJ Exporter v0.94b - (c)2007 guruware
# File Created: 10.08.2010 11:32:02

mtllib world03_details.mtl

#
# object world03_details
#

v  -23.0498 -0.2692 -133.4752
v  69.6808 -0.2692 -133.4752
v  69.6808 -0.2692 -96.2665
v  -23.0498 -0.2692 -96.2665
v  31.7017 -0.2692 76.2932
v  60.5186 -0.2692 76.2932
v  60.5186 -0.2692 100.7962
v  31.7017 -0.2692 100.7962
v  -81.9810 -0.2692 -8.4826
v  -54.6516 -0.2692 -8.4826
v  -54.6516 -0.2692 15.7356
v  -81.9810 -0.2692 15.7356
v  76.7463 -0.2692 -49.6848
v  105.8543 -0.2692 -49.6848
v  105.8543 -0.2692 -24.4025
v  76.7463 -0.2692 -24.4025
v  -184.4099 -0.2692 71.8909
v  -141.6254 -0.2692 71.8909
v  -141.6254 -0.2692 119.9962
v  -184.4099 -0.2692 119.9962
v  -140.6359 -0.2692 -144.9984
v  -97.8514 -0.2692 -144.9984
v  -97.8514 -0.2692 -96.8930
v  -140.6359 -0.2692 -96.8930
v  78.8602 -0.2692 -113.7855
v  121.6447 -0.2692 -113.7855
v  121.6447 -0.2692 -65.6801
v  78.8602 -0.2692 -65.6801
v  103.0711 -0.2692 -25.3617
v  145.8556 -0.2692 -25.3617
v  145.8556 -0.2692 22.7436
v  103.0711 -0.2692 22.7436
v  132.4006 -0.2692 67.6831
v  175.1851 -0.2692 67.6831
v  175.1851 -0.2692 115.7885
v  132.4006 -0.2692 115.7885
v  128.2046 -0.2692 -75.9306
v  157.0215 -0.2692 -75.9306
v  157.0215 -0.2692 -51.4277
v  128.2046 -0.2692 -51.4277
# 40 vertices

vn 0.0000 -1.0000 -0.0000
# 1 vertex normals

vt 0.2917 0.5530 0.0000
vt 0.5093 0.5530 0.0000
vt 0.5093 0.6403 0.0000
vt 0.2917 0.6403 0.0000
vt 0.4624 0.6443 0.0000
vt 0.5300 0.6443 0.0000
vt 0.5300 0.7018 0.0000
vt 0.4624 0.7018 0.0000
vt 0.5296 0.6446 0.0000
vt 0.5937 0.6446 0.0000
vt 0.5937 0.7014 0.0000
vt 0.5296 0.7014 0.0000
vt 0.5965 0.6429 0.0000
vt 0.6648 0.6429 0.0000
vt 0.6648 0.7022 0.0000
vt 0.5965 0.7022 0.0000
vt 0.8669 0.6657 0.0000
vt 0.9673 0.6657 0.0000
vt 0.9673 0.7786 0.0000
vt 0.8669 0.7786 0.0000
# 20 texture coords

g world03_details
usemtl world01_map02
s 1
f 1/1/1 2/2/1 3/3/1 
f 3/3/1 4/4/1 1/1/1 
f 5/5/1 6/6/1 7/7/1 
f 7/7/1 8/8/1 5/5/1 
f 9/9/1 10/10/1 11/11/1 
f 11/11/1 12/12/1 9/9/1 
f 13/13/1 14/14/1 15/15/1 
f 15/15/1 16/16/1 13/13/1 
f 17/17/1 18/18/1 19/19/1 
f 19/19/1 20/20/1 17/17/1 
f 21/17/1 22/18/1 23/19/1 
f 23/19/1 24/20/1 21/17/1 
f 25/17/1 26/18/1 27/19/1 
f 27/19/1 28/20/1 25/17/1 
f 29/17/1 30/18/1 31/19/1 
f 31/19/1 32/20/1 29/17/1 
f 33/17/1 34/18/1 35/19/1 
f 35/19/1 36/20/1 33/17/1 
f 37/5/1 38/6/1 39/7/1 
f 39/7/1 40/8/1 37/5/1 
# 20 faces

