# 3ds Max Wavefront OBJ Exporter v0.94b - (c)2007 guruware
# File Created: 10.08.2010 13:02:54

mtllib world03_building05_origin.mtl

#
# object world03_building05
#

v  -33.6233 0.0000 -35.6131
v  59.6212 0.0000 -35.6131
v  59.6212 -0.0000 36.3998
v  -33.6233 -0.0000 36.3998
# 4 vertices

vn 0.0000 -1.0000 -0.0000
# 1 vertex normals

vt 0.2433 0.6386 0.0000
vt 0.4622 0.6386 0.0000
vt 0.4622 0.8077 0.0000
vt 0.2433 0.8077 0.0000
# 4 texture coords

g world03_building05
usemtl world01_map02
s 1
f 1/1/1 2/2/1 3/3/1 
f 3/3/1 4/4/1 1/1/1 
# 2 faces

