# 3ds Max Wavefront OBJ Exporter v0.94b - (c)2007 guruware
# File Created: 28.06.2011 17:30:57

mtllib world03_grass11.mtl

#
# object world03_grass11
#

v  13.9604 -0.1000 -62.5158
v  57.6736 -0.1000 -27.3612
v  25.2867 -0.1000 -4.2521
v  -35.2713 -0.1000 -22.3086
# 4 vertices

vn 0.0000 -1.0000 -0.0000
# 1 vertex normals

vt 0.8741 0.5050 0.0000
vt 0.9767 0.5875 0.0000
vt 0.9007 0.6418 0.0000
vt 0.7585 0.5994 0.0000
# 4 texture coords

g world03_grass11
usemtl world01_map02
s 1
f 1/1/1 2/2/1 3/3/1 
f 3/3/1 4/4/1 1/1/1 
# 2 faces

