# 3ds Max Wavefront OBJ Exporter v0.94b - (c)2007 guruware
# File Created: 01.03.2011 11:20:07

mtllib world03_grass01.mtl

#
# object world03_grass01
#

v  -212.5096 0.0050 -108.0514
v  -186.7672 0.0050 -136.0642
v  -177.7167 0.0050 -39.1406
v  -212.5096 0.0050 -48.5774
v  -110.7762 0.0050 -75.3761
# 5 vertices

vn -0.0000 -1.0000 -0.0000
vn 0.0000 -1.0000 -0.0000
# 2 vertex normals

vt 0.0041 0.2932 0.0000
vt 0.0645 0.2274 0.0000
vt 0.0858 0.4549 0.0000
vt 0.0041 0.4328 0.0000
vt 0.2429 0.3699 0.0000
# 5 texture coords

g world03_grass01
usemtl world01_map02
s 1
f 1/1/1 2/2/1 3/3/1 
f 3/3/1 4/4/1 1/1/1 
f 2/2/1 5/5/2 3/3/1 
# 3 faces

