# 3ds Max Wavefront OBJ Exporter v0.94b - (c)2007 guruware
# File Created: 02.12.2010 16:28:50

mtllib world03_road_05_alpha.mtl

#
# object world03_road_05_alpha
#

v  -63.1647 0.0150 35.2882
v  -25.8484 0.0150 55.5882
v  -28.5352 0.0150 87.2324
v  -106.1530 0.0150 36.1838
# 4 vertices

vn 0.0000 -1.0000 -0.0000
# 1 vertex normals

vt 0.5000 0.0000 0.0000
vt 1.0000 0.0000 0.0000
vt 1.0000 1.0000 0.0000
vt 0.5000 1.0000 0.0000
# 4 texture coords

g world03_road_05_alpha
usemtl alpha_gradient
s 1
f 1/1/1 2/2/1 3/3/1 
f 3/3/1 4/4/1 1/1/1 
# 2 faces

