# 3ds Max Wavefront OBJ Exporter v0.94b - (c)2007 guruware
# File Created: 02.12.2010 16:29:08

mtllib world03_road_07_alpha.mtl

#
# object world03_road_07_alpha
#

v  127.2975 0.0150 56.4838
v  156.5534 0.0150 83.9486
v  88.1798 0.0150 85.1617
v  88.4899 0.0150 56.2569
v  130.8798 0.0150 53.7971
v  183.4211 0.0150 53.2000
v  118.0430 0.0150 46.9309
v  136.8504 0.0150 24.8396
# 8 vertices

vn 0.0000 -1.0000 -0.0000
# 1 vertex normals

vt 0.7061 0.0000 0.0000
vt 0.6465 1.0000 0.0000
vt 0.5002 1.0000 0.0000
vt 0.5002 0.0000 0.0000
vt 0.7760 0.0000 0.0000
vt 0.8338 1.0000 0.0000
vt 1.0002 0.0000 0.0000
vt 1.0002 1.0000 0.0000
# 8 texture coords

g world03_road_07_alpha
usemtl alpha_gradient
s 1
f 1/1/1 2/2/1 3/3/1 
f 3/3/1 4/4/1 1/1/1 
f 5/5/1 6/6/1 2/2/1 
f 2/2/1 1/1/1 5/5/1 
f 5/5/1 7/7/1 8/8/1 
f 8/8/1 6/6/1 5/5/1 
# 6 faces

