# 3ds Max Wavefront OBJ Exporter v0.94b - (c)2007 guruware
# File Created: 01.03.2011 10:18:42

mtllib world03_road_05.mtl

#
# object world03_road_05
#

v  -63.1647 0.0150 35.2882
v  -25.8484 0.0150 55.5882
v  -28.5352 0.0150 87.2324
v  -106.1530 0.0150 36.1838
# 4 vertices

vn 0.0000 -1.0000 -0.0000
# 1 vertex normals

vt 0.3418 0.6325 0.0000
vt 0.4353 0.7088 0.0000
vt 0.4286 0.8276 0.0000
vt 0.2342 0.6359 0.0000
# 4 texture coords

g world03_road_05
usemtl world01_map03
s 1
f 1/1/1 2/2/1 3/3/1 
f 3/3/1 4/4/1 1/1/1 
# 2 faces

