# 3ds Max Wavefront OBJ Exporter v0.94b - (c)2007 guruware
# File Created: 10.08.2010 13:01:10

mtllib world03_building03_origin.mtl

#
# object world03_building03
#

v  -38.2994 0.0000 -32.0800
v  38.2993 0.0000 -32.0800
v  38.2993 -0.0000 32.0800
v  -38.2994 -0.0000 32.0800
# 4 vertices

vn 0.0000 -1.0000 -0.0000
# 1 vertex normals

vt 0.6434 0.8483 0.0000
vt 0.8232 0.8483 0.0000
vt 0.8232 0.9989 0.0000
vt 0.6434 0.9989 0.0000
# 4 texture coords

g world03_building03
usemtl world01_map02
s 1
f 1/1/1 2/2/1 3/3/1 
f 3/3/1 4/4/1 1/1/1 
# 2 faces

