# 3ds Max Wavefront OBJ Exporter v0.94b - (c)2007 guruware
# File Created: 08.12.2010 15:51:22

mtllib world03_building02b.mtl

#
# object world03_building02b
#

v  -44.0048 0.0000 -40.7667
v  44.0048 0.0000 -40.7667
v  44.0047 -0.0000 40.7667
v  -44.0048 -0.0000 40.7667
# 4 vertices

vn -0.0000 -1.0000 -0.0000
# 1 vertex normals

vt 0.2530 0.8077 0.0000
vt 0.4596 0.8077 0.0000
vt 0.4596 0.9991 0.0000
vt 0.2530 0.9991 0.0000
# 4 texture coords

g world03_building02b
usemtl world01_map02
s 1
f 1/1/1 2/2/1 3/3/1 
f 3/3/1 4/4/1 1/1/1 
# 2 faces

