# 3ds Max Wavefront OBJ Exporter v0.94b - (c)2007 guruware
# File Created: 10.08.2010 13:01:50

mtllib world03_building02_origin.mtl

#
# object world03_building02
#

v  -39.1234 0.0000 -33.3291
v  39.1234 0.0000 -33.3291
v  39.1233 -0.0000 33.3291
v  -39.1234 -0.0000 33.3291
# 4 vertices

vn -0.0000 -1.0000 -0.0000
# 1 vertex normals

vt 0.4603 0.8426 0.0000
vt 0.6440 0.8426 0.0000
vt 0.6440 0.9991 0.0000
vt 0.4603 0.9991 0.0000
# 4 texture coords

g world03_building02
usemtl world01_map02
s 1
f 1/1/1 2/2/1 3/3/1 
f 3/3/1 4/4/1 1/1/1 
# 2 faces

