# 3ds Max Wavefront OBJ Exporter v0.94b - (c)2007 guruware
# File Created: 01.03.2011 13:52:41

mtllib world03_building07.mtl

#
# object world03_building07
#

v  -36.2753 -0.2000 -7.3837
v  46.8229 -0.2000 -3.1216
v  9.1082 -0.2000 39.3837
v  -36.2754 -0.2000 39.3837
v  4.0388 -0.2000 -34.4859
# 5 vertices

vn 0.0000 -1.0000 -0.0000
# 1 vertex normals

vt 0.0013 0.5101 0.0000
vt 0.1964 0.5201 0.0000
vt 0.1078 0.6198 0.0000
vt 0.0013 0.6198 0.0000
vt 0.0959 0.4464 0.0000
# 5 texture coords

g world03_building07
usemtl world01_map02
s 1
f 1/1/1 2/2/1 3/3/1 
f 3/3/1 4/4/1 1/1/1 
f 1/1/1 5/5/1 2/2/1 
# 3 faces

