# 3ds Max Wavefront OBJ Exporter v0.94b - (c)2007 guruware
# File Created: 10.08.2010 13:03:44

mtllib world03_building07_origin.mtl

#
# object world03_building07
#

v  -33.6269 0.0000 -36.9348
v  33.6270 0.0000 -36.9348
v  33.6269 -0.0000 36.9348
v  -33.6270 -0.0000 36.9348
# 4 vertices

vn 0.0000 -1.0000 -0.0000
# 1 vertex normals

vt 0.0013 0.4464 0.0000
vt 0.1592 0.4464 0.0000
vt 0.1592 0.6198 0.0000
vt 0.0013 0.6198 0.0000
# 4 texture coords

g world03_building07
usemtl world01_map02
s 1
f 1/1/1 2/2/1 3/3/1 
f 3/3/1 4/4/1 1/1/1 
# 2 faces

