# 3ds Max Wavefront OBJ Exporter v0.94b - (c)2007 guruware
# File Created: 08.12.2010 15:52:04

mtllib world03_plane.mtl

#
# object world03_plane
#

v  -28.3660 0.0000 -24.3474
v  28.3660 0.0000 -24.3474
v  28.3660 -0.0000 24.3474
v  -28.3660 -0.0000 24.3474
# 4 vertices

vn 0.0000 -1.0000 -0.0000
# 1 vertex normals

vt 0.1592 0.5065 0.0000
vt 0.2923 0.5065 0.0000
vt 0.2923 0.6208 0.0000
vt 0.1592 0.6208 0.0000
# 4 texture coords

g world03_plane
usemtl world01_map02
s 1
f 1/1/1 2/2/1 3/3/1 
f 3/3/1 4/4/1 1/1/1 
# 2 faces

