# 3ds Max Wavefront OBJ Exporter v0.94b - (c)2007 guruware
# File Created: 28.06.2011 17:21:34

mtllib world03_hiddenroad_26_alpha.mtl

#
# object world03_hiddenroad_26_alpha
#

v  -76.7254 -0.0200 -24.5536
v  -94.6372 -0.0200 -36.7934
v  -45.4623 -0.0200 -48.4221
v  -43.4393 -0.0200 -74.6575
v  -27.9451 -0.0200 -61.6832
# 5 vertices

vn 0.0000 -1.0000 -0.0000
vn -0.0000 -1.0000 -0.0000
# 2 vertex normals

vt 0.5000 1.0000 0.0000
vt 0.5000 0.0000 0.0000
vt 0.8208 1.0000 0.0000
vt 1.0000 0.0000 0.0000
vt 1.0000 1.0000 0.0000
# 5 texture coords

g world03_hiddenroad_26_alpha
usemtl alpha_gradient
s 1
f 1/1/1 2/2/1 3/3/2 
f 4/4/2 5/5/2 3/3/2 
f 2/2/1 4/4/2 3/3/2 
# 3 faces

