# 3ds Max Wavefront OBJ Exporter v0.94b - (c)2007 guruware
# File Created: 30.11.2010 15:31:48

mtllib world01_road_04_alpha.mtl

#
# object world01_road_04
#

v  100.2572 0.0150 -45.3532
v  120.9122 0.0150 -80.2459
v  199.6913 0.0150 -1.5877
v  137.8172 0.0150 -6.8134
# 4 vertices

vn 0.0000 -1.0000 -0.0000
# 1 vertex normals

vt 0.5000 1.0000 0.0000
vt 0.5000 0.0000 0.0000
vt 1.0000 0.0000 0.0000
vt 1.0000 1.0000 0.0000
# 4 texture coords

g world01_road_04
usemtl world01_map02
s 1
f 1/1/1 2/2/1 3/3/1 
f 3/3/1 4/4/1 1/1/1 
# 2 faces

