# 3ds Max Wavefront OBJ Exporter v0.94b - (c)2007 guruware
# File Created: 06.08.2010 17:23:51

mtllib world01_grass05.mtl

#
# object world01_grass05
#

v  80.3330 0.0050 -42.5436
v  156.5776 0.0050 -42.5436
v  156.5776 0.0050 15.1843
v  80.3330 0.0050 15.1843
# 4 vertices

vn 0.0000 -1.0000 -0.0000
# 1 vertex normals

vt 0.7494 0.1186 0.0000
vt 0.9284 0.1186 0.0000
vt 0.9284 0.2541 0.0000
vt 0.7494 0.2541 0.0000
# 4 texture coords

g world01_grass05
usemtl world01_map02
s 1
f 1/1/1 2/2/1 3/3/1 
f 3/3/1 4/4/1 1/1/1 
# 2 faces

