# 3ds Max Wavefront OBJ Exporter v0.94b - (c)2007 guruware
# File Created: 26.11.2010 17:16:39

mtllib world01_road_02.mtl

#
# object world01_road_02
#

v  -33.6372 0.0150 -81.0444
v  -99.2752 0.0150 -91.5576
v  -98.3205 0.0150 -133.1275
v  -20.0493 0.0150 -121.0571
# 4 vertices

vn 0.0000 -1.0000 -0.0000
# 1 vertex normals

vt 0.4158 0.1956 0.0000
vt 0.2514 0.1561 0.0000
vt 0.2538 0.0000 0.0000
vt 0.4498 0.0453 0.0000
# 4 texture coords

g world01_road_02
usemtl world01_map02
s 1
f 1/1/1 2/2/1 3/3/1 
f 3/3/1 4/4/1 1/1/1 
# 2 faces

