# 3ds Max Wavefront OBJ Exporter v0.94b - (c)2007 guruware
# File Created: 03.10.2011 13:31:51

mtllib world01_road_07_alpha.mtl

#
# object world01_road_07_alpha
#

v  -105.5588 0.0150 -36.8264
v  -100.4991 0.0150 -45.7492
v  -50.6357 0.0150 -56.7845
v  -49.3442 0.0150 -17.8007
v  -107.1354 0.0150 -4.0261
v  -150.2512 0.0150 6.2506
v  -116.2795 0.0150 -35.8860
v  -96.9737 0.0150 -6.4482
v  -199.6913 0.0150 -23.7971
v  -126.0741 0.0150 -40.0893
v  -132.3377 0.0150 -44.0487
v  -111.7375 0.0150 -54.6807
v  -146.2508 0.0150 -52.8439
v  -125.7704 0.0150 -65.8330
# 14 vertices

vn 0.0000 -1.0000 -0.0000
# 1 vertex normals

vt 0.6851 0.8013 0.0000
vt 0.6673 1.0000 0.0000
vt 0.5000 1.0000 0.0000
vt 0.5000 0.0000 0.0000
vt 0.7864 0.0000 0.0000
vt 1.0000 0.0000 0.0000
vt 0.7209 0.8378 0.0000
vt 0.7360 0.0000 0.0000
vt 1.0000 1.0000 0.0000
vt 0.7531 1.0000 0.0000
vt 0.8941 0.0000 0.0000
vt 0.8941 1.0000 0.0000
vt 0.8500 1.0000 0.0000
vt 0.8500 0.0000 0.0000
vt 0.9334 0.0000 0.0000
vt 0.9309 1.0000 0.0000
# 16 texture coords

g world01_road_07_alpha
usemtl alpha_gradient
s 1
f 1/1/1 2/2/1 3/3/1 
f 3/3/1 4/4/1 1/1/1 
f 5/5/1 6/6/1 7/7/1 
f 8/8/1 5/5/1 7/7/1 
f 7/7/1 1/1/1 8/8/1 
f 4/4/1 8/8/1 1/1/1 
f 9/9/1 10/10/1 7/7/1 
f 7/7/1 6/6/1 9/9/1 
f 10/11/1 2/12/1 1/13/1 
f 1/13/1 7/14/1 10/11/1 
s off
f 10/11/1 11/15/1 12/16/1 
f 12/16/1 2/12/1 10/11/1 
f 11/15/1 13/6/1 14/9/1 
f 14/9/1 12/16/1 11/15/1 
# 14 faces

