# 3ds Max Wavefront OBJ Exporter v0.94b - (c)2007 guruware
# File Created: 06.08.2010 17:22:58

mtllib world01_worldnext.mtl

#
# object world01_bus
#

v  148.9274 -0.2000 19.5821
v  208.4090 -0.2000 19.5821
v  208.4089 -0.2000 70.9952
v  148.9274 -0.2000 70.9952
# 4 vertices

vn 0.0000 -1.0000 -0.0000
# 1 vertex normals

vt 0.5649 0.6085 0.0000
vt 0.7045 0.6085 0.0000
vt 0.7045 0.7292 0.0000
vt 0.5649 0.7292 0.0000
# 4 texture coords

g world01_bus
usemtl world01_map02
s 1
f 1/1/1 2/2/1 3/3/1 
f 3/3/1 4/4/1 1/1/1 
# 2 faces

