# 3ds Max Wavefront OBJ Exporter v0.94b - (c)2007 guruware
# File Created: 01.12.2010 15:13:17

mtllib world01_road_10.mtl

#
# object world01_road_10
#

v  -56.7785 0.0150 30.6021
v  39.8348 0.0150 -0.9348
v  41.1412 0.0150 35.9722
v  -60.2122 0.0150 84.3360
# 4 vertices

vn 0.0000 -1.0000 -0.0000
# 1 vertex normals

vt 0.3578 0.6149 0.0000
vt 0.5997 0.4965 0.0000
vt 0.6030 0.6351 0.0000
vt 0.3492 0.8167 0.0000
# 4 texture coords

g world01_road_10
usemtl world01_map02
s 1
f 1/1/1 2/2/1 3/3/1 
f 3/3/1 4/4/1 1/1/1 
# 2 faces

