# 3ds Max Wavefront OBJ Exporter v0.94b - (c)2007 guruware
# File Created: 01.12.2010 15:13:04

mtllib world01_road_09_alpha.mtl

#
# object world01_road_09
#

v  -60.2122 0.0150 84.3360
v  -120.9174 0.0150 74.9664
v  -105.8553 0.0150 24.0586
v  -56.7785 0.0150 30.6021
v  -128.2296 0.0150 71.4983
v  -113.4232 0.0150 21.0230
# 6 vertices

vn 0.0000 -1.0000 -0.0000
# 1 vertex normals

vt 1.0000 1.0000 0.0000
vt 0.6220 1.0000 0.0000
vt 0.6220 0.0000 0.0000
vt 1.0000 0.0000 0.0000
vt 0.5000 1.0000 0.0000
vt 0.5000 0.0000 0.0000
# 6 texture coords

g world01_road_09
usemtl world01_map02
s 1
f 1/1/1 2/2/1 3/3/1 
f 3/3/1 4/4/1 1/1/1 
f 3/3/1 2/2/1 5/5/1 
f 5/5/1 6/6/1 3/3/1 
# 4 faces

