# 3ds Max Wavefront OBJ Exporter v0.94b - (c)2007 guruware
# File Created: 06.08.2010 17:23:31

mtllib world01_grass03.mtl

#
# object world01_grass03
#

v  -64.2582 0.0050 -90.9095
v  30.1522 0.0050 -90.9095
v  30.1522 0.0050 -40.6009
v  -64.2582 0.0050 -40.6009
# 4 vertices

vn 0.0000 -1.0000 -0.0000
# 1 vertex normals

vt 0.6638 0.2593 0.0000
vt 0.8854 0.2593 0.0000
vt 0.8854 0.3774 0.0000
vt 0.6638 0.3774 0.0000
# 4 texture coords

g world01_grass03
usemtl world01_map02
s 1
f 1/1/1 2/2/1 3/3/1 
f 3/3/1 4/4/1 1/1/1 
# 2 faces

