# 3ds Max Wavefront OBJ Exporter v0.94b - (c)2007 guruware
# File Created: 06.08.2010 17:26:01

mtllib world01_grass09.mtl

#
# object world01_grass09
#

v  -190.4712 0.0050 36.1525
v  -68.7673 0.0050 36.1525
v  -68.7673 0.0050 107.3371
v  -190.4713 0.0050 107.3371
# 4 vertices

vn 0.0000 -1.0000 -0.0000
# 1 vertex normals

vt 0.1794 0.3100 0.0000
vt 0.4650 0.3100 0.0000
vt 0.4650 0.4771 0.0000
vt 0.1794 0.4771 0.0000
# 4 texture coords

g world01_grass09
usemtl world01_map02
s 1
f 1/1/1 2/2/1 3/3/1 
f 3/3/1 4/4/1 1/1/1 
# 2 faces

