# 3ds Max Wavefront OBJ Exporter v0.94b - (c)2007 guruware
# File Created: 06.08.2010 17:28:56

mtllib world01_node13.mtl

#
# object world01_node13
#

v  142.6396 -0.0100 57.5549
v  186.3963 -0.0100 57.5549
v  186.3963 -0.0100 80.3248
v  142.6396 -0.0100 80.3248
# 4 vertices

vn 0.0000 -1.0000 -0.0000
# 1 vertex normals

vt 0.2303 0.5127 0.0000
vt 0.3330 0.5127 0.0000
vt 0.3330 0.5662 0.0000
vt 0.2303 0.5662 0.0000
# 4 texture coords

g world01_node13
usemtl world01_map02
s 1
f 1/1/1 2/2/1 3/3/1 
f 3/3/1 4/4/1 1/1/1 
# 2 faces

