# 3ds Max Wavefront OBJ Exporter v0.94b - (c)2007 guruware
# File Created: 06.08.2010 17:26:25

mtllib world01_grass12.mtl

#
# object world01_grass12
#

v  60.4347 0.0050 47.7903
v  140.0603 0.0050 47.7903
v  140.0603 0.0050 79.5742
v  60.4347 0.0050 79.5742
# 4 vertices

vn 0.0000 -1.0000 -0.0000
# 1 vertex normals

vt 0.4717 0.2788 0.0000
vt 0.6586 0.2788 0.0000
vt 0.6586 0.3534 0.0000
vt 0.4717 0.3534 0.0000
# 4 texture coords

g world01_grass12
usemtl world01_map02
s 1
f 1/1/1 2/2/1 3/3/1 
f 3/3/1 4/4/1 1/1/1 
# 2 faces

