# 3ds Max Wavefront OBJ Exporter v0.94b - (c)2007 guruware
# File Created: 06.08.2010 17:27:20

mtllib world01_node05.mtl

#
# object world01_node05
#

v  144.1233 -0.0100 -10.2990
v  186.9712 -0.0100 -10.2990
v  186.9712 -0.0100 12.8814
v  144.1233 -0.0100 12.8814
# 4 vertices

vn 0.0000 -1.0000 -0.0000
# 1 vertex normals

vt 0.8148 0.6718 0.0000
vt 0.9154 0.6718 0.0000
vt 0.9154 0.7262 0.0000
vt 0.8148 0.7262 0.0000
# 4 texture coords

g world01_node05
usemtl world01_map02
s 1
f 1/1/1 2/2/1 3/3/1 
f 3/3/1 4/4/1 1/1/1 
# 2 faces

