# 3ds Max Wavefront OBJ Exporter v0.94b - (c)2007 guruware
# File Created: 30.06.2011 15:05:47

mtllib world01_building01.mtl

#
# object world01_building01
#

v  -30.5890 -0.2000 -20.9550
v  30.5889 -0.2000 -20.9550
v  30.5889 -0.2000 20.9550
v  -30.5890 -0.2000 20.9550
# 4 vertices

vn 0.0000 -1.0000 -0.0000
# 1 vertex normals

vt -0.0006 0.5797 0.0000
vt 0.1430 0.5797 0.0000
vt 0.1430 0.6781 0.0000
vt -0.0006 0.6781 0.0000
# 4 texture coords

g world01_building01
usemtl world01_map02
s 1
f 1/1/1 2/2/1 3/3/1 
f 3/3/1 4/4/1 1/1/1 
# 2 faces

