# 3ds Max Wavefront OBJ Exporter v0.94b - (c)2007 guruware
# File Created: 06.08.2010 17:26:53

mtllib world01_node02.mtl

#
# object world01_node02
#

v  -120.7990 -0.0100 -119.5820
v  -77.9511 -0.0100 -119.5820
v  -77.9511 -0.0100 -96.2903
v  -120.7990 -0.0100 -96.2903
# 4 vertices

vn 0.0000 -1.0000 -0.0000
# 1 vertex normals

vt 0.8128 0.8408 0.0000
vt 0.9133 0.8408 0.0000
vt 0.9133 0.8955 0.0000
vt 0.8128 0.8955 0.0000
# 4 texture coords

g world01_node02
usemtl world01_map02
s 1
f 1/1/1 2/2/1 3/3/1 
f 3/3/1 4/4/1 1/1/1 
# 2 faces

