# 3ds Max Wavefront OBJ Exporter v0.94b - (c)2007 guruware
# File Created: 06.08.2010 17:29:25

mtllib world01_node09.mtl

#
# object world01_node09
#

v  -168.3606 -0.0100 44.5869
v  -125.8563 -0.0100 44.5869
v  -125.8563 -0.0100 67.5360
v  -168.3605 -0.0100 67.5360
# 4 vertices

vn 0.0000 -1.0000 -0.0000
# 1 vertex normals

vt 0.8780 0.4488 0.0000
vt 0.9778 0.4488 0.0000
vt 0.9777 0.5027 0.0000
vt 0.8780 0.5027 0.0000
# 4 texture coords

g world01_node09
usemtl world01_map02
s 1
f 1/1/1 2/2/1 3/3/1 
f 3/3/1 4/4/1 1/1/1 
# 2 faces

