# 3ds Max Wavefront OBJ Exporter v0.94b - (c)2007 guruware
# File Created: 10.08.2010 10:53:15

mtllib world01_building08.mtl

#
# object world01_building08
#

v  -30.2847 0.0000 -26.9272
v  30.2846 0.0000 -26.9272
v  30.2846 -0.0000 26.9272
v  -30.2847 -0.0000 26.9272
# 4 vertices

vn 0.0000 -1.0000 -0.0000
# 1 vertex normals

vt -0.0006 0.6791 0.0000
vt 0.1415 0.6791 0.0000
vt 0.1415 0.8055 0.0000
vt -0.0006 0.8055 0.0000
# 4 texture coords

g world01_building08
usemtl world01_map02
s 1
f 1/1/1 2/2/1 3/3/1 
f 3/3/1 4/4/1 1/1/1 
# 2 faces

