# 3ds Max Wavefront OBJ Exporter v0.94b - (c)2007 guruware
# File Created: 10.08.2010 10:52:33

mtllib world01_building06.mtl

#
# object world01_building06
#

v  -39.1314 0.0000 -30.1133
v  39.1314 0.0000 -30.1133
v  39.1314 -0.0000 30.1132
v  -39.1314 -0.0000 30.1132
# 4 vertices

vn 0.0000 -1.0000 -0.0000
# 1 vertex normals

vt 0.6239 0.8586 0.0000
vt 0.8076 0.8586 0.0000
vt 0.8076 1.0000 0.0000
vt 0.6239 1.0000 0.0000
# 4 texture coords

g world01_building06
usemtl world01_map02
s 1
f 1/1/1 2/2/1 3/3/1 
f 3/3/1 4/4/1 1/1/1 
# 2 faces

