# 3ds Max Wavefront OBJ Exporter v0.94b - (c)2007 guruware
# File Created: 28.09.2011 11:26:37

mtllib world01_secret_sign.mtl

#
# object world01_secret_sign
#

v  -10.7504 -0.0275 -13.2745
v  10.7504 -0.0275 -13.2745
v  10.7504 -0.0275 13.2745
v  -10.7504 -0.0275 13.2745
# 4 vertices

vn 0.0000 -1.0000 -0.0000
# 1 vertex normals

vt 0.4746 0.0067 0.0000
vt 0.5251 0.0067 0.0000
vt 0.5251 0.0691 0.0000
vt 0.4746 0.0691 0.0000
# 4 texture coords

g world01_secret_sign
usemtl world01_map02
s 1
f 1/1/1 2/2/1 3/3/1 
f 3/3/1 4/4/1 1/1/1 
# 2 faces

