# 3ds Max Wavefront OBJ Exporter v0.94b - (c)2007 guruware
# File Created: 06.08.2010 17:27:06

mtllib world01_node03.mtl

#
# object world01_node03
#

v  -49.0222 -0.0100 -110.6167
v  -6.1743 -0.0100 -110.6167
v  -6.1743 -0.0100 -87.3250
v  -49.0222 -0.0100 -87.3250
# 4 vertices

vn 0.0000 -1.0000 -0.0000
# 1 vertex normals

vt 0.8128 0.7822 0.0000
vt 0.9133 0.7822 0.0000
vt 0.9133 0.8369 0.0000
vt 0.8128 0.8369 0.0000
# 4 texture coords

g world01_node03
usemtl world01_map02
s 1
f 1/1/1 2/2/1 3/3/1 
f 3/3/1 4/4/1 1/1/1 
# 2 faces

