# 3ds Max Wavefront OBJ Exporter v0.94b - (c)2007 guruware
# File Created: 06.08.2010 17:26:17

mtllib world01_grass11.mtl

#
# object world01_grass11
#

v  -6.5353 0.0050 22.8537
v  91.5120 0.0050 22.8537
v  91.5120 0.0050 67.7184
v  -6.5353 0.0050 67.7184
# 4 vertices

vn 0.0000 -1.0000 -0.0000
# 1 vertex normals

vt 0.0035 0.0989 0.0000
vt 0.2336 0.0989 0.0000
vt 0.2336 0.2042 0.0000
vt 0.0035 0.2042 0.0000
# 4 texture coords

g world01_grass11
usemtl world01_map02
s 1
f 1/1/1 2/2/1 3/3/1 
f 3/3/1 4/4/1 1/1/1 
# 2 faces

