# 3ds Max Wavefront OBJ Exporter v0.94b - (c)2007 guruware
# File Created: 27.09.2011 13:27:58

mtllib world01_grass07.mtl

#
# object world01_grass07
#

v  -14.5370 0.0050 -26.6690
v  24.9685 0.0050 -15.1965
v  24.9685 0.0050 24.1753
v  -86.5159 0.0050 24.1753
v  -86.5159 0.0050 -26.6690
# 5 vertices

vn 0.0000 -1.0000 -0.0000
# 1 vertex normals

vt 0.6953 0.4828 0.0000
vt 0.7881 0.5097 0.0000
vt 0.7881 0.6021 0.0000
vt 0.5264 0.6022 0.0000
vt 0.5264 0.4828 0.0000
# 5 texture coords

g world01_grass07
usemtl world01_map02
s 1
f 1/1/1 2/2/1 3/3/1 
f 3/3/1 4/4/1 1/1/1 
f 4/4/1 5/5/1 1/1/1 
# 3 faces

