# 3ds Max Wavefront OBJ Exporter v0.94b - (c)2007 guruware
# File Created: 19.09.2011 16:13:41

mtllib world01_background_details.mtl

#
# object world01_background_details
#

v  -94.8037 -0.0200 112.0469
v  -53.6701 -0.0200 112.0469
v  -53.6700 -0.0200 158.4373
v  -94.8036 -0.0200 158.4373
v  3.8892 -0.0200 -134.0165
v  99.5384 -0.0200 -134.0165
v  99.5385 -0.0200 -93.5397
v  3.8892 -0.0200 -93.5397
v  -193.4597 -0.0200 -65.8776
v  -152.3261 -0.0200 -65.8776
v  -152.3260 -0.0200 -19.4872
v  -193.4596 -0.0200 -19.4872
v  -187.6405 -0.0200 22.7063
v  -165.6823 -0.0200 22.7063
v  -165.6821 -0.0200 43.2335
v  -187.6405 -0.0200 43.2335
v  70.0711 -0.0200 34.7381
v  82.3200 -0.0200 34.7381
v  82.3201 -0.0200 48.1157
v  70.0711 -0.0200 48.1157
v  177.6543 -0.0200 -37.9836
v  196.8824 -0.0200 -37.9836
v  196.8824 -0.0200 -24.8100
v  177.6543 -0.0200 -24.8100
v  63.9712 -0.0200 98.2941
v  88.1598 -0.0200 98.2941
v  88.1599 -0.0200 111.6811
v  63.9712 -0.0200 111.6811
v  -2.7583 -0.0200 84.0083
v  38.3753 -0.0200 84.0083
v  38.3754 -0.0200 130.3987
v  -2.7582 -0.0200 130.3987
v  182.0407 -0.0200 81.0272
v  244.5908 -0.0200 81.0272
v  244.5909 -0.0200 149.0611
v  182.0408 -0.0200 149.0611
v  87.6413 -0.0200 -120.9418
v  129.6081 -0.0200 -120.9418
v  129.6082 -0.0200 -74.5515
v  87.6413 -0.0200 -74.5515
v  -164.3126 -0.0200 -61.4379
v  -142.3544 -0.0200 -61.4379
v  -142.3542 -0.0200 -40.9508
v  -164.3126 -0.0200 -40.9508
v  -82.7624 -0.0200 12.1119
v  -69.7730 -0.0200 12.1119
v  -69.7729 -0.0200 25.4895
v  -82.7624 -0.0200 25.4895
v  -81.1963 -0.0200 -65.3772
v  -68.2059 -0.0200 -65.3772
v  -68.2058 -0.0200 -51.9996
v  -81.1963 -0.0200 -51.9996
v  -0.9002 -0.0200 -49.1808
v  11.3487 -0.0200 -49.1808
v  11.3488 -0.0200 -36.3890
v  -0.9002 -0.0200 -36.3890
v  -23.5882 -0.0200 21.3006
v  -4.3602 -0.0200 21.3006
v  -4.3601 -0.0200 34.4742
v  -23.5882 -0.0200 34.4742
v  184.1359 -0.0200 91.1817
v  188.8660 -0.0200 91.1817
v  188.8662 -0.0200 95.6806
v  184.1359 -0.0200 95.6806
v  177.4964 -0.0200 114.0602
v  182.2265 -0.0200 114.0602
v  182.2267 -0.0200 118.5591
v  177.4964 -0.0200 118.5591
v  184.0871 -0.0200 99.2620
v  188.8172 -0.0200 99.2620
v  188.8174 -0.0200 103.7608
v  184.0871 -0.0200 103.7608
v  194.4247 -0.0200 67.9301
v  199.1548 -0.0200 67.9301
v  199.1550 -0.0200 72.4289
v  194.4247 -0.0200 72.4289
v  202.1361 -0.0200 64.7377
v  206.8663 -0.0200 64.7377
v  206.8664 -0.0200 69.2366
v  202.1362 -0.0200 69.2366
v  200.8228 -0.0200 70.6372
v  205.5529 -0.0200 70.6372
v  205.5531 -0.0200 75.1360
v  200.8228 -0.0200 75.1360
v  175.0167 -0.0200 91.3408
v  179.7468 -0.0200 91.3408
v  179.7470 -0.0200 95.8397
v  175.0167 -0.0200 95.8397
v  149.6662 -0.0200 77.8923
v  186.3502 -0.0200 77.8923
v  186.3503 -0.0200 118.5485
v  149.6662 -0.0200 118.5485
v  195.3398 -0.0200 54.0507
v  232.0238 -0.0200 54.0507
v  232.0239 -0.0200 94.7068
v  195.3398 -0.0200 94.7068
v  173.1647 -0.0200 29.0376
v  209.8487 -0.0200 29.0376
v  209.8488 -0.0200 69.6938
v  173.1647 -0.0200 69.6938
# 100 vertices

vn 0.0000 -1.0000 -0.0000
vn -0.0000 -1.0000 -0.0000
# 2 vertex normals

vt 0.4598 0.6360 0.0000
vt 0.5576 0.6359 0.0000
vt 0.5577 0.7451 0.0000
vt 0.4598 0.7453 0.0000
vt 0.0015 0.0014 0.0000
vt 0.2266 0.0014 0.0000
vt 0.2266 0.0967 0.0000
vt 0.0015 0.0968 0.0000
vt 0.8076 0.9516 0.0000
vt 0.8582 0.9516 0.0000
vt 0.8582 0.9989 0.0000
vt 0.8076 0.9989 0.0000
vt 0.8589 0.9683 0.0000
vt 0.8880 0.9683 0.0000
vt 0.8880 0.9989 0.0000
vt 0.8589 0.9989 0.0000
vt 0.7594 0.8200 0.0000
vt 0.8034 0.8200 0.0000
vt 0.8034 0.8503 0.0000
vt 0.7594 0.8503 0.0000
vt 0.1497 0.7669 0.0000
vt 0.2075 0.7669 0.0000
vt 0.2075 0.7982 0.0000
vt 0.1497 0.7982 0.0000
vt 0.0183 0.2259 0.0000
vt 0.1640 0.2257 0.0000
vt 0.1642 0.3860 0.0000
vt 0.0184 0.3862 0.0000
vt 0.3398 0.5196 0.0000
vt 0.3511 0.5196 0.0000
vt 0.3511 0.5301 0.0000
vt 0.3398 0.5301 0.0000
vt 0.4061 0.4675 0.0000
vt 0.4933 0.4674 0.0000
vt 0.4934 0.5631 0.0000
vt 0.4062 0.5633 0.0000
# 36 texture coords

g world01_background_details
usemtl world01_map02
s 1
f 1/1/1 2/2/1 3/3/1 
f 3/3/1 4/4/1 1/1/1 
f 5/5/1 6/6/1 7/7/1 
f 7/7/1 8/8/1 5/5/1 
f 9/1/1 10/2/1 11/3/1 
f 11/3/1 12/4/1 9/1/1 
f 13/9/1 14/10/1 15/11/1 
f 15/11/1 16/12/1 13/9/1 
f 17/13/1 18/14/1 19/15/1 
f 19/15/1 20/16/1 17/13/1 
f 21/17/1 22/18/1 23/19/1 
f 23/19/1 24/20/1 21/17/1 
f 25/21/1 26/22/1 27/23/1 
f 27/23/1 28/24/1 25/21/1 
f 29/1/1 30/2/1 31/3/1 
f 31/3/1 32/4/1 29/1/1 
f 33/25/2 34/26/2 35/27/2 
f 35/27/2 36/28/1 33/25/2 
f 37/1/2 38/2/2 39/3/2 
f 39/3/2 40/4/2 37/1/2 
f 41/9/1 42/10/1 43/11/1 
f 43/11/1 44/12/1 41/9/1 
f 45/13/2 46/14/2 47/15/2 
f 47/15/2 48/16/2 45/13/2 
f 49/13/2 50/14/1 51/15/2 
f 51/15/2 52/16/2 49/13/2 
f 53/13/1 54/14/1 55/15/1 
f 55/15/1 56/16/1 53/13/1 
f 57/17/1 58/18/1 59/19/1 
f 59/19/1 60/20/1 57/17/1 
f 61/29/1 62/30/2 63/31/1 
f 63/31/1 64/32/1 61/29/1 
f 65/29/1 66/30/2 67/31/1 
f 67/31/1 68/32/1 65/29/1 
f 69/29/1 70/30/2 71/31/2 
f 71/31/2 72/32/1 69/29/1 
f 73/29/2 74/30/2 75/31/2 
f 75/31/2 76/32/1 73/29/2 
f 77/29/2 78/30/2 79/31/2 
f 79/31/2 80/32/1 77/29/2 
f 81/29/2 82/30/2 83/31/2 
f 83/31/2 84/32/1 81/29/2 
f 85/29/2 86/30/2 87/31/2 
f 87/31/2 88/32/1 85/29/2 
f 89/33/1 90/34/1 91/35/1 
f 91/35/1 92/36/1 89/33/1 
f 93/33/1 94/34/1 95/35/1 
f 95/35/1 96/36/1 93/33/1 
f 97/33/1 98/34/1 99/35/1 
f 99/35/1 100/36/1 97/33/1 
# 50 faces

