# 3ds Max Wavefront OBJ Exporter v0.94b - (c)2007 guruware
# File Created: 24.02.2011 17:12:32

mtllib world01_road_08.mtl

#
# object world01_road_08
#

v  -150.2512 0.0150 6.2506
v  -199.6913 0.0150 37.6047
v  -199.6913 0.0150 -23.7971
v  -148.3493 0.0150 61.9557
v  -125.2024 0.0150 16.2981
# 5 vertices

vn 0.0000 -1.0000 -0.0000
# 1 vertex normals

vt 0.1238 0.5235 0.0000
vt 0.0000 0.6412 0.0000
vt 0.0000 0.4106 0.0000
vt 0.1286 0.7327 0.0000
vt 0.1865 0.5612 0.0000
# 5 texture coords

g world01_road_08
usemtl world01_map02
s 1
f 1/1/1 2/2/1 3/3/1 
f 4/4/1 2/2/1 1/1/1 
f 1/1/1 5/5/1 4/4/1 
# 3 faces

