# 3ds Max Wavefront OBJ Exporter v0.94b - (c)2007 guruware
# File Created: 06.08.2010 17:26:08

mtllib world01_grass10.mtl

#
# object world01_grass10
#

v  -73.3107 0.0050 53.6744
v  20.4390 0.0050 53.6744
v  20.4390 0.0050 97.3998
v  -73.3108 0.0050 97.3998
# 4 vertices

vn 0.0000 -1.0000 -0.0000
# 1 vertex normals

vt 0.1787 0.2063 0.0000
vt 0.3988 0.2063 0.0000
vt 0.3988 0.3089 0.0000
vt 0.1787 0.3089 0.0000
# 4 texture coords

g world01_grass10
usemtl world01_map02
s 1
f 1/1/1 2/2/1 3/3/1 
f 3/3/1 4/4/1 1/1/1 
# 2 faces

