# 3ds Max Wavefront OBJ Exporter v0.94b - (c)2007 guruware
# File Created: 06.08.2010 17:25:53

mtllib world01_grass08.mtl

#
# object world01_grass08
#

v  -166.5417 0.0050 -21.2834
v  -82.6191 0.0050 -21.2834
v  -82.6191 0.0050 30.9048
v  -166.5417 0.0050 30.9048
# 4 vertices

vn 0.0000 -1.0000 -0.0000
# 1 vertex normals

vt 0.4659 0.3545 0.0000
vt 0.6629 0.3545 0.0000
vt 0.6629 0.4771 0.0000
vt 0.4659 0.4771 0.0000
# 4 texture coords

g world01_grass08
usemtl world01_map02
s 1
f 1/1/1 2/2/1 3/3/1 
f 3/3/1 4/4/1 1/1/1 
# 2 faces

