# 3ds Max Wavefront OBJ Exporter v0.94b - (c)2007 guruware
# File Created: 24.02.2011 17:12:41

mtllib world01_road_09.mtl

#
# object world01_road_09
#

v  -60.2122 0.0150 84.3360
v  -111.2838 0.0150 66.9104
v  -105.8553 0.0150 24.0586
v  -56.7785 0.0150 30.6021
v  -128.2296 0.0150 71.4983
v  -113.4232 0.0150 21.0230
v  -148.3493 0.0150 61.9557
v  -125.2024 0.0150 16.2981
# 8 vertices

vn 0.0000 -1.0000 -0.0000
vn -0.0000 -1.0000 -0.0000
# 2 vertex normals

vt 0.3492 0.8167 0.0000
vt 0.2268 0.7529 0.0000
vt 0.2350 0.5904 0.0000
vt 0.3578 0.6149 0.0000
vt 0.1789 0.7685 0.0000
vt 0.2160 0.5790 0.0000
vt 0.1286 0.7327 0.0000
vt 0.1865 0.5612 0.0000
# 8 texture coords

g world01_road_09
usemtl world01_map02
s 1
f 1/1/1 2/2/2 3/3/2 
f 3/3/2 4/4/1 1/1/1 
f 3/3/2 2/2/2 5/5/2 
f 5/5/2 6/6/1 3/3/2 
f 7/7/1 8/8/1 6/6/1 
f 6/6/1 5/5/2 7/7/1 
# 6 faces

