# 3ds Max Wavefront OBJ Exporter v0.94b - (c)2007 guruware
# File Created: 06.08.2010 17:27:13

mtllib world01_node04.mtl

#
# object world01_node04
#

v  88.2402 -0.0100 -73.0895
v  131.0881 -0.0100 -73.0895
v  131.0881 -0.0100 -49.7977
v  88.2402 -0.0100 -49.7977
# 4 vertices

vn 0.0000 -1.0000 -0.0000
# 1 vertex normals

vt 0.8128 0.7268 0.0000
vt 0.9133 0.7268 0.0000
vt 0.9133 0.7814 0.0000
vt 0.8128 0.7814 0.0000
# 4 texture coords

g world01_node04
usemtl world01_map02
s 1
f 1/1/1 2/2/1 3/3/1 
f 3/3/1 4/4/1 1/1/1 
# 2 faces

