# 3ds Max Wavefront OBJ Exporter v0.94b - (c)2007 guruware
# File Created: 01.12.2010 15:13:55

mtllib world01_road_11_alpha.mtl

#
# object world01_road_11
#

v  39.8348 0.0150 -0.9348
v  112.3127 0.0150 33.7164
v  109.2434 0.0150 71.2195
v  41.1412 0.0150 35.9722
# 4 vertices

vn 0.0000 -1.0000 -0.0000
# 1 vertex normals

vt 0.5000 0.0000 0.0000
vt 1.0000 0.0000 0.0000
vt 1.0000 1.0000 0.0000
vt 0.5000 1.0000 0.0000
# 4 texture coords

g world01_road_11
usemtl world01_map02
s 1
f 1/1/1 2/2/1 3/3/1 
f 3/3/1 4/4/1 1/1/1 
# 2 faces

