# 3ds Max Wavefront OBJ Exporter v0.94b - (c)2007 guruware
# File Created: 15.12.2010 14:56:43

mtllib world01_road_12_alpha.mtl

#
# object world01_road_12_alpha
#

v  112.3127 0.0150 33.7164
v  162.1378 0.0150 57.5374
v  160.8206 0.0150 97.4587
v  109.2434 0.0150 71.2195
v  199.6913 0.0150 75.4915
v  199.6913 0.0150 115.0114
# 6 vertices

vn 0.0000 -1.0000 -0.0000
# 1 vertex normals

vt 0.5002 0.0000 0.0000
vt 0.7502 0.0000 0.0000
vt 0.7502 1.0000 0.0000
vt 0.5002 1.0000 0.0000
vt 1.0002 0.0000 0.0000
vt 1.0002 1.0000 0.0000
# 6 texture coords

g world01_road_12_alpha
usemtl alpha_gradient
s 1
f 1/1/1 2/2/1 3/3/1 
f 3/3/1 4/4/1 1/1/1 
f 5/5/1 6/6/1 3/3/1 
f 3/3/1 2/2/1 5/5/1 
# 4 faces

