# 3ds Max Wavefront OBJ Exporter v0.94b - (c)2007 guruware
# File Created: 27.09.2011 13:53:42

mtllib world01_hroad2.mtl

#
# object world01_hroad2
#

v  -116.9046 0.0150 -54.1904
v  -109.3013 0.0150 -50.3221
v  -127.6106 0.0150 -41.5638
v  -130.8652 0.0150 -43.5425
v  -100.5149 0.0150 -33.3610
v  -119.8234 0.0150 -32.5323
# 6 vertices

vn 0.0000 -1.0000 -0.0000
# 1 vertex normals

vt 0.1686 0.8747 0.0000
vt 0.1877 0.8892 0.0000
vt 0.1418 0.9221 0.0000
vt 0.1337 0.9147 0.0000
vt 0.2097 0.9529 0.0000
vt 0.1613 0.9560 0.0000
# 6 texture coords

g world01_hroad2
usemtl world01_map02
s 1
f 1/1/1 2/2/1 3/3/1 
f 3/3/1 4/4/1 1/1/1 
f 2/2/1 5/5/1 6/6/1 
f 6/6/1 3/3/1 2/2/1 
# 4 faces

