# 3ds Max Wavefront OBJ Exporter v0.94b - (c)2007 guruware
# File Created: 28.06.2011 13:47:13

mtllib world01_building12.mtl

#
# object world01_building12
#

v  -23.5611 -0.2000 -17.3248
v  36.2994 -0.2000 -17.3248
v  36.2994 -0.2000 50.6227
v  -23.5611 -0.2000 50.6227
# 4 vertices

vn -0.0000 -1.0000 -0.0000
# 1 vertex normals

vt 0.0234 0.4056 0.0000
vt 0.1639 0.4059 0.0000
vt 0.1638 0.5639 0.0000
vt 0.0233 0.5641 0.0000
# 4 texture coords

g world01_building12
usemtl world01_map02
s 1
f 1/1/1 2/2/1 3/3/1 
f 3/3/1 4/4/1 1/1/1 
# 2 faces

