# 3ds Max Wavefront OBJ Exporter v0.94b - (c)2007 guruware
# File Created: 10.08.2010 10:51:09

mtllib world01_building02.mtl

#
# object world01_building02
#

v  -30.2323 0.0000 -23.4790
v  30.2323 0.0000 -23.4790
v  30.2323 -0.0000 23.4790
v  -30.2323 -0.0000 23.4790
# 4 vertices

vn 0.0000 -1.0000 -0.0000
# 1 vertex normals

vt 0.4059 0.7455 0.0000
vt 0.5479 0.7455 0.0000
vt 0.5479 0.8557 0.0000
vt 0.4059 0.8557 0.0000
# 4 texture coords

g world01_building02
usemtl world01_map02
s 1
f 1/1/1 2/2/1 3/3/1 
f 3/3/1 4/4/1 1/1/1 
# 2 faces

