# 3ds Max Wavefront OBJ Exporter v0.94b - (c)2007 guruware
# File Created: 10.08.2010 10:51:58

mtllib world01_building04.mtl

#
# object world01_building04
#

v  -32.3099 0.0000 -26.4616
v  32.3099 0.0000 -26.4616
v  32.3099 -0.0000 26.4616
v  -32.3099 -0.0000 26.4616
# 4 vertices

vn 0.0000 -1.0000 -0.0000
# 1 vertex normals

vt 0.6050 0.7318 0.0000
vt 0.7567 0.7318 0.0000
vt 0.7567 0.8561 0.0000
vt 0.6050 0.8561 0.0000
# 4 texture coords

g world01_building04
usemtl world01_map02
s 1
f 1/1/1 2/2/1 3/3/1 
f 3/3/1 4/4/1 1/1/1 
# 2 faces

