# 3ds Max Wavefront OBJ Exporter v0.94b - (c)2007 guruware
# File Created: 06.08.2010 17:27:27

mtllib world01_node06.mtl

#
# object world01_node06
#

v  22.8340 -0.0100 -27.3171
v  65.5006 -0.0100 -27.3171
v  65.5006 -0.0100 -4.0253
v  22.8340 -0.0100 -4.0253
# 4 vertices

vn 0.0000 -1.0000 -0.0000
# 1 vertex normals

vt 0.8134 0.6184 0.0000
vt 0.9136 0.6184 0.0000
vt 0.9136 0.6730 0.0000
vt 0.8134 0.6730 0.0000
# 4 texture coords

g world01_node06
usemtl world01_map02
s 1
f 1/1/1 2/2/1 3/3/1 
f 3/3/1 4/4/1 1/1/1 
# 2 faces

