# 3ds Max Wavefront OBJ Exporter v0.94b - (c)2007 guruware
# File Created: 03.10.2011 13:31:31

mtllib world01_road_07.mtl

#
# object world01_road_07
#

v  -199.6913 0.0150 -23.7971
v  -126.0741 0.0150 -40.0893
v  -116.2795 0.0150 -35.8860
v  -150.2512 0.0150 6.2506
v  -107.1355 0.0150 -4.0261
v  -105.5589 0.0150 -36.8264
v  -96.9736 0.0150 -6.4482
v  -100.4991 0.0150 -45.7493
v  -50.6357 0.0150 -56.7845
v  -49.3442 0.0150 -17.8007
v  -132.3377 0.0150 -44.0487
v  -111.7375 0.0150 -54.6807
v  -146.2508 0.0150 -52.8439
v  -125.7704 0.0150 -65.8330
# 14 vertices

vn 0.0000 -1.0000 -0.0000
# 1 vertex normals

vt 0.0000 0.4106 0.0000
vt 0.1843 0.3494 0.0000
vt 0.2089 0.3652 0.0000
vt 0.1238 0.5235 0.0000
vt 0.2317 0.4849 0.0000
vt 0.2357 0.3617 0.0000
vt 0.2572 0.4758 0.0000
vt 0.2484 0.3282 0.0000
vt 0.3732 0.2867 0.0000
vt 0.3764 0.4331 0.0000
vt 0.1686 0.3346 0.0000
vt 0.2202 0.2946 0.0000
vt 0.1338 0.3015 0.0000
vt 0.1851 0.2527 0.0000
# 14 texture coords

g world01_road_07
usemtl world01_map02
s 1
f 1/1/1 2/2/1 3/3/1 
f 4/4/1 1/1/1 3/3/1 
f 5/5/1 4/4/1 3/3/1 
f 6/6/1 7/7/1 5/5/1 
f 5/5/1 3/3/1 6/6/1 
f 8/8/1 9/9/1 10/10/1 
f 8/8/1 10/10/1 7/7/1 
f 6/6/1 8/8/1 7/7/1 
f 2/2/1 8/8/1 6/6/1 
f 6/6/1 3/3/1 2/2/1 
s off
f 2/2/1 11/11/1 12/12/1 
f 12/12/1 8/8/1 2/2/1 
f 11/11/1 13/13/1 14/14/1 
f 14/14/1 12/12/1 11/11/1 
# 14 faces

