# 3ds Max Wavefront OBJ Exporter v0.94b - (c)2007 guruware
# File Created: 06.08.2010 17:23:24

mtllib world01_grass02.mtl

#
# object world01_grass02
#

v  -137.3579 0.0050 -100.0794
v  -50.4778 0.0050 -100.0794
v  -50.4778 0.0050 -58.0349
v  -137.3580 0.0050 -58.0349
# 4 vertices

vn 0.0000 -1.0000 -0.0000
# 1 vertex normals

vt 0.6638 0.3784 0.0000
vt 0.8677 0.3784 0.0000
vt 0.8677 0.4771 0.0000
vt 0.6638 0.4771 0.0000
# 4 texture coords

g world01_grass02
usemtl world01_map02
s 1
f 1/1/1 2/2/1 3/3/1 
f 3/3/1 4/4/1 1/1/1 
# 2 faces

