# 3ds Max Wavefront OBJ Exporter v0.94b - (c)2007 guruware
# File Created: 30.06.2011 15:08:12

mtllib world01_grass01.mtl

#
# object world01_grass01
#

v  -216.0158 0.0050 -105.7319
v  -123.8276 0.0050 -105.7319
v  -123.8276 0.0050 -58.7538
v  -216.0158 0.0050 -58.7538
# 4 vertices

vn 0.0000 -1.0000 -0.0000
# 1 vertex normals

vt 0.7827 0.0018 0.0000
vt 0.9991 0.0018 0.0000
vt 0.9991 0.1121 0.0000
vt 0.7827 0.1121 0.0000
# 4 texture coords

g world01_grass01
usemtl world01_map02
s 1
f 1/1/1 2/2/1 3/3/1 
f 3/3/1 4/4/1 1/1/1 
# 2 faces

