# 3ds Max Wavefront OBJ Exporter v0.94b - (c)2007 guruware
# File Created: 10.08.2010 10:53:50

mtllib world01_building10.mtl

#
# object world01_building10
#

v  -34.9100 0.0000 -33.8181
v  34.9100 0.0000 -33.8181
v  34.9100 -0.0000 33.8180
v  -34.9100 -0.0000 33.8180
# 4 vertices

vn 0.0000 -1.0000 -0.0000
# 1 vertex normals

vt 0.2337 0.8412 0.0000
vt 0.3975 0.8412 0.0000
vt 0.3975 1.0000 0.0000
vt 0.2337 1.0000 0.0000
# 4 texture coords

g world01_building10
usemtl world01_map02
s 1
f 1/1/1 2/2/1 3/3/1 
f 3/3/1 4/4/1 1/1/1 
# 2 faces

