# 3ds Max Wavefront OBJ Exporter v0.94b - (c)2007 guruware
# File Created: 27.09.2011 13:28:34

mtllib world01_grass06.mtl

#
# object world01_grass06
#

v  7.5312 0.0050 -78.7374
v  118.0085 0.0050 -78.7374
v  118.0085 0.0050 -16.8769
v  7.5312 0.0050 -16.8769
# 4 vertices

vn 0.0000 -1.0000 -0.0000
# 1 vertex normals

vt 0.4858 0.1091 0.0000
vt 0.7451 0.1091 0.0000
vt 0.7451 0.2543 0.0000
vt 0.4858 0.2543 0.0000
# 4 texture coords

g world01_grass06
usemtl world01_map02
s 1
f 1/1/1 2/2/1 3/3/1 
f 3/3/1 4/4/1 1/1/1 
# 2 faces

