# 3ds Max Wavefront OBJ Exporter v0.94b - (c)2007 guruware
# File Created: 10.08.2010 10:52:54

mtllib world01_building07.mtl

#
# object world01_building07
#

v  -48.0939 0.0000 -30.5133
v  48.0939 0.0000 -30.5133
v  48.0939 -0.0000 30.5133
v  -48.0939 -0.0000 30.5133
# 4 vertices

vn 0.0000 -1.0000 -0.0000
# 1 vertex normals

vt 0.3979 0.8567 0.0000
vt 0.6237 0.8567 0.0000
vt 0.6237 1.0000 0.0000
vt 0.3979 1.0000 0.0000
# 4 texture coords

g world01_building07
usemtl world01_map02
s 1
f 1/1/1 2/2/1 3/3/1 
f 3/3/1 4/4/1 1/1/1 
# 2 faces

