# 3ds Max Wavefront OBJ Exporter v0.94b - (c)2007 guruware
# File Created: 10.08.2010 10:54:59

mtllib world01_bus.mtl

#
# object world01_bus
#

v  -29.7408 0.0000 -25.7065
v  29.7408 0.0000 -25.7065
v  29.7407 -0.0000 25.7066
v  -29.7408 -0.0000 25.7066
# 4 vertices

vn 0.0000 -1.0000 -0.0000
# 1 vertex normals

vt 0.5649 0.6085 0.0000
vt 0.7045 0.6085 0.0000
vt 0.7045 0.7292 0.0000
vt 0.5649 0.7292 0.0000
# 4 texture coords

g world01_bus
usemtl world01_map02
s 1
f 1/1/1 2/2/1 3/3/1 
f 3/3/1 4/4/1 1/1/1 
# 2 faces

