# 3ds Max Wavefront OBJ Exporter v0.94b - (c)2007 guruware
# File Created: 06.08.2010 17:26:46

mtllib world01_node01.mtl

#
# object world01_node01
#

v  -194.0720 -0.0100 -125.4837
v  -150.3152 -0.0100 -125.4837
v  -150.3152 -0.0100 -102.7137
v  -194.0720 -0.0100 -102.7137
# 4 vertices

vn 0.0000 -1.0000 -0.0000
# 1 vertex normals

vt 0.8099 0.8973 0.0000
vt 0.9126 0.8973 0.0000
vt 0.9126 0.9507 0.0000
vt 0.8099 0.9507 0.0000
# 4 texture coords

g world01_node01
usemtl world01_map02
s 1
f 1/1/1 2/2/1 3/3/1 
f 3/3/1 4/4/1 1/1/1 
# 2 faces

