# 3ds Max Wavefront OBJ Exporter v0.94b - (c)2007 guruware
# File Created: 30.11.2010 15:31:28

mtllib world01_road_03_alpha.mtl

#
# object world01_road_03
#

v  100.2572 0.0150 -45.3532
v  -33.6372 0.0150 -81.0444
v  -20.0493 0.0150 -121.0571
v  120.9122 0.0150 -80.2459
# 4 vertices

vn 0.0000 -1.0000 -0.0000
# 1 vertex normals

vt 1.0000 1.0000 0.0000
vt 0.5000 1.0000 0.0000
vt 0.5000 0.0000 0.0000
vt 1.0000 0.0000 0.0000
# 4 texture coords

g world01_road_03
usemtl world01_map02
s 1
f 1/1/1 2/2/1 3/3/1 
f 3/3/1 4/4/1 1/1/1 
# 2 faces

