# 3ds Max Wavefront OBJ Exporter v0.94b - (c)2007 guruware
# File Created: 10.08.2010 10:51:36

mtllib world01_building03.mtl

#
# object world01_building03
#

v  -31.0658 0.0000 -25.2228
v  31.0658 0.0000 -25.2228
v  31.0658 -0.0000 25.2228
v  -31.0658 -0.0000 25.2228
# 4 vertices

vn 0.0000 -1.0000 -0.0000
# 1 vertex normals

vt 0.3138 0.5793 0.0000
vt 0.4596 0.5793 0.0000
vt 0.4596 0.6977 0.0000
vt 0.3138 0.6977 0.0000
# 4 texture coords

g world01_building03
usemtl world01_map02
s 1
f 1/1/1 2/2/1 3/3/1 
f 3/3/1 4/4/1 1/1/1 
# 2 faces

