# 3ds Max Wavefront OBJ Exporter v0.94b - (c)2007 guruware
# File Created: 26.11.2010 17:17:06

mtllib world01_road_05.mtl

#
# object world01_road_05
#

v  140.6649 0.0150 42.3548
v  38.1509 0.0150 -9.4980
v  45.1143 0.0150 -40.7767
v  137.8172 0.0150 -6.8134
v  199.6913 0.0150 -1.5877
# 5 vertices

vn 0.0000 -1.0000 -0.0000
# 1 vertex normals

vt 0.8522 0.6591 0.0000
vt 0.5955 0.4643 0.0000
vt 0.6130 0.3469 0.0000
vt 0.8451 0.4744 0.0000
vt 1.0000 0.4940 0.0000
# 5 texture coords

g world01_road_05
usemtl world01_map02
s 1
f 1/1/1 2/2/1 3/3/1 
f 3/3/1 4/4/1 1/1/1 
f 4/4/1 5/5/1 1/1/1 
# 3 faces

