# 3ds Max Wavefront OBJ Exporter v0.94b - (c)2007 guruware
# File Created: 30.11.2010 16:39:37

mtllib world01_hroad.mtl

#
# object world01_hroad
#

v  31.3387 0.0150 -17.4063
v  54.5091 0.0150 -17.4063
v  54.5091 0.0150 13.9417
v  31.3387 0.0150 13.9417
# 4 vertices

vn 0.0000 -1.0000 -0.0000
# 1 vertex normals

vt 0.0396 0.8488 0.0000
vt 0.0976 0.8488 0.0000
vt 0.0976 0.9666 0.0000
vt 0.0396 0.9666 0.0000
# 4 texture coords

g world01_hroad
usemtl world01_map02
s 1
f 1/1/1 2/2/1 3/3/1 
f 3/3/1 4/4/1 1/1/1 
# 2 faces

